%TF.GenerationSoftware,KiCad,Pcbnew,8.0.9-8.0.9-0~ubuntu22.04.1*%
%TF.CreationDate,2026-07-12T14:31:57-07:00*%
%TF.ProjectId,Arduino_SMS_Cart_Programmer,41726475-696e-46f5-9f53-4d535f436172,rev?*%
%TF.SameCoordinates,Original*%
%TF.FileFunction,Copper,L2,Bot*%
%TF.FilePolarity,Positive*%
%FSLAX46Y46*%
G04 Gerber Fmt 4.6, Leading zero omitted, Abs format (unit mm)*
G04 Created by KiCad (PCBNEW 8.0.9-8.0.9-0~ubuntu22.04.1) date 2026-07-12 14:31:57*
%MOMM*%
%LPD*%
G01*
G04 APERTURE LIST*
%TA.AperFunction,ComponentPad*%
%ADD10R,1.600000X1.600000*%
%TD*%
%TA.AperFunction,ComponentPad*%
%ADD11O,1.600000X1.600000*%
%TD*%
%TA.AperFunction,ComponentPad*%
%ADD12C,1.600000*%
%TD*%
%TA.AperFunction,ComponentPad*%
%ADD13C,1.600200*%
%TD*%
%TA.AperFunction,ComponentPad*%
%ADD14C,1.400000*%
%TD*%
%TA.AperFunction,ComponentPad*%
%ADD15O,1.400000X1.400000*%
%TD*%
%TA.AperFunction,ViaPad*%
%ADD16C,0.600000*%
%TD*%
%TA.AperFunction,Conductor*%
%ADD17C,0.200000*%
%TD*%
G04 APERTURE END LIST*
D10*
%TO.P,U1,1,QB*%
%TO.N,A1*%
X134700000Y-103500000D03*
D11*
%TO.P,U1,2,QC*%
%TO.N,A2*%
X134700000Y-106040000D03*
%TO.P,U1,3,QD*%
%TO.N,A3*%
X134700000Y-108580000D03*
%TO.P,U1,4,QE*%
%TO.N,A4*%
X134700000Y-111120000D03*
%TO.P,U1,5,QF*%
%TO.N,A5*%
X134700000Y-113660000D03*
%TO.P,U1,6,QG*%
%TO.N,A6*%
X134700000Y-116200000D03*
%TO.P,U1,7,QH*%
%TO.N,A7*%
X134700000Y-118740000D03*
%TO.P,U1,8,GND*%
%TO.N,GND*%
X134700000Y-121280000D03*
%TO.P,U1,9,QH'*%
%TO.N,Net-(U1-QH')*%
X142320000Y-121280000D03*
%TO.P,U1,10,~{SRCLR}*%
%TO.N,VCC*%
X142320000Y-118740000D03*
%TO.P,U1,11,SRCLK*%
%TO.N,SCK*%
X142320000Y-116200000D03*
%TO.P,U1,12,RCLK*%
%TO.N,RCLK*%
X142320000Y-113660000D03*
%TO.P,U1,13,~{OE}*%
%TO.N,GND*%
X142320000Y-111120000D03*
%TO.P,U1,14,SER*%
%TO.N,MOSI*%
X142320000Y-108580000D03*
%TO.P,U1,15,QA*%
%TO.N,A0*%
X142320000Y-106040000D03*
%TO.P,U1,16,VCC*%
%TO.N,VCC*%
X142320000Y-103500000D03*
%TD*%
D12*
%TO.P,C3,1*%
%TO.N,VCC*%
X146820000Y-103500000D03*
%TO.P,C3,2*%
%TO.N,GND*%
X146820000Y-108500000D03*
%TD*%
D13*
%TO.P,J1,1,Pin_1*%
%TO.N,VCC*%
X119000000Y-68000000D03*
%TO.P,J1,2,Pin_2*%
%TO.N,{slash}WR*%
X123851400Y-68000000D03*
%TO.P,J1,3,Pin_3*%
%TO.N,unconnected-(J1-Pin_3-Pad3)*%
X119000000Y-70540000D03*
%TO.P,J1,4,Pin_4*%
%TO.N,{slash}RD*%
X123851400Y-70540000D03*
%TO.P,J1,5,Pin_5*%
%TO.N,unconnected-(J1-Pin_5-Pad5)*%
X119000000Y-73080000D03*
%TO.P,J1,6,Pin_6*%
%TO.N,A14*%
X123851400Y-73080000D03*
%TO.P,J1,7,Pin_7*%
%TO.N,A13*%
X119000000Y-75620000D03*
%TO.P,J1,8,Pin_8*%
%TO.N,A8*%
X123851400Y-75620000D03*
%TO.P,J1,9,Pin_9*%
%TO.N,A9*%
X119000000Y-78160000D03*
%TO.P,J1,10,Pin_10*%
%TO.N,A11*%
X123851400Y-78160000D03*
%TO.P,J1,11,Pin_11*%
%TO.N,unconnected-(J1-Pin_11-Pad11)*%
X119000000Y-80700000D03*
%TO.P,J1,12,Pin_12*%
%TO.N,A10*%
X123851400Y-80700000D03*
%TO.P,J1,13,Pin_13*%
%TO.N,{slash}CE*%
X119000000Y-83240000D03*
%TO.P,J1,14,Pin_14*%
%TO.N,D7*%
X123851400Y-83240000D03*
%TO.P,J1,15,Pin_15*%
%TO.N,D6*%
X119000000Y-85780000D03*
%TO.P,J1,16,Pin_16*%
%TO.N,D5*%
X123851400Y-85780000D03*
%TO.P,J1,17,Pin_17*%
%TO.N,D4*%
X119000000Y-88320000D03*
%TO.P,J1,18,Pin_18*%
%TO.N,D3*%
X123851400Y-88320000D03*
%TO.P,J1,19,Pin_19*%
%TO.N,GND*%
X119000000Y-90860000D03*
%TO.P,J1,20,Pin_20*%
X123851400Y-90860000D03*
%TO.P,J1,21,Pin_21*%
X119000000Y-93400000D03*
%TO.P,J1,22,Pin_22*%
%TO.N,D2*%
X123851400Y-93400000D03*
%TO.P,J1,23,Pin_23*%
%TO.N,D1*%
X119000000Y-95940000D03*
%TO.P,J1,24,Pin_24*%
%TO.N,D0*%
X123851400Y-95940000D03*
%TO.P,J1,25,Pin_25*%
%TO.N,A0*%
X119000000Y-98480000D03*
%TO.P,J1,26,Pin_26*%
%TO.N,A1*%
X123851400Y-98480000D03*
%TO.P,J1,27,Pin_27*%
%TO.N,A2*%
X119000000Y-101020000D03*
%TO.P,J1,28,Pin_28*%
%TO.N,A3*%
X123851400Y-101020000D03*
%TO.P,J1,29,Pin_29*%
%TO.N,A4*%
X119000000Y-103560000D03*
%TO.P,J1,30,Pin_30*%
%TO.N,A5*%
X123851400Y-103560000D03*
%TO.P,J1,31,Pin_31*%
%TO.N,A6*%
X119000000Y-106100000D03*
%TO.P,J1,32,Pin_32*%
%TO.N,A7*%
X123851400Y-106100000D03*
%TO.P,J1,33,Pin_33*%
%TO.N,A12*%
X119000000Y-108640000D03*
%TO.P,J1,34,Pin_34*%
%TO.N,unconnected-(J1-Pin_34-Pad34)*%
X123851400Y-108640000D03*
%TO.P,J1,35,Pin_35*%
%TO.N,VCC*%
X119000000Y-111180000D03*
%TO.P,J1,36,Pin_36*%
%TO.N,A15*%
X123851400Y-111180000D03*
%TO.P,J1,37,Pin_37*%
%TO.N,unconnected-(J1-Pin_37-Pad37)*%
X119000000Y-113720000D03*
%TO.P,J1,38,Pin_38*%
%TO.N,unconnected-(J1-Pin_38-Pad38)*%
X123851400Y-113720000D03*
%TO.P,J1,39,Pin_39*%
%TO.N,unconnected-(J1-Pin_39-Pad39)*%
X119000000Y-116260000D03*
%TO.P,J1,40,Pin_40*%
%TO.N,unconnected-(J1-Pin_40-Pad40)*%
X123851400Y-116260000D03*
%TO.P,J1,41,Pin_41*%
%TO.N,unconnected-(J1-Pin_41-Pad41)*%
X119000000Y-118800000D03*
%TO.P,J1,42,Pin_42*%
%TO.N,unconnected-(J1-Pin_42-Pad42)*%
X123851400Y-118800000D03*
%TO.P,J1,43,Pin_43*%
%TO.N,unconnected-(J1-Pin_43-Pad43)*%
X119000000Y-121340000D03*
%TO.P,J1,44,Pin_44*%
%TO.N,unconnected-(J1-Pin_44-Pad44)*%
X123851400Y-121340000D03*
%TO.P,J1,45,Pin_45*%
%TO.N,unconnected-(J1-Pin_45-Pad45)*%
X119000000Y-123880000D03*
%TO.P,J1,46,Pin_46*%
%TO.N,{slash}RST*%
X123851400Y-123880000D03*
%TO.P,J1,47,Pin_47*%
%TO.N,unconnected-(J1-Pin_47-Pad47)*%
X119000000Y-126420000D03*
%TO.P,J1,48,Pin_48*%
%TO.N,unconnected-(J1-Pin_48-Pad48)*%
X123851400Y-126420000D03*
%TO.P,J1,49,Pin_49*%
%TO.N,unconnected-(J1-Pin_49-Pad49)*%
X119000000Y-128960000D03*
%TO.P,J1,50,Pin_50*%
%TO.N,unconnected-(J1-Pin_50-Pad50)*%
X123851400Y-128960000D03*
%TD*%
D12*
%TO.P,C2,1*%
%TO.N,VCC*%
X146500000Y-70500000D03*
%TO.P,C2,2*%
%TO.N,GND*%
X146500000Y-75500000D03*
%TD*%
D14*
%TO.P,R1,1*%
%TO.N,RCLK*%
X147000000Y-121280000D03*
D15*
%TO.P,R1,2*%
%TO.N,GND*%
X147000000Y-113660000D03*
%TD*%
D10*
%TO.P,A1,1,D1/TX*%
%TO.N,unconnected-(A1-D1{slash}TX-Pad1)*%
X152390000Y-85720000D03*
D11*
%TO.P,A1,2,D0/RX*%
%TO.N,unconnected-(A1-D0{slash}RX-Pad2)*%
X152390000Y-88260000D03*
%TO.P,A1,3,~{RESET}*%
%TO.N,unconnected-(A1-~{RESET}-Pad3)*%
X152390000Y-90800000D03*
%TO.P,A1,4,GND*%
%TO.N,unconnected-(A1-GND-Pad4)*%
X152390000Y-93340000D03*
%TO.P,A1,5,D2*%
%TO.N,D2*%
X152390000Y-95880000D03*
%TO.P,A1,6,D3*%
%TO.N,D3*%
X152390000Y-98420000D03*
%TO.P,A1,7,D4*%
%TO.N,D4*%
X152390000Y-100960000D03*
%TO.P,A1,8,D5*%
%TO.N,D5*%
X152390000Y-103500000D03*
%TO.P,A1,9,D6*%
%TO.N,D6*%
X152390000Y-106040000D03*
%TO.P,A1,10,D7*%
%TO.N,D7*%
X152390000Y-108580000D03*
%TO.P,A1,11,D8*%
%TO.N,D0*%
X152390000Y-111120000D03*
%TO.P,A1,12,D9*%
%TO.N,D1*%
X152390000Y-113660000D03*
%TO.P,A1,13,D10*%
%TO.N,unconnected-(A1-D10-Pad13)*%
X152390000Y-116200000D03*
%TO.P,A1,14,D11*%
%TO.N,MOSI*%
X152390000Y-118740000D03*
%TO.P,A1,15,D12*%
%TO.N,unconnected-(A1-D12-Pad15)*%
X152390000Y-121280000D03*
%TO.P,A1,16,D13*%
%TO.N,SCK*%
X167630000Y-121280000D03*
%TO.P,A1,17,3V3*%
%TO.N,unconnected-(A1-3V3-Pad17)*%
X167630000Y-118740000D03*
%TO.P,A1,18,AREF*%
%TO.N,unconnected-(A1-AREF-Pad18)*%
X167630000Y-116200000D03*
%TO.P,A1,19,A0*%
%TO.N,RCLK*%
X167630000Y-113660000D03*
%TO.P,A1,20,A1*%
%TO.N,{slash}CE*%
X167630000Y-111120000D03*
%TO.P,A1,21,A2*%
%TO.N,{slash}RD*%
X167630000Y-108580000D03*
%TO.P,A1,22,A3*%
%TO.N,{slash}WR*%
X167630000Y-106040000D03*
%TO.P,A1,23,A4*%
%TO.N,{slash}RST*%
X167630000Y-103500000D03*
%TO.P,A1,24,A5*%
%TO.N,unconnected-(A1-A5-Pad24)*%
X167630000Y-100960000D03*
%TO.P,A1,25,A6*%
%TO.N,unconnected-(A1-A6-Pad25)*%
X167630000Y-98420000D03*
%TO.P,A1,26,A7*%
%TO.N,unconnected-(A1-A7-Pad26)*%
X167630000Y-95880000D03*
%TO.P,A1,27,+5V*%
%TO.N,VCC*%
X167630000Y-93340000D03*
%TO.P,A1,28,~{RESET}*%
%TO.N,unconnected-(A1-~{RESET}-Pad28)*%
X167630000Y-90800000D03*
%TO.P,A1,29,GND*%
%TO.N,GND*%
X167630000Y-88260000D03*
%TO.P,A1,30,VIN*%
%TO.N,unconnected-(A1-VIN-Pad30)*%
X167630000Y-85720000D03*
%TD*%
D10*
%TO.P,U2,1,QB*%
%TO.N,A9*%
X134500000Y-70480000D03*
D11*
%TO.P,U2,2,QC*%
%TO.N,A10*%
X134500000Y-73020000D03*
%TO.P,U2,3,QD*%
%TO.N,A11*%
X134500000Y-75560000D03*
%TO.P,U2,4,QE*%
%TO.N,A12*%
X134500000Y-78100000D03*
%TO.P,U2,5,QF*%
%TO.N,A13*%
X134500000Y-80640000D03*
%TO.P,U2,6,QG*%
%TO.N,A14*%
X134500000Y-83180000D03*
%TO.P,U2,7,QH*%
%TO.N,A15*%
X134500000Y-85720000D03*
%TO.P,U2,8,GND*%
%TO.N,GND*%
X134500000Y-88260000D03*
%TO.P,U2,9,QH'*%
%TO.N,unconnected-(U2-QH'-Pad9)*%
X142120000Y-88260000D03*
%TO.P,U2,10,~{SRCLR}*%
%TO.N,VCC*%
X142120000Y-85720000D03*
%TO.P,U2,11,SRCLK*%
%TO.N,SCK*%
X142120000Y-83180000D03*
%TO.P,U2,12,RCLK*%
%TO.N,RCLK*%
X142120000Y-80640000D03*
%TO.P,U2,13,~{OE}*%
%TO.N,GND*%
X142120000Y-78100000D03*
%TO.P,U2,14,SER*%
%TO.N,Net-(U1-QH')*%
X142120000Y-75560000D03*
%TO.P,U2,15,QA*%
%TO.N,A8*%
X142120000Y-73020000D03*
%TO.P,U2,16,VCC*%
%TO.N,VCC*%
X142120000Y-70480000D03*
%TD*%
D10*
%TO.P,C1,1*%
%TO.N,VCC*%
X163630000Y-74500000D03*
D12*
%TO.P,C1,2*%
%TO.N,GND*%
X165630000Y-74500000D03*
%TD*%
D16*
%TO.N,SCK*%
X144566600Y-117744600D03*
X144770500Y-83192600D03*
%TO.N,{slash}RST*%
X166324800Y-121431800D03*
%TO.N,{slash}WR*%
X161434300Y-73507500D03*
%TO.N,A10*%
X130915100Y-79856700D03*
%TO.N,A3*%
X126797800Y-102925000D03*
%TO.N,D7*%
X149921800Y-82765000D03*
%TO.N,D5*%
X149921800Y-85499200D03*
%TO.N,A12*%
X121398100Y-76698000D03*
%TO.N,{slash}CE*%
X161483800Y-88565000D03*
%TO.N,{slash}RD*%
X129688300Y-95292500D03*
%TO.N,D6*%
X146914400Y-92382500D03*
X147298600Y-105697700D03*
%TD*%
D17*
%TO.N,MOSI*%
X151288300Y-116426300D02*
X151288300Y-116674400D01*
X142320000Y-108580000D02*
X143442000Y-108580000D01*
X152252200Y-117638300D02*
X152390000Y-117638300D01*
X152390000Y-118740000D02*
X152390000Y-117638300D01*
X143442000Y-108580000D02*
X151288300Y-116426300D01*
X151288300Y-116674400D02*
X152252200Y-117638300D01*
%TO.N,SCK*%
X142120000Y-83180000D02*
X143221700Y-83180000D01*
X144123700Y-117343000D02*
X144123700Y-117301700D01*
X142320000Y-116200000D02*
X142320000Y-117301700D01*
X144123700Y-117744600D02*
X144566600Y-117744600D01*
X142320000Y-117301700D02*
X142548300Y-117301700D01*
X143234300Y-83192600D02*
X143221700Y-83180000D01*
X142589600Y-117301700D02*
X144123700Y-117301700D01*
X144566600Y-120266700D02*
X144566600Y-117744600D01*
X144770500Y-83192600D02*
X143234300Y-83192600D01*
X146706500Y-122406600D02*
X144566600Y-120266700D01*
X167151100Y-120801100D02*
X154896100Y-120801100D01*
X154896100Y-120801100D02*
X153290600Y-122406600D01*
X142548300Y-117301700D02*
X142589600Y-117301700D01*
X144123700Y-117744600D02*
X144123700Y-117343000D01*
X153290600Y-122406600D02*
X146706500Y-122406600D01*
%TO.N,RCLK*%
X167630000Y-113660000D02*
X166528300Y-113660000D01*
X147000000Y-119858900D02*
X147000000Y-121280000D01*
X166528300Y-113660000D02*
X160329400Y-119858900D01*
X142320000Y-114761700D02*
X142457700Y-114761700D01*
X147000000Y-119304000D02*
X147000000Y-119858900D01*
X142320000Y-113660000D02*
X142320000Y-114761700D01*
X160329400Y-119858900D02*
X147000000Y-119858900D01*
X142457700Y-114761700D02*
X147000000Y-119304000D01*
%TO.N,{slash}RST*%
X166324800Y-121431800D02*
X163876600Y-123880000D01*
X163876600Y-123880000D02*
X123851400Y-123880000D01*
%TO.N,VCC*%
X139827700Y-69289400D02*
X141018300Y-70480000D01*
X142120000Y-70480000D02*
X143221700Y-70480000D01*
X163630000Y-74500000D02*
X150500000Y-74500000D01*
X119000000Y-68000000D02*
X120289400Y-69289400D01*
X122810000Y-114990000D02*
X124951700Y-114990000D01*
X150500000Y-74500000D02*
X146500000Y-70500000D01*
X146500000Y-70500000D02*
X143241700Y-70500000D01*
X142120000Y-70480000D02*
X141018300Y-70480000D01*
X143241700Y-70500000D02*
X143221700Y-70480000D01*
X127373100Y-117411400D02*
X139889700Y-117411400D01*
X119000000Y-111180000D02*
X122810000Y-114990000D01*
X120289400Y-69289400D02*
X139827700Y-69289400D01*
X139889700Y-117411400D02*
X141218300Y-118740000D01*
X124951700Y-114990000D02*
X127373100Y-117411400D01*
X142320000Y-103500000D02*
X146820000Y-103500000D01*
X142320000Y-118740000D02*
X141218300Y-118740000D01*
%TO.N,{slash}WR*%
X123851400Y-68000000D02*
X155926800Y-68000000D01*
X155926800Y-68000000D02*
X161434300Y-73507500D01*
%TO.N,A2*%
X119000000Y-101020000D02*
X120270000Y-102290000D01*
X129848300Y-102290000D02*
X133598300Y-106040000D01*
X134700000Y-106040000D02*
X133598300Y-106040000D01*
X120270000Y-102290000D02*
X129848300Y-102290000D01*
%TO.N,A13*%
X124595500Y-81851200D02*
X125122800Y-81323900D01*
X134500000Y-80640000D02*
X133398300Y-80640000D01*
X132714400Y-81323900D02*
X133398300Y-80640000D01*
X122213000Y-78833000D02*
X122213000Y-80650900D01*
X119000000Y-75620000D02*
X122213000Y-78833000D01*
X125122800Y-81323900D02*
X132714400Y-81323900D01*
X122213000Y-80650900D02*
X123413300Y-81851200D01*
X123413300Y-81851200D02*
X124595500Y-81851200D01*
%TO.N,D2*%
X152390000Y-95880000D02*
X151288300Y-95880000D01*
X123851400Y-93400000D02*
X148808300Y-93400000D01*
X148808300Y-93400000D02*
X151288300Y-95880000D01*
%TO.N,A10*%
X130915100Y-79856700D02*
X130071800Y-80700000D01*
X130071800Y-80700000D02*
X123851400Y-80700000D01*
%TO.N,A0*%
X142320000Y-106040000D02*
X141218300Y-106040000D01*
X120104800Y-97375200D02*
X132553500Y-97375200D01*
X132553500Y-97375200D02*
X141218300Y-106040000D01*
X119000000Y-98480000D02*
X120104800Y-97375200D01*
%TO.N,D3*%
X151144000Y-94610000D02*
X148282600Y-91748600D01*
X152618300Y-97318300D02*
X153505300Y-96431300D01*
X153505300Y-95378700D02*
X152736600Y-94610000D01*
X152390000Y-98420000D02*
X152390000Y-97318300D01*
X148282600Y-91748600D02*
X127280000Y-91748600D01*
X153505300Y-96431300D02*
X153505300Y-95378700D01*
X127280000Y-91748600D02*
X123851400Y-88320000D01*
X152390000Y-97318300D02*
X152618300Y-97318300D01*
X152736600Y-94610000D02*
X151144000Y-94610000D01*
%TO.N,A5*%
X134928300Y-112558300D02*
X134700000Y-112558300D01*
X135046600Y-109850000D02*
X135815300Y-110618700D01*
X135815300Y-110618700D02*
X135815300Y-111671300D01*
X135815300Y-111671300D02*
X134928300Y-112558300D01*
X134700000Y-113660000D02*
X134700000Y-112558300D01*
X123851400Y-103560000D02*
X127880000Y-103560000D01*
X127880000Y-103560000D02*
X134170000Y-109850000D01*
X134170000Y-109850000D02*
X135046600Y-109850000D01*
%TO.N,A11*%
X133398300Y-75560000D02*
X130798300Y-78160000D01*
X130798300Y-78160000D02*
X123851400Y-78160000D01*
X134500000Y-75560000D02*
X133398300Y-75560000D01*
%TO.N,A3*%
X126797800Y-102925000D02*
X127943300Y-102925000D01*
X127943300Y-102925000D02*
X133598300Y-108580000D01*
X134700000Y-108580000D02*
X133598300Y-108580000D01*
%TO.N,D7*%
X125021100Y-82070300D02*
X123851400Y-83240000D01*
X149921800Y-82765000D02*
X149227100Y-82070300D01*
X149227100Y-82070300D02*
X125021100Y-82070300D01*
%TO.N,D5*%
X125050300Y-84581100D02*
X123851400Y-85780000D01*
X149003700Y-84581100D02*
X125050300Y-84581100D01*
X149921800Y-85499200D02*
X149003700Y-84581100D01*
%TO.N,D0*%
X152390000Y-111120000D02*
X151288300Y-111120000D01*
X142014800Y-104770000D02*
X144938300Y-104770000D01*
X133184800Y-95940000D02*
X142014800Y-104770000D01*
X144938300Y-104770000D02*
X151288300Y-111120000D01*
X123851400Y-95940000D02*
X133184800Y-95940000D01*
%TO.N,A12*%
X133398300Y-78100000D02*
X132296600Y-79201700D01*
X124781700Y-79201700D02*
X124719700Y-79263700D01*
X134500000Y-78100000D02*
X133398300Y-78100000D01*
X124719700Y-79263700D02*
X123386500Y-79263700D01*
X121398100Y-77275300D02*
X121398100Y-76698000D01*
X123386500Y-79263700D02*
X121398100Y-77275300D01*
X132296600Y-79201700D02*
X124781700Y-79201700D01*
%TO.N,A4*%
X127393200Y-104914900D02*
X133598300Y-111120000D01*
X120354900Y-104914900D02*
X127393200Y-104914900D01*
X119000000Y-103560000D02*
X120354900Y-104914900D01*
X134700000Y-111120000D02*
X133598300Y-111120000D01*
%TO.N,A6*%
X127308300Y-109910000D02*
X122810000Y-109910000D01*
X122810000Y-109910000D02*
X119000000Y-106100000D01*
X133598300Y-116200000D02*
X127308300Y-109910000D01*
X134700000Y-116200000D02*
X133598300Y-116200000D01*
%TO.N,{slash}CE*%
X161483800Y-88565000D02*
X159802200Y-86883400D01*
X122643400Y-86883400D02*
X119000000Y-83240000D01*
X159802200Y-86883400D02*
X122643400Y-86883400D01*
%TO.N,{slash}RD*%
X167630000Y-108580000D02*
X166528300Y-108580000D01*
X142382500Y-95292500D02*
X151860000Y-104770000D01*
X162718300Y-104770000D02*
X166528300Y-108580000D01*
X129688300Y-95292500D02*
X142382500Y-95292500D01*
X151860000Y-104770000D02*
X162718300Y-104770000D01*
%TO.N,A8*%
X123851400Y-75620000D02*
X125181400Y-74290000D01*
X142120000Y-73020000D02*
X141018300Y-73020000D01*
X125181400Y-74290000D02*
X139748300Y-74290000D01*
X139748300Y-74290000D02*
X141018300Y-73020000D01*
%TO.N,A1*%
X128578300Y-98480000D02*
X133598300Y-103500000D01*
X134700000Y-103500000D02*
X133598300Y-103500000D01*
X123851400Y-98480000D02*
X128578300Y-98480000D01*
%TO.N,A9*%
X128416700Y-70480000D02*
X124546700Y-74350000D01*
X117846900Y-77006900D02*
X119000000Y-78160000D01*
X118706600Y-74350000D02*
X117846900Y-75209700D01*
X117846900Y-75209700D02*
X117846900Y-77006900D01*
X134500000Y-70480000D02*
X128416700Y-70480000D01*
X124546700Y-74350000D02*
X118706600Y-74350000D01*
%TO.N,D1*%
X117898200Y-98995300D02*
X118794400Y-99891500D01*
X149292200Y-113660000D02*
X152390000Y-113660000D01*
X117898200Y-97041800D02*
X117898200Y-98995300D01*
X142773900Y-107141700D02*
X149292200Y-113660000D01*
X129064800Y-99891500D02*
X133801700Y-104628400D01*
X133801700Y-104628400D02*
X137785900Y-104628400D01*
X118794400Y-99891500D02*
X129064800Y-99891500D01*
X140299200Y-107141700D02*
X142773900Y-107141700D01*
X137785900Y-104628400D02*
X140299200Y-107141700D01*
X119000000Y-95940000D02*
X117898200Y-97041800D01*
%TO.N,D4*%
X123561900Y-94670000D02*
X120439700Y-91547800D01*
X151288300Y-100960000D02*
X144998300Y-94670000D01*
X144998300Y-94670000D02*
X123561900Y-94670000D01*
X152390000Y-100960000D02*
X151288300Y-100960000D01*
X120439700Y-91547800D02*
X120439700Y-89759700D01*
X120439700Y-89759700D02*
X119000000Y-88320000D01*
%TO.N,D6*%
X147298600Y-105697700D02*
X150946000Y-105697700D01*
X124307900Y-89758200D02*
X126932200Y-92382500D01*
X122978200Y-89758200D02*
X124307900Y-89758200D01*
X152390000Y-106040000D02*
X151288300Y-106040000D01*
X150946000Y-105697700D02*
X151288300Y-106040000D01*
X126932200Y-92382500D02*
X146914400Y-92382500D01*
X119000000Y-85780000D02*
X122978200Y-89758200D01*
%TD*%
%TA.AperFunction,Conductor*%
%TO.N,GND*%
G36*
X125362336Y-116249871D02*
G01*
X127004384Y-117891920D01*
X127004386Y-117891921D01*
X127004390Y-117891924D01*
X127123690Y-117960801D01*
X127141316Y-117970977D01*
X127294043Y-118011901D01*
X127294045Y-118011901D01*
X127459754Y-118011901D01*
X127459770Y-118011900D01*
X133409935Y-118011900D01*
X133476974Y-118031585D01*
X133522729Y-118084389D01*
X133532673Y-118153547D01*
X133522318Y-118188301D01*
X133509642Y-118215486D01*
X133473261Y-118293502D01*
X133473258Y-118293511D01*
X133414366Y-118513302D01*
X133414364Y-118513313D01*
X133394532Y-118739998D01*
X133394532Y-118740001D01*
X133414364Y-118966686D01*
X133414366Y-118966697D01*
X133473258Y-119186488D01*
X133473261Y-119186497D01*
X133569431Y-119392732D01*
X133569432Y-119392734D01*
X133699954Y-119579141D01*
X133860858Y-119740045D01*
X133860861Y-119740047D01*
X134047266Y-119870568D01*
X134105865Y-119897893D01*
X134158305Y-119944065D01*
X134177457Y-120011258D01*
X134157242Y-120078139D01*
X134105867Y-120122657D01*
X134047515Y-120149867D01*
X133861179Y-120280342D01*
X133700342Y-120441179D01*
X133569865Y-120627517D01*
X133473734Y-120833673D01*
X133473730Y-120833682D01*
X133421127Y-121029999D01*
X133421128Y-121030000D01*
X134384314Y-121030000D01*
X134379920Y-121034394D01*
X134327259Y-121125606D01*
X134300000Y-121227339D01*
X134300000Y-121332661D01*
X134327259Y-121434394D01*
X134379920Y-121525606D01*
X134384314Y-121530000D01*
X133421128Y-121530000D01*
X133473730Y-121726317D01*
X133473734Y-121726326D01*
X133569865Y-121932482D01*
X133700342Y-122118820D01*
X133861179Y-122279657D01*
X134047517Y-122410134D01*
X134253673Y-122506265D01*
X134253682Y-122506269D01*
X134449999Y-122558872D01*
X134450000Y-122558871D01*
X134450000Y-121595686D01*
X134454394Y-121600080D01*
X134545606Y-121652741D01*
X134647339Y-121680000D01*
X134752661Y-121680000D01*
X134854394Y-121652741D01*
X134945606Y-121600080D01*
X134950000Y-121595686D01*
X134950000Y-122558872D01*
X135146317Y-122506269D01*
X135146326Y-122506265D01*
X135352482Y-122410134D01*
X135538820Y-122279657D01*
X135699657Y-122118820D01*
X135830134Y-121932482D01*
X135926265Y-121726326D01*
X135926269Y-121726317D01*
X135978872Y-121530000D01*
X135015686Y-121530000D01*
X135020080Y-121525606D01*
X135072741Y-121434394D01*
X135100000Y-121332661D01*
X135100000Y-121227339D01*
X135072741Y-121125606D01*
X135020080Y-121034394D01*
X135015686Y-121030000D01*
X135978872Y-121030000D01*
X135978872Y-121029999D01*
X135926269Y-120833682D01*
X135926265Y-120833673D01*
X135830134Y-120627517D01*
X135699657Y-120441179D01*
X135538820Y-120280342D01*
X135352482Y-120149865D01*
X135294133Y-120122657D01*
X135241694Y-120076484D01*
X135222542Y-120009291D01*
X135242758Y-119942410D01*
X135294129Y-119897895D01*
X135352734Y-119870568D01*
X135539139Y-119740047D01*
X135700047Y-119579139D01*
X135830568Y-119392734D01*
X135926739Y-119186496D01*
X135985635Y-118966692D01*
X136005468Y-118740000D01*
X135985635Y-118513308D01*
X135926739Y-118293504D01*
X135877682Y-118188303D01*
X135867191Y-118119228D01*
X135895710Y-118055444D01*
X135954187Y-118017204D01*
X135990065Y-118011900D01*
X139589603Y-118011900D01*
X139656642Y-118031585D01*
X139677284Y-118048219D01*
X140733439Y-119104374D01*
X140733449Y-119104385D01*
X140737779Y-119108715D01*
X140737780Y-119108716D01*
X140849584Y-119220520D01*
X140849586Y-119220521D01*
X140849590Y-119220524D01*
X140915190Y-119258398D01*
X140915194Y-119258399D01*
X140915195Y-119258400D01*
X140986515Y-119299577D01*
X141113331Y-119333557D01*
X141172988Y-119369919D01*
X141188624Y-119391333D01*
X141189434Y-119392737D01*
X141319954Y-119579141D01*
X141480858Y-119740045D01*
X141480861Y-119740047D01*
X141667266Y-119870568D01*
X141725275Y-119897618D01*
X141777714Y-119943791D01*
X141796866Y-120010984D01*
X141776650Y-120077865D01*
X141725275Y-120122382D01*
X141667267Y-120149431D01*
X141667265Y-120149432D01*
X141480858Y-120279954D01*
X141319954Y-120440858D01*
X141189432Y-120627265D01*
X141189431Y-120627267D01*
X141093261Y-120833502D01*
X141093258Y-120833511D01*
X141034366Y-121053302D01*
X141034364Y-121053313D01*
X141014532Y-121279998D01*
X141014532Y-121280001D01*
X141034364Y-121506686D01*
X141034366Y-121506697D01*
X141093258Y-121726488D01*
X141093261Y-121726497D01*
X141189431Y-121932732D01*
X141189432Y-121932734D01*
X141319954Y-122119141D01*
X141480858Y-122280045D01*
X141480861Y-122280047D01*
X141667266Y-122410568D01*
X141873504Y-122506739D01*
X142093308Y-122565635D01*
X142255230Y-122579801D01*
X142319998Y-122585468D01*
X142320000Y-122585468D01*
X142320002Y-122585468D01*
X142376673Y-122580509D01*
X142546692Y-122565635D01*
X142766496Y-122506739D01*
X142972734Y-122410568D01*
X143159139Y-122280047D01*
X143320047Y-122119139D01*
X143450568Y-121932734D01*
X143546739Y-121726496D01*
X143605635Y-121506692D01*
X143625468Y-121280000D01*
X143605635Y-121053308D01*
X143546739Y-120833504D01*
X143450568Y-120627266D01*
X143352839Y-120487693D01*
X143320045Y-120440858D01*
X143159141Y-120279954D01*
X142972734Y-120149432D01*
X142972728Y-120149429D01*
X142914725Y-120122382D01*
X142862285Y-120076210D01*
X142843133Y-120009017D01*
X142863348Y-119942135D01*
X142914725Y-119897618D01*
X142972734Y-119870568D01*
X143159139Y-119740047D01*
X143320047Y-119579139D01*
X143450568Y-119392734D01*
X143546739Y-119186496D01*
X143605635Y-118966692D01*
X143625468Y-118740000D01*
X143605635Y-118513308D01*
X143564319Y-118359114D01*
X143565982Y-118289267D01*
X143605144Y-118231404D01*
X143669373Y-118203900D01*
X143738275Y-118215486D01*
X143747773Y-118221353D01*
X143747945Y-118221057D01*
X143898954Y-118308241D01*
X143897955Y-118309970D01*
X143943955Y-118347037D01*
X143966021Y-118413331D01*
X143966100Y-118417759D01*
X143966100Y-120180030D01*
X143966099Y-120180048D01*
X143966099Y-120345754D01*
X143966098Y-120345754D01*
X144007023Y-120498485D01*
X144023517Y-120527053D01*
X144023516Y-120527053D01*
X144023517Y-120527054D01*
X144086075Y-120635409D01*
X144086081Y-120635417D01*
X144204949Y-120754285D01*
X144204954Y-120754289D01*
X146337784Y-122887120D01*
X146337786Y-122887121D01*
X146337790Y-122887124D01*
X146474709Y-122966173D01*
X146474716Y-122966177D01*
X146627443Y-123007101D01*
X146627445Y-123007101D01*
X146793154Y-123007101D01*
X146793170Y-123007100D01*
X153203931Y-123007100D01*
X153203947Y-123007101D01*
X153211543Y-123007101D01*
X153369654Y-123007101D01*
X153369657Y-123007101D01*
X153522385Y-122966177D01*
X153572504Y-122937239D01*
X153659316Y-122887120D01*
X153771120Y-122775316D01*
X153771120Y-122775314D01*
X153781328Y-122765107D01*
X153781329Y-122765104D01*
X155108516Y-121437919D01*
X155169839Y-121404434D01*
X155196197Y-121401600D01*
X165206402Y-121401600D01*
X165273441Y-121421285D01*
X165319196Y-121474089D01*
X165329140Y-121543247D01*
X165300115Y-121606803D01*
X165294083Y-121613281D01*
X163664184Y-123243181D01*
X163602861Y-123276666D01*
X163576503Y-123279500D01*
X125083215Y-123279500D01*
X125016176Y-123259815D01*
X124981640Y-123226623D01*
X124851526Y-123040801D01*
X124851521Y-123040795D01*
X124690604Y-122879878D01*
X124690598Y-122879873D01*
X124504185Y-122749345D01*
X124504183Y-122749344D01*
X124446362Y-122722382D01*
X124393923Y-122676210D01*
X124374771Y-122609016D01*
X124394987Y-122542135D01*
X124446362Y-122497618D01*
X124504184Y-122470655D01*
X124690603Y-122340123D01*
X124851523Y-122179203D01*
X124982055Y-121992784D01*
X125078233Y-121786531D01*
X125137133Y-121566710D01*
X125156968Y-121340000D01*
X125137133Y-121113290D01*
X125078233Y-120893469D01*
X124982055Y-120687216D01*
X124966221Y-120664603D01*
X124851526Y-120500801D01*
X124851521Y-120500795D01*
X124690604Y-120339878D01*
X124690598Y-120339873D01*
X124504185Y-120209345D01*
X124504183Y-120209344D01*
X124446362Y-120182382D01*
X124393923Y-120136210D01*
X124374771Y-120069016D01*
X124394987Y-120002135D01*
X124446362Y-119957618D01*
X124475426Y-119944065D01*
X124504184Y-119930655D01*
X124690603Y-119800123D01*
X124851523Y-119639203D01*
X124982055Y-119452784D01*
X125078233Y-119246531D01*
X125137133Y-119026710D01*
X125156968Y-118800000D01*
X125137133Y-118573290D01*
X125078233Y-118353469D01*
X124982055Y-118147216D01*
X124940078Y-118087267D01*
X124851526Y-117960801D01*
X124851521Y-117960795D01*
X124690604Y-117799878D01*
X124690598Y-117799873D01*
X124504185Y-117669345D01*
X124504183Y-117669344D01*
X124446362Y-117642382D01*
X124393923Y-117596210D01*
X124374771Y-117529016D01*
X124394987Y-117462135D01*
X124446362Y-117417618D01*
X124466411Y-117408269D01*
X124504184Y-117390655D01*
X124690603Y-117260123D01*
X124851523Y-117099203D01*
X124982055Y-116912784D01*
X125078233Y-116706531D01*
X125137133Y-116486710D01*
X125151128Y-116326744D01*
X125176580Y-116261677D01*
X125233171Y-116220698D01*
X125302933Y-116216820D01*
X125362336Y-116249871D01*
G37*
%TD.AperFunction*%
%TA.AperFunction,Conductor*%
G36*
X143419310Y-109422391D02*
G01*
X143463657Y-109450892D01*
X146433120Y-112420355D01*
X146466605Y-112481678D01*
X146461621Y-112551370D01*
X146419749Y-112607303D01*
X146410717Y-112613462D01*
X146273744Y-112698273D01*
X146273739Y-112698277D01*
X146109391Y-112848099D01*
X145975368Y-113025574D01*
X145876239Y-113224650D01*
X145823505Y-113410000D01*
X146755025Y-113410000D01*
X146719930Y-113445095D01*
X146673852Y-113524905D01*
X146650000Y-113613922D01*
X146650000Y-113706078D01*
X146673852Y-113795095D01*
X146719930Y-113874905D01*
X146785095Y-113940070D01*
X146864905Y-113986148D01*
X146953922Y-114010000D01*
X147046078Y-114010000D01*
X147135095Y-113986148D01*
X147214905Y-113940070D01*
X147250000Y-113904975D01*
X147250000Y-114834052D01*
X147329804Y-114819135D01*
X147537177Y-114738798D01*
X147537179Y-114738797D01*
X147726261Y-114621721D01*
X147890608Y-114471900D01*
X148024629Y-114294428D01*
X148041738Y-114260068D01*
X148089240Y-114208830D01*
X148156903Y-114191407D01*
X148223244Y-114213331D01*
X148240421Y-114227656D01*
X150651480Y-116638715D01*
X150684965Y-116700038D01*
X150687799Y-116726396D01*
X150687799Y-116753454D01*
X150687798Y-116753454D01*
X150687799Y-116753457D01*
X150728723Y-116906185D01*
X150728724Y-116906187D01*
X150728723Y-116906187D01*
X150744193Y-116932980D01*
X150744195Y-116932982D01*
X150744196Y-116932984D01*
X150786585Y-117006405D01*
X150807779Y-117043115D01*
X150926649Y-117161985D01*
X150926655Y-117161990D01*
X151440057Y-117675392D01*
X151473542Y-117736715D01*
X151468558Y-117806407D01*
X151440059Y-117850753D01*
X151389952Y-117900861D01*
X151259432Y-118087265D01*
X151259431Y-118087267D01*
X151163261Y-118293502D01*
X151163258Y-118293511D01*
X151104366Y-118513302D01*
X151104364Y-118513313D01*
X151084532Y-118739998D01*
X151084532Y-118740001D01*
X151104364Y-118966686D01*
X151104365Y-118966694D01*
X151104366Y-118966697D01*
X151140702Y-119102307D01*
X151139040Y-119172156D01*
X151099878Y-119230019D01*
X151035649Y-119257523D01*
X151020928Y-119258400D01*
X147704613Y-119258400D01*
X147637574Y-119238715D01*
X147591819Y-119185911D01*
X147584838Y-119166493D01*
X147559577Y-119072215D01*
X147559577Y-119072214D01*
X147530639Y-119022095D01*
X147530637Y-119022092D01*
X147480520Y-118935284D01*
X147368716Y-118823480D01*
X147368715Y-118823479D01*
X147364385Y-118819149D01*
X147364374Y-118819139D01*
X143269891Y-114724656D01*
X143236406Y-114663333D01*
X143241390Y-114593641D01*
X143269890Y-114549294D01*
X143320047Y-114499139D01*
X143450568Y-114312734D01*
X143546739Y-114106496D01*
X143599390Y-113910000D01*
X145823505Y-113910000D01*
X145876239Y-114095349D01*
X145975368Y-114294425D01*
X146109391Y-114471900D01*
X146273738Y-114621721D01*
X146462820Y-114738797D01*
X146462822Y-114738798D01*
X146670195Y-114819135D01*
X146750000Y-114834052D01*
X146750000Y-113910000D01*
X145823505Y-113910000D01*
X143599390Y-113910000D01*
X143605635Y-113886692D01*
X143625468Y-113660000D01*
X143605635Y-113433308D01*
X143546739Y-113213504D01*
X143450568Y-113007266D01*
X143320047Y-112820861D01*
X143320045Y-112820858D01*
X143159141Y-112659954D01*
X142972734Y-112529432D01*
X142972732Y-112529431D01*
X142947931Y-112517866D01*
X142914132Y-112502105D01*
X142861694Y-112455934D01*
X142842542Y-112388740D01*
X142862758Y-112321859D01*
X142914134Y-112277341D01*
X142972484Y-112250132D01*
X143158820Y-112119657D01*
X143319657Y-111958820D01*
X143450134Y-111772482D01*
X143546265Y-111566326D01*
X143546269Y-111566317D01*
X143598872Y-111370000D01*
X142635686Y-111370000D01*
X142640080Y-111365606D01*
X142692741Y-111274394D01*
X142720000Y-111172661D01*
X142720000Y-111067339D01*
X142692741Y-110965606D01*
X142640080Y-110874394D01*
X142635686Y-110870000D01*
X143598872Y-110870000D01*
X143598872Y-110869999D01*
X143546269Y-110673682D01*
X143546265Y-110673673D01*
X143450134Y-110467517D01*
X143319657Y-110281179D01*
X143158820Y-110120342D01*
X142972482Y-109989865D01*
X142914133Y-109962657D01*
X142861694Y-109916484D01*
X142842542Y-109849291D01*
X142862758Y-109782410D01*
X142914129Y-109737895D01*
X142972734Y-109710568D01*
X143159139Y-109580047D01*
X143202511Y-109536675D01*
X143288295Y-109450892D01*
X143349618Y-109417407D01*
X143419310Y-109422391D01*
G37*
%TD.AperFunction*%
%TA.AperFunction,Conductor*%
G36*
X137552842Y-105248585D02*
G01*
X137573484Y-105265219D01*
X139814339Y-107506074D01*
X139814349Y-107506085D01*
X139818679Y-107510415D01*
X139818680Y-107510416D01*
X139930484Y-107622220D01*
X140017295Y-107672339D01*
X140017297Y-107672341D01*
X140055351Y-107694311D01*
X140067415Y-107701277D01*
X140220143Y-107742201D01*
X140220146Y-107742201D01*
X140385853Y-107742201D01*
X140385869Y-107742200D01*
X141081506Y-107742200D01*
X141148545Y-107761885D01*
X141194300Y-107814689D01*
X141204244Y-107883847D01*
X141191026Y-107922036D01*
X141191720Y-107922360D01*
X141093261Y-108133502D01*
X141093258Y-108133511D01*
X141034366Y-108353302D01*
X141034364Y-108353313D01*
X141014532Y-108579998D01*
X141014532Y-108580001D01*
X141034364Y-108806686D01*
X141034366Y-108806697D01*
X141093258Y-109026488D01*
X141093261Y-109026497D01*
X141189431Y-109232732D01*
X141189432Y-109232734D01*
X141319954Y-109419141D01*
X141480858Y-109580045D01*
X141480861Y-109580047D01*
X141667266Y-109710568D01*
X141725865Y-109737893D01*
X141778305Y-109784065D01*
X141797457Y-109851258D01*
X141777242Y-109918139D01*
X141725867Y-109962657D01*
X141667515Y-109989867D01*
X141481179Y-110120342D01*
X141320342Y-110281179D01*
X141189865Y-110467517D01*
X141093734Y-110673673D01*
X141093730Y-110673682D01*
X141041127Y-110869999D01*
X141041128Y-110870000D01*
X142004314Y-110870000D01*
X141999920Y-110874394D01*
X141947259Y-110965606D01*
X141920000Y-111067339D01*
X141920000Y-111172661D01*
X141947259Y-111274394D01*
X141999920Y-111365606D01*
X142004314Y-111370000D01*
X141041128Y-111370000D01*
X141093730Y-111566317D01*
X141093734Y-111566326D01*
X141189865Y-111772482D01*
X141320342Y-111958820D01*
X141481179Y-112119657D01*
X141667518Y-112250134D01*
X141667520Y-112250135D01*
X141725865Y-112277342D01*
X141778305Y-112323514D01*
X141797457Y-112390707D01*
X141777242Y-112457589D01*
X141725867Y-112502105D01*
X141667268Y-112529431D01*
X141667264Y-112529433D01*
X141480858Y-112659954D01*
X141319954Y-112820858D01*
X141189432Y-113007265D01*
X141189431Y-113007267D01*
X141093261Y-113213502D01*
X141093258Y-113213511D01*
X141034366Y-113433302D01*
X141034364Y-113433313D01*
X141014532Y-113659998D01*
X141014532Y-113660000D01*
X141034364Y-113886686D01*
X141034366Y-113886697D01*
X141093258Y-114106488D01*
X141093261Y-114106497D01*
X141189431Y-114312732D01*
X141189432Y-114312734D01*
X141319954Y-114499141D01*
X141480858Y-114660045D01*
X141480861Y-114660047D01*
X141667266Y-114790568D01*
X141667278Y-114790573D01*
X141668661Y-114791372D01*
X141669155Y-114791890D01*
X141671701Y-114793673D01*
X141671342Y-114794184D01*
X141716880Y-114841935D01*
X141726444Y-114866672D01*
X141741236Y-114921879D01*
X141739573Y-114991729D01*
X141700409Y-115049591D01*
X141673875Y-115066349D01*
X141667270Y-115069429D01*
X141667268Y-115069430D01*
X141480858Y-115199954D01*
X141319954Y-115360858D01*
X141189432Y-115547265D01*
X141189431Y-115547267D01*
X141093261Y-115753502D01*
X141093258Y-115753511D01*
X141034366Y-115973302D01*
X141034364Y-115973313D01*
X141014532Y-116199998D01*
X141014532Y-116200001D01*
X141034364Y-116426686D01*
X141034366Y-116426697D01*
X141093258Y-116646488D01*
X141093261Y-116646497D01*
X141189431Y-116852732D01*
X141189432Y-116852734D01*
X141319954Y-117039141D01*
X141480858Y-117200045D01*
X141480861Y-117200047D01*
X141667266Y-117330568D01*
X141667278Y-117330573D01*
X141668661Y-117331372D01*
X141669155Y-117331890D01*
X141671701Y-117333673D01*
X141671342Y-117334184D01*
X141716880Y-117381935D01*
X141726444Y-117406672D01*
X141741236Y-117461879D01*
X141739573Y-117531729D01*
X141700409Y-117589591D01*
X141673875Y-117606349D01*
X141667270Y-117609429D01*
X141667268Y-117609430D01*
X141480858Y-117739954D01*
X141361855Y-117858958D01*
X141300532Y-117892443D01*
X141230840Y-117887459D01*
X141186493Y-117858958D01*
X140377290Y-117049755D01*
X140377288Y-117049752D01*
X140258417Y-116930881D01*
X140258409Y-116930875D01*
X140139944Y-116862480D01*
X140139944Y-116862479D01*
X140139939Y-116862478D01*
X140133499Y-116858759D01*
X140121486Y-116851823D01*
X140083303Y-116841592D01*
X139968757Y-116810899D01*
X139810643Y-116810899D01*
X139803047Y-116810899D01*
X139803031Y-116810900D01*
X136043991Y-116810900D01*
X135976952Y-116791215D01*
X135931197Y-116738411D01*
X135921253Y-116669253D01*
X135925634Y-116651805D01*
X135925338Y-116651726D01*
X135969553Y-116486710D01*
X135985635Y-116426692D01*
X136005468Y-116200000D01*
X135985635Y-115973308D01*
X135926739Y-115753504D01*
X135830568Y-115547266D01*
X135700047Y-115360861D01*
X135700046Y-115360860D01*
X135700045Y-115360858D01*
X135539141Y-115199954D01*
X135352734Y-115069432D01*
X135352728Y-115069429D01*
X135294725Y-115042382D01*
X135242285Y-114996210D01*
X135223133Y-114929017D01*
X135243348Y-114862135D01*
X135294725Y-114817618D01*
X135352734Y-114790568D01*
X135539139Y-114660047D01*
X135700047Y-114499139D01*
X135830568Y-114312734D01*
X135926739Y-114106496D01*
X135985635Y-113886692D01*
X136005468Y-113660000D01*
X135985635Y-113433308D01*
X135926739Y-113213504D01*
X135830568Y-113007266D01*
X135700047Y-112820861D01*
X135700045Y-112820858D01*
X135695191Y-112816004D01*
X135661706Y-112754681D01*
X135666690Y-112684989D01*
X135695189Y-112640644D01*
X136173806Y-112162028D01*
X136173811Y-112162024D01*
X136184014Y-112151820D01*
X136184016Y-112151820D01*
X136295820Y-112040016D01*
X136374877Y-111903084D01*
X136409804Y-111772734D01*
X136415800Y-111750358D01*
X136415800Y-111592243D01*
X136415800Y-110707759D01*
X136415801Y-110707746D01*
X136415801Y-110539645D01*
X136415801Y-110539643D01*
X136374877Y-110386915D01*
X136354233Y-110351161D01*
X136342316Y-110330518D01*
X136342315Y-110330517D01*
X136295821Y-110249986D01*
X136295820Y-110249984D01*
X136184016Y-110138180D01*
X136184015Y-110138179D01*
X136179685Y-110133849D01*
X136179674Y-110133839D01*
X135670191Y-109624356D01*
X135636706Y-109563033D01*
X135641690Y-109493341D01*
X135670188Y-109448996D01*
X135700047Y-109419139D01*
X135830568Y-109232734D01*
X135926739Y-109026496D01*
X135985635Y-108806692D01*
X136005468Y-108580000D01*
X135985635Y-108353308D01*
X135926739Y-108133504D01*
X135830568Y-107927266D01*
X135700047Y-107740861D01*
X135700045Y-107740858D01*
X135539141Y-107579954D01*
X135352734Y-107449432D01*
X135352728Y-107449429D01*
X135324380Y-107436210D01*
X135294724Y-107422381D01*
X135242285Y-107376210D01*
X135223133Y-107309017D01*
X135243348Y-107242135D01*
X135294725Y-107197618D01*
X135352734Y-107170568D01*
X135539139Y-107040047D01*
X135700047Y-106879139D01*
X135830568Y-106692734D01*
X135926739Y-106486496D01*
X135985635Y-106266692D01*
X136005468Y-106040000D01*
X135985635Y-105813308D01*
X135926739Y-105593504D01*
X135838980Y-105405305D01*
X135828488Y-105336227D01*
X135857008Y-105272443D01*
X135915484Y-105234204D01*
X135951362Y-105228900D01*
X137485803Y-105228900D01*
X137552842Y-105248585D01*
G37*
%TD.AperFunction*%
%TA.AperFunction,Conductor*%
G36*
X147899024Y-109225471D02*
G01*
X147950133Y-109152482D01*
X148041108Y-108957384D01*
X148087280Y-108904944D01*
X148154474Y-108885792D01*
X148221355Y-108906007D01*
X148241172Y-108922107D01*
X150803439Y-111484374D01*
X150803449Y-111484385D01*
X150807779Y-111488715D01*
X150807780Y-111488716D01*
X150919584Y-111600520D01*
X151006395Y-111650639D01*
X151006397Y-111650641D01*
X151044451Y-111672611D01*
X151056515Y-111679577D01*
X151183331Y-111713557D01*
X151242988Y-111749919D01*
X151258624Y-111771333D01*
X151259428Y-111772726D01*
X151259432Y-111772734D01*
X151301479Y-111832784D01*
X151389954Y-111959141D01*
X151550858Y-112120045D01*
X151550861Y-112120047D01*
X151737266Y-112250568D01*
X151794681Y-112277341D01*
X151795275Y-112277618D01*
X151847714Y-112323791D01*
X151866866Y-112390984D01*
X151846650Y-112457865D01*
X151795275Y-112502382D01*
X151737267Y-112529431D01*
X151737265Y-112529432D01*
X151550858Y-112659954D01*
X151389954Y-112820858D01*
X151313450Y-112930118D01*
X151259881Y-113006624D01*
X151205307Y-113050248D01*
X151158308Y-113059500D01*
X149592297Y-113059500D01*
X149525258Y-113039815D01*
X149504616Y-113023181D01*
X146474182Y-109992747D01*
X146440697Y-109931424D01*
X146445681Y-109861732D01*
X146487553Y-109805799D01*
X146553017Y-109781382D01*
X146587969Y-109784720D01*
X146588061Y-109784200D01*
X146593400Y-109785141D01*
X146819998Y-109804966D01*
X146820002Y-109804966D01*
X147046599Y-109785141D01*
X147046610Y-109785139D01*
X147266317Y-109726269D01*
X147266331Y-109726264D01*
X147472478Y-109630136D01*
X147545471Y-109579024D01*
X146866446Y-108900000D01*
X146872661Y-108900000D01*
X146974394Y-108872741D01*
X147065606Y-108820080D01*
X147140080Y-108745606D01*
X147192741Y-108654394D01*
X147220000Y-108552661D01*
X147220000Y-108546446D01*
X147899024Y-109225471D01*
G37*
%TD.AperFunction*%
%TA.AperFunction,Conductor*%
G36*
X144705242Y-105390185D02*
G01*
X144725884Y-105406819D01*
X146397892Y-107078827D01*
X146431377Y-107140150D01*
X146426393Y-107209842D01*
X146384521Y-107265775D01*
X146362616Y-107278890D01*
X146167516Y-107369866D01*
X146167512Y-107369868D01*
X146094526Y-107420973D01*
X146094526Y-107420974D01*
X146773554Y-108100000D01*
X146767339Y-108100000D01*
X146665606Y-108127259D01*
X146574394Y-108179920D01*
X146499920Y-108254394D01*
X146447259Y-108345606D01*
X146420000Y-108447339D01*
X146420000Y-108453553D01*
X145740974Y-107774526D01*
X145740973Y-107774526D01*
X145689868Y-107847512D01*
X145689866Y-107847516D01*
X145593734Y-108053673D01*
X145593730Y-108053682D01*
X145534860Y-108273389D01*
X145534858Y-108273400D01*
X145515034Y-108499997D01*
X145515034Y-108500002D01*
X145534858Y-108726599D01*
X145535800Y-108731939D01*
X145534565Y-108732156D01*
X145533041Y-108795905D01*
X145493873Y-108853763D01*
X145429641Y-108881261D01*
X145360740Y-108869667D01*
X145327252Y-108845817D01*
X143410310Y-106928875D01*
X143376825Y-106867552D01*
X143381809Y-106797860D01*
X143396413Y-106770075D01*
X143450568Y-106692734D01*
X143546739Y-106486496D01*
X143605635Y-106266692D01*
X143625468Y-106040000D01*
X143605635Y-105813308D01*
X143546739Y-105593504D01*
X143525008Y-105546903D01*
X143514517Y-105477828D01*
X143543036Y-105414044D01*
X143601513Y-105375804D01*
X143637391Y-105370500D01*
X144638203Y-105370500D01*
X144705242Y-105390185D01*
G37*
%TD.AperFunction*%
%TA.AperFunction,Conductor*%
G36*
X119925531Y-91887556D02*
G01*
X119952662Y-91911539D01*
X119953433Y-91910769D01*
X120078049Y-92035385D01*
X120078055Y-92035390D01*
X122909687Y-94867022D01*
X122943172Y-94928345D01*
X122938188Y-94998037D01*
X122909689Y-95042383D01*
X122851275Y-95100797D01*
X122720745Y-95287214D01*
X122720744Y-95287216D01*
X122624568Y-95493467D01*
X122624564Y-95493476D01*
X122565668Y-95713284D01*
X122565666Y-95713294D01*
X122545832Y-95939999D01*
X122545832Y-95940000D01*
X122565666Y-96166705D01*
X122565668Y-96166715D01*
X122624564Y-96386523D01*
X122624566Y-96386527D01*
X122624567Y-96386531D01*
X122692739Y-96532726D01*
X122723033Y-96597691D01*
X122720811Y-96598727D01*
X122734862Y-96656557D01*
X122712032Y-96722592D01*
X122657126Y-96765802D01*
X122611000Y-96774700D01*
X120240400Y-96774700D01*
X120173361Y-96755015D01*
X120127606Y-96702211D01*
X120117662Y-96633053D01*
X120129693Y-96598309D01*
X120128367Y-96597691D01*
X120145346Y-96561280D01*
X120226833Y-96386531D01*
X120285733Y-96166710D01*
X120305568Y-95940000D01*
X120285733Y-95713290D01*
X120226833Y-95493469D01*
X120130655Y-95287216D01*
X120118950Y-95270500D01*
X120000126Y-95100801D01*
X120000121Y-95100795D01*
X119839204Y-94939878D01*
X119839198Y-94939873D01*
X119652786Y-94809346D01*
X119594369Y-94782105D01*
X119541930Y-94735932D01*
X119522779Y-94668738D01*
X119542996Y-94601857D01*
X119594372Y-94557340D01*
X119652531Y-94530220D01*
X119725544Y-94479096D01*
X119167050Y-93920603D01*
X119210787Y-93908884D01*
X119335313Y-93836989D01*
X119436989Y-93735313D01*
X119508884Y-93610787D01*
X119520603Y-93567051D01*
X120079096Y-94125544D01*
X120130221Y-94052530D01*
X120226359Y-93846360D01*
X120226363Y-93846351D01*
X120285237Y-93626627D01*
X120285239Y-93626617D01*
X120305066Y-93400000D01*
X120305066Y-93399999D01*
X120285239Y-93173382D01*
X120285237Y-93173372D01*
X120226363Y-92953648D01*
X120226359Y-92953639D01*
X120130220Y-92747468D01*
X120130219Y-92747466D01*
X120079096Y-92674455D01*
X120079096Y-92674454D01*
X119520602Y-93232948D01*
X119508884Y-93189213D01*
X119436989Y-93064687D01*
X119335313Y-92963011D01*
X119210787Y-92891116D01*
X119167049Y-92879396D01*
X119725544Y-92320902D01*
X119725543Y-92320901D01*
X119652536Y-92269782D01*
X119593777Y-92242382D01*
X119541338Y-92196210D01*
X119522186Y-92129016D01*
X119542402Y-92062135D01*
X119593777Y-92017618D01*
X119652532Y-91990219D01*
X119791557Y-91892873D01*
X119857763Y-91870546D01*
X119925531Y-91887556D01*
G37*
%TD.AperFunction*%
%TA.AperFunction,Conductor*%
G36*
X133299908Y-87503585D02*
G01*
X133345663Y-87556389D01*
X133355607Y-87625547D01*
X133345251Y-87660305D01*
X133273734Y-87813673D01*
X133273730Y-87813682D01*
X133221127Y-88009999D01*
X133221128Y-88010000D01*
X134184314Y-88010000D01*
X134179920Y-88014394D01*
X134127259Y-88105606D01*
X134100000Y-88207339D01*
X134100000Y-88312661D01*
X134127259Y-88414394D01*
X134179920Y-88505606D01*
X134184314Y-88510000D01*
X133221128Y-88510000D01*
X133273730Y-88706317D01*
X133273734Y-88706326D01*
X133369865Y-88912482D01*
X133500342Y-89098820D01*
X133661179Y-89259657D01*
X133847517Y-89390134D01*
X134053673Y-89486265D01*
X134053682Y-89486269D01*
X134249999Y-89538872D01*
X134250000Y-89538871D01*
X134250000Y-88575686D01*
X134254394Y-88580080D01*
X134345606Y-88632741D01*
X134447339Y-88660000D01*
X134552661Y-88660000D01*
X134654394Y-88632741D01*
X134745606Y-88580080D01*
X134750000Y-88575686D01*
X134750000Y-89538872D01*
X134946317Y-89486269D01*
X134946326Y-89486265D01*
X135152482Y-89390134D01*
X135338820Y-89259657D01*
X135499657Y-89098820D01*
X135630134Y-88912482D01*
X135726265Y-88706326D01*
X135726269Y-88706317D01*
X135778872Y-88510000D01*
X134815686Y-88510000D01*
X134820080Y-88505606D01*
X134872741Y-88414394D01*
X134900000Y-88312661D01*
X134900000Y-88207339D01*
X134872741Y-88105606D01*
X134820080Y-88014394D01*
X134815686Y-88010000D01*
X135778872Y-88010000D01*
X135778872Y-88009999D01*
X135726269Y-87813682D01*
X135726265Y-87813673D01*
X135654749Y-87660305D01*
X135644257Y-87591227D01*
X135672777Y-87527443D01*
X135731253Y-87489204D01*
X135767131Y-87483900D01*
X140852318Y-87483900D01*
X140919357Y-87503585D01*
X140965112Y-87556389D01*
X140975056Y-87625547D01*
X140964701Y-87660301D01*
X140963765Y-87662309D01*
X140893261Y-87813502D01*
X140893258Y-87813511D01*
X140834366Y-88033302D01*
X140834364Y-88033313D01*
X140814532Y-88259998D01*
X140814532Y-88260001D01*
X140834364Y-88486686D01*
X140834366Y-88486697D01*
X140893258Y-88706488D01*
X140893261Y-88706497D01*
X140989431Y-88912732D01*
X140989432Y-88912734D01*
X141119954Y-89099141D01*
X141280858Y-89260045D01*
X141280861Y-89260047D01*
X141467266Y-89390568D01*
X141673504Y-89486739D01*
X141893308Y-89545635D01*
X142055230Y-89559801D01*
X142119998Y-89565468D01*
X142120000Y-89565468D01*
X142120002Y-89565468D01*
X142176673Y-89560509D01*
X142346692Y-89545635D01*
X142566496Y-89486739D01*
X142772734Y-89390568D01*
X142959139Y-89260047D01*
X143120047Y-89099139D01*
X143250568Y-88912734D01*
X143346739Y-88706496D01*
X143405635Y-88486692D01*
X143425468Y-88260000D01*
X143405635Y-88033308D01*
X143346739Y-87813504D01*
X143275299Y-87660302D01*
X143264808Y-87591228D01*
X143293327Y-87527444D01*
X143351804Y-87489204D01*
X143387682Y-87483900D01*
X151122318Y-87483900D01*
X151189357Y-87503585D01*
X151235112Y-87556389D01*
X151245056Y-87625547D01*
X151234701Y-87660301D01*
X151233765Y-87662309D01*
X151163261Y-87813502D01*
X151163258Y-87813511D01*
X151104366Y-88033302D01*
X151104364Y-88033313D01*
X151084532Y-88259998D01*
X151084532Y-88260001D01*
X151104364Y-88486686D01*
X151104366Y-88486697D01*
X151163258Y-88706488D01*
X151163261Y-88706497D01*
X151259431Y-88912732D01*
X151259432Y-88912734D01*
X151389954Y-89099141D01*
X151550858Y-89260045D01*
X151550861Y-89260047D01*
X151737266Y-89390568D01*
X151794681Y-89417341D01*
X151795275Y-89417618D01*
X151847714Y-89463791D01*
X151866866Y-89530984D01*
X151846650Y-89597865D01*
X151795275Y-89642382D01*
X151737267Y-89669431D01*
X151737265Y-89669432D01*
X151550858Y-89799954D01*
X151389954Y-89960858D01*
X151259432Y-90147265D01*
X151259431Y-90147267D01*
X151163261Y-90353502D01*
X151163258Y-90353511D01*
X151104366Y-90573302D01*
X151104364Y-90573313D01*
X151084532Y-90799998D01*
X151084532Y-90800001D01*
X151104364Y-91026686D01*
X151104366Y-91026697D01*
X151163258Y-91246488D01*
X151163261Y-91246497D01*
X151259431Y-91452732D01*
X151259432Y-91452734D01*
X151389954Y-91639141D01*
X151550858Y-91800045D01*
X151550861Y-91800047D01*
X151737266Y-91930568D01*
X151795275Y-91957618D01*
X151847714Y-92003791D01*
X151866866Y-92070984D01*
X151846650Y-92137865D01*
X151795275Y-92182382D01*
X151737267Y-92209431D01*
X151737265Y-92209432D01*
X151550858Y-92339954D01*
X151389954Y-92500858D01*
X151259432Y-92687265D01*
X151259431Y-92687267D01*
X151163261Y-92893502D01*
X151163258Y-92893511D01*
X151104366Y-93113302D01*
X151104364Y-93113313D01*
X151084532Y-93339998D01*
X151084532Y-93340001D01*
X151089479Y-93396546D01*
X151075712Y-93465046D01*
X151027097Y-93515229D01*
X150959069Y-93531162D01*
X150893225Y-93507787D01*
X150878270Y-93495034D01*
X148770190Y-91386955D01*
X148770188Y-91386952D01*
X148651317Y-91268081D01*
X148651316Y-91268080D01*
X148564504Y-91217960D01*
X148564504Y-91217959D01*
X148564500Y-91217958D01*
X148514385Y-91189023D01*
X148361657Y-91148099D01*
X148203543Y-91148099D01*
X148195947Y-91148099D01*
X148195931Y-91148100D01*
X127580098Y-91148100D01*
X127513059Y-91128415D01*
X127492417Y-91111781D01*
X125143422Y-88762786D01*
X125109937Y-88701463D01*
X125111327Y-88643016D01*
X125137133Y-88546710D01*
X125156968Y-88320000D01*
X125137133Y-88093290D01*
X125078233Y-87873469D01*
X124982055Y-87667216D01*
X124982054Y-87667214D01*
X124979767Y-87662309D01*
X124981560Y-87661472D01*
X124967132Y-87601999D01*
X124989985Y-87535973D01*
X125044906Y-87492782D01*
X125090992Y-87483900D01*
X133232869Y-87483900D01*
X133299908Y-87503585D01*
G37*
%TD.AperFunction*%
%TA.AperFunction,Conductor*%
G36*
X120494583Y-88126020D02*
G01*
X120509538Y-88138773D01*
X122493339Y-90122574D01*
X122493349Y-90122585D01*
X122497679Y-90126915D01*
X122497680Y-90126916D01*
X122609484Y-90238720D01*
X122609486Y-90238721D01*
X122614324Y-90243559D01*
X122647809Y-90304882D01*
X122642825Y-90374574D01*
X122639026Y-90383643D01*
X122625042Y-90413633D01*
X122625036Y-90413648D01*
X122566162Y-90633372D01*
X122566160Y-90633382D01*
X122546334Y-90859999D01*
X122546334Y-90860000D01*
X122566160Y-91086617D01*
X122566162Y-91086627D01*
X122625036Y-91306351D01*
X122625040Y-91306360D01*
X122721182Y-91512536D01*
X122772301Y-91585543D01*
X122772302Y-91585544D01*
X123330796Y-91027049D01*
X123342516Y-91070787D01*
X123414411Y-91195313D01*
X123516087Y-91296989D01*
X123640613Y-91368884D01*
X123684349Y-91380603D01*
X123125854Y-91939096D01*
X123198864Y-91990218D01*
X123257029Y-92017340D01*
X123309469Y-92063512D01*
X123328621Y-92130706D01*
X123308406Y-92197587D01*
X123257031Y-92242105D01*
X123198613Y-92269346D01*
X123012201Y-92399873D01*
X123012195Y-92399878D01*
X122851278Y-92560795D01*
X122851273Y-92560801D01*
X122720745Y-92747214D01*
X122718037Y-92751906D01*
X122716549Y-92751047D01*
X122675476Y-92797666D01*
X122608276Y-92816797D01*
X122541402Y-92796560D01*
X122521618Y-92780482D01*
X121076519Y-91335383D01*
X121043034Y-91274060D01*
X121040200Y-91247702D01*
X121040200Y-89680645D01*
X121040200Y-89680643D01*
X121002213Y-89538872D01*
X120999277Y-89527915D01*
X120999277Y-89527914D01*
X120970339Y-89477795D01*
X120970337Y-89477792D01*
X120961298Y-89462135D01*
X120920220Y-89390984D01*
X120808416Y-89279180D01*
X120808415Y-89279179D01*
X120804085Y-89274849D01*
X120804074Y-89274839D01*
X120292022Y-88762787D01*
X120258537Y-88701464D01*
X120259927Y-88643017D01*
X120285733Y-88546710D01*
X120305568Y-88320000D01*
X120298329Y-88237261D01*
X120312095Y-88168762D01*
X120360710Y-88118579D01*
X120428739Y-88102645D01*
X120494583Y-88126020D01*
G37*
%TD.AperFunction*%
%TA.AperFunction,Conductor*%
G36*
X124930496Y-91585544D02*
G01*
X124981620Y-91512531D01*
X124984325Y-91507847D01*
X124986018Y-91508824D01*
X125026484Y-91462825D01*
X125093669Y-91443642D01*
X125160559Y-91463828D01*
X125180422Y-91479958D01*
X126288283Y-92587819D01*
X126321768Y-92649142D01*
X126316784Y-92718834D01*
X126274912Y-92774767D01*
X126209448Y-92799184D01*
X126200602Y-92799500D01*
X125083215Y-92799500D01*
X125016176Y-92779815D01*
X124981640Y-92746623D01*
X124851526Y-92560801D01*
X124851521Y-92560795D01*
X124690604Y-92399878D01*
X124690598Y-92399873D01*
X124504186Y-92269346D01*
X124445769Y-92242105D01*
X124393330Y-92195932D01*
X124374179Y-92128738D01*
X124394396Y-92061857D01*
X124445772Y-92017340D01*
X124503931Y-91990220D01*
X124576944Y-91939096D01*
X124018450Y-91380603D01*
X124062187Y-91368884D01*
X124186713Y-91296989D01*
X124288389Y-91195313D01*
X124360284Y-91070787D01*
X124372003Y-91027050D01*
X124930496Y-91585544D01*
G37*
%TD.AperFunction*%
%TA.AperFunction,Conductor*%
G36*
X141117507Y-73872540D02*
G01*
X141161854Y-73901041D01*
X141280858Y-74020045D01*
X141280861Y-74020047D01*
X141467266Y-74150568D01*
X141525275Y-74177618D01*
X141577714Y-74223791D01*
X141596866Y-74290984D01*
X141576650Y-74357865D01*
X141525275Y-74402382D01*
X141467267Y-74429431D01*
X141467265Y-74429432D01*
X141280858Y-74559954D01*
X141119954Y-74720858D01*
X140989432Y-74907265D01*
X140989431Y-74907267D01*
X140893261Y-75113502D01*
X140893258Y-75113511D01*
X140834366Y-75333302D01*
X140834364Y-75333313D01*
X140814532Y-75559998D01*
X140814532Y-75560001D01*
X140834364Y-75786686D01*
X140834366Y-75786697D01*
X140893258Y-76006488D01*
X140893261Y-76006497D01*
X140989431Y-76212732D01*
X140989432Y-76212734D01*
X141119954Y-76399141D01*
X141280858Y-76560045D01*
X141280861Y-76560047D01*
X141467266Y-76690568D01*
X141525865Y-76717893D01*
X141578305Y-76764065D01*
X141597457Y-76831258D01*
X141577242Y-76898139D01*
X141525867Y-76942657D01*
X141467515Y-76969867D01*
X141281179Y-77100342D01*
X141120342Y-77261179D01*
X140989865Y-77447517D01*
X140893734Y-77653673D01*
X140893730Y-77653682D01*
X140841127Y-77849999D01*
X140841128Y-77850000D01*
X141804314Y-77850000D01*
X141799920Y-77854394D01*
X141747259Y-77945606D01*
X141720000Y-78047339D01*
X141720000Y-78152661D01*
X141747259Y-78254394D01*
X141799920Y-78345606D01*
X141804314Y-78350000D01*
X140841128Y-78350000D01*
X140893730Y-78546317D01*
X140893734Y-78546326D01*
X140989865Y-78752482D01*
X141120342Y-78938820D01*
X141281179Y-79099657D01*
X141467518Y-79230134D01*
X141467520Y-79230135D01*
X141525865Y-79257342D01*
X141578305Y-79303514D01*
X141597457Y-79370707D01*
X141577242Y-79437589D01*
X141525867Y-79482105D01*
X141467268Y-79509431D01*
X141467264Y-79509433D01*
X141280858Y-79639954D01*
X141119954Y-79800858D01*
X140989432Y-79987265D01*
X140989431Y-79987267D01*
X140893261Y-80193502D01*
X140893258Y-80193511D01*
X140834366Y-80413302D01*
X140834364Y-80413313D01*
X140814532Y-80639998D01*
X140814532Y-80640001D01*
X140834364Y-80866686D01*
X140834366Y-80866697D01*
X140893258Y-81086488D01*
X140893261Y-81086497D01*
X140914210Y-81131421D01*
X140989432Y-81292734D01*
X140989434Y-81292737D01*
X140989741Y-81293395D01*
X141000233Y-81362472D01*
X140971714Y-81426256D01*
X140913237Y-81464496D01*
X140877359Y-81469800D01*
X135742641Y-81469800D01*
X135675602Y-81450115D01*
X135629847Y-81397311D01*
X135619903Y-81328153D01*
X135630259Y-81293395D01*
X135630565Y-81292737D01*
X135630568Y-81292734D01*
X135726739Y-81086496D01*
X135785635Y-80866692D01*
X135805468Y-80640000D01*
X135785635Y-80413308D01*
X135726739Y-80193504D01*
X135630568Y-79987266D01*
X135505289Y-79808348D01*
X135500045Y-79800858D01*
X135339141Y-79639954D01*
X135152734Y-79509432D01*
X135152728Y-79509429D01*
X135094725Y-79482382D01*
X135042285Y-79436210D01*
X135023133Y-79369017D01*
X135043348Y-79302135D01*
X135094725Y-79257618D01*
X135095319Y-79257341D01*
X135152734Y-79230568D01*
X135339139Y-79100047D01*
X135500047Y-78939139D01*
X135630568Y-78752734D01*
X135726739Y-78546496D01*
X135785635Y-78326692D01*
X135805468Y-78100000D01*
X135785635Y-77873308D01*
X135726739Y-77653504D01*
X135630568Y-77447266D01*
X135500047Y-77260861D01*
X135500045Y-77260858D01*
X135339141Y-77099954D01*
X135152734Y-76969432D01*
X135152728Y-76969429D01*
X135094725Y-76942382D01*
X135042285Y-76896210D01*
X135023133Y-76829017D01*
X135043348Y-76762135D01*
X135094725Y-76717618D01*
X135152734Y-76690568D01*
X135339139Y-76560047D01*
X135500047Y-76399139D01*
X135630568Y-76212734D01*
X135726739Y-76006496D01*
X135785635Y-75786692D01*
X135805468Y-75560000D01*
X135785635Y-75333308D01*
X135726739Y-75113504D01*
X135705008Y-75066903D01*
X135694517Y-74997828D01*
X135723036Y-74934044D01*
X135781513Y-74895804D01*
X135817391Y-74890500D01*
X139661631Y-74890500D01*
X139661647Y-74890501D01*
X139669243Y-74890501D01*
X139827354Y-74890501D01*
X139827357Y-74890501D01*
X139980085Y-74849577D01*
X140053738Y-74807053D01*
X140117016Y-74770520D01*
X140228820Y-74658716D01*
X140228820Y-74658714D01*
X140239024Y-74648511D01*
X140239028Y-74648506D01*
X140986494Y-73901039D01*
X141047815Y-73867556D01*
X141117507Y-73872540D01*
G37*
%TD.AperFunction*%
%TA.AperFunction,Conductor*%
G36*
X170892539Y-61785185D02*
G01*
X170938294Y-61837989D01*
X170949500Y-61889500D01*
X170949500Y-135540500D01*
X170929815Y-135607539D01*
X170877011Y-135653294D01*
X170825500Y-135664500D01*
X111674500Y-135664500D01*
X111607461Y-135644815D01*
X111561706Y-135592011D01*
X111550500Y-135540500D01*
X111550500Y-133243713D01*
X112314500Y-133243713D01*
X112314500Y-133456286D01*
X112347753Y-133666239D01*
X112413444Y-133868414D01*
X112509951Y-134057820D01*
X112634890Y-134229786D01*
X112785213Y-134380109D01*
X112957179Y-134505048D01*
X112957181Y-134505049D01*
X112957184Y-134505051D01*
X113146588Y-134601557D01*
X113348757Y-134667246D01*
X113558713Y-134700500D01*
X113558714Y-134700500D01*
X113771286Y-134700500D01*
X113771287Y-134700500D01*
X113981243Y-134667246D01*
X114183412Y-134601557D01*
X114372816Y-134505051D01*
X114394789Y-134489086D01*
X114544786Y-134380109D01*
X114544788Y-134380106D01*
X114544792Y-134380104D01*
X114695104Y-134229792D01*
X114695106Y-134229788D01*
X114695109Y-134229786D01*
X114820048Y-134057820D01*
X114820047Y-134057820D01*
X114820051Y-134057816D01*
X114916557Y-133868412D01*
X114982246Y-133666243D01*
X115015500Y-133456287D01*
X115015500Y-133243713D01*
X167559500Y-133243713D01*
X167559500Y-133456286D01*
X167592753Y-133666239D01*
X167658444Y-133868414D01*
X167754951Y-134057820D01*
X167879890Y-134229786D01*
X168030213Y-134380109D01*
X168202179Y-134505048D01*
X168202181Y-134505049D01*
X168202184Y-134505051D01*
X168391588Y-134601557D01*
X168593757Y-134667246D01*
X168803713Y-134700500D01*
X168803714Y-134700500D01*
X169016286Y-134700500D01*
X169016287Y-134700500D01*
X169226243Y-134667246D01*
X169428412Y-134601557D01*
X169617816Y-134505051D01*
X169639789Y-134489086D01*
X169789786Y-134380109D01*
X169789788Y-134380106D01*
X169789792Y-134380104D01*
X169940104Y-134229792D01*
X169940106Y-134229788D01*
X169940109Y-134229786D01*
X170065048Y-134057820D01*
X170065047Y-134057820D01*
X170065051Y-134057816D01*
X170161557Y-133868412D01*
X170227246Y-133666243D01*
X170260500Y-133456287D01*
X170260500Y-133243713D01*
X170227246Y-133033757D01*
X170161557Y-132831588D01*
X170065051Y-132642184D01*
X170065049Y-132642181D01*
X170065048Y-132642179D01*
X169940109Y-132470213D01*
X169789786Y-132319890D01*
X169617820Y-132194951D01*
X169428414Y-132098444D01*
X169428413Y-132098443D01*
X169428412Y-132098443D01*
X169226243Y-132032754D01*
X169226241Y-132032753D01*
X169226240Y-132032753D01*
X169064957Y-132007208D01*
X169016287Y-131999500D01*
X168803713Y-131999500D01*
X168755042Y-132007208D01*
X168593760Y-132032753D01*
X168391585Y-132098444D01*
X168202179Y-132194951D01*
X168030213Y-132319890D01*
X167879890Y-132470213D01*
X167754951Y-132642179D01*
X167658444Y-132831585D01*
X167592753Y-133033760D01*
X167559500Y-133243713D01*
X115015500Y-133243713D01*
X114982246Y-133033757D01*
X114916557Y-132831588D01*
X114820051Y-132642184D01*
X114820049Y-132642181D01*
X114820048Y-132642179D01*
X114695109Y-132470213D01*
X114544786Y-132319890D01*
X114372820Y-132194951D01*
X114183414Y-132098444D01*
X114183413Y-132098443D01*
X114183412Y-132098443D01*
X113981243Y-132032754D01*
X113981241Y-132032753D01*
X113981240Y-132032753D01*
X113819957Y-132007208D01*
X113771287Y-131999500D01*
X113558713Y-131999500D01*
X113510042Y-132007208D01*
X113348760Y-132032753D01*
X113146585Y-132098444D01*
X112957179Y-132194951D01*
X112785213Y-132319890D01*
X112634890Y-132470213D01*
X112509951Y-132642179D01*
X112413444Y-132831585D01*
X112347753Y-133033760D01*
X112314500Y-133243713D01*
X111550500Y-133243713D01*
X111550500Y-77085954D01*
X117246398Y-77085954D01*
X117287323Y-77238685D01*
X117316258Y-77288800D01*
X117316259Y-77288804D01*
X117316260Y-77288804D01*
X117366379Y-77375614D01*
X117366381Y-77375617D01*
X117485249Y-77494485D01*
X117485255Y-77494490D01*
X117707976Y-77717212D01*
X117741461Y-77778535D01*
X117740070Y-77836984D01*
X117714267Y-77933287D01*
X117714267Y-77933288D01*
X117694432Y-78159999D01*
X117694432Y-78160000D01*
X117714266Y-78386705D01*
X117714268Y-78386715D01*
X117773164Y-78606523D01*
X117773166Y-78606527D01*
X117773167Y-78606531D01*
X117821256Y-78709657D01*
X117869344Y-78812783D01*
X117869345Y-78812785D01*
X117999873Y-78999198D01*
X117999878Y-78999204D01*
X118160795Y-79160121D01*
X118160801Y-79160126D01*
X118347214Y-79290654D01*
X118347216Y-79290655D01*
X118405037Y-79317618D01*
X118457476Y-79363791D01*
X118476628Y-79430984D01*
X118456412Y-79497866D01*
X118405037Y-79542382D01*
X118347216Y-79569344D01*
X118347214Y-79569345D01*
X118160801Y-79699873D01*
X118160795Y-79699878D01*
X117999878Y-79860795D01*
X117999873Y-79860801D01*
X117869345Y-80047214D01*
X117869344Y-80047216D01*
X117773168Y-80253467D01*
X117773164Y-80253476D01*
X117714268Y-80473284D01*
X117714266Y-80473294D01*
X117694432Y-80699999D01*
X117694432Y-80700000D01*
X117714266Y-80926705D01*
X117714268Y-80926715D01*
X117773164Y-81146523D01*
X117773166Y-81146527D01*
X117773167Y-81146531D01*
X117821256Y-81249657D01*
X117869344Y-81352783D01*
X117869345Y-81352785D01*
X117999873Y-81539198D01*
X117999877Y-81539203D01*
X118160795Y-81700121D01*
X118160801Y-81700126D01*
X118347214Y-81830654D01*
X118347216Y-81830655D01*
X118405037Y-81857618D01*
X118457476Y-81903791D01*
X118476628Y-81970984D01*
X118456412Y-82037866D01*
X118405037Y-82082382D01*
X118347216Y-82109344D01*
X118347214Y-82109345D01*
X118160801Y-82239873D01*
X118160795Y-82239878D01*
X117999878Y-82400795D01*
X117999873Y-82400801D01*
X117869345Y-82587214D01*
X117869344Y-82587216D01*
X117773168Y-82793467D01*
X117773164Y-82793476D01*
X117714268Y-83013284D01*
X117714266Y-83013294D01*
X117694432Y-83239999D01*
X117694432Y-83240000D01*
X117714266Y-83466705D01*
X117714268Y-83466715D01*
X117773164Y-83686523D01*
X117773166Y-83686527D01*
X117773167Y-83686531D01*
X117814606Y-83775397D01*
X117869344Y-83892783D01*
X117869345Y-83892785D01*
X117999873Y-84079198D01*
X117999878Y-84079204D01*
X118160795Y-84240121D01*
X118160801Y-84240126D01*
X118347214Y-84370654D01*
X118347216Y-84370655D01*
X118405037Y-84397618D01*
X118457476Y-84443791D01*
X118476628Y-84510984D01*
X118456412Y-84577866D01*
X118405037Y-84622382D01*
X118347216Y-84649344D01*
X118347214Y-84649345D01*
X118160801Y-84779873D01*
X118160795Y-84779878D01*
X117999878Y-84940795D01*
X117999873Y-84940801D01*
X117869345Y-85127214D01*
X117869344Y-85127216D01*
X117773168Y-85333467D01*
X117773164Y-85333476D01*
X117714268Y-85553284D01*
X117714266Y-85553294D01*
X117694432Y-85779999D01*
X117694432Y-85780000D01*
X117714266Y-86006705D01*
X117714268Y-86006715D01*
X117773164Y-86226523D01*
X117773166Y-86226527D01*
X117773167Y-86226531D01*
X117818535Y-86323822D01*
X117869344Y-86432783D01*
X117869345Y-86432785D01*
X117999873Y-86619198D01*
X117999878Y-86619204D01*
X118160795Y-86780121D01*
X118160801Y-86780126D01*
X118347214Y-86910654D01*
X118347216Y-86910655D01*
X118405037Y-86937618D01*
X118457476Y-86983791D01*
X118476628Y-87050984D01*
X118456412Y-87117866D01*
X118405037Y-87162382D01*
X118347216Y-87189344D01*
X118347214Y-87189345D01*
X118160801Y-87319873D01*
X118160795Y-87319878D01*
X117999878Y-87480795D01*
X117999873Y-87480801D01*
X117869345Y-87667214D01*
X117869344Y-87667216D01*
X117773168Y-87873467D01*
X117773164Y-87873476D01*
X117714268Y-88093284D01*
X117714266Y-88093294D01*
X117694432Y-88319999D01*
X117694432Y-88320000D01*
X117714266Y-88546705D01*
X117714268Y-88546715D01*
X117773164Y-88766523D01*
X117773166Y-88766527D01*
X117773167Y-88766531D01*
X117821256Y-88869657D01*
X117869344Y-88972783D01*
X117869345Y-88972785D01*
X117999873Y-89159198D01*
X117999878Y-89159204D01*
X118160795Y-89320121D01*
X118160801Y-89320126D01*
X118347214Y-89450654D01*
X118347216Y-89450655D01*
X118405630Y-89477894D01*
X118458069Y-89524066D01*
X118477221Y-89591260D01*
X118457005Y-89658141D01*
X118405630Y-89702658D01*
X118347464Y-89729781D01*
X118274454Y-89780901D01*
X118832949Y-90339396D01*
X118789213Y-90351116D01*
X118664687Y-90423011D01*
X118563011Y-90524687D01*
X118491116Y-90649213D01*
X118479396Y-90692949D01*
X117920901Y-90134454D01*
X117869781Y-90207464D01*
X117773640Y-90413639D01*
X117773636Y-90413648D01*
X117714762Y-90633372D01*
X117714760Y-90633382D01*
X117694934Y-90859999D01*
X117694934Y-90860000D01*
X117714760Y-91086617D01*
X117714762Y-91086627D01*
X117773636Y-91306351D01*
X117773640Y-91306360D01*
X117869782Y-91512536D01*
X117920901Y-91585543D01*
X117920902Y-91585544D01*
X118479396Y-91027050D01*
X118491116Y-91070787D01*
X118563011Y-91195313D01*
X118664687Y-91296989D01*
X118789213Y-91368884D01*
X118832948Y-91380602D01*
X118274454Y-91939096D01*
X118347466Y-91990219D01*
X118347468Y-91990220D01*
X118406222Y-92017618D01*
X118458661Y-92063791D01*
X118477813Y-92130984D01*
X118457597Y-92197865D01*
X118406222Y-92242382D01*
X118347464Y-92269781D01*
X118274454Y-92320901D01*
X118832950Y-92879396D01*
X118789213Y-92891116D01*
X118664687Y-92963011D01*
X118563011Y-93064687D01*
X118491116Y-93189213D01*
X118479396Y-93232949D01*
X117920901Y-92674454D01*
X117869781Y-92747464D01*
X117773640Y-92953639D01*
X117773636Y-92953648D01*
X117714762Y-93173372D01*
X117714760Y-93173382D01*
X117694934Y-93399999D01*
X117694934Y-93400000D01*
X117714760Y-93626617D01*
X117714762Y-93626627D01*
X117773636Y-93846351D01*
X117773640Y-93846360D01*
X117869782Y-94052536D01*
X117920901Y-94125543D01*
X117920902Y-94125544D01*
X118479396Y-93567050D01*
X118491116Y-93610787D01*
X118563011Y-93735313D01*
X118664687Y-93836989D01*
X118789213Y-93908884D01*
X118832949Y-93920603D01*
X118274454Y-94479096D01*
X118347464Y-94530218D01*
X118405629Y-94557340D01*
X118458069Y-94603512D01*
X118477221Y-94670706D01*
X118457006Y-94737587D01*
X118405631Y-94782105D01*
X118347213Y-94809346D01*
X118160801Y-94939873D01*
X118160795Y-94939878D01*
X117999878Y-95100795D01*
X117999873Y-95100801D01*
X117869345Y-95287214D01*
X117869344Y-95287216D01*
X117773168Y-95493467D01*
X117773164Y-95493476D01*
X117714268Y-95713284D01*
X117714266Y-95713294D01*
X117694432Y-95939999D01*
X117694432Y-95940000D01*
X117714267Y-96166710D01*
X117740070Y-96263013D01*
X117738407Y-96332863D01*
X117707976Y-96382786D01*
X117529486Y-96561278D01*
X117417681Y-96673082D01*
X117417677Y-96673087D01*
X117368237Y-96758722D01*
X117368236Y-96758721D01*
X117338624Y-96810011D01*
X117338623Y-96810015D01*
X117297699Y-96962743D01*
X117297699Y-96962745D01*
X117297699Y-97130846D01*
X117297700Y-97130859D01*
X117297700Y-98908630D01*
X117297699Y-98908648D01*
X117297699Y-99074354D01*
X117297698Y-99074354D01*
X117297699Y-99074357D01*
X117338623Y-99227085D01*
X117338624Y-99227087D01*
X117338623Y-99227087D01*
X117357127Y-99259135D01*
X117357129Y-99259137D01*
X117357130Y-99259139D01*
X117375525Y-99291000D01*
X117417679Y-99364015D01*
X117536549Y-99482885D01*
X117536555Y-99482890D01*
X118029487Y-99975822D01*
X118062972Y-100037145D01*
X118057988Y-100106837D01*
X118029490Y-100151182D01*
X117999876Y-100180797D01*
X117869345Y-100367214D01*
X117869344Y-100367216D01*
X117773168Y-100573467D01*
X117773164Y-100573476D01*
X117714268Y-100793284D01*
X117714266Y-100793294D01*
X117694432Y-101019999D01*
X117694432Y-101020000D01*
X117714266Y-101246705D01*
X117714268Y-101246715D01*
X117773164Y-101466523D01*
X117773166Y-101466527D01*
X117773167Y-101466531D01*
X117797903Y-101519577D01*
X117869344Y-101672783D01*
X117869345Y-101672785D01*
X117999873Y-101859198D01*
X117999878Y-101859204D01*
X118160795Y-102020121D01*
X118160801Y-102020126D01*
X118347214Y-102150654D01*
X118347216Y-102150655D01*
X118405037Y-102177618D01*
X118457476Y-102223791D01*
X118476628Y-102290984D01*
X118456412Y-102357866D01*
X118405037Y-102402382D01*
X118347216Y-102429344D01*
X118347214Y-102429345D01*
X118160801Y-102559873D01*
X118160795Y-102559878D01*
X117999878Y-102720795D01*
X117999873Y-102720801D01*
X117869345Y-102907214D01*
X117869344Y-102907216D01*
X117773168Y-103113467D01*
X117773164Y-103113476D01*
X117714268Y-103333284D01*
X117714266Y-103333294D01*
X117694432Y-103559999D01*
X117694432Y-103560000D01*
X117714266Y-103786705D01*
X117714268Y-103786715D01*
X117773164Y-104006523D01*
X117773166Y-104006527D01*
X117773167Y-104006531D01*
X117804645Y-104074035D01*
X117869344Y-104212783D01*
X117869345Y-104212785D01*
X117999873Y-104399198D01*
X117999878Y-104399204D01*
X118160795Y-104560121D01*
X118160801Y-104560126D01*
X118347214Y-104690654D01*
X118347216Y-104690655D01*
X118405037Y-104717618D01*
X118457476Y-104763791D01*
X118476628Y-104830984D01*
X118456412Y-104897866D01*
X118405037Y-104942382D01*
X118347216Y-104969344D01*
X118347214Y-104969345D01*
X118160801Y-105099873D01*
X118160795Y-105099878D01*
X117999878Y-105260795D01*
X117999873Y-105260801D01*
X117869345Y-105447214D01*
X117869344Y-105447216D01*
X117773168Y-105653467D01*
X117773164Y-105653476D01*
X117714268Y-105873284D01*
X117714266Y-105873294D01*
X117694432Y-106099999D01*
X117694432Y-106100000D01*
X117714266Y-106326705D01*
X117714268Y-106326715D01*
X117773164Y-106546523D01*
X117773166Y-106546527D01*
X117773167Y-106546531D01*
X117813748Y-106633556D01*
X117869344Y-106752783D01*
X117869345Y-106752785D01*
X117999873Y-106939198D01*
X117999878Y-106939204D01*
X118160795Y-107100121D01*
X118160801Y-107100126D01*
X118347214Y-107230654D01*
X118347216Y-107230655D01*
X118405037Y-107257618D01*
X118457476Y-107303791D01*
X118476628Y-107370984D01*
X118456412Y-107437866D01*
X118405037Y-107482382D01*
X118347216Y-107509344D01*
X118347214Y-107509345D01*
X118160801Y-107639873D01*
X118160795Y-107639878D01*
X117999878Y-107800795D01*
X117999873Y-107800801D01*
X117869345Y-107987214D01*
X117869344Y-107987216D01*
X117773168Y-108193467D01*
X117773164Y-108193476D01*
X117714268Y-108413284D01*
X117714266Y-108413294D01*
X117694432Y-108639999D01*
X117694432Y-108640000D01*
X117714266Y-108866705D01*
X117714268Y-108866715D01*
X117773164Y-109086523D01*
X117773166Y-109086527D01*
X117773167Y-109086531D01*
X117797903Y-109139577D01*
X117869344Y-109292783D01*
X117869345Y-109292785D01*
X117999873Y-109479198D01*
X117999878Y-109479204D01*
X118160795Y-109640121D01*
X118160801Y-109640126D01*
X118347214Y-109770654D01*
X118347216Y-109770655D01*
X118405037Y-109797618D01*
X118457476Y-109843791D01*
X118476628Y-109910984D01*
X118456412Y-109977866D01*
X118405037Y-110022382D01*
X118347216Y-110049344D01*
X118347214Y-110049345D01*
X118160801Y-110179873D01*
X118160795Y-110179878D01*
X117999878Y-110340795D01*
X117999873Y-110340801D01*
X117869345Y-110527214D01*
X117869344Y-110527216D01*
X117773168Y-110733467D01*
X117773164Y-110733476D01*
X117714268Y-110953284D01*
X117714266Y-110953294D01*
X117694432Y-111179999D01*
X117694432Y-111180000D01*
X117714266Y-111406705D01*
X117714268Y-111406715D01*
X117773164Y-111626523D01*
X117773166Y-111626527D01*
X117773167Y-111626531D01*
X117797903Y-111679577D01*
X117869344Y-111832783D01*
X117869345Y-111832785D01*
X117999873Y-112019198D01*
X117999878Y-112019204D01*
X118160795Y-112180121D01*
X118160801Y-112180126D01*
X118347214Y-112310654D01*
X118347216Y-112310655D01*
X118405037Y-112337618D01*
X118457476Y-112383791D01*
X118476628Y-112450984D01*
X118456412Y-112517866D01*
X118405037Y-112562382D01*
X118347216Y-112589344D01*
X118347214Y-112589345D01*
X118160801Y-112719873D01*
X118160795Y-112719878D01*
X117999878Y-112880795D01*
X117999873Y-112880801D01*
X117869348Y-113067211D01*
X117869344Y-113067216D01*
X117773168Y-113273467D01*
X117773164Y-113273476D01*
X117714268Y-113493284D01*
X117714266Y-113493294D01*
X117694432Y-113719999D01*
X117694432Y-113720000D01*
X117714266Y-113946705D01*
X117714268Y-113946715D01*
X117773164Y-114166523D01*
X117773166Y-114166527D01*
X117773167Y-114166531D01*
X117801670Y-114227656D01*
X117869344Y-114372783D01*
X117869345Y-114372785D01*
X117999873Y-114559198D01*
X117999878Y-114559204D01*
X118160795Y-114720121D01*
X118160801Y-114720126D01*
X118347214Y-114850654D01*
X118347216Y-114850655D01*
X118405037Y-114877618D01*
X118457476Y-114923791D01*
X118476628Y-114990984D01*
X118456412Y-115057866D01*
X118405037Y-115102382D01*
X118347216Y-115129344D01*
X118347214Y-115129345D01*
X118160801Y-115259873D01*
X118160795Y-115259878D01*
X117999878Y-115420795D01*
X117999873Y-115420801D01*
X117869345Y-115607214D01*
X117869344Y-115607216D01*
X117773168Y-115813467D01*
X117773164Y-115813476D01*
X117714268Y-116033284D01*
X117714266Y-116033294D01*
X117694432Y-116259999D01*
X117694432Y-116260000D01*
X117714266Y-116486705D01*
X117714268Y-116486715D01*
X117773164Y-116706523D01*
X117773166Y-116706527D01*
X117773167Y-116706531D01*
X117810302Y-116786167D01*
X117869344Y-116912783D01*
X117869345Y-116912785D01*
X117999873Y-117099198D01*
X117999878Y-117099204D01*
X118160795Y-117260121D01*
X118160801Y-117260126D01*
X118347214Y-117390654D01*
X118347216Y-117390655D01*
X118405037Y-117417618D01*
X118457476Y-117463791D01*
X118476628Y-117530984D01*
X118456412Y-117597866D01*
X118405037Y-117642382D01*
X118347216Y-117669344D01*
X118347214Y-117669345D01*
X118160801Y-117799873D01*
X118160795Y-117799878D01*
X117999878Y-117960795D01*
X117999873Y-117960801D01*
X117869345Y-118147214D01*
X117869344Y-118147216D01*
X117773168Y-118353467D01*
X117773164Y-118353476D01*
X117714268Y-118573284D01*
X117714266Y-118573294D01*
X117694432Y-118799999D01*
X117694432Y-118800000D01*
X117714266Y-119026705D01*
X117714268Y-119026715D01*
X117773164Y-119246523D01*
X117773166Y-119246527D01*
X117773167Y-119246531D01*
X117797902Y-119299575D01*
X117869344Y-119452783D01*
X117869345Y-119452785D01*
X117999873Y-119639198D01*
X117999878Y-119639204D01*
X118160795Y-119800121D01*
X118160801Y-119800126D01*
X118347214Y-119930654D01*
X118347216Y-119930655D01*
X118405037Y-119957618D01*
X118457476Y-120003791D01*
X118476628Y-120070984D01*
X118456412Y-120137866D01*
X118405037Y-120182382D01*
X118347216Y-120209344D01*
X118347214Y-120209345D01*
X118160801Y-120339873D01*
X118160795Y-120339878D01*
X117999878Y-120500795D01*
X117999873Y-120500801D01*
X117869345Y-120687214D01*
X117869344Y-120687216D01*
X117773168Y-120893467D01*
X117773164Y-120893476D01*
X117714268Y-121113284D01*
X117714266Y-121113294D01*
X117694432Y-121339999D01*
X117694432Y-121340000D01*
X117714266Y-121566705D01*
X117714268Y-121566715D01*
X117773164Y-121786523D01*
X117773166Y-121786527D01*
X117773167Y-121786531D01*
X117821256Y-121889657D01*
X117869344Y-121992783D01*
X117869345Y-121992785D01*
X117999873Y-122179198D01*
X117999878Y-122179204D01*
X118160795Y-122340121D01*
X118160801Y-122340126D01*
X118347214Y-122470654D01*
X118347216Y-122470655D01*
X118405037Y-122497618D01*
X118457476Y-122543791D01*
X118476628Y-122610984D01*
X118456412Y-122677866D01*
X118405037Y-122722382D01*
X118347216Y-122749344D01*
X118347214Y-122749345D01*
X118160801Y-122879873D01*
X118160795Y-122879878D01*
X117999878Y-123040795D01*
X117999873Y-123040801D01*
X117869345Y-123227214D01*
X117869344Y-123227216D01*
X117773168Y-123433467D01*
X117773164Y-123433476D01*
X117714268Y-123653284D01*
X117714266Y-123653294D01*
X117694432Y-123879999D01*
X117694432Y-123880000D01*
X117714266Y-124106705D01*
X117714268Y-124106715D01*
X117773164Y-124326523D01*
X117773166Y-124326527D01*
X117773167Y-124326531D01*
X117812389Y-124410642D01*
X117869344Y-124532783D01*
X117869345Y-124532785D01*
X117999873Y-124719198D01*
X117999878Y-124719204D01*
X118160795Y-124880121D01*
X118160801Y-124880126D01*
X118347214Y-125010654D01*
X118347216Y-125010655D01*
X118405037Y-125037618D01*
X118457476Y-125083791D01*
X118476628Y-125150984D01*
X118456412Y-125217866D01*
X118405037Y-125262382D01*
X118347216Y-125289344D01*
X118347214Y-125289345D01*
X118160801Y-125419873D01*
X118160795Y-125419878D01*
X117999878Y-125580795D01*
X117999873Y-125580801D01*
X117869345Y-125767214D01*
X117869344Y-125767216D01*
X117773168Y-125973467D01*
X117773164Y-125973476D01*
X117714268Y-126193284D01*
X117714266Y-126193294D01*
X117694432Y-126419999D01*
X117694432Y-126420000D01*
X117714266Y-126646705D01*
X117714268Y-126646715D01*
X117773164Y-126866523D01*
X117773166Y-126866527D01*
X117773167Y-126866531D01*
X117821256Y-126969657D01*
X117869344Y-127072783D01*
X117869345Y-127072785D01*
X117999873Y-127259198D01*
X117999878Y-127259204D01*
X118160795Y-127420121D01*
X118160801Y-127420126D01*
X118347214Y-127550654D01*
X118347216Y-127550655D01*
X118405037Y-127577618D01*
X118457476Y-127623791D01*
X118476628Y-127690984D01*
X118456412Y-127757866D01*
X118405037Y-127802382D01*
X118347216Y-127829344D01*
X118347214Y-127829345D01*
X118160801Y-127959873D01*
X118160795Y-127959878D01*
X117999878Y-128120795D01*
X117999873Y-128120801D01*
X117869345Y-128307214D01*
X117869344Y-128307216D01*
X117773168Y-128513467D01*
X117773164Y-128513476D01*
X117714268Y-128733284D01*
X117714266Y-128733294D01*
X117694432Y-128959999D01*
X117694432Y-128960000D01*
X117714266Y-129186705D01*
X117714268Y-129186715D01*
X117773164Y-129406523D01*
X117773166Y-129406527D01*
X117773167Y-129406531D01*
X117821256Y-129509657D01*
X117869344Y-129612783D01*
X117869345Y-129612785D01*
X117999873Y-129799198D01*
X117999878Y-129799204D01*
X118160795Y-129960121D01*
X118160801Y-129960126D01*
X118347214Y-130090654D01*
X118347216Y-130090655D01*
X118553469Y-130186833D01*
X118773290Y-130245733D01*
X118954658Y-130261601D01*
X118999999Y-130265568D01*
X119000000Y-130265568D01*
X119000001Y-130265568D01*
X119037785Y-130262262D01*
X119226710Y-130245733D01*
X119446531Y-130186833D01*
X119652784Y-130090655D01*
X119839203Y-129960123D01*
X120000123Y-129799203D01*
X120130655Y-129612784D01*
X120226833Y-129406531D01*
X120285733Y-129186710D01*
X120305568Y-128960000D01*
X120285733Y-128733290D01*
X120226833Y-128513469D01*
X120130655Y-128307216D01*
X120000123Y-128120797D01*
X119839203Y-127959877D01*
X119839201Y-127959876D01*
X119839198Y-127959873D01*
X119652785Y-127829345D01*
X119652783Y-127829344D01*
X119594962Y-127802382D01*
X119542523Y-127756210D01*
X119523371Y-127689016D01*
X119543587Y-127622135D01*
X119594962Y-127577618D01*
X119652784Y-127550655D01*
X119839203Y-127420123D01*
X120000123Y-127259203D01*
X120130655Y-127072784D01*
X120226833Y-126866531D01*
X120285733Y-126646710D01*
X120305568Y-126420000D01*
X120285733Y-126193290D01*
X120226833Y-125973469D01*
X120130655Y-125767216D01*
X120000123Y-125580797D01*
X119839203Y-125419877D01*
X119839201Y-125419876D01*
X119839198Y-125419873D01*
X119652785Y-125289345D01*
X119652783Y-125289344D01*
X119594962Y-125262382D01*
X119542523Y-125216210D01*
X119523371Y-125149016D01*
X119543587Y-125082135D01*
X119594962Y-125037618D01*
X119652784Y-125010655D01*
X119839203Y-124880123D01*
X120000123Y-124719203D01*
X120130655Y-124532784D01*
X120226833Y-124326531D01*
X120285733Y-124106710D01*
X120305568Y-123880000D01*
X120285733Y-123653290D01*
X120226833Y-123433469D01*
X120130655Y-123227216D01*
X120000123Y-123040797D01*
X119839203Y-122879877D01*
X119839201Y-122879876D01*
X119839198Y-122879873D01*
X119652785Y-122749345D01*
X119652783Y-122749344D01*
X119594962Y-122722382D01*
X119542523Y-122676210D01*
X119523371Y-122609016D01*
X119543587Y-122542135D01*
X119594962Y-122497618D01*
X119652784Y-122470655D01*
X119839203Y-122340123D01*
X120000123Y-122179203D01*
X120130655Y-121992784D01*
X120226833Y-121786531D01*
X120285733Y-121566710D01*
X120305568Y-121340000D01*
X120285733Y-121113290D01*
X120226833Y-120893469D01*
X120130655Y-120687216D01*
X120114821Y-120664603D01*
X120000126Y-120500801D01*
X120000121Y-120500795D01*
X119839204Y-120339878D01*
X119839198Y-120339873D01*
X119652785Y-120209345D01*
X119652783Y-120209344D01*
X119594962Y-120182382D01*
X119542523Y-120136210D01*
X119523371Y-120069016D01*
X119543587Y-120002135D01*
X119594962Y-119957618D01*
X119624026Y-119944065D01*
X119652784Y-119930655D01*
X119839203Y-119800123D01*
X120000123Y-119639203D01*
X120130655Y-119452784D01*
X120226833Y-119246531D01*
X120285733Y-119026710D01*
X120305568Y-118800000D01*
X120285733Y-118573290D01*
X120226833Y-118353469D01*
X120130655Y-118147216D01*
X120088678Y-118087267D01*
X120000126Y-117960801D01*
X120000121Y-117960795D01*
X119839204Y-117799878D01*
X119839198Y-117799873D01*
X119652785Y-117669345D01*
X119652783Y-117669344D01*
X119594962Y-117642382D01*
X119542523Y-117596210D01*
X119523371Y-117529016D01*
X119543587Y-117462135D01*
X119594962Y-117417618D01*
X119615011Y-117408269D01*
X119652784Y-117390655D01*
X119839203Y-117260123D01*
X120000123Y-117099203D01*
X120130655Y-116912784D01*
X120226833Y-116706531D01*
X120285733Y-116486710D01*
X120305568Y-116260000D01*
X120285733Y-116033290D01*
X120226833Y-115813469D01*
X120130655Y-115607216D01*
X120089121Y-115547900D01*
X120000126Y-115420801D01*
X120000121Y-115420795D01*
X119839204Y-115259878D01*
X119839198Y-115259873D01*
X119652785Y-115129345D01*
X119652783Y-115129344D01*
X119594962Y-115102382D01*
X119542523Y-115056210D01*
X119523371Y-114989016D01*
X119543587Y-114922135D01*
X119594962Y-114877618D01*
X119652784Y-114850655D01*
X119839203Y-114720123D01*
X120000123Y-114559203D01*
X120130655Y-114372784D01*
X120226833Y-114166531D01*
X120285733Y-113946710D01*
X120305568Y-113720000D01*
X120298329Y-113637261D01*
X120312095Y-113568762D01*
X120360710Y-113518579D01*
X120428739Y-113502645D01*
X120494583Y-113526020D01*
X120509537Y-113538772D01*
X122441284Y-115470520D01*
X122441286Y-115470521D01*
X122441290Y-115470524D01*
X122574211Y-115547265D01*
X122578216Y-115549577D01*
X122586063Y-115551679D01*
X122645723Y-115588043D01*
X122676253Y-115650889D01*
X122667959Y-115720265D01*
X122666353Y-115723858D01*
X122624566Y-115813471D01*
X122624564Y-115813476D01*
X122565668Y-116033284D01*
X122565666Y-116033294D01*
X122545832Y-116259999D01*
X122545832Y-116260000D01*
X122565666Y-116486705D01*
X122565668Y-116486715D01*
X122624564Y-116706523D01*
X122624566Y-116706527D01*
X122624567Y-116706531D01*
X122661702Y-116786167D01*
X122720744Y-116912783D01*
X122720745Y-116912785D01*
X122851273Y-117099198D01*
X122851278Y-117099204D01*
X123012195Y-117260121D01*
X123012201Y-117260126D01*
X123198614Y-117390654D01*
X123198616Y-117390655D01*
X123256437Y-117417618D01*
X123308876Y-117463791D01*
X123328028Y-117530984D01*
X123307812Y-117597866D01*
X123256437Y-117642382D01*
X123198616Y-117669344D01*
X123198614Y-117669345D01*
X123012201Y-117799873D01*
X123012195Y-117799878D01*
X122851278Y-117960795D01*
X122851273Y-117960801D01*
X122720745Y-118147214D01*
X122720744Y-118147216D01*
X122624568Y-118353467D01*
X122624564Y-118353476D01*
X122565668Y-118573284D01*
X122565666Y-118573294D01*
X122545832Y-118799999D01*
X122545832Y-118800000D01*
X122565666Y-119026705D01*
X122565668Y-119026715D01*
X122624564Y-119246523D01*
X122624566Y-119246527D01*
X122624567Y-119246531D01*
X122649302Y-119299575D01*
X122720744Y-119452783D01*
X122720745Y-119452785D01*
X122851273Y-119639198D01*
X122851278Y-119639204D01*
X123012195Y-119800121D01*
X123012201Y-119800126D01*
X123198614Y-119930654D01*
X123198616Y-119930655D01*
X123256437Y-119957618D01*
X123308876Y-120003791D01*
X123328028Y-120070984D01*
X123307812Y-120137866D01*
X123256437Y-120182382D01*
X123198616Y-120209344D01*
X123198614Y-120209345D01*
X123012201Y-120339873D01*
X123012195Y-120339878D01*
X122851278Y-120500795D01*
X122851273Y-120500801D01*
X122720745Y-120687214D01*
X122720744Y-120687216D01*
X122624568Y-120893467D01*
X122624564Y-120893476D01*
X122565668Y-121113284D01*
X122565666Y-121113294D01*
X122545832Y-121339999D01*
X122545832Y-121340000D01*
X122565666Y-121566705D01*
X122565668Y-121566715D01*
X122624564Y-121786523D01*
X122624566Y-121786527D01*
X122624567Y-121786531D01*
X122672656Y-121889657D01*
X122720744Y-121992783D01*
X122720745Y-121992785D01*
X122851273Y-122179198D01*
X122851278Y-122179204D01*
X123012195Y-122340121D01*
X123012201Y-122340126D01*
X123198614Y-122470654D01*
X123198616Y-122470655D01*
X123256437Y-122497618D01*
X123308876Y-122543791D01*
X123328028Y-122610984D01*
X123307812Y-122677866D01*
X123256437Y-122722382D01*
X123198616Y-122749344D01*
X123198614Y-122749345D01*
X123012201Y-122879873D01*
X123012195Y-122879878D01*
X122851278Y-123040795D01*
X122851273Y-123040801D01*
X122720745Y-123227214D01*
X122720744Y-123227216D01*
X122624568Y-123433467D01*
X122624564Y-123433476D01*
X122565668Y-123653284D01*
X122565666Y-123653294D01*
X122545832Y-123879999D01*
X122545832Y-123880000D01*
X122565666Y-124106705D01*
X122565668Y-124106715D01*
X122624564Y-124326523D01*
X122624566Y-124326527D01*
X122624567Y-124326531D01*
X122663789Y-124410642D01*
X122720744Y-124532783D01*
X122720745Y-124532785D01*
X122851273Y-124719198D01*
X122851278Y-124719204D01*
X123012195Y-124880121D01*
X123012201Y-124880126D01*
X123198614Y-125010654D01*
X123198616Y-125010655D01*
X123256437Y-125037618D01*
X123308876Y-125083791D01*
X123328028Y-125150984D01*
X123307812Y-125217866D01*
X123256437Y-125262382D01*
X123198616Y-125289344D01*
X123198614Y-125289345D01*
X123012201Y-125419873D01*
X123012195Y-125419878D01*
X122851278Y-125580795D01*
X122851273Y-125580801D01*
X122720745Y-125767214D01*
X122720744Y-125767216D01*
X122624568Y-125973467D01*
X122624564Y-125973476D01*
X122565668Y-126193284D01*
X122565666Y-126193294D01*
X122545832Y-126419999D01*
X122545832Y-126420000D01*
X122565666Y-126646705D01*
X122565668Y-126646715D01*
X122624564Y-126866523D01*
X122624566Y-126866527D01*
X122624567Y-126866531D01*
X122672656Y-126969657D01*
X122720744Y-127072783D01*
X122720745Y-127072785D01*
X122851273Y-127259198D01*
X122851278Y-127259204D01*
X123012195Y-127420121D01*
X123012201Y-127420126D01*
X123198614Y-127550654D01*
X123198616Y-127550655D01*
X123256437Y-127577618D01*
X123308876Y-127623791D01*
X123328028Y-127690984D01*
X123307812Y-127757866D01*
X123256437Y-127802382D01*
X123198616Y-127829344D01*
X123198614Y-127829345D01*
X123012201Y-127959873D01*
X123012195Y-127959878D01*
X122851278Y-128120795D01*
X122851273Y-128120801D01*
X122720745Y-128307214D01*
X122720744Y-128307216D01*
X122624568Y-128513467D01*
X122624564Y-128513476D01*
X122565668Y-128733284D01*
X122565666Y-128733294D01*
X122545832Y-128959999D01*
X122545832Y-128960000D01*
X122565666Y-129186705D01*
X122565668Y-129186715D01*
X122624564Y-129406523D01*
X122624566Y-129406527D01*
X122624567Y-129406531D01*
X122672656Y-129509657D01*
X122720744Y-129612783D01*
X122720745Y-129612785D01*
X122851273Y-129799198D01*
X122851278Y-129799204D01*
X123012195Y-129960121D01*
X123012201Y-129960126D01*
X123198614Y-130090654D01*
X123198616Y-130090655D01*
X123404869Y-130186833D01*
X123624690Y-130245733D01*
X123806058Y-130261601D01*
X123851399Y-130265568D01*
X123851400Y-130265568D01*
X123851401Y-130265568D01*
X123889185Y-130262262D01*
X124078110Y-130245733D01*
X124297931Y-130186833D01*
X124504184Y-130090655D01*
X124690603Y-129960123D01*
X124851523Y-129799203D01*
X124982055Y-129612784D01*
X125078233Y-129406531D01*
X125137133Y-129186710D01*
X125156968Y-128960000D01*
X125137133Y-128733290D01*
X125078233Y-128513469D01*
X124982055Y-128307216D01*
X124851523Y-128120797D01*
X124690603Y-127959877D01*
X124690601Y-127959876D01*
X124690598Y-127959873D01*
X124504185Y-127829345D01*
X124504183Y-127829344D01*
X124446362Y-127802382D01*
X124393923Y-127756210D01*
X124374771Y-127689016D01*
X124394987Y-127622135D01*
X124446362Y-127577618D01*
X124504184Y-127550655D01*
X124690603Y-127420123D01*
X124851523Y-127259203D01*
X124982055Y-127072784D01*
X125078233Y-126866531D01*
X125137133Y-126646710D01*
X125156968Y-126420000D01*
X125137133Y-126193290D01*
X125078233Y-125973469D01*
X124982055Y-125767216D01*
X124851523Y-125580797D01*
X124690603Y-125419877D01*
X124690601Y-125419876D01*
X124690598Y-125419873D01*
X124504185Y-125289345D01*
X124504183Y-125289344D01*
X124446362Y-125262382D01*
X124393923Y-125216210D01*
X124374771Y-125149016D01*
X124394987Y-125082135D01*
X124446362Y-125037618D01*
X124504184Y-125010655D01*
X124690603Y-124880123D01*
X124851523Y-124719203D01*
X124981640Y-124533377D01*
X125036217Y-124489752D01*
X125083215Y-124480500D01*
X163789931Y-124480500D01*
X163789947Y-124480501D01*
X163797543Y-124480501D01*
X163955654Y-124480501D01*
X163955657Y-124480501D01*
X164108385Y-124439577D01*
X164158504Y-124410639D01*
X164245316Y-124360520D01*
X164357120Y-124248716D01*
X164357120Y-124248714D01*
X164367328Y-124238507D01*
X164367329Y-124238504D01*
X166343336Y-122262498D01*
X166404657Y-122229015D01*
X166417110Y-122226963D01*
X166504055Y-122217168D01*
X166504058Y-122217167D01*
X166504059Y-122217167D01*
X166554906Y-122199374D01*
X166596394Y-122184856D01*
X166666172Y-122181294D01*
X166725030Y-122214217D01*
X166790858Y-122280045D01*
X166790861Y-122280047D01*
X166977266Y-122410568D01*
X167183504Y-122506739D01*
X167403308Y-122565635D01*
X167565230Y-122579801D01*
X167629998Y-122585468D01*
X167630000Y-122585468D01*
X167630002Y-122585468D01*
X167686673Y-122580509D01*
X167856692Y-122565635D01*
X168076496Y-122506739D01*
X168282734Y-122410568D01*
X168469139Y-122280047D01*
X168630047Y-122119139D01*
X168760568Y-121932734D01*
X168856739Y-121726496D01*
X168915635Y-121506692D01*
X168935468Y-121280000D01*
X168915635Y-121053308D01*
X168856739Y-120833504D01*
X168760568Y-120627266D01*
X168662839Y-120487693D01*
X168630045Y-120440858D01*
X168469141Y-120279954D01*
X168282734Y-120149432D01*
X168282728Y-120149429D01*
X168224725Y-120122382D01*
X168172285Y-120076210D01*
X168153133Y-120009017D01*
X168173348Y-119942135D01*
X168224725Y-119897618D01*
X168282734Y-119870568D01*
X168469139Y-119740047D01*
X168630047Y-119579139D01*
X168760568Y-119392734D01*
X168856739Y-119186496D01*
X168915635Y-118966692D01*
X168935468Y-118740000D01*
X168915635Y-118513308D01*
X168856739Y-118293504D01*
X168760568Y-118087266D01*
X168630047Y-117900861D01*
X168630045Y-117900858D01*
X168469141Y-117739954D01*
X168282734Y-117609432D01*
X168282728Y-117609429D01*
X168224725Y-117582382D01*
X168172285Y-117536210D01*
X168153133Y-117469017D01*
X168173348Y-117402135D01*
X168224725Y-117357618D01*
X168282734Y-117330568D01*
X168469139Y-117200047D01*
X168630047Y-117039139D01*
X168760568Y-116852734D01*
X168856739Y-116646496D01*
X168915635Y-116426692D01*
X168935468Y-116200000D01*
X168915635Y-115973308D01*
X168856739Y-115753504D01*
X168760568Y-115547266D01*
X168630047Y-115360861D01*
X168630046Y-115360860D01*
X168630045Y-115360858D01*
X168469141Y-115199954D01*
X168282734Y-115069432D01*
X168282728Y-115069429D01*
X168224725Y-115042382D01*
X168172285Y-114996210D01*
X168153133Y-114929017D01*
X168173348Y-114862135D01*
X168224725Y-114817618D01*
X168282734Y-114790568D01*
X168469139Y-114660047D01*
X168630047Y-114499139D01*
X168760568Y-114312734D01*
X168856739Y-114106496D01*
X168915635Y-113886692D01*
X168935468Y-113660000D01*
X168915635Y-113433308D01*
X168856739Y-113213504D01*
X168760568Y-113007266D01*
X168630047Y-112820861D01*
X168630045Y-112820858D01*
X168469141Y-112659954D01*
X168282734Y-112529432D01*
X168282728Y-112529429D01*
X168247470Y-112512988D01*
X168224724Y-112502381D01*
X168172285Y-112456210D01*
X168153133Y-112389017D01*
X168173348Y-112322135D01*
X168224725Y-112277618D01*
X168225319Y-112277341D01*
X168282734Y-112250568D01*
X168469139Y-112120047D01*
X168630047Y-111959139D01*
X168760568Y-111772734D01*
X168856739Y-111566496D01*
X168915635Y-111346692D01*
X168935468Y-111120000D01*
X168915635Y-110893308D01*
X168856739Y-110673504D01*
X168760568Y-110467266D01*
X168630047Y-110280861D01*
X168630045Y-110280858D01*
X168469141Y-110119954D01*
X168282734Y-109989432D01*
X168282728Y-109989429D01*
X168224725Y-109962382D01*
X168172285Y-109916210D01*
X168153133Y-109849017D01*
X168173348Y-109782135D01*
X168224725Y-109737618D01*
X168282734Y-109710568D01*
X168469139Y-109580047D01*
X168630047Y-109419139D01*
X168760568Y-109232734D01*
X168856739Y-109026496D01*
X168915635Y-108806692D01*
X168935468Y-108580000D01*
X168915635Y-108353308D01*
X168856739Y-108133504D01*
X168760568Y-107927266D01*
X168630047Y-107740861D01*
X168630045Y-107740858D01*
X168469141Y-107579954D01*
X168282734Y-107449432D01*
X168282728Y-107449429D01*
X168254380Y-107436210D01*
X168224724Y-107422381D01*
X168172285Y-107376210D01*
X168153133Y-107309017D01*
X168173348Y-107242135D01*
X168224725Y-107197618D01*
X168282734Y-107170568D01*
X168469139Y-107040047D01*
X168630047Y-106879139D01*
X168760568Y-106692734D01*
X168856739Y-106486496D01*
X168915635Y-106266692D01*
X168935468Y-106040000D01*
X168915635Y-105813308D01*
X168856739Y-105593504D01*
X168760568Y-105387266D01*
X168630047Y-105200861D01*
X168630045Y-105200858D01*
X168469141Y-105039954D01*
X168282734Y-104909432D01*
X168282728Y-104909429D01*
X168224725Y-104882382D01*
X168172285Y-104836210D01*
X168153133Y-104769017D01*
X168173348Y-104702135D01*
X168224725Y-104657618D01*
X168282734Y-104630568D01*
X168469139Y-104500047D01*
X168630047Y-104339139D01*
X168760568Y-104152734D01*
X168856739Y-103946496D01*
X168915635Y-103726692D01*
X168935468Y-103500000D01*
X168915635Y-103273308D01*
X168858946Y-103061739D01*
X168856741Y-103053511D01*
X168856738Y-103053502D01*
X168796816Y-102925000D01*
X168760568Y-102847266D01*
X168630047Y-102660861D01*
X168630045Y-102660858D01*
X168469141Y-102499954D01*
X168282734Y-102369432D01*
X168282728Y-102369429D01*
X168224882Y-102342455D01*
X168224724Y-102342381D01*
X168172285Y-102296210D01*
X168153133Y-102229017D01*
X168173348Y-102162135D01*
X168224725Y-102117618D01*
X168282734Y-102090568D01*
X168469139Y-101960047D01*
X168630047Y-101799139D01*
X168760568Y-101612734D01*
X168856739Y-101406496D01*
X168915635Y-101186692D01*
X168935468Y-100960000D01*
X168915635Y-100733308D01*
X168856739Y-100513504D01*
X168760568Y-100307266D01*
X168630047Y-100120861D01*
X168630045Y-100120858D01*
X168469141Y-99959954D01*
X168282734Y-99829432D01*
X168282728Y-99829429D01*
X168224725Y-99802382D01*
X168172285Y-99756210D01*
X168153133Y-99689017D01*
X168173348Y-99622135D01*
X168224725Y-99577618D01*
X168282734Y-99550568D01*
X168469139Y-99420047D01*
X168525171Y-99364015D01*
X168630047Y-99259140D01*
X168706919Y-99149353D01*
X168760568Y-99072734D01*
X168856739Y-98866496D01*
X168915635Y-98646692D01*
X168935468Y-98420000D01*
X168915635Y-98193308D01*
X168857412Y-97976016D01*
X168856741Y-97973511D01*
X168856738Y-97973502D01*
X168760568Y-97767267D01*
X168760567Y-97767265D01*
X168630045Y-97580858D01*
X168469141Y-97419954D01*
X168282734Y-97289432D01*
X168282728Y-97289429D01*
X168247470Y-97272988D01*
X168224724Y-97262381D01*
X168172285Y-97216210D01*
X168153133Y-97149017D01*
X168173348Y-97082135D01*
X168224725Y-97037618D01*
X168282734Y-97010568D01*
X168469139Y-96880047D01*
X168630047Y-96719139D01*
X168760568Y-96532734D01*
X168856739Y-96326496D01*
X168915635Y-96106692D01*
X168935468Y-95880000D01*
X168915635Y-95653308D01*
X168856739Y-95433504D01*
X168760568Y-95227266D01*
X168630047Y-95040861D01*
X168630045Y-95040858D01*
X168469141Y-94879954D01*
X168282734Y-94749432D01*
X168282728Y-94749429D01*
X168224725Y-94722382D01*
X168172285Y-94676210D01*
X168153133Y-94609017D01*
X168173348Y-94542135D01*
X168224725Y-94497618D01*
X168282734Y-94470568D01*
X168469139Y-94340047D01*
X168630047Y-94179139D01*
X168760568Y-93992734D01*
X168856739Y-93786496D01*
X168915635Y-93566692D01*
X168935468Y-93340000D01*
X168915635Y-93113308D01*
X168856739Y-92893504D01*
X168760568Y-92687266D01*
X168630047Y-92500861D01*
X168630045Y-92500858D01*
X168469141Y-92339954D01*
X168282734Y-92209432D01*
X168282728Y-92209429D01*
X168224725Y-92182382D01*
X168172285Y-92136210D01*
X168153133Y-92069017D01*
X168173348Y-92002135D01*
X168224725Y-91957618D01*
X168282734Y-91930568D01*
X168469139Y-91800047D01*
X168630047Y-91639139D01*
X168760568Y-91452734D01*
X168856739Y-91246496D01*
X168915635Y-91026692D01*
X168935468Y-90800000D01*
X168932922Y-90770904D01*
X168915635Y-90573313D01*
X168915635Y-90573308D01*
X168856739Y-90353504D01*
X168760568Y-90147266D01*
X168630047Y-89960861D01*
X168630045Y-89960858D01*
X168469141Y-89799954D01*
X168282734Y-89669432D01*
X168282732Y-89669431D01*
X168271275Y-89664088D01*
X168224132Y-89642105D01*
X168171694Y-89595934D01*
X168152542Y-89528740D01*
X168172758Y-89461859D01*
X168224134Y-89417341D01*
X168282484Y-89390132D01*
X168468820Y-89259657D01*
X168629657Y-89098820D01*
X168760134Y-88912482D01*
X168856265Y-88706326D01*
X168856269Y-88706317D01*
X168908872Y-88510000D01*
X168063012Y-88510000D01*
X168095925Y-88452993D01*
X168130000Y-88325826D01*
X168130000Y-88194174D01*
X168095925Y-88067007D01*
X168063012Y-88010000D01*
X168908872Y-88010000D01*
X168908872Y-88009999D01*
X168856269Y-87813682D01*
X168856265Y-87813673D01*
X168760134Y-87607517D01*
X168629657Y-87421179D01*
X168468820Y-87260342D01*
X168282482Y-87129865D01*
X168224133Y-87102657D01*
X168171694Y-87056484D01*
X168152542Y-86989291D01*
X168172758Y-86922410D01*
X168224129Y-86877895D01*
X168282734Y-86850568D01*
X168469139Y-86720047D01*
X168630047Y-86559139D01*
X168760568Y-86372734D01*
X168856739Y-86166496D01*
X168915635Y-85946692D01*
X168935468Y-85720000D01*
X168915635Y-85493308D01*
X168856739Y-85273504D01*
X168760568Y-85067266D01*
X168630047Y-84880861D01*
X168630045Y-84880858D01*
X168469141Y-84719954D01*
X168282734Y-84589432D01*
X168282732Y-84589431D01*
X168076497Y-84493261D01*
X168076488Y-84493258D01*
X167856697Y-84434366D01*
X167856693Y-84434365D01*
X167856692Y-84434365D01*
X167856691Y-84434364D01*
X167856686Y-84434364D01*
X167630002Y-84414532D01*
X167629998Y-84414532D01*
X167403313Y-84434364D01*
X167403302Y-84434366D01*
X167183511Y-84493258D01*
X167183502Y-84493261D01*
X166977267Y-84589431D01*
X166977265Y-84589432D01*
X166790858Y-84719954D01*
X166629954Y-84880858D01*
X166499432Y-85067265D01*
X166499431Y-85067267D01*
X166403261Y-85273502D01*
X166403258Y-85273511D01*
X166344366Y-85493302D01*
X166344364Y-85493313D01*
X166324532Y-85719998D01*
X166324532Y-85720001D01*
X166344364Y-85946686D01*
X166344366Y-85946697D01*
X166403258Y-86166488D01*
X166403261Y-86166497D01*
X166499431Y-86372732D01*
X166499432Y-86372734D01*
X166629954Y-86559141D01*
X166790858Y-86720045D01*
X166790861Y-86720047D01*
X166977266Y-86850568D01*
X167035865Y-86877893D01*
X167088305Y-86924065D01*
X167107457Y-86991258D01*
X167087242Y-87058139D01*
X167035867Y-87102657D01*
X166977515Y-87129867D01*
X166791179Y-87260342D01*
X166630342Y-87421179D01*
X166499865Y-87607517D01*
X166403734Y-87813673D01*
X166403730Y-87813682D01*
X166351127Y-88009999D01*
X166351128Y-88010000D01*
X167196988Y-88010000D01*
X167164075Y-88067007D01*
X167130000Y-88194174D01*
X167130000Y-88325826D01*
X167164075Y-88452993D01*
X167196988Y-88510000D01*
X166351128Y-88510000D01*
X166403730Y-88706317D01*
X166403734Y-88706326D01*
X166499865Y-88912482D01*
X166630342Y-89098820D01*
X166791179Y-89259657D01*
X166977518Y-89390134D01*
X166977520Y-89390135D01*
X167035865Y-89417342D01*
X167088305Y-89463514D01*
X167107457Y-89530707D01*
X167087242Y-89597589D01*
X167035867Y-89642105D01*
X166977268Y-89669431D01*
X166977264Y-89669433D01*
X166790858Y-89799954D01*
X166629954Y-89960858D01*
X166499432Y-90147265D01*
X166499431Y-90147267D01*
X166403261Y-90353502D01*
X166403258Y-90353511D01*
X166344366Y-90573302D01*
X166344364Y-90573313D01*
X166324532Y-90799998D01*
X166324532Y-90800001D01*
X166344364Y-91026686D01*
X166344366Y-91026697D01*
X166403258Y-91246488D01*
X166403261Y-91246497D01*
X166499431Y-91452732D01*
X166499432Y-91452734D01*
X166629954Y-91639141D01*
X166790858Y-91800045D01*
X166790861Y-91800047D01*
X166977266Y-91930568D01*
X167035275Y-91957618D01*
X167087714Y-92003791D01*
X167106866Y-92070984D01*
X167086650Y-92137865D01*
X167035275Y-92182382D01*
X166977267Y-92209431D01*
X166977265Y-92209432D01*
X166790858Y-92339954D01*
X166629954Y-92500858D01*
X166499432Y-92687265D01*
X166499431Y-92687267D01*
X166403261Y-92893502D01*
X166403258Y-92893511D01*
X166344366Y-93113302D01*
X166344364Y-93113313D01*
X166324532Y-93339998D01*
X166324532Y-93340001D01*
X166344364Y-93566686D01*
X166344366Y-93566697D01*
X166403258Y-93786488D01*
X166403261Y-93786497D01*
X166499431Y-93992732D01*
X166499432Y-93992734D01*
X166629954Y-94179141D01*
X166790858Y-94340045D01*
X166790861Y-94340047D01*
X166977266Y-94470568D01*
X167035275Y-94497618D01*
X167087714Y-94543791D01*
X167106866Y-94610984D01*
X167086650Y-94677865D01*
X167035275Y-94722382D01*
X166977267Y-94749431D01*
X166977265Y-94749432D01*
X166790858Y-94879954D01*
X166629954Y-95040858D01*
X166499432Y-95227265D01*
X166499431Y-95227267D01*
X166403261Y-95433502D01*
X166403258Y-95433511D01*
X166344366Y-95653302D01*
X166344364Y-95653313D01*
X166324532Y-95879998D01*
X166324532Y-95880001D01*
X166344364Y-96106686D01*
X166344366Y-96106697D01*
X166403258Y-96326488D01*
X166403261Y-96326497D01*
X166475075Y-96480501D01*
X166499432Y-96532734D01*
X166582469Y-96651325D01*
X166629954Y-96719141D01*
X166790858Y-96880045D01*
X166790861Y-96880047D01*
X166977266Y-97010568D01*
X167035275Y-97037618D01*
X167087714Y-97083791D01*
X167106866Y-97150984D01*
X167086650Y-97217865D01*
X167035275Y-97262382D01*
X166977267Y-97289431D01*
X166977265Y-97289432D01*
X166790858Y-97419954D01*
X166629954Y-97580858D01*
X166499432Y-97767265D01*
X166499431Y-97767267D01*
X166403261Y-97973502D01*
X166403258Y-97973511D01*
X166344366Y-98193302D01*
X166344364Y-98193313D01*
X166324532Y-98419998D01*
X166324532Y-98420001D01*
X166344364Y-98646686D01*
X166344366Y-98646697D01*
X166403258Y-98866488D01*
X166403261Y-98866497D01*
X166499431Y-99072732D01*
X166499432Y-99072734D01*
X166629953Y-99259140D01*
X166790858Y-99420045D01*
X166790861Y-99420047D01*
X166977266Y-99550568D01*
X167035275Y-99577618D01*
X167087714Y-99623791D01*
X167106866Y-99690984D01*
X167086650Y-99757865D01*
X167035275Y-99802382D01*
X166977267Y-99829431D01*
X166977265Y-99829432D01*
X166790858Y-99959954D01*
X166629954Y-100120858D01*
X166499432Y-100307265D01*
X166499431Y-100307267D01*
X166403261Y-100513502D01*
X166403258Y-100513511D01*
X166344366Y-100733302D01*
X166344364Y-100733313D01*
X166324532Y-100959998D01*
X166324532Y-100960001D01*
X166344364Y-101186686D01*
X166344366Y-101186697D01*
X166403258Y-101406488D01*
X166403261Y-101406497D01*
X166499431Y-101612732D01*
X166499432Y-101612734D01*
X166629954Y-101799141D01*
X166790858Y-101960045D01*
X166790861Y-101960047D01*
X166977266Y-102090568D01*
X167035275Y-102117618D01*
X167087714Y-102163791D01*
X167106866Y-102230984D01*
X167086650Y-102297865D01*
X167035275Y-102342381D01*
X167035118Y-102342455D01*
X166977267Y-102369431D01*
X166977265Y-102369432D01*
X166790858Y-102499954D01*
X166629954Y-102660858D01*
X166499432Y-102847265D01*
X166499431Y-102847267D01*
X166403261Y-103053502D01*
X166403258Y-103053511D01*
X166344366Y-103273302D01*
X166344364Y-103273313D01*
X166324532Y-103499998D01*
X166324532Y-103500001D01*
X166344364Y-103726686D01*
X166344366Y-103726697D01*
X166403258Y-103946488D01*
X166403261Y-103946497D01*
X166499431Y-104152732D01*
X166499432Y-104152734D01*
X166629954Y-104339141D01*
X166790858Y-104500045D01*
X166790861Y-104500047D01*
X166977266Y-104630568D01*
X167035275Y-104657618D01*
X167087714Y-104703791D01*
X167106866Y-104770984D01*
X167086650Y-104837865D01*
X167035275Y-104882382D01*
X166977267Y-104909431D01*
X166977265Y-104909432D01*
X166790858Y-105039954D01*
X166629954Y-105200858D01*
X166499432Y-105387265D01*
X166499431Y-105387267D01*
X166403261Y-105593502D01*
X166403258Y-105593511D01*
X166344366Y-105813302D01*
X166344364Y-105813313D01*
X166324532Y-106039998D01*
X166324532Y-106040001D01*
X166344364Y-106266686D01*
X166344366Y-106266697D01*
X166403258Y-106486488D01*
X166403261Y-106486497D01*
X166499431Y-106692732D01*
X166499432Y-106692734D01*
X166629954Y-106879141D01*
X166790858Y-107040045D01*
X166790861Y-107040047D01*
X166977266Y-107170568D01*
X167035275Y-107197618D01*
X167087714Y-107243791D01*
X167106866Y-107310984D01*
X167086650Y-107377865D01*
X167035275Y-107422382D01*
X166977267Y-107449431D01*
X166977265Y-107449432D01*
X166790862Y-107579951D01*
X166671855Y-107698958D01*
X166610532Y-107732442D01*
X166540840Y-107727458D01*
X166496493Y-107698957D01*
X163205890Y-104408355D01*
X163205888Y-104408352D01*
X163087017Y-104289481D01*
X163087016Y-104289480D01*
X163000204Y-104239360D01*
X163000204Y-104239359D01*
X163000200Y-104239358D01*
X162950085Y-104210423D01*
X162797357Y-104169499D01*
X162639243Y-104169499D01*
X162631647Y-104169499D01*
X162631631Y-104169500D01*
X153707391Y-104169500D01*
X153640352Y-104149815D01*
X153594597Y-104097011D01*
X153584653Y-104027853D01*
X153595009Y-103993095D01*
X153599480Y-103983507D01*
X153616739Y-103946496D01*
X153675635Y-103726692D01*
X153695468Y-103500000D01*
X153675635Y-103273308D01*
X153618946Y-103061739D01*
X153616741Y-103053511D01*
X153616738Y-103053502D01*
X153556816Y-102925000D01*
X153520568Y-102847266D01*
X153390047Y-102660861D01*
X153390045Y-102660858D01*
X153229141Y-102499954D01*
X153042734Y-102369432D01*
X153042728Y-102369429D01*
X152984882Y-102342455D01*
X152984724Y-102342381D01*
X152932285Y-102296210D01*
X152913133Y-102229017D01*
X152933348Y-102162135D01*
X152984725Y-102117618D01*
X153042734Y-102090568D01*
X153229139Y-101960047D01*
X153390047Y-101799139D01*
X153520568Y-101612734D01*
X153616739Y-101406496D01*
X153675635Y-101186692D01*
X153695468Y-100960000D01*
X153675635Y-100733308D01*
X153616739Y-100513504D01*
X153520568Y-100307266D01*
X153390047Y-100120861D01*
X153390045Y-100120858D01*
X153229141Y-99959954D01*
X153042734Y-99829432D01*
X153042728Y-99829429D01*
X152984725Y-99802382D01*
X152932285Y-99756210D01*
X152913133Y-99689017D01*
X152933348Y-99622135D01*
X152984725Y-99577618D01*
X153042734Y-99550568D01*
X153229139Y-99420047D01*
X153285171Y-99364015D01*
X153390047Y-99259140D01*
X153466919Y-99149353D01*
X153520568Y-99072734D01*
X153616739Y-98866496D01*
X153675635Y-98646692D01*
X153695468Y-98420000D01*
X153675635Y-98193308D01*
X153617412Y-97976016D01*
X153616741Y-97973511D01*
X153616738Y-97973502D01*
X153520568Y-97767267D01*
X153520567Y-97767265D01*
X153390045Y-97580858D01*
X153385191Y-97576004D01*
X153351706Y-97514681D01*
X153356690Y-97444989D01*
X153385189Y-97400644D01*
X153863806Y-96922028D01*
X153863811Y-96922024D01*
X153874014Y-96911820D01*
X153874016Y-96911820D01*
X153985820Y-96800016D01*
X154064877Y-96663084D01*
X154099804Y-96532734D01*
X154105800Y-96510358D01*
X154105800Y-96352243D01*
X154105800Y-95467759D01*
X154105801Y-95467746D01*
X154105801Y-95299645D01*
X154105801Y-95299643D01*
X154064877Y-95146915D01*
X154064876Y-95146914D01*
X154064876Y-95146912D01*
X154064874Y-95146909D01*
X154032318Y-95090521D01*
X154032316Y-95090519D01*
X154003646Y-95040861D01*
X153985820Y-95009984D01*
X153874016Y-94898180D01*
X153874015Y-94898179D01*
X153869685Y-94893849D01*
X153869674Y-94893839D01*
X153360191Y-94384356D01*
X153326706Y-94323033D01*
X153331690Y-94253341D01*
X153360188Y-94208996D01*
X153390047Y-94179139D01*
X153520568Y-93992734D01*
X153616739Y-93786496D01*
X153675635Y-93566692D01*
X153695468Y-93340000D01*
X153675635Y-93113308D01*
X153616739Y-92893504D01*
X153520568Y-92687266D01*
X153390047Y-92500861D01*
X153390045Y-92500858D01*
X153229141Y-92339954D01*
X153042734Y-92209432D01*
X153042728Y-92209429D01*
X152984725Y-92182382D01*
X152932285Y-92136210D01*
X152913133Y-92069017D01*
X152933348Y-92002135D01*
X152984725Y-91957618D01*
X153042734Y-91930568D01*
X153229139Y-91800047D01*
X153390047Y-91639139D01*
X153520568Y-91452734D01*
X153616739Y-91246496D01*
X153675635Y-91026692D01*
X153695468Y-90800000D01*
X153692922Y-90770904D01*
X153675635Y-90573313D01*
X153675635Y-90573308D01*
X153616739Y-90353504D01*
X153520568Y-90147266D01*
X153390047Y-89960861D01*
X153390045Y-89960858D01*
X153229141Y-89799954D01*
X153042734Y-89669432D01*
X153042728Y-89669429D01*
X152984725Y-89642382D01*
X152932285Y-89596210D01*
X152913133Y-89529017D01*
X152933348Y-89462135D01*
X152984725Y-89417618D01*
X152985319Y-89417341D01*
X153042734Y-89390568D01*
X153229139Y-89260047D01*
X153390047Y-89099139D01*
X153520568Y-88912734D01*
X153616739Y-88706496D01*
X153675635Y-88486692D01*
X153695468Y-88260000D01*
X153675635Y-88033308D01*
X153616739Y-87813504D01*
X153545299Y-87660302D01*
X153534808Y-87591228D01*
X153563327Y-87527444D01*
X153621804Y-87489204D01*
X153657682Y-87483900D01*
X159502103Y-87483900D01*
X159569142Y-87503585D01*
X159589784Y-87520219D01*
X160653098Y-88583534D01*
X160686583Y-88644857D01*
X160688637Y-88657331D01*
X160698430Y-88744249D01*
X160758010Y-88914521D01*
X160794619Y-88972783D01*
X160853984Y-89067262D01*
X160981538Y-89194816D01*
X161071880Y-89251582D01*
X161108909Y-89274849D01*
X161134278Y-89290789D01*
X161304545Y-89350368D01*
X161304550Y-89350369D01*
X161483796Y-89370565D01*
X161483800Y-89370565D01*
X161483804Y-89370565D01*
X161663049Y-89350369D01*
X161663052Y-89350368D01*
X161663055Y-89350368D01*
X161833322Y-89290789D01*
X161986062Y-89194816D01*
X162113616Y-89067262D01*
X162209589Y-88914522D01*
X162269168Y-88744255D01*
X162269169Y-88744249D01*
X162289365Y-88565003D01*
X162289365Y-88564996D01*
X162269169Y-88385750D01*
X162269168Y-88385745D01*
X162240963Y-88305140D01*
X162209589Y-88215478D01*
X162113616Y-88062738D01*
X161986062Y-87935184D01*
X161909790Y-87887259D01*
X161833321Y-87839210D01*
X161663049Y-87779630D01*
X161576131Y-87769837D01*
X161511717Y-87742770D01*
X161502334Y-87734298D01*
X160289790Y-86521755D01*
X160289788Y-86521752D01*
X160170917Y-86402881D01*
X160170916Y-86402880D01*
X160061272Y-86339577D01*
X160061270Y-86339576D01*
X160033985Y-86323823D01*
X160033984Y-86323822D01*
X160033983Y-86323822D01*
X159978081Y-86308843D01*
X159881257Y-86282899D01*
X159723143Y-86282899D01*
X159715547Y-86282899D01*
X159715531Y-86282900D01*
X153814500Y-86282900D01*
X153747461Y-86263215D01*
X153701706Y-86210411D01*
X153690500Y-86158900D01*
X153690499Y-84872129D01*
X153690498Y-84872123D01*
X153690497Y-84872116D01*
X153684091Y-84812517D01*
X153671917Y-84779878D01*
X153633797Y-84677671D01*
X153633793Y-84677664D01*
X153547547Y-84562455D01*
X153547544Y-84562452D01*
X153432335Y-84476206D01*
X153432328Y-84476202D01*
X153297482Y-84425908D01*
X153297483Y-84425908D01*
X153237883Y-84419501D01*
X153237881Y-84419500D01*
X153237873Y-84419500D01*
X153237864Y-84419500D01*
X151542129Y-84419500D01*
X151542123Y-84419501D01*
X151482516Y-84425908D01*
X151347671Y-84476202D01*
X151347664Y-84476206D01*
X151232455Y-84562452D01*
X151232452Y-84562455D01*
X151146206Y-84677664D01*
X151146202Y-84677671D01*
X151095908Y-84812517D01*
X151089795Y-84869384D01*
X151089500Y-84872127D01*
X151089500Y-85562645D01*
X151089501Y-86158900D01*
X151069816Y-86225939D01*
X151017013Y-86271694D01*
X150965501Y-86282900D01*
X150569540Y-86282900D01*
X150502501Y-86263215D01*
X150456746Y-86210411D01*
X150446802Y-86141253D01*
X150475827Y-86077697D01*
X150481859Y-86071219D01*
X150551616Y-86001462D01*
X150647589Y-85848722D01*
X150707168Y-85678455D01*
X150717583Y-85586020D01*
X150727365Y-85499203D01*
X150727365Y-85499196D01*
X150707169Y-85319950D01*
X150707168Y-85319945D01*
X150684124Y-85254089D01*
X150647589Y-85149678D01*
X150551616Y-84996938D01*
X150424062Y-84869384D01*
X150333559Y-84812517D01*
X150271321Y-84773410D01*
X150101049Y-84713830D01*
X150014130Y-84704037D01*
X149949716Y-84676970D01*
X149940333Y-84668498D01*
X149491290Y-84219455D01*
X149491288Y-84219452D01*
X149372417Y-84100581D01*
X149372416Y-84100580D01*
X149277696Y-84045894D01*
X149277695Y-84045893D01*
X149235483Y-84021522D01*
X149179581Y-84006543D01*
X149082757Y-83980599D01*
X148924643Y-83980599D01*
X148917047Y-83980599D01*
X148917031Y-83980600D01*
X145413940Y-83980600D01*
X145346901Y-83960915D01*
X145301146Y-83908111D01*
X145291202Y-83838953D01*
X145320227Y-83775397D01*
X145326259Y-83768919D01*
X145400316Y-83694862D01*
X145496289Y-83542122D01*
X145555868Y-83371855D01*
X145567653Y-83267262D01*
X145576065Y-83192603D01*
X145576065Y-83192596D01*
X145555869Y-83013350D01*
X145555868Y-83013345D01*
X145493989Y-82836505D01*
X145496791Y-82835524D01*
X145487601Y-82779636D01*
X145515336Y-82715507D01*
X145573339Y-82676553D01*
X145610670Y-82670800D01*
X148927003Y-82670800D01*
X148994042Y-82690485D01*
X149014684Y-82707119D01*
X149091098Y-82783533D01*
X149124583Y-82844856D01*
X149126637Y-82857330D01*
X149136430Y-82944249D01*
X149196010Y-83114521D01*
X149274854Y-83240000D01*
X149291984Y-83267262D01*
X149419538Y-83394816D01*
X149509880Y-83451582D01*
X149533956Y-83466710D01*
X149572278Y-83490789D01*
X149718979Y-83542122D01*
X149742545Y-83550368D01*
X149742550Y-83550369D01*
X149921796Y-83570565D01*
X149921800Y-83570565D01*
X149921804Y-83570565D01*
X150101049Y-83550369D01*
X150101052Y-83550368D01*
X150101055Y-83550368D01*
X150271322Y-83490789D01*
X150424062Y-83394816D01*
X150551616Y-83267262D01*
X150647589Y-83114522D01*
X150707168Y-82944255D01*
X150707169Y-82944249D01*
X150727365Y-82765003D01*
X150727365Y-82764996D01*
X150707169Y-82585750D01*
X150707168Y-82585745D01*
X150647588Y-82415476D01*
X150551615Y-82262737D01*
X150424062Y-82135184D01*
X150271321Y-82039210D01*
X150101049Y-81979630D01*
X150014130Y-81969837D01*
X149949716Y-81942770D01*
X149940333Y-81934298D01*
X149714690Y-81708655D01*
X149714688Y-81708652D01*
X149595817Y-81589781D01*
X149595816Y-81589780D01*
X149508213Y-81539203D01*
X149458885Y-81510723D01*
X149306157Y-81469799D01*
X149148043Y-81469799D01*
X149140447Y-81469799D01*
X149140431Y-81469800D01*
X143362641Y-81469800D01*
X143295602Y-81450115D01*
X143249847Y-81397311D01*
X143239903Y-81328153D01*
X143250259Y-81293395D01*
X143250565Y-81292737D01*
X143250568Y-81292734D01*
X143346739Y-81086496D01*
X143405635Y-80866692D01*
X143425468Y-80640000D01*
X143405635Y-80413308D01*
X143346739Y-80193504D01*
X143250568Y-79987266D01*
X143125289Y-79808348D01*
X143120045Y-79800858D01*
X142959141Y-79639954D01*
X142772734Y-79509432D01*
X142772732Y-79509431D01*
X142747931Y-79497866D01*
X142714132Y-79482105D01*
X142661694Y-79435934D01*
X142642542Y-79368740D01*
X142662758Y-79301859D01*
X142714134Y-79257341D01*
X142772484Y-79230132D01*
X142958820Y-79099657D01*
X143119657Y-78938820D01*
X143250134Y-78752482D01*
X143346265Y-78546326D01*
X143346269Y-78546317D01*
X143398872Y-78350000D01*
X142435686Y-78350000D01*
X142440080Y-78345606D01*
X142492741Y-78254394D01*
X142520000Y-78152661D01*
X142520000Y-78047339D01*
X142492741Y-77945606D01*
X142440080Y-77854394D01*
X142435686Y-77850000D01*
X143398872Y-77850000D01*
X143398872Y-77849999D01*
X143346269Y-77653682D01*
X143346265Y-77653673D01*
X143250134Y-77447517D01*
X143119657Y-77261179D01*
X142958820Y-77100342D01*
X142772482Y-76969865D01*
X142714133Y-76942657D01*
X142661694Y-76896484D01*
X142642542Y-76829291D01*
X142662758Y-76762410D01*
X142714129Y-76717895D01*
X142772734Y-76690568D01*
X142959139Y-76560047D01*
X143120047Y-76399139D01*
X143250568Y-76212734D01*
X143346739Y-76006496D01*
X143405635Y-75786692D01*
X143425468Y-75560000D01*
X143420218Y-75499997D01*
X145195034Y-75499997D01*
X145195034Y-75500002D01*
X145214858Y-75726599D01*
X145214860Y-75726610D01*
X145273730Y-75946317D01*
X145273735Y-75946331D01*
X145369863Y-76152478D01*
X145420974Y-76225472D01*
X146100000Y-75546446D01*
X146100000Y-75552661D01*
X146127259Y-75654394D01*
X146179920Y-75745606D01*
X146254394Y-75820080D01*
X146345606Y-75872741D01*
X146447339Y-75900000D01*
X146453553Y-75900000D01*
X145774526Y-76579025D01*
X145847513Y-76630132D01*
X145847521Y-76630136D01*
X146053668Y-76726264D01*
X146053682Y-76726269D01*
X146273389Y-76785139D01*
X146273400Y-76785141D01*
X146499998Y-76804966D01*
X146500002Y-76804966D01*
X146726599Y-76785141D01*
X146726610Y-76785139D01*
X146946317Y-76726269D01*
X146946331Y-76726264D01*
X147152478Y-76630136D01*
X147225471Y-76579024D01*
X146546447Y-75900000D01*
X146552661Y-75900000D01*
X146654394Y-75872741D01*
X146745606Y-75820080D01*
X146820080Y-75745606D01*
X146872741Y-75654394D01*
X146900000Y-75552661D01*
X146900000Y-75546447D01*
X147579024Y-76225471D01*
X147630136Y-76152478D01*
X147726264Y-75946331D01*
X147726269Y-75946317D01*
X147785139Y-75726610D01*
X147785141Y-75726599D01*
X147804966Y-75500002D01*
X147804966Y-75499997D01*
X147785141Y-75273400D01*
X147785139Y-75273389D01*
X147726269Y-75053682D01*
X147726264Y-75053668D01*
X147630136Y-74847521D01*
X147630132Y-74847513D01*
X147579025Y-74774526D01*
X146900000Y-75453551D01*
X146900000Y-75447339D01*
X146872741Y-75345606D01*
X146820080Y-75254394D01*
X146745606Y-75179920D01*
X146654394Y-75127259D01*
X146552661Y-75100000D01*
X146546445Y-75100000D01*
X147225472Y-74420974D01*
X147152478Y-74369863D01*
X146946331Y-74273735D01*
X146946317Y-74273730D01*
X146726610Y-74214860D01*
X146726599Y-74214858D01*
X146500002Y-74195034D01*
X146499998Y-74195034D01*
X146273400Y-74214858D01*
X146273389Y-74214860D01*
X146053682Y-74273730D01*
X146053673Y-74273734D01*
X145847516Y-74369866D01*
X145847512Y-74369868D01*
X145774526Y-74420973D01*
X145774526Y-74420974D01*
X146453553Y-75100000D01*
X146447339Y-75100000D01*
X146345606Y-75127259D01*
X146254394Y-75179920D01*
X146179920Y-75254394D01*
X146127259Y-75345606D01*
X146100000Y-75447339D01*
X146100000Y-75453552D01*
X145420974Y-74774526D01*
X145420973Y-74774526D01*
X145369868Y-74847512D01*
X145369866Y-74847516D01*
X145273734Y-75053673D01*
X145273730Y-75053682D01*
X145214860Y-75273389D01*
X145214858Y-75273400D01*
X145195034Y-75499997D01*
X143420218Y-75499997D01*
X143405635Y-75333308D01*
X143346739Y-75113504D01*
X143250568Y-74907266D01*
X143150573Y-74764457D01*
X143120045Y-74720858D01*
X142959141Y-74559954D01*
X142772734Y-74429432D01*
X142772728Y-74429429D01*
X142714725Y-74402382D01*
X142662285Y-74356210D01*
X142643133Y-74289017D01*
X142663348Y-74222135D01*
X142714725Y-74177618D01*
X142772734Y-74150568D01*
X142959139Y-74020047D01*
X143120047Y-73859139D01*
X143250568Y-73672734D01*
X143346739Y-73466496D01*
X143405635Y-73246692D01*
X143425468Y-73020000D01*
X143424176Y-73005238D01*
X143410883Y-72853294D01*
X143405635Y-72793308D01*
X143346739Y-72573504D01*
X143250568Y-72367266D01*
X143120047Y-72180861D01*
X143120045Y-72180858D01*
X142959141Y-72019954D01*
X142772734Y-71889432D01*
X142772728Y-71889429D01*
X142714725Y-71862382D01*
X142662285Y-71816210D01*
X142643133Y-71749017D01*
X142663348Y-71682135D01*
X142714725Y-71637618D01*
X142772734Y-71610568D01*
X142959139Y-71480047D01*
X143120047Y-71319139D01*
X143236114Y-71153375D01*
X143290689Y-71109752D01*
X143337688Y-71100500D01*
X145268308Y-71100500D01*
X145335347Y-71120185D01*
X145369880Y-71153374D01*
X145397476Y-71192785D01*
X145499954Y-71339141D01*
X145660858Y-71500045D01*
X145660861Y-71500047D01*
X145847266Y-71630568D01*
X146053504Y-71726739D01*
X146273308Y-71785635D01*
X146435230Y-71799801D01*
X146499998Y-71805468D01*
X146500000Y-71805468D01*
X146500002Y-71805468D01*
X146556673Y-71800509D01*
X146726692Y-71785635D01*
X146822932Y-71759847D01*
X146892781Y-71761510D01*
X146942706Y-71791941D01*
X150015139Y-74864374D01*
X150015149Y-74864385D01*
X150019479Y-74868715D01*
X150019480Y-74868716D01*
X150131284Y-74980520D01*
X150218095Y-75030639D01*
X150218097Y-75030641D01*
X150265184Y-75057827D01*
X150268215Y-75059577D01*
X150420942Y-75100500D01*
X150420943Y-75100500D01*
X162205501Y-75100500D01*
X162272540Y-75120185D01*
X162318295Y-75172989D01*
X162329501Y-75224500D01*
X162329501Y-75347876D01*
X162335908Y-75407483D01*
X162386202Y-75542328D01*
X162386206Y-75542335D01*
X162472452Y-75657544D01*
X162472455Y-75657547D01*
X162587664Y-75743793D01*
X162587671Y-75743797D01*
X162722517Y-75794091D01*
X162722516Y-75794091D01*
X162729444Y-75794835D01*
X162782127Y-75800500D01*
X164477872Y-75800499D01*
X164537483Y-75794091D01*
X164672331Y-75743796D01*
X164787546Y-75657546D01*
X164794350Y-75648455D01*
X164850280Y-75606584D01*
X164919971Y-75601597D01*
X164964740Y-75621188D01*
X164977512Y-75630130D01*
X164977518Y-75630134D01*
X165183673Y-75726265D01*
X165183682Y-75726269D01*
X165403389Y-75785139D01*
X165403400Y-75785141D01*
X165629998Y-75804966D01*
X165630002Y-75804966D01*
X165856599Y-75785141D01*
X165856610Y-75785139D01*
X166076317Y-75726269D01*
X166076331Y-75726264D01*
X166282478Y-75630136D01*
X166355471Y-75579024D01*
X165676447Y-74900000D01*
X165682661Y-74900000D01*
X165784394Y-74872741D01*
X165875606Y-74820080D01*
X165950080Y-74745606D01*
X166002741Y-74654394D01*
X166030000Y-74552661D01*
X166030000Y-74546447D01*
X166709024Y-75225471D01*
X166760136Y-75152478D01*
X166856264Y-74946331D01*
X166856269Y-74946317D01*
X166915139Y-74726610D01*
X166915141Y-74726599D01*
X166934966Y-74500002D01*
X166934966Y-74499997D01*
X166915141Y-74273400D01*
X166915139Y-74273389D01*
X166856269Y-74053682D01*
X166856264Y-74053668D01*
X166760136Y-73847521D01*
X166760132Y-73847513D01*
X166709025Y-73774526D01*
X166030000Y-74453551D01*
X166030000Y-74447339D01*
X166002741Y-74345606D01*
X165950080Y-74254394D01*
X165875606Y-74179920D01*
X165784394Y-74127259D01*
X165682661Y-74100000D01*
X165676446Y-74100000D01*
X166355472Y-73420974D01*
X166282478Y-73369863D01*
X166076331Y-73273735D01*
X166076317Y-73273730D01*
X165856610Y-73214860D01*
X165856599Y-73214858D01*
X165630002Y-73195034D01*
X165629998Y-73195034D01*
X165403400Y-73214858D01*
X165403389Y-73214860D01*
X165183682Y-73273730D01*
X165183673Y-73273734D01*
X164977512Y-73369868D01*
X164977507Y-73369871D01*
X164964736Y-73378813D01*
X164898529Y-73401138D01*
X164830763Y-73384124D01*
X164794352Y-73351546D01*
X164787546Y-73342454D01*
X164787544Y-73342453D01*
X164787544Y-73342452D01*
X164672335Y-73256206D01*
X164672328Y-73256202D01*
X164537482Y-73205908D01*
X164537483Y-73205908D01*
X164477883Y-73199501D01*
X164477881Y-73199500D01*
X164477873Y-73199500D01*
X164477864Y-73199500D01*
X162782129Y-73199500D01*
X162782123Y-73199501D01*
X162722516Y-73205908D01*
X162587671Y-73256202D01*
X162587664Y-73256206D01*
X162472455Y-73342452D01*
X162441592Y-73383680D01*
X162385658Y-73425550D01*
X162315966Y-73430534D01*
X162254643Y-73397048D01*
X162221159Y-73335724D01*
X162220600Y-73332330D01*
X162219668Y-73328245D01*
X162176860Y-73205908D01*
X162160089Y-73157978D01*
X162064116Y-73005238D01*
X161936562Y-72877684D01*
X161897730Y-72853284D01*
X161783821Y-72781710D01*
X161613549Y-72722130D01*
X161526630Y-72712337D01*
X161462216Y-72685270D01*
X161452833Y-72676798D01*
X156414390Y-67638355D01*
X156414388Y-67638352D01*
X156295517Y-67519481D01*
X156295516Y-67519480D01*
X156208704Y-67469360D01*
X156208704Y-67469359D01*
X156208700Y-67469358D01*
X156158585Y-67440423D01*
X156005857Y-67399499D01*
X155847743Y-67399499D01*
X155840147Y-67399499D01*
X155840131Y-67399500D01*
X125083215Y-67399500D01*
X125016176Y-67379815D01*
X124981640Y-67346623D01*
X124851526Y-67160801D01*
X124851521Y-67160795D01*
X124690604Y-66999878D01*
X124690598Y-66999873D01*
X124504185Y-66869345D01*
X124504183Y-66869344D01*
X124401057Y-66821256D01*
X124297931Y-66773167D01*
X124297927Y-66773166D01*
X124297923Y-66773164D01*
X124078115Y-66714268D01*
X124078105Y-66714266D01*
X123851401Y-66694432D01*
X123851399Y-66694432D01*
X123624694Y-66714266D01*
X123624684Y-66714268D01*
X123404876Y-66773164D01*
X123404867Y-66773168D01*
X123198616Y-66869344D01*
X123198614Y-66869345D01*
X123012201Y-66999873D01*
X123012195Y-66999878D01*
X122851278Y-67160795D01*
X122851273Y-67160801D01*
X122720745Y-67347214D01*
X122720744Y-67347216D01*
X122624568Y-67553467D01*
X122624564Y-67553476D01*
X122565668Y-67773284D01*
X122565666Y-67773294D01*
X122545832Y-67999999D01*
X122545832Y-68000000D01*
X122565666Y-68226705D01*
X122565668Y-68226715D01*
X122624564Y-68446523D01*
X122624567Y-68446532D01*
X122655327Y-68512495D01*
X122665819Y-68581572D01*
X122637299Y-68645356D01*
X122578823Y-68683596D01*
X122542945Y-68688900D01*
X120589497Y-68688900D01*
X120522458Y-68669215D01*
X120501816Y-68652581D01*
X120292022Y-68442787D01*
X120258537Y-68381464D01*
X120259927Y-68323017D01*
X120285733Y-68226710D01*
X120305568Y-68000000D01*
X120285733Y-67773290D01*
X120226833Y-67553469D01*
X120130655Y-67347216D01*
X120000123Y-67160797D01*
X119839203Y-66999877D01*
X119839201Y-66999876D01*
X119839198Y-66999873D01*
X119652785Y-66869345D01*
X119652783Y-66869344D01*
X119549657Y-66821256D01*
X119446531Y-66773167D01*
X119446527Y-66773166D01*
X119446523Y-66773164D01*
X119226715Y-66714268D01*
X119226705Y-66714266D01*
X119000001Y-66694432D01*
X118999999Y-66694432D01*
X118773294Y-66714266D01*
X118773284Y-66714268D01*
X118553476Y-66773164D01*
X118553467Y-66773168D01*
X118347216Y-66869344D01*
X118347214Y-66869345D01*
X118160801Y-66999873D01*
X118160795Y-66999878D01*
X117999878Y-67160795D01*
X117999873Y-67160801D01*
X117869345Y-67347214D01*
X117869344Y-67347216D01*
X117773168Y-67553467D01*
X117773164Y-67553476D01*
X117714268Y-67773284D01*
X117714266Y-67773294D01*
X117694432Y-67999999D01*
X117694432Y-68000000D01*
X117714266Y-68226705D01*
X117714268Y-68226715D01*
X117773164Y-68446523D01*
X117773166Y-68446527D01*
X117773167Y-68446531D01*
X117803927Y-68512495D01*
X117869344Y-68652783D01*
X117869345Y-68652785D01*
X117999873Y-68839198D01*
X117999878Y-68839204D01*
X118160795Y-69000121D01*
X118160801Y-69000126D01*
X118347214Y-69130654D01*
X118347216Y-69130655D01*
X118405037Y-69157618D01*
X118457476Y-69203791D01*
X118476628Y-69270984D01*
X118456412Y-69337866D01*
X118405037Y-69382382D01*
X118347216Y-69409344D01*
X118347214Y-69409345D01*
X118160801Y-69539873D01*
X118160795Y-69539878D01*
X117999878Y-69700795D01*
X117999873Y-69700801D01*
X117869345Y-69887214D01*
X117869344Y-69887216D01*
X117773168Y-70093467D01*
X117773164Y-70093476D01*
X117714268Y-70313284D01*
X117714266Y-70313294D01*
X117694432Y-70539999D01*
X117694432Y-70540000D01*
X117714266Y-70766705D01*
X117714268Y-70766715D01*
X117773164Y-70986523D01*
X117773166Y-70986527D01*
X117773167Y-70986531D01*
X117797903Y-71039577D01*
X117869344Y-71192783D01*
X117869345Y-71192785D01*
X117999873Y-71379198D01*
X117999878Y-71379204D01*
X118160795Y-71540121D01*
X118160801Y-71540126D01*
X118347214Y-71670654D01*
X118347216Y-71670655D01*
X118405037Y-71697618D01*
X118457476Y-71743791D01*
X118476628Y-71810984D01*
X118456412Y-71877866D01*
X118405037Y-71922382D01*
X118347216Y-71949344D01*
X118347214Y-71949345D01*
X118160801Y-72079873D01*
X118160795Y-72079878D01*
X117999878Y-72240795D01*
X117999873Y-72240801D01*
X117869345Y-72427214D01*
X117869344Y-72427216D01*
X117773168Y-72633467D01*
X117773164Y-72633476D01*
X117714268Y-72853284D01*
X117714266Y-72853294D01*
X117694432Y-73079999D01*
X117694432Y-73080000D01*
X117714266Y-73306705D01*
X117714268Y-73306715D01*
X117773164Y-73526523D01*
X117773166Y-73526527D01*
X117773167Y-73526531D01*
X117803937Y-73592517D01*
X117869344Y-73732783D01*
X117869345Y-73732785D01*
X117999873Y-73919198D01*
X117999878Y-73919204D01*
X118056338Y-73975664D01*
X118089823Y-74036987D01*
X118084839Y-74106679D01*
X118056338Y-74151026D01*
X117366381Y-74840982D01*
X117366379Y-74840985D01*
X117362606Y-74847521D01*
X117326778Y-74909577D01*
X117287323Y-74977915D01*
X117246399Y-75130643D01*
X117246399Y-75130645D01*
X117246399Y-75298746D01*
X117246400Y-75298759D01*
X117246400Y-76920230D01*
X117246399Y-76920248D01*
X117246399Y-77085954D01*
X117246398Y-77085954D01*
X111550500Y-77085954D01*
X111550500Y-64028713D01*
X112314500Y-64028713D01*
X112314500Y-64241286D01*
X112347753Y-64451239D01*
X112413444Y-64653414D01*
X112509951Y-64842820D01*
X112634890Y-65014786D01*
X112785213Y-65165109D01*
X112957179Y-65290048D01*
X112957181Y-65290049D01*
X112957184Y-65290051D01*
X113146588Y-65386557D01*
X113348757Y-65452246D01*
X113558713Y-65485500D01*
X113558714Y-65485500D01*
X113771286Y-65485500D01*
X113771287Y-65485500D01*
X113981243Y-65452246D01*
X114183412Y-65386557D01*
X114372816Y-65290051D01*
X114394789Y-65274086D01*
X114544786Y-65165109D01*
X114544788Y-65165106D01*
X114544792Y-65165104D01*
X114695104Y-65014792D01*
X114695106Y-65014788D01*
X114695109Y-65014786D01*
X114820048Y-64842820D01*
X114820047Y-64842820D01*
X114820051Y-64842816D01*
X114916557Y-64653412D01*
X114982246Y-64451243D01*
X115015500Y-64241287D01*
X115015500Y-64028713D01*
X167559500Y-64028713D01*
X167559500Y-64241286D01*
X167592753Y-64451239D01*
X167658444Y-64653414D01*
X167754951Y-64842820D01*
X167879890Y-65014786D01*
X168030213Y-65165109D01*
X168202179Y-65290048D01*
X168202181Y-65290049D01*
X168202184Y-65290051D01*
X168391588Y-65386557D01*
X168593757Y-65452246D01*
X168803713Y-65485500D01*
X168803714Y-65485500D01*
X169016286Y-65485500D01*
X169016287Y-65485500D01*
X169226243Y-65452246D01*
X169428412Y-65386557D01*
X169617816Y-65290051D01*
X169639789Y-65274086D01*
X169789786Y-65165109D01*
X169789788Y-65165106D01*
X169789792Y-65165104D01*
X169940104Y-65014792D01*
X169940106Y-65014788D01*
X169940109Y-65014786D01*
X170065048Y-64842820D01*
X170065047Y-64842820D01*
X170065051Y-64842816D01*
X170161557Y-64653412D01*
X170227246Y-64451243D01*
X170260500Y-64241287D01*
X170260500Y-64028713D01*
X170227246Y-63818757D01*
X170161557Y-63616588D01*
X170065051Y-63427184D01*
X170065049Y-63427181D01*
X170065048Y-63427179D01*
X169940109Y-63255213D01*
X169789786Y-63104890D01*
X169617820Y-62979951D01*
X169428414Y-62883444D01*
X169428413Y-62883443D01*
X169428412Y-62883443D01*
X169226243Y-62817754D01*
X169226241Y-62817753D01*
X169226240Y-62817753D01*
X169064957Y-62792208D01*
X169016287Y-62784500D01*
X168803713Y-62784500D01*
X168755042Y-62792208D01*
X168593760Y-62817753D01*
X168391585Y-62883444D01*
X168202179Y-62979951D01*
X168030213Y-63104890D01*
X167879890Y-63255213D01*
X167754951Y-63427179D01*
X167658444Y-63616585D01*
X167592753Y-63818760D01*
X167559500Y-64028713D01*
X115015500Y-64028713D01*
X114982246Y-63818757D01*
X114916557Y-63616588D01*
X114820051Y-63427184D01*
X114820049Y-63427181D01*
X114820048Y-63427179D01*
X114695109Y-63255213D01*
X114544786Y-63104890D01*
X114372820Y-62979951D01*
X114183414Y-62883444D01*
X114183413Y-62883443D01*
X114183412Y-62883443D01*
X113981243Y-62817754D01*
X113981241Y-62817753D01*
X113981240Y-62817753D01*
X113819957Y-62792208D01*
X113771287Y-62784500D01*
X113558713Y-62784500D01*
X113510042Y-62792208D01*
X113348760Y-62817753D01*
X113146585Y-62883444D01*
X112957179Y-62979951D01*
X112785213Y-63104890D01*
X112634890Y-63255213D01*
X112509951Y-63427179D01*
X112413444Y-63616585D01*
X112347753Y-63818760D01*
X112314500Y-64028713D01*
X111550500Y-64028713D01*
X111550500Y-61889500D01*
X111570185Y-61822461D01*
X111622989Y-61776706D01*
X111674500Y-61765500D01*
X170825500Y-61765500D01*
X170892539Y-61785185D01*
G37*
%TD.AperFunction*%
%TD*%
M02*
