M48
; DRILL file {KiCad 8.0.9-8.0.9-0~ubuntu22.04.1} date 2026-07-12T14:32:01-0700
; FORMAT={-:-/ absolute / inch / decimal}
; #@! TF.CreationDate,2026-07-12T14:32:01-07:00
; #@! TF.GenerationSoftware,Kicad,Pcbnew,8.0.9-8.0.9-0~ubuntu22.04.1
; #@! TF.FileFunction,Plated,1,2,PTH
FMAT,2
INCH
; #@! TA.AperFunction,Plated,PTH,ViaDrill
T1C0.0118
; #@! TA.AperFunction,Plated,PTH,ComponentDrill
T2C0.0276
; #@! TA.AperFunction,Plated,PTH,ComponentDrill
T3C0.0315
; #@! TA.AperFunction,Plated,PTH,ComponentDrill
T4C0.0394
; #@! TA.AperFunction,Plated,PTH,ComponentDrill
T5C0.0430
%
G90
G05
T1
X4.7795Y-3.0196
X4.992Y-4.0522
X5.1058Y-3.7517
X5.1541Y-3.144
X5.6916Y-4.6356
X5.6996Y-3.2753
X5.784Y-3.6371
X5.7992Y-4.1613
X5.9024Y-3.2585
X5.9024Y-3.3661
X6.3557Y-2.894
X6.3576Y-3.4868
X6.5482Y-4.7808
T2
X5.7874Y-4.4748
X5.7874Y-4.7748
T3
X5.2953Y-2.7748
X5.2953Y-2.8748
X5.2953Y-2.9748
X5.2953Y-3.0748
X5.2953Y-3.1748
X5.2953Y-3.2748
X5.2953Y-3.3748
X5.2953Y-3.4748
X5.3031Y-4.0748
X5.3031Y-4.1748
X5.3031Y-4.2748
X5.3031Y-4.3748
X5.3031Y-4.4748
X5.3031Y-4.5748
X5.3031Y-4.6748
X5.3031Y-4.7748
X5.5953Y-2.7748
X5.5953Y-2.8748
X5.5953Y-2.9748
X5.5953Y-3.0748
X5.5953Y-3.1748
X5.5953Y-3.2748
X5.5953Y-3.3748
X5.5953Y-3.4748
X5.6031Y-4.0748
X5.6031Y-4.1748
X5.6031Y-4.2748
X5.6031Y-4.3748
X5.6031Y-4.4748
X5.6031Y-4.5748
X5.6031Y-4.6748
X5.6031Y-4.7748
X5.7677Y-2.7756
X5.7677Y-2.9724
X5.7803Y-4.0748
X5.7803Y-4.2717
X6.4421Y-2.9331
X6.5209Y-2.9331
T4
X5.9996Y-3.3748
X5.9996Y-3.4748
X5.9996Y-3.5748
X5.9996Y-3.6748
X5.9996Y-3.7748
X5.9996Y-3.8748
X5.9996Y-3.9748
X5.9996Y-4.0748
X5.9996Y-4.1748
X5.9996Y-4.2748
X5.9996Y-4.3748
X5.9996Y-4.4748
X5.9996Y-4.5748
X5.9996Y-4.6748
X5.9996Y-4.7748
X6.5996Y-3.3748
X6.5996Y-3.4748
X6.5996Y-3.5748
X6.5996Y-3.6748
X6.5996Y-3.7748
X6.5996Y-3.8748
X6.5996Y-3.9748
X6.5996Y-4.0748
X6.5996Y-4.1748
X6.5996Y-4.2748
X6.5996Y-4.3748
X6.5996Y-4.4748
X6.5996Y-4.5748
X6.5996Y-4.6748
X6.5996Y-4.7748
T5
X4.685Y-2.6772
X4.685Y-2.7772
X4.685Y-2.8772
X4.685Y-2.9772
X4.685Y-3.0772
X4.685Y-3.1772
X4.685Y-3.2772
X4.685Y-3.3772
X4.685Y-3.4772
X4.685Y-3.5772
X4.685Y-3.6772
X4.685Y-3.7772
X4.685Y-3.8772
X4.685Y-3.9772
X4.685Y-4.0772
X4.685Y-4.1772
X4.685Y-4.2772
X4.685Y-4.3772
X4.685Y-4.4772
X4.685Y-4.5772
X4.685Y-4.6772
X4.685Y-4.7772
X4.685Y-4.8772
X4.685Y-4.9772
X4.685Y-5.0772
X4.876Y-2.6772
X4.876Y-2.7772
X4.876Y-2.8772
X4.876Y-2.9772
X4.876Y-3.0772
X4.876Y-3.1772
X4.876Y-3.2772
X4.876Y-3.3772
X4.876Y-3.4772
X4.876Y-3.5772
X4.876Y-3.6772
X4.876Y-3.7772
X4.876Y-3.8772
X4.876Y-3.9772
X4.876Y-4.0772
X4.876Y-4.1772
X4.876Y-4.2772
X4.876Y-4.3772
X4.876Y-4.4772
X4.876Y-4.5772
X4.876Y-4.6772
X4.876Y-4.7772
X4.876Y-4.8772
X4.876Y-4.9772
X4.876Y-5.0772
M30
