%TF.GenerationSoftware,KiCad,Pcbnew,8.0.9-8.0.9-0~ubuntu22.04.1*%
%TF.CreationDate,2026-07-13T13:08:44-07:00*%
%TF.ProjectId,Arduino_SMS_Cart_Programmer,41726475-696e-46f5-9f53-4d535f436172,B*%
%TF.SameCoordinates,Original*%
%TF.FileFunction,Soldermask,Bot*%
%TF.FilePolarity,Negative*%
%FSLAX46Y46*%
G04 Gerber Fmt 4.6, Leading zero omitted, Abs format (unit mm)*
G04 Created by KiCad (PCBNEW 8.0.9-8.0.9-0~ubuntu22.04.1) date 2026-07-13 13:08:44*
%MOMM*%
%LPD*%
G01*
G04 APERTURE LIST*
%ADD10R,1.600000X1.600000*%
%ADD11O,1.600000X1.600000*%
%ADD12C,1.600000*%
%ADD13C,2.200000*%
%ADD14C,1.600200*%
%ADD15C,1.400000*%
%ADD16O,1.400000X1.400000*%
G04 APERTURE END LIST*
D10*
%TO.C,U1*%
X128350000Y-95594000D03*
D11*
X128350000Y-98134000D03*
X128350000Y-100674000D03*
X128350000Y-103214000D03*
X128350000Y-105754000D03*
X128350000Y-108294000D03*
X128350000Y-110834000D03*
X128350000Y-113374000D03*
X135970000Y-113374000D03*
X135970000Y-110834000D03*
X135970000Y-108294000D03*
X135970000Y-105754000D03*
X135970000Y-103214000D03*
X135970000Y-100674000D03*
X135970000Y-98134000D03*
X135970000Y-95594000D03*
%TD*%
D12*
%TO.C,C3*%
X140470000Y-95594000D03*
X140470000Y-100594000D03*
%TD*%
D13*
%TO.C,REF4*%
X162052000Y-124714000D03*
%TD*%
D14*
%TO.C,J1*%
X112650000Y-60094000D03*
X117501400Y-60094000D03*
X112650000Y-62634000D03*
X117501400Y-62634000D03*
X112650000Y-65174000D03*
X117501400Y-65174000D03*
X112650000Y-67714000D03*
X117501400Y-67714000D03*
X112650000Y-70254000D03*
X117501400Y-70254000D03*
X112650000Y-72794000D03*
X117501400Y-72794000D03*
X112650000Y-75334000D03*
X117501400Y-75334000D03*
X112650000Y-77874000D03*
X117501400Y-77874000D03*
X112650000Y-80414000D03*
X117501400Y-80414000D03*
X112650000Y-82954000D03*
X117501400Y-82954000D03*
X112650000Y-85494000D03*
X117501400Y-85494000D03*
X112650000Y-88034000D03*
X117501400Y-88034000D03*
X112650000Y-90574000D03*
X117501400Y-90574000D03*
X112650000Y-93114000D03*
X117501400Y-93114000D03*
X112650000Y-95654000D03*
X117501400Y-95654000D03*
X112650000Y-98194000D03*
X117501400Y-98194000D03*
X112650000Y-100734000D03*
X117501400Y-100734000D03*
X112650000Y-103274000D03*
X117501400Y-103274000D03*
X112650000Y-105814000D03*
X117501400Y-105814000D03*
X112650000Y-108354000D03*
X117501400Y-108354000D03*
X112650000Y-110894000D03*
X117501400Y-110894000D03*
X112650000Y-113434000D03*
X117501400Y-113434000D03*
X112650000Y-115974000D03*
X117501400Y-115974000D03*
X112650000Y-118514000D03*
X117501400Y-118514000D03*
X112650000Y-121054000D03*
X117501400Y-121054000D03*
%TD*%
D12*
%TO.C,C2*%
X140150000Y-62594000D03*
X140150000Y-67594000D03*
%TD*%
D15*
%TO.C,R1*%
X140650000Y-113374000D03*
D16*
X140650000Y-105754000D03*
%TD*%
D13*
%TO.C,REF2*%
X162052000Y-56229000D03*
%TD*%
D10*
%TO.C,A1*%
X146040000Y-77814000D03*
D11*
X146040000Y-80354000D03*
X146040000Y-82894000D03*
X146040000Y-85434000D03*
X146040000Y-87974000D03*
X146040000Y-90514000D03*
X146040000Y-93054000D03*
X146040000Y-95594000D03*
X146040000Y-98134000D03*
X146040000Y-100674000D03*
X146040000Y-103214000D03*
X146040000Y-105754000D03*
X146040000Y-108294000D03*
X146040000Y-110834000D03*
X146040000Y-113374000D03*
X161280000Y-113374000D03*
X161280000Y-110834000D03*
X161280000Y-108294000D03*
X161280000Y-105754000D03*
X161280000Y-103214000D03*
X161280000Y-100674000D03*
X161280000Y-98134000D03*
X161280000Y-95594000D03*
X161280000Y-93054000D03*
X161280000Y-90514000D03*
X161280000Y-87974000D03*
X161280000Y-85434000D03*
X161280000Y-82894000D03*
X161280000Y-80354000D03*
X161280000Y-77814000D03*
%TD*%
D13*
%TO.C,REF1*%
X126746000Y-56229000D03*
%TD*%
D10*
%TO.C,U2*%
X128150000Y-62574000D03*
D11*
X128150000Y-65114000D03*
X128150000Y-67654000D03*
X128150000Y-70194000D03*
X128150000Y-72734000D03*
X128150000Y-75274000D03*
X128150000Y-77814000D03*
X128150000Y-80354000D03*
X135770000Y-80354000D03*
X135770000Y-77814000D03*
X135770000Y-75274000D03*
X135770000Y-72734000D03*
X135770000Y-70194000D03*
X135770000Y-67654000D03*
X135770000Y-65114000D03*
X135770000Y-62574000D03*
%TD*%
D13*
%TO.C,REF3*%
X126746000Y-124714000D03*
%TD*%
D10*
%TO.C,C1*%
X157280000Y-66594000D03*
D12*
X159280000Y-66594000D03*
%TD*%
M02*
