%TF.GenerationSoftware,KiCad,Pcbnew,8.0.9-8.0.9-0~ubuntu22.04.1*%
%TF.CreationDate,2026-07-13T13:08:44-07:00*%
%TF.ProjectId,Arduino_SMS_Cart_Programmer,41726475-696e-46f5-9f53-4d535f436172,B*%
%TF.SameCoordinates,Original*%
%TF.FileFunction,Legend,Top*%
%TF.FilePolarity,Positive*%
%FSLAX46Y46*%
G04 Gerber Fmt 4.6, Leading zero omitted, Abs format (unit mm)*
G04 Created by KiCad (PCBNEW 8.0.9-8.0.9-0~ubuntu22.04.1) date 2026-07-13 13:08:44*
%MOMM*%
%LPD*%
G01*
G04 APERTURE LIST*
%ADD10C,0.100000*%
%ADD11C,0.200000*%
%ADD12C,0.150000*%
%ADD13C,0.120000*%
%ADD14C,0.152400*%
G04 APERTURE END LIST*
D10*
X129034265Y-121064912D02*
X129177122Y-121112531D01*
X129177122Y-121112531D02*
X129415217Y-121112531D01*
X129415217Y-121112531D02*
X129510455Y-121064912D01*
X129510455Y-121064912D02*
X129558074Y-121017292D01*
X129558074Y-121017292D02*
X129605693Y-120922054D01*
X129605693Y-120922054D02*
X129605693Y-120826816D01*
X129605693Y-120826816D02*
X129558074Y-120731578D01*
X129558074Y-120731578D02*
X129510455Y-120683959D01*
X129510455Y-120683959D02*
X129415217Y-120636340D01*
X129415217Y-120636340D02*
X129224741Y-120588721D01*
X129224741Y-120588721D02*
X129129503Y-120541102D01*
X129129503Y-120541102D02*
X129081884Y-120493483D01*
X129081884Y-120493483D02*
X129034265Y-120398245D01*
X129034265Y-120398245D02*
X129034265Y-120303007D01*
X129034265Y-120303007D02*
X129081884Y-120207769D01*
X129081884Y-120207769D02*
X129129503Y-120160150D01*
X129129503Y-120160150D02*
X129224741Y-120112531D01*
X129224741Y-120112531D02*
X129462836Y-120112531D01*
X129462836Y-120112531D02*
X129605693Y-120160150D01*
X130034265Y-121112531D02*
X130034265Y-120112531D01*
X130034265Y-120112531D02*
X130367598Y-120826816D01*
X130367598Y-120826816D02*
X130700931Y-120112531D01*
X130700931Y-120112531D02*
X130700931Y-121112531D01*
X131129503Y-121064912D02*
X131272360Y-121112531D01*
X131272360Y-121112531D02*
X131510455Y-121112531D01*
X131510455Y-121112531D02*
X131605693Y-121064912D01*
X131605693Y-121064912D02*
X131653312Y-121017292D01*
X131653312Y-121017292D02*
X131700931Y-120922054D01*
X131700931Y-120922054D02*
X131700931Y-120826816D01*
X131700931Y-120826816D02*
X131653312Y-120731578D01*
X131653312Y-120731578D02*
X131605693Y-120683959D01*
X131605693Y-120683959D02*
X131510455Y-120636340D01*
X131510455Y-120636340D02*
X131319979Y-120588721D01*
X131319979Y-120588721D02*
X131224741Y-120541102D01*
X131224741Y-120541102D02*
X131177122Y-120493483D01*
X131177122Y-120493483D02*
X131129503Y-120398245D01*
X131129503Y-120398245D02*
X131129503Y-120303007D01*
X131129503Y-120303007D02*
X131177122Y-120207769D01*
X131177122Y-120207769D02*
X131224741Y-120160150D01*
X131224741Y-120160150D02*
X131319979Y-120112531D01*
X131319979Y-120112531D02*
X131558074Y-120112531D01*
X131558074Y-120112531D02*
X131700931Y-120160150D01*
X133224741Y-120588721D02*
X132891408Y-120588721D01*
X132891408Y-121112531D02*
X132891408Y-120112531D01*
X132891408Y-120112531D02*
X133367598Y-120112531D01*
X133891408Y-121112531D02*
X133796170Y-121064912D01*
X133796170Y-121064912D02*
X133748551Y-120969673D01*
X133748551Y-120969673D02*
X133748551Y-120112531D01*
X134700932Y-121112531D02*
X134700932Y-120588721D01*
X134700932Y-120588721D02*
X134653313Y-120493483D01*
X134653313Y-120493483D02*
X134558075Y-120445864D01*
X134558075Y-120445864D02*
X134367599Y-120445864D01*
X134367599Y-120445864D02*
X134272361Y-120493483D01*
X134700932Y-121064912D02*
X134605694Y-121112531D01*
X134605694Y-121112531D02*
X134367599Y-121112531D01*
X134367599Y-121112531D02*
X134272361Y-121064912D01*
X134272361Y-121064912D02*
X134224742Y-120969673D01*
X134224742Y-120969673D02*
X134224742Y-120874435D01*
X134224742Y-120874435D02*
X134272361Y-120779197D01*
X134272361Y-120779197D02*
X134367599Y-120731578D01*
X134367599Y-120731578D02*
X134605694Y-120731578D01*
X134605694Y-120731578D02*
X134700932Y-120683959D01*
X135129504Y-121064912D02*
X135224742Y-121112531D01*
X135224742Y-121112531D02*
X135415218Y-121112531D01*
X135415218Y-121112531D02*
X135510456Y-121064912D01*
X135510456Y-121064912D02*
X135558075Y-120969673D01*
X135558075Y-120969673D02*
X135558075Y-120922054D01*
X135558075Y-120922054D02*
X135510456Y-120826816D01*
X135510456Y-120826816D02*
X135415218Y-120779197D01*
X135415218Y-120779197D02*
X135272361Y-120779197D01*
X135272361Y-120779197D02*
X135177123Y-120731578D01*
X135177123Y-120731578D02*
X135129504Y-120636340D01*
X135129504Y-120636340D02*
X135129504Y-120588721D01*
X135129504Y-120588721D02*
X135177123Y-120493483D01*
X135177123Y-120493483D02*
X135272361Y-120445864D01*
X135272361Y-120445864D02*
X135415218Y-120445864D01*
X135415218Y-120445864D02*
X135510456Y-120493483D01*
X135986647Y-121112531D02*
X135986647Y-120112531D01*
X136415218Y-121112531D02*
X136415218Y-120588721D01*
X136415218Y-120588721D02*
X136367599Y-120493483D01*
X136367599Y-120493483D02*
X136272361Y-120445864D01*
X136272361Y-120445864D02*
X136129504Y-120445864D01*
X136129504Y-120445864D02*
X136034266Y-120493483D01*
X136034266Y-120493483D02*
X135986647Y-120541102D01*
X138224742Y-121017292D02*
X138177123Y-121064912D01*
X138177123Y-121064912D02*
X138034266Y-121112531D01*
X138034266Y-121112531D02*
X137939028Y-121112531D01*
X137939028Y-121112531D02*
X137796171Y-121064912D01*
X137796171Y-121064912D02*
X137700933Y-120969673D01*
X137700933Y-120969673D02*
X137653314Y-120874435D01*
X137653314Y-120874435D02*
X137605695Y-120683959D01*
X137605695Y-120683959D02*
X137605695Y-120541102D01*
X137605695Y-120541102D02*
X137653314Y-120350626D01*
X137653314Y-120350626D02*
X137700933Y-120255388D01*
X137700933Y-120255388D02*
X137796171Y-120160150D01*
X137796171Y-120160150D02*
X137939028Y-120112531D01*
X137939028Y-120112531D02*
X138034266Y-120112531D01*
X138034266Y-120112531D02*
X138177123Y-120160150D01*
X138177123Y-120160150D02*
X138224742Y-120207769D01*
X139081885Y-121112531D02*
X139081885Y-120588721D01*
X139081885Y-120588721D02*
X139034266Y-120493483D01*
X139034266Y-120493483D02*
X138939028Y-120445864D01*
X138939028Y-120445864D02*
X138748552Y-120445864D01*
X138748552Y-120445864D02*
X138653314Y-120493483D01*
X139081885Y-121064912D02*
X138986647Y-121112531D01*
X138986647Y-121112531D02*
X138748552Y-121112531D01*
X138748552Y-121112531D02*
X138653314Y-121064912D01*
X138653314Y-121064912D02*
X138605695Y-120969673D01*
X138605695Y-120969673D02*
X138605695Y-120874435D01*
X138605695Y-120874435D02*
X138653314Y-120779197D01*
X138653314Y-120779197D02*
X138748552Y-120731578D01*
X138748552Y-120731578D02*
X138986647Y-120731578D01*
X138986647Y-120731578D02*
X139081885Y-120683959D01*
X139558076Y-121112531D02*
X139558076Y-120445864D01*
X139558076Y-120636340D02*
X139605695Y-120541102D01*
X139605695Y-120541102D02*
X139653314Y-120493483D01*
X139653314Y-120493483D02*
X139748552Y-120445864D01*
X139748552Y-120445864D02*
X139843790Y-120445864D01*
X140034267Y-120445864D02*
X140415219Y-120445864D01*
X140177124Y-120112531D02*
X140177124Y-120969673D01*
X140177124Y-120969673D02*
X140224743Y-121064912D01*
X140224743Y-121064912D02*
X140319981Y-121112531D01*
X140319981Y-121112531D02*
X140415219Y-121112531D01*
X140748553Y-121112531D02*
X140748553Y-120445864D01*
X140748553Y-120636340D02*
X140796172Y-120541102D01*
X140796172Y-120541102D02*
X140843791Y-120493483D01*
X140843791Y-120493483D02*
X140939029Y-120445864D01*
X140939029Y-120445864D02*
X141034267Y-120445864D01*
X141367601Y-121112531D02*
X141367601Y-120445864D01*
X141367601Y-120112531D02*
X141319982Y-120160150D01*
X141319982Y-120160150D02*
X141367601Y-120207769D01*
X141367601Y-120207769D02*
X141415220Y-120160150D01*
X141415220Y-120160150D02*
X141367601Y-120112531D01*
X141367601Y-120112531D02*
X141367601Y-120207769D01*
X142272362Y-121112531D02*
X142272362Y-120112531D01*
X142272362Y-121064912D02*
X142177124Y-121112531D01*
X142177124Y-121112531D02*
X141986648Y-121112531D01*
X141986648Y-121112531D02*
X141891410Y-121064912D01*
X141891410Y-121064912D02*
X141843791Y-121017292D01*
X141843791Y-121017292D02*
X141796172Y-120922054D01*
X141796172Y-120922054D02*
X141796172Y-120636340D01*
X141796172Y-120636340D02*
X141843791Y-120541102D01*
X141843791Y-120541102D02*
X141891410Y-120493483D01*
X141891410Y-120493483D02*
X141986648Y-120445864D01*
X141986648Y-120445864D02*
X142177124Y-120445864D01*
X142177124Y-120445864D02*
X142272362Y-120493483D01*
X143177124Y-120445864D02*
X143177124Y-121255388D01*
X143177124Y-121255388D02*
X143129505Y-121350626D01*
X143129505Y-121350626D02*
X143081886Y-121398245D01*
X143081886Y-121398245D02*
X142986648Y-121445864D01*
X142986648Y-121445864D02*
X142843791Y-121445864D01*
X142843791Y-121445864D02*
X142748553Y-121398245D01*
X143177124Y-121064912D02*
X143081886Y-121112531D01*
X143081886Y-121112531D02*
X142891410Y-121112531D01*
X142891410Y-121112531D02*
X142796172Y-121064912D01*
X142796172Y-121064912D02*
X142748553Y-121017292D01*
X142748553Y-121017292D02*
X142700934Y-120922054D01*
X142700934Y-120922054D02*
X142700934Y-120636340D01*
X142700934Y-120636340D02*
X142748553Y-120541102D01*
X142748553Y-120541102D02*
X142796172Y-120493483D01*
X142796172Y-120493483D02*
X142891410Y-120445864D01*
X142891410Y-120445864D02*
X143081886Y-120445864D01*
X143081886Y-120445864D02*
X143177124Y-120493483D01*
X144034267Y-121064912D02*
X143939029Y-121112531D01*
X143939029Y-121112531D02*
X143748553Y-121112531D01*
X143748553Y-121112531D02*
X143653315Y-121064912D01*
X143653315Y-121064912D02*
X143605696Y-120969673D01*
X143605696Y-120969673D02*
X143605696Y-120588721D01*
X143605696Y-120588721D02*
X143653315Y-120493483D01*
X143653315Y-120493483D02*
X143748553Y-120445864D01*
X143748553Y-120445864D02*
X143939029Y-120445864D01*
X143939029Y-120445864D02*
X144034267Y-120493483D01*
X144034267Y-120493483D02*
X144081886Y-120588721D01*
X144081886Y-120588721D02*
X144081886Y-120683959D01*
X144081886Y-120683959D02*
X143605696Y-120779197D01*
X145272363Y-121112531D02*
X145272363Y-120112531D01*
X145272363Y-120112531D02*
X145653315Y-120112531D01*
X145653315Y-120112531D02*
X145748553Y-120160150D01*
X145748553Y-120160150D02*
X145796172Y-120207769D01*
X145796172Y-120207769D02*
X145843791Y-120303007D01*
X145843791Y-120303007D02*
X145843791Y-120445864D01*
X145843791Y-120445864D02*
X145796172Y-120541102D01*
X145796172Y-120541102D02*
X145748553Y-120588721D01*
X145748553Y-120588721D02*
X145653315Y-120636340D01*
X145653315Y-120636340D02*
X145272363Y-120636340D01*
X146272363Y-121112531D02*
X146272363Y-120445864D01*
X146272363Y-120636340D02*
X146319982Y-120541102D01*
X146319982Y-120541102D02*
X146367601Y-120493483D01*
X146367601Y-120493483D02*
X146462839Y-120445864D01*
X146462839Y-120445864D02*
X146558077Y-120445864D01*
X147034268Y-121112531D02*
X146939030Y-121064912D01*
X146939030Y-121064912D02*
X146891411Y-121017292D01*
X146891411Y-121017292D02*
X146843792Y-120922054D01*
X146843792Y-120922054D02*
X146843792Y-120636340D01*
X146843792Y-120636340D02*
X146891411Y-120541102D01*
X146891411Y-120541102D02*
X146939030Y-120493483D01*
X146939030Y-120493483D02*
X147034268Y-120445864D01*
X147034268Y-120445864D02*
X147177125Y-120445864D01*
X147177125Y-120445864D02*
X147272363Y-120493483D01*
X147272363Y-120493483D02*
X147319982Y-120541102D01*
X147319982Y-120541102D02*
X147367601Y-120636340D01*
X147367601Y-120636340D02*
X147367601Y-120922054D01*
X147367601Y-120922054D02*
X147319982Y-121017292D01*
X147319982Y-121017292D02*
X147272363Y-121064912D01*
X147272363Y-121064912D02*
X147177125Y-121112531D01*
X147177125Y-121112531D02*
X147034268Y-121112531D01*
X148224744Y-120445864D02*
X148224744Y-121255388D01*
X148224744Y-121255388D02*
X148177125Y-121350626D01*
X148177125Y-121350626D02*
X148129506Y-121398245D01*
X148129506Y-121398245D02*
X148034268Y-121445864D01*
X148034268Y-121445864D02*
X147891411Y-121445864D01*
X147891411Y-121445864D02*
X147796173Y-121398245D01*
X148224744Y-121064912D02*
X148129506Y-121112531D01*
X148129506Y-121112531D02*
X147939030Y-121112531D01*
X147939030Y-121112531D02*
X147843792Y-121064912D01*
X147843792Y-121064912D02*
X147796173Y-121017292D01*
X147796173Y-121017292D02*
X147748554Y-120922054D01*
X147748554Y-120922054D02*
X147748554Y-120636340D01*
X147748554Y-120636340D02*
X147796173Y-120541102D01*
X147796173Y-120541102D02*
X147843792Y-120493483D01*
X147843792Y-120493483D02*
X147939030Y-120445864D01*
X147939030Y-120445864D02*
X148129506Y-120445864D01*
X148129506Y-120445864D02*
X148224744Y-120493483D01*
X148700935Y-121112531D02*
X148700935Y-120445864D01*
X148700935Y-120636340D02*
X148748554Y-120541102D01*
X148748554Y-120541102D02*
X148796173Y-120493483D01*
X148796173Y-120493483D02*
X148891411Y-120445864D01*
X148891411Y-120445864D02*
X148986649Y-120445864D01*
X149748554Y-121112531D02*
X149748554Y-120588721D01*
X149748554Y-120588721D02*
X149700935Y-120493483D01*
X149700935Y-120493483D02*
X149605697Y-120445864D01*
X149605697Y-120445864D02*
X149415221Y-120445864D01*
X149415221Y-120445864D02*
X149319983Y-120493483D01*
X149748554Y-121064912D02*
X149653316Y-121112531D01*
X149653316Y-121112531D02*
X149415221Y-121112531D01*
X149415221Y-121112531D02*
X149319983Y-121064912D01*
X149319983Y-121064912D02*
X149272364Y-120969673D01*
X149272364Y-120969673D02*
X149272364Y-120874435D01*
X149272364Y-120874435D02*
X149319983Y-120779197D01*
X149319983Y-120779197D02*
X149415221Y-120731578D01*
X149415221Y-120731578D02*
X149653316Y-120731578D01*
X149653316Y-120731578D02*
X149748554Y-120683959D01*
X150224745Y-121112531D02*
X150224745Y-120445864D01*
X150224745Y-120541102D02*
X150272364Y-120493483D01*
X150272364Y-120493483D02*
X150367602Y-120445864D01*
X150367602Y-120445864D02*
X150510459Y-120445864D01*
X150510459Y-120445864D02*
X150605697Y-120493483D01*
X150605697Y-120493483D02*
X150653316Y-120588721D01*
X150653316Y-120588721D02*
X150653316Y-121112531D01*
X150653316Y-120588721D02*
X150700935Y-120493483D01*
X150700935Y-120493483D02*
X150796173Y-120445864D01*
X150796173Y-120445864D02*
X150939030Y-120445864D01*
X150939030Y-120445864D02*
X151034269Y-120493483D01*
X151034269Y-120493483D02*
X151081888Y-120588721D01*
X151081888Y-120588721D02*
X151081888Y-121112531D01*
X151558078Y-121112531D02*
X151558078Y-120445864D01*
X151558078Y-120541102D02*
X151605697Y-120493483D01*
X151605697Y-120493483D02*
X151700935Y-120445864D01*
X151700935Y-120445864D02*
X151843792Y-120445864D01*
X151843792Y-120445864D02*
X151939030Y-120493483D01*
X151939030Y-120493483D02*
X151986649Y-120588721D01*
X151986649Y-120588721D02*
X151986649Y-121112531D01*
X151986649Y-120588721D02*
X152034268Y-120493483D01*
X152034268Y-120493483D02*
X152129506Y-120445864D01*
X152129506Y-120445864D02*
X152272363Y-120445864D01*
X152272363Y-120445864D02*
X152367602Y-120493483D01*
X152367602Y-120493483D02*
X152415221Y-120588721D01*
X152415221Y-120588721D02*
X152415221Y-121112531D01*
X153272363Y-121064912D02*
X153177125Y-121112531D01*
X153177125Y-121112531D02*
X152986649Y-121112531D01*
X152986649Y-121112531D02*
X152891411Y-121064912D01*
X152891411Y-121064912D02*
X152843792Y-120969673D01*
X152843792Y-120969673D02*
X152843792Y-120588721D01*
X152843792Y-120588721D02*
X152891411Y-120493483D01*
X152891411Y-120493483D02*
X152986649Y-120445864D01*
X152986649Y-120445864D02*
X153177125Y-120445864D01*
X153177125Y-120445864D02*
X153272363Y-120493483D01*
X153272363Y-120493483D02*
X153319982Y-120588721D01*
X153319982Y-120588721D02*
X153319982Y-120683959D01*
X153319982Y-120683959D02*
X152843792Y-120779197D01*
X153748554Y-121112531D02*
X153748554Y-120445864D01*
X153748554Y-120636340D02*
X153796173Y-120541102D01*
X153796173Y-120541102D02*
X153843792Y-120493483D01*
X153843792Y-120493483D02*
X153939030Y-120445864D01*
X153939030Y-120445864D02*
X154034268Y-120445864D01*
X129367598Y-123103427D02*
X129319979Y-123055808D01*
X129319979Y-123055808D02*
X129224741Y-122912951D01*
X129224741Y-122912951D02*
X129177122Y-122817713D01*
X129177122Y-122817713D02*
X129129503Y-122674856D01*
X129129503Y-122674856D02*
X129081884Y-122436760D01*
X129081884Y-122436760D02*
X129081884Y-122246284D01*
X129081884Y-122246284D02*
X129129503Y-122008189D01*
X129129503Y-122008189D02*
X129177122Y-121865332D01*
X129177122Y-121865332D02*
X129224741Y-121770094D01*
X129224741Y-121770094D02*
X129319979Y-121627236D01*
X129319979Y-121627236D02*
X129367598Y-121579617D01*
X130319979Y-122627236D02*
X130272360Y-122674856D01*
X130272360Y-122674856D02*
X130129503Y-122722475D01*
X130129503Y-122722475D02*
X130034265Y-122722475D01*
X130034265Y-122722475D02*
X129891408Y-122674856D01*
X129891408Y-122674856D02*
X129796170Y-122579617D01*
X129796170Y-122579617D02*
X129748551Y-122484379D01*
X129748551Y-122484379D02*
X129700932Y-122293903D01*
X129700932Y-122293903D02*
X129700932Y-122151046D01*
X129700932Y-122151046D02*
X129748551Y-121960570D01*
X129748551Y-121960570D02*
X129796170Y-121865332D01*
X129796170Y-121865332D02*
X129891408Y-121770094D01*
X129891408Y-121770094D02*
X130034265Y-121722475D01*
X130034265Y-121722475D02*
X130129503Y-121722475D01*
X130129503Y-121722475D02*
X130272360Y-121770094D01*
X130272360Y-121770094D02*
X130319979Y-121817713D01*
X130653313Y-123103427D02*
X130700932Y-123055808D01*
X130700932Y-123055808D02*
X130796170Y-122912951D01*
X130796170Y-122912951D02*
X130843789Y-122817713D01*
X130843789Y-122817713D02*
X130891408Y-122674856D01*
X130891408Y-122674856D02*
X130939027Y-122436760D01*
X130939027Y-122436760D02*
X130939027Y-122246284D01*
X130939027Y-122246284D02*
X130891408Y-122008189D01*
X130891408Y-122008189D02*
X130843789Y-121865332D01*
X130843789Y-121865332D02*
X130796170Y-121770094D01*
X130796170Y-121770094D02*
X130700932Y-121627236D01*
X130700932Y-121627236D02*
X130653313Y-121579617D01*
X132129504Y-121817713D02*
X132177123Y-121770094D01*
X132177123Y-121770094D02*
X132272361Y-121722475D01*
X132272361Y-121722475D02*
X132510456Y-121722475D01*
X132510456Y-121722475D02*
X132605694Y-121770094D01*
X132605694Y-121770094D02*
X132653313Y-121817713D01*
X132653313Y-121817713D02*
X132700932Y-121912951D01*
X132700932Y-121912951D02*
X132700932Y-122008189D01*
X132700932Y-122008189D02*
X132653313Y-122151046D01*
X132653313Y-122151046D02*
X132081885Y-122722475D01*
X132081885Y-122722475D02*
X132700932Y-122722475D01*
X133319980Y-121722475D02*
X133415218Y-121722475D01*
X133415218Y-121722475D02*
X133510456Y-121770094D01*
X133510456Y-121770094D02*
X133558075Y-121817713D01*
X133558075Y-121817713D02*
X133605694Y-121912951D01*
X133605694Y-121912951D02*
X133653313Y-122103427D01*
X133653313Y-122103427D02*
X133653313Y-122341522D01*
X133653313Y-122341522D02*
X133605694Y-122531998D01*
X133605694Y-122531998D02*
X133558075Y-122627236D01*
X133558075Y-122627236D02*
X133510456Y-122674856D01*
X133510456Y-122674856D02*
X133415218Y-122722475D01*
X133415218Y-122722475D02*
X133319980Y-122722475D01*
X133319980Y-122722475D02*
X133224742Y-122674856D01*
X133224742Y-122674856D02*
X133177123Y-122627236D01*
X133177123Y-122627236D02*
X133129504Y-122531998D01*
X133129504Y-122531998D02*
X133081885Y-122341522D01*
X133081885Y-122341522D02*
X133081885Y-122103427D01*
X133081885Y-122103427D02*
X133129504Y-121912951D01*
X133129504Y-121912951D02*
X133177123Y-121817713D01*
X133177123Y-121817713D02*
X133224742Y-121770094D01*
X133224742Y-121770094D02*
X133319980Y-121722475D01*
X134034266Y-121817713D02*
X134081885Y-121770094D01*
X134081885Y-121770094D02*
X134177123Y-121722475D01*
X134177123Y-121722475D02*
X134415218Y-121722475D01*
X134415218Y-121722475D02*
X134510456Y-121770094D01*
X134510456Y-121770094D02*
X134558075Y-121817713D01*
X134558075Y-121817713D02*
X134605694Y-121912951D01*
X134605694Y-121912951D02*
X134605694Y-122008189D01*
X134605694Y-122008189D02*
X134558075Y-122151046D01*
X134558075Y-122151046D02*
X133986647Y-122722475D01*
X133986647Y-122722475D02*
X134605694Y-122722475D01*
X135462837Y-121722475D02*
X135272361Y-121722475D01*
X135272361Y-121722475D02*
X135177123Y-121770094D01*
X135177123Y-121770094D02*
X135129504Y-121817713D01*
X135129504Y-121817713D02*
X135034266Y-121960570D01*
X135034266Y-121960570D02*
X134986647Y-122151046D01*
X134986647Y-122151046D02*
X134986647Y-122531998D01*
X134986647Y-122531998D02*
X135034266Y-122627236D01*
X135034266Y-122627236D02*
X135081885Y-122674856D01*
X135081885Y-122674856D02*
X135177123Y-122722475D01*
X135177123Y-122722475D02*
X135367599Y-122722475D01*
X135367599Y-122722475D02*
X135462837Y-122674856D01*
X135462837Y-122674856D02*
X135510456Y-122627236D01*
X135510456Y-122627236D02*
X135558075Y-122531998D01*
X135558075Y-122531998D02*
X135558075Y-122293903D01*
X135558075Y-122293903D02*
X135510456Y-122198665D01*
X135510456Y-122198665D02*
X135462837Y-122151046D01*
X135462837Y-122151046D02*
X135367599Y-122103427D01*
X135367599Y-122103427D02*
X135177123Y-122103427D01*
X135177123Y-122103427D02*
X135081885Y-122151046D01*
X135081885Y-122151046D02*
X135034266Y-122198665D01*
X135034266Y-122198665D02*
X134986647Y-122293903D01*
X136034266Y-122674856D02*
X136034266Y-122722475D01*
X136034266Y-122722475D02*
X135986647Y-122817713D01*
X135986647Y-122817713D02*
X135939028Y-122865332D01*
X137224742Y-122722475D02*
X137224742Y-121722475D01*
X137224742Y-121722475D02*
X137462837Y-121722475D01*
X137462837Y-121722475D02*
X137605694Y-121770094D01*
X137605694Y-121770094D02*
X137700932Y-121865332D01*
X137700932Y-121865332D02*
X137748551Y-121960570D01*
X137748551Y-121960570D02*
X137796170Y-122151046D01*
X137796170Y-122151046D02*
X137796170Y-122293903D01*
X137796170Y-122293903D02*
X137748551Y-122484379D01*
X137748551Y-122484379D02*
X137700932Y-122579617D01*
X137700932Y-122579617D02*
X137605694Y-122674856D01*
X137605694Y-122674856D02*
X137462837Y-122722475D01*
X137462837Y-122722475D02*
X137224742Y-122722475D01*
X138224742Y-122722475D02*
X138224742Y-122055808D01*
X138224742Y-121722475D02*
X138177123Y-121770094D01*
X138177123Y-121770094D02*
X138224742Y-121817713D01*
X138224742Y-121817713D02*
X138272361Y-121770094D01*
X138272361Y-121770094D02*
X138224742Y-121722475D01*
X138224742Y-121722475D02*
X138224742Y-121817713D01*
X139129503Y-122055808D02*
X139129503Y-122865332D01*
X139129503Y-122865332D02*
X139081884Y-122960570D01*
X139081884Y-122960570D02*
X139034265Y-123008189D01*
X139034265Y-123008189D02*
X138939027Y-123055808D01*
X138939027Y-123055808D02*
X138796170Y-123055808D01*
X138796170Y-123055808D02*
X138700932Y-123008189D01*
X139129503Y-122674856D02*
X139034265Y-122722475D01*
X139034265Y-122722475D02*
X138843789Y-122722475D01*
X138843789Y-122722475D02*
X138748551Y-122674856D01*
X138748551Y-122674856D02*
X138700932Y-122627236D01*
X138700932Y-122627236D02*
X138653313Y-122531998D01*
X138653313Y-122531998D02*
X138653313Y-122246284D01*
X138653313Y-122246284D02*
X138700932Y-122151046D01*
X138700932Y-122151046D02*
X138748551Y-122103427D01*
X138748551Y-122103427D02*
X138843789Y-122055808D01*
X138843789Y-122055808D02*
X139034265Y-122055808D01*
X139034265Y-122055808D02*
X139129503Y-122103427D01*
X139605694Y-122722475D02*
X139605694Y-122055808D01*
X139605694Y-121722475D02*
X139558075Y-121770094D01*
X139558075Y-121770094D02*
X139605694Y-121817713D01*
X139605694Y-121817713D02*
X139653313Y-121770094D01*
X139653313Y-121770094D02*
X139605694Y-121722475D01*
X139605694Y-121722475D02*
X139605694Y-121817713D01*
X139939027Y-122055808D02*
X140319979Y-122055808D01*
X140081884Y-121722475D02*
X140081884Y-122579617D01*
X140081884Y-122579617D02*
X140129503Y-122674856D01*
X140129503Y-122674856D02*
X140224741Y-122722475D01*
X140224741Y-122722475D02*
X140319979Y-122722475D01*
X141081884Y-122722475D02*
X141081884Y-122198665D01*
X141081884Y-122198665D02*
X141034265Y-122103427D01*
X141034265Y-122103427D02*
X140939027Y-122055808D01*
X140939027Y-122055808D02*
X140748551Y-122055808D01*
X140748551Y-122055808D02*
X140653313Y-122103427D01*
X141081884Y-122674856D02*
X140986646Y-122722475D01*
X140986646Y-122722475D02*
X140748551Y-122722475D01*
X140748551Y-122722475D02*
X140653313Y-122674856D01*
X140653313Y-122674856D02*
X140605694Y-122579617D01*
X140605694Y-122579617D02*
X140605694Y-122484379D01*
X140605694Y-122484379D02*
X140653313Y-122389141D01*
X140653313Y-122389141D02*
X140748551Y-122341522D01*
X140748551Y-122341522D02*
X140986646Y-122341522D01*
X140986646Y-122341522D02*
X141081884Y-122293903D01*
X141700932Y-122722475D02*
X141605694Y-122674856D01*
X141605694Y-122674856D02*
X141558075Y-122579617D01*
X141558075Y-122579617D02*
X141558075Y-121722475D01*
X142748552Y-121722475D02*
X143415218Y-122722475D01*
X143415218Y-121722475D02*
X142748552Y-122722475D01*
X143796171Y-122341522D02*
X144558076Y-122341522D01*
X144891409Y-122055808D02*
X145272361Y-122055808D01*
X145034266Y-122722475D02*
X145034266Y-121865332D01*
X145034266Y-121865332D02*
X145081885Y-121770094D01*
X145081885Y-121770094D02*
X145177123Y-121722475D01*
X145177123Y-121722475D02*
X145272361Y-121722475D01*
X145986647Y-122674856D02*
X145891409Y-122722475D01*
X145891409Y-122722475D02*
X145700933Y-122722475D01*
X145700933Y-122722475D02*
X145605695Y-122674856D01*
X145605695Y-122674856D02*
X145558076Y-122579617D01*
X145558076Y-122579617D02*
X145558076Y-122198665D01*
X145558076Y-122198665D02*
X145605695Y-122103427D01*
X145605695Y-122103427D02*
X145700933Y-122055808D01*
X145700933Y-122055808D02*
X145891409Y-122055808D01*
X145891409Y-122055808D02*
X145986647Y-122103427D01*
X145986647Y-122103427D02*
X146034266Y-122198665D01*
X146034266Y-122198665D02*
X146034266Y-122293903D01*
X146034266Y-122293903D02*
X145558076Y-122389141D01*
X146462838Y-122722475D02*
X146462838Y-122055808D01*
X146462838Y-122246284D02*
X146510457Y-122151046D01*
X146510457Y-122151046D02*
X146558076Y-122103427D01*
X146558076Y-122103427D02*
X146653314Y-122055808D01*
X146653314Y-122055808D02*
X146748552Y-122055808D01*
X147081886Y-122627236D02*
X147129505Y-122674856D01*
X147129505Y-122674856D02*
X147081886Y-122722475D01*
X147081886Y-122722475D02*
X147034267Y-122674856D01*
X147034267Y-122674856D02*
X147081886Y-122627236D01*
X147081886Y-122627236D02*
X147081886Y-122722475D01*
X148272362Y-122436760D02*
X148748552Y-122436760D01*
X148177124Y-122722475D02*
X148510457Y-121722475D01*
X148510457Y-121722475D02*
X148843790Y-122722475D01*
X149319981Y-122722475D02*
X149224743Y-122674856D01*
X149224743Y-122674856D02*
X149177124Y-122579617D01*
X149177124Y-122579617D02*
X149177124Y-121722475D01*
X149843791Y-122722475D02*
X149748553Y-122674856D01*
X149748553Y-122674856D02*
X149700934Y-122579617D01*
X149700934Y-122579617D02*
X149700934Y-121722475D01*
X151558077Y-122722475D02*
X151224744Y-122246284D01*
X150986649Y-122722475D02*
X150986649Y-121722475D01*
X150986649Y-121722475D02*
X151367601Y-121722475D01*
X151367601Y-121722475D02*
X151462839Y-121770094D01*
X151462839Y-121770094D02*
X151510458Y-121817713D01*
X151510458Y-121817713D02*
X151558077Y-121912951D01*
X151558077Y-121912951D02*
X151558077Y-122055808D01*
X151558077Y-122055808D02*
X151510458Y-122151046D01*
X151510458Y-122151046D02*
X151462839Y-122198665D01*
X151462839Y-122198665D02*
X151367601Y-122246284D01*
X151367601Y-122246284D02*
X150986649Y-122246284D01*
X151986649Y-122722475D02*
X151986649Y-122055808D01*
X151986649Y-121722475D02*
X151939030Y-121770094D01*
X151939030Y-121770094D02*
X151986649Y-121817713D01*
X151986649Y-121817713D02*
X152034268Y-121770094D01*
X152034268Y-121770094D02*
X151986649Y-121722475D01*
X151986649Y-121722475D02*
X151986649Y-121817713D01*
X152891410Y-122055808D02*
X152891410Y-122865332D01*
X152891410Y-122865332D02*
X152843791Y-122960570D01*
X152843791Y-122960570D02*
X152796172Y-123008189D01*
X152796172Y-123008189D02*
X152700934Y-123055808D01*
X152700934Y-123055808D02*
X152558077Y-123055808D01*
X152558077Y-123055808D02*
X152462839Y-123008189D01*
X152891410Y-122674856D02*
X152796172Y-122722475D01*
X152796172Y-122722475D02*
X152605696Y-122722475D01*
X152605696Y-122722475D02*
X152510458Y-122674856D01*
X152510458Y-122674856D02*
X152462839Y-122627236D01*
X152462839Y-122627236D02*
X152415220Y-122531998D01*
X152415220Y-122531998D02*
X152415220Y-122246284D01*
X152415220Y-122246284D02*
X152462839Y-122151046D01*
X152462839Y-122151046D02*
X152510458Y-122103427D01*
X152510458Y-122103427D02*
X152605696Y-122055808D01*
X152605696Y-122055808D02*
X152796172Y-122055808D01*
X152796172Y-122055808D02*
X152891410Y-122103427D01*
X153367601Y-122722475D02*
X153367601Y-121722475D01*
X153796172Y-122722475D02*
X153796172Y-122198665D01*
X153796172Y-122198665D02*
X153748553Y-122103427D01*
X153748553Y-122103427D02*
X153653315Y-122055808D01*
X153653315Y-122055808D02*
X153510458Y-122055808D01*
X153510458Y-122055808D02*
X153415220Y-122103427D01*
X153415220Y-122103427D02*
X153367601Y-122151046D01*
X154129506Y-122055808D02*
X154510458Y-122055808D01*
X154272363Y-121722475D02*
X154272363Y-122579617D01*
X154272363Y-122579617D02*
X154319982Y-122674856D01*
X154319982Y-122674856D02*
X154415220Y-122722475D01*
X154415220Y-122722475D02*
X154510458Y-122722475D01*
X154796173Y-122674856D02*
X154891411Y-122722475D01*
X154891411Y-122722475D02*
X155081887Y-122722475D01*
X155081887Y-122722475D02*
X155177125Y-122674856D01*
X155177125Y-122674856D02*
X155224744Y-122579617D01*
X155224744Y-122579617D02*
X155224744Y-122531998D01*
X155224744Y-122531998D02*
X155177125Y-122436760D01*
X155177125Y-122436760D02*
X155081887Y-122389141D01*
X155081887Y-122389141D02*
X154939030Y-122389141D01*
X154939030Y-122389141D02*
X154843792Y-122341522D01*
X154843792Y-122341522D02*
X154796173Y-122246284D01*
X154796173Y-122246284D02*
X154796173Y-122198665D01*
X154796173Y-122198665D02*
X154843792Y-122103427D01*
X154843792Y-122103427D02*
X154939030Y-122055808D01*
X154939030Y-122055808D02*
X155081887Y-122055808D01*
X155081887Y-122055808D02*
X155177125Y-122103427D01*
X156986649Y-122722475D02*
X156653316Y-122246284D01*
X156415221Y-122722475D02*
X156415221Y-121722475D01*
X156415221Y-121722475D02*
X156796173Y-121722475D01*
X156796173Y-121722475D02*
X156891411Y-121770094D01*
X156891411Y-121770094D02*
X156939030Y-121817713D01*
X156939030Y-121817713D02*
X156986649Y-121912951D01*
X156986649Y-121912951D02*
X156986649Y-122055808D01*
X156986649Y-122055808D02*
X156939030Y-122151046D01*
X156939030Y-122151046D02*
X156891411Y-122198665D01*
X156891411Y-122198665D02*
X156796173Y-122246284D01*
X156796173Y-122246284D02*
X156415221Y-122246284D01*
X157796173Y-122674856D02*
X157700935Y-122722475D01*
X157700935Y-122722475D02*
X157510459Y-122722475D01*
X157510459Y-122722475D02*
X157415221Y-122674856D01*
X157415221Y-122674856D02*
X157367602Y-122579617D01*
X157367602Y-122579617D02*
X157367602Y-122198665D01*
X157367602Y-122198665D02*
X157415221Y-122103427D01*
X157415221Y-122103427D02*
X157510459Y-122055808D01*
X157510459Y-122055808D02*
X157700935Y-122055808D01*
X157700935Y-122055808D02*
X157796173Y-122103427D01*
X157796173Y-122103427D02*
X157843792Y-122198665D01*
X157843792Y-122198665D02*
X157843792Y-122293903D01*
X157843792Y-122293903D02*
X157367602Y-122389141D01*
X158224745Y-122674856D02*
X158319983Y-122722475D01*
X158319983Y-122722475D02*
X158510459Y-122722475D01*
X158510459Y-122722475D02*
X158605697Y-122674856D01*
X158605697Y-122674856D02*
X158653316Y-122579617D01*
X158653316Y-122579617D02*
X158653316Y-122531998D01*
X158653316Y-122531998D02*
X158605697Y-122436760D01*
X158605697Y-122436760D02*
X158510459Y-122389141D01*
X158510459Y-122389141D02*
X158367602Y-122389141D01*
X158367602Y-122389141D02*
X158272364Y-122341522D01*
X158272364Y-122341522D02*
X158224745Y-122246284D01*
X158224745Y-122246284D02*
X158224745Y-122198665D01*
X158224745Y-122198665D02*
X158272364Y-122103427D01*
X158272364Y-122103427D02*
X158367602Y-122055808D01*
X158367602Y-122055808D02*
X158510459Y-122055808D01*
X158510459Y-122055808D02*
X158605697Y-122103427D01*
X159462840Y-122674856D02*
X159367602Y-122722475D01*
X159367602Y-122722475D02*
X159177126Y-122722475D01*
X159177126Y-122722475D02*
X159081888Y-122674856D01*
X159081888Y-122674856D02*
X159034269Y-122579617D01*
X159034269Y-122579617D02*
X159034269Y-122198665D01*
X159034269Y-122198665D02*
X159081888Y-122103427D01*
X159081888Y-122103427D02*
X159177126Y-122055808D01*
X159177126Y-122055808D02*
X159367602Y-122055808D01*
X159367602Y-122055808D02*
X159462840Y-122103427D01*
X159462840Y-122103427D02*
X159510459Y-122198665D01*
X159510459Y-122198665D02*
X159510459Y-122293903D01*
X159510459Y-122293903D02*
X159034269Y-122389141D01*
X159939031Y-122722475D02*
X159939031Y-122055808D01*
X159939031Y-122246284D02*
X159986650Y-122151046D01*
X159986650Y-122151046D02*
X160034269Y-122103427D01*
X160034269Y-122103427D02*
X160129507Y-122055808D01*
X160129507Y-122055808D02*
X160224745Y-122055808D01*
X160462841Y-122055808D02*
X160700936Y-122722475D01*
X160700936Y-122722475D02*
X160939031Y-122055808D01*
X161700936Y-122674856D02*
X161605698Y-122722475D01*
X161605698Y-122722475D02*
X161415222Y-122722475D01*
X161415222Y-122722475D02*
X161319984Y-122674856D01*
X161319984Y-122674856D02*
X161272365Y-122579617D01*
X161272365Y-122579617D02*
X161272365Y-122198665D01*
X161272365Y-122198665D02*
X161319984Y-122103427D01*
X161319984Y-122103427D02*
X161415222Y-122055808D01*
X161415222Y-122055808D02*
X161605698Y-122055808D01*
X161605698Y-122055808D02*
X161700936Y-122103427D01*
X161700936Y-122103427D02*
X161748555Y-122198665D01*
X161748555Y-122198665D02*
X161748555Y-122293903D01*
X161748555Y-122293903D02*
X161272365Y-122389141D01*
X162605698Y-122722475D02*
X162605698Y-121722475D01*
X162605698Y-122674856D02*
X162510460Y-122722475D01*
X162510460Y-122722475D02*
X162319984Y-122722475D01*
X162319984Y-122722475D02*
X162224746Y-122674856D01*
X162224746Y-122674856D02*
X162177127Y-122627236D01*
X162177127Y-122627236D02*
X162129508Y-122531998D01*
X162129508Y-122531998D02*
X162129508Y-122246284D01*
X162129508Y-122246284D02*
X162177127Y-122151046D01*
X162177127Y-122151046D02*
X162224746Y-122103427D01*
X162224746Y-122103427D02*
X162319984Y-122055808D01*
X162319984Y-122055808D02*
X162510460Y-122055808D01*
X162510460Y-122055808D02*
X162605698Y-122103427D01*
X163081889Y-122627236D02*
X163129508Y-122674856D01*
X163129508Y-122674856D02*
X163081889Y-122722475D01*
X163081889Y-122722475D02*
X163034270Y-122674856D01*
X163034270Y-122674856D02*
X163081889Y-122627236D01*
X163081889Y-122627236D02*
X163081889Y-122722475D01*
X129653312Y-124332419D02*
X129319979Y-123856228D01*
X129081884Y-124332419D02*
X129081884Y-123332419D01*
X129081884Y-123332419D02*
X129462836Y-123332419D01*
X129462836Y-123332419D02*
X129558074Y-123380038D01*
X129558074Y-123380038D02*
X129605693Y-123427657D01*
X129605693Y-123427657D02*
X129653312Y-123522895D01*
X129653312Y-123522895D02*
X129653312Y-123665752D01*
X129653312Y-123665752D02*
X129605693Y-123760990D01*
X129605693Y-123760990D02*
X129558074Y-123808609D01*
X129558074Y-123808609D02*
X129462836Y-123856228D01*
X129462836Y-123856228D02*
X129081884Y-123856228D01*
X130462836Y-124284800D02*
X130367598Y-124332419D01*
X130367598Y-124332419D02*
X130177122Y-124332419D01*
X130177122Y-124332419D02*
X130081884Y-124284800D01*
X130081884Y-124284800D02*
X130034265Y-124189561D01*
X130034265Y-124189561D02*
X130034265Y-123808609D01*
X130034265Y-123808609D02*
X130081884Y-123713371D01*
X130081884Y-123713371D02*
X130177122Y-123665752D01*
X130177122Y-123665752D02*
X130367598Y-123665752D01*
X130367598Y-123665752D02*
X130462836Y-123713371D01*
X130462836Y-123713371D02*
X130510455Y-123808609D01*
X130510455Y-123808609D02*
X130510455Y-123903847D01*
X130510455Y-123903847D02*
X130034265Y-123999085D01*
X130843789Y-123665752D02*
X131081884Y-124332419D01*
X131081884Y-124332419D02*
X131319979Y-123665752D01*
X131700932Y-123951466D02*
X132462837Y-123951466D01*
X133272360Y-123808609D02*
X133415217Y-123856228D01*
X133415217Y-123856228D02*
X133462836Y-123903847D01*
X133462836Y-123903847D02*
X133510455Y-123999085D01*
X133510455Y-123999085D02*
X133510455Y-124141942D01*
X133510455Y-124141942D02*
X133462836Y-124237180D01*
X133462836Y-124237180D02*
X133415217Y-124284800D01*
X133415217Y-124284800D02*
X133319979Y-124332419D01*
X133319979Y-124332419D02*
X132939027Y-124332419D01*
X132939027Y-124332419D02*
X132939027Y-123332419D01*
X132939027Y-123332419D02*
X133272360Y-123332419D01*
X133272360Y-123332419D02*
X133367598Y-123380038D01*
X133367598Y-123380038D02*
X133415217Y-123427657D01*
X133415217Y-123427657D02*
X133462836Y-123522895D01*
X133462836Y-123522895D02*
X133462836Y-123618133D01*
X133462836Y-123618133D02*
X133415217Y-123713371D01*
X133415217Y-123713371D02*
X133367598Y-123760990D01*
X133367598Y-123760990D02*
X133272360Y-123808609D01*
X133272360Y-123808609D02*
X132939027Y-123808609D01*
D11*
X122533409Y-92355993D02*
X122533409Y-92689326D01*
X123057219Y-92689326D02*
X122057219Y-92689326D01*
X122057219Y-92689326D02*
X122057219Y-92213136D01*
X123057219Y-91832183D02*
X122390552Y-91832183D01*
X122581028Y-91832183D02*
X122485790Y-91784564D01*
X122485790Y-91784564D02*
X122438171Y-91736945D01*
X122438171Y-91736945D02*
X122390552Y-91641707D01*
X122390552Y-91641707D02*
X122390552Y-91546469D01*
X123057219Y-91070278D02*
X123009600Y-91165516D01*
X123009600Y-91165516D02*
X122961980Y-91213135D01*
X122961980Y-91213135D02*
X122866742Y-91260754D01*
X122866742Y-91260754D02*
X122581028Y-91260754D01*
X122581028Y-91260754D02*
X122485790Y-91213135D01*
X122485790Y-91213135D02*
X122438171Y-91165516D01*
X122438171Y-91165516D02*
X122390552Y-91070278D01*
X122390552Y-91070278D02*
X122390552Y-90927421D01*
X122390552Y-90927421D02*
X122438171Y-90832183D01*
X122438171Y-90832183D02*
X122485790Y-90784564D01*
X122485790Y-90784564D02*
X122581028Y-90736945D01*
X122581028Y-90736945D02*
X122866742Y-90736945D01*
X122866742Y-90736945D02*
X122961980Y-90784564D01*
X122961980Y-90784564D02*
X123009600Y-90832183D01*
X123009600Y-90832183D02*
X123057219Y-90927421D01*
X123057219Y-90927421D02*
X123057219Y-91070278D01*
X122390552Y-90308373D02*
X123057219Y-90308373D01*
X122485790Y-90308373D02*
X122438171Y-90260754D01*
X122438171Y-90260754D02*
X122390552Y-90165516D01*
X122390552Y-90165516D02*
X122390552Y-90022659D01*
X122390552Y-90022659D02*
X122438171Y-89927421D01*
X122438171Y-89927421D02*
X122533409Y-89879802D01*
X122533409Y-89879802D02*
X123057219Y-89879802D01*
X122390552Y-89546468D02*
X122390552Y-89165516D01*
X122057219Y-89403611D02*
X122914361Y-89403611D01*
X122914361Y-89403611D02*
X123009600Y-89355992D01*
X123009600Y-89355992D02*
X123057219Y-89260754D01*
X123057219Y-89260754D02*
X123057219Y-89165516D01*
D12*
X131398095Y-92718819D02*
X131398095Y-93528342D01*
X131398095Y-93528342D02*
X131445714Y-93623580D01*
X131445714Y-93623580D02*
X131493333Y-93671200D01*
X131493333Y-93671200D02*
X131588571Y-93718819D01*
X131588571Y-93718819D02*
X131779047Y-93718819D01*
X131779047Y-93718819D02*
X131874285Y-93671200D01*
X131874285Y-93671200D02*
X131921904Y-93623580D01*
X131921904Y-93623580D02*
X131969523Y-93528342D01*
X131969523Y-93528342D02*
X131969523Y-92718819D01*
X132969523Y-93718819D02*
X132398095Y-93718819D01*
X132683809Y-93718819D02*
X132683809Y-92718819D01*
X132683809Y-92718819D02*
X132588571Y-92861676D01*
X132588571Y-92861676D02*
X132493333Y-92956914D01*
X132493333Y-92956914D02*
X132398095Y-93004533D01*
X143029580Y-98260666D02*
X143077200Y-98308285D01*
X143077200Y-98308285D02*
X143124819Y-98451142D01*
X143124819Y-98451142D02*
X143124819Y-98546380D01*
X143124819Y-98546380D02*
X143077200Y-98689237D01*
X143077200Y-98689237D02*
X142981961Y-98784475D01*
X142981961Y-98784475D02*
X142886723Y-98832094D01*
X142886723Y-98832094D02*
X142696247Y-98879713D01*
X142696247Y-98879713D02*
X142553390Y-98879713D01*
X142553390Y-98879713D02*
X142362914Y-98832094D01*
X142362914Y-98832094D02*
X142267676Y-98784475D01*
X142267676Y-98784475D02*
X142172438Y-98689237D01*
X142172438Y-98689237D02*
X142124819Y-98546380D01*
X142124819Y-98546380D02*
X142124819Y-98451142D01*
X142124819Y-98451142D02*
X142172438Y-98308285D01*
X142172438Y-98308285D02*
X142220057Y-98260666D01*
X142124819Y-97927332D02*
X142124819Y-97308285D01*
X142124819Y-97308285D02*
X142505771Y-97641618D01*
X142505771Y-97641618D02*
X142505771Y-97498761D01*
X142505771Y-97498761D02*
X142553390Y-97403523D01*
X142553390Y-97403523D02*
X142601009Y-97355904D01*
X142601009Y-97355904D02*
X142696247Y-97308285D01*
X142696247Y-97308285D02*
X142934342Y-97308285D01*
X142934342Y-97308285D02*
X143029580Y-97355904D01*
X143029580Y-97355904D02*
X143077200Y-97403523D01*
X143077200Y-97403523D02*
X143124819Y-97498761D01*
X143124819Y-97498761D02*
X143124819Y-97784475D01*
X143124819Y-97784475D02*
X143077200Y-97879713D01*
X143077200Y-97879713D02*
X143029580Y-97927332D01*
X115620880Y-90240666D02*
X114906595Y-90240666D01*
X114906595Y-90240666D02*
X114763738Y-90193047D01*
X114763738Y-90193047D02*
X114668500Y-90097809D01*
X114668500Y-90097809D02*
X114620880Y-89954952D01*
X114620880Y-89954952D02*
X114620880Y-89859714D01*
X114620880Y-91240666D02*
X114620880Y-90669238D01*
X114620880Y-90954952D02*
X115620880Y-90954952D01*
X115620880Y-90954952D02*
X115478023Y-90859714D01*
X115478023Y-90859714D02*
X115382785Y-90764476D01*
X115382785Y-90764476D02*
X115335166Y-90669238D01*
X142709580Y-65260666D02*
X142757200Y-65308285D01*
X142757200Y-65308285D02*
X142804819Y-65451142D01*
X142804819Y-65451142D02*
X142804819Y-65546380D01*
X142804819Y-65546380D02*
X142757200Y-65689237D01*
X142757200Y-65689237D02*
X142661961Y-65784475D01*
X142661961Y-65784475D02*
X142566723Y-65832094D01*
X142566723Y-65832094D02*
X142376247Y-65879713D01*
X142376247Y-65879713D02*
X142233390Y-65879713D01*
X142233390Y-65879713D02*
X142042914Y-65832094D01*
X142042914Y-65832094D02*
X141947676Y-65784475D01*
X141947676Y-65784475D02*
X141852438Y-65689237D01*
X141852438Y-65689237D02*
X141804819Y-65546380D01*
X141804819Y-65546380D02*
X141804819Y-65451142D01*
X141804819Y-65451142D02*
X141852438Y-65308285D01*
X141852438Y-65308285D02*
X141900057Y-65260666D01*
X141900057Y-64879713D02*
X141852438Y-64832094D01*
X141852438Y-64832094D02*
X141804819Y-64736856D01*
X141804819Y-64736856D02*
X141804819Y-64498761D01*
X141804819Y-64498761D02*
X141852438Y-64403523D01*
X141852438Y-64403523D02*
X141900057Y-64355904D01*
X141900057Y-64355904D02*
X141995295Y-64308285D01*
X141995295Y-64308285D02*
X142090533Y-64308285D01*
X142090533Y-64308285D02*
X142233390Y-64355904D01*
X142233390Y-64355904D02*
X142804819Y-64927332D01*
X142804819Y-64927332D02*
X142804819Y-64308285D01*
X139184819Y-109730666D02*
X138708628Y-110063999D01*
X139184819Y-110302094D02*
X138184819Y-110302094D01*
X138184819Y-110302094D02*
X138184819Y-109921142D01*
X138184819Y-109921142D02*
X138232438Y-109825904D01*
X138232438Y-109825904D02*
X138280057Y-109778285D01*
X138280057Y-109778285D02*
X138375295Y-109730666D01*
X138375295Y-109730666D02*
X138518152Y-109730666D01*
X138518152Y-109730666D02*
X138613390Y-109778285D01*
X138613390Y-109778285D02*
X138661009Y-109825904D01*
X138661009Y-109825904D02*
X138708628Y-109921142D01*
X138708628Y-109921142D02*
X138708628Y-110302094D01*
X139184819Y-108778285D02*
X139184819Y-109349713D01*
X139184819Y-109063999D02*
X138184819Y-109063999D01*
X138184819Y-109063999D02*
X138327676Y-109159237D01*
X138327676Y-109159237D02*
X138422914Y-109254475D01*
X138422914Y-109254475D02*
X138470533Y-109349713D01*
X152945714Y-72903104D02*
X153421904Y-72903104D01*
X152850476Y-73188819D02*
X153183809Y-72188819D01*
X153183809Y-72188819D02*
X153517142Y-73188819D01*
X154374285Y-73188819D02*
X153802857Y-73188819D01*
X154088571Y-73188819D02*
X154088571Y-72188819D01*
X154088571Y-72188819D02*
X153993333Y-72331676D01*
X153993333Y-72331676D02*
X153898095Y-72426914D01*
X153898095Y-72426914D02*
X153802857Y-72474533D01*
X152398095Y-112828819D02*
X152398095Y-113638342D01*
X152398095Y-113638342D02*
X152445714Y-113733580D01*
X152445714Y-113733580D02*
X152493333Y-113781200D01*
X152493333Y-113781200D02*
X152588571Y-113828819D01*
X152588571Y-113828819D02*
X152779047Y-113828819D01*
X152779047Y-113828819D02*
X152874285Y-113781200D01*
X152874285Y-113781200D02*
X152921904Y-113733580D01*
X152921904Y-113733580D02*
X152969523Y-113638342D01*
X152969523Y-113638342D02*
X152969523Y-112828819D01*
X153398095Y-113781200D02*
X153540952Y-113828819D01*
X153540952Y-113828819D02*
X153779047Y-113828819D01*
X153779047Y-113828819D02*
X153874285Y-113781200D01*
X153874285Y-113781200D02*
X153921904Y-113733580D01*
X153921904Y-113733580D02*
X153969523Y-113638342D01*
X153969523Y-113638342D02*
X153969523Y-113543104D01*
X153969523Y-113543104D02*
X153921904Y-113447866D01*
X153921904Y-113447866D02*
X153874285Y-113400247D01*
X153874285Y-113400247D02*
X153779047Y-113352628D01*
X153779047Y-113352628D02*
X153588571Y-113305009D01*
X153588571Y-113305009D02*
X153493333Y-113257390D01*
X153493333Y-113257390D02*
X153445714Y-113209771D01*
X153445714Y-113209771D02*
X153398095Y-113114533D01*
X153398095Y-113114533D02*
X153398095Y-113019295D01*
X153398095Y-113019295D02*
X153445714Y-112924057D01*
X153445714Y-112924057D02*
X153493333Y-112876438D01*
X153493333Y-112876438D02*
X153588571Y-112828819D01*
X153588571Y-112828819D02*
X153826666Y-112828819D01*
X153826666Y-112828819D02*
X153969523Y-112876438D01*
X154731428Y-113305009D02*
X154874285Y-113352628D01*
X154874285Y-113352628D02*
X154921904Y-113400247D01*
X154921904Y-113400247D02*
X154969523Y-113495485D01*
X154969523Y-113495485D02*
X154969523Y-113638342D01*
X154969523Y-113638342D02*
X154921904Y-113733580D01*
X154921904Y-113733580D02*
X154874285Y-113781200D01*
X154874285Y-113781200D02*
X154779047Y-113828819D01*
X154779047Y-113828819D02*
X154398095Y-113828819D01*
X154398095Y-113828819D02*
X154398095Y-112828819D01*
X154398095Y-112828819D02*
X154731428Y-112828819D01*
X154731428Y-112828819D02*
X154826666Y-112876438D01*
X154826666Y-112876438D02*
X154874285Y-112924057D01*
X154874285Y-112924057D02*
X154921904Y-113019295D01*
X154921904Y-113019295D02*
X154921904Y-113114533D01*
X154921904Y-113114533D02*
X154874285Y-113209771D01*
X154874285Y-113209771D02*
X154826666Y-113257390D01*
X154826666Y-113257390D02*
X154731428Y-113305009D01*
X154731428Y-113305009D02*
X154398095Y-113305009D01*
X131198095Y-59698819D02*
X131198095Y-60508342D01*
X131198095Y-60508342D02*
X131245714Y-60603580D01*
X131245714Y-60603580D02*
X131293333Y-60651200D01*
X131293333Y-60651200D02*
X131388571Y-60698819D01*
X131388571Y-60698819D02*
X131579047Y-60698819D01*
X131579047Y-60698819D02*
X131674285Y-60651200D01*
X131674285Y-60651200D02*
X131721904Y-60603580D01*
X131721904Y-60603580D02*
X131769523Y-60508342D01*
X131769523Y-60508342D02*
X131769523Y-59698819D01*
X132198095Y-59794057D02*
X132245714Y-59746438D01*
X132245714Y-59746438D02*
X132340952Y-59698819D01*
X132340952Y-59698819D02*
X132579047Y-59698819D01*
X132579047Y-59698819D02*
X132674285Y-59746438D01*
X132674285Y-59746438D02*
X132721904Y-59794057D01*
X132721904Y-59794057D02*
X132769523Y-59889295D01*
X132769523Y-59889295D02*
X132769523Y-59984533D01*
X132769523Y-59984533D02*
X132721904Y-60127390D01*
X132721904Y-60127390D02*
X132150476Y-60698819D01*
X132150476Y-60698819D02*
X132769523Y-60698819D01*
X158113333Y-63203580D02*
X158065714Y-63251200D01*
X158065714Y-63251200D02*
X157922857Y-63298819D01*
X157922857Y-63298819D02*
X157827619Y-63298819D01*
X157827619Y-63298819D02*
X157684762Y-63251200D01*
X157684762Y-63251200D02*
X157589524Y-63155961D01*
X157589524Y-63155961D02*
X157541905Y-63060723D01*
X157541905Y-63060723D02*
X157494286Y-62870247D01*
X157494286Y-62870247D02*
X157494286Y-62727390D01*
X157494286Y-62727390D02*
X157541905Y-62536914D01*
X157541905Y-62536914D02*
X157589524Y-62441676D01*
X157589524Y-62441676D02*
X157684762Y-62346438D01*
X157684762Y-62346438D02*
X157827619Y-62298819D01*
X157827619Y-62298819D02*
X157922857Y-62298819D01*
X157922857Y-62298819D02*
X158065714Y-62346438D01*
X158065714Y-62346438D02*
X158113333Y-62394057D01*
X159065714Y-63298819D02*
X158494286Y-63298819D01*
X158780000Y-63298819D02*
X158780000Y-62298819D01*
X158780000Y-62298819D02*
X158684762Y-62441676D01*
X158684762Y-62441676D02*
X158589524Y-62536914D01*
X158589524Y-62536914D02*
X158494286Y-62584533D01*
D13*
%TO.C,U1*%
X129510000Y-94264000D02*
X129510000Y-114704000D01*
X129510000Y-114704000D02*
X134810000Y-114704000D01*
X131160000Y-94264000D02*
X129510000Y-94264000D01*
X134810000Y-94264000D02*
X133160000Y-94264000D01*
X134810000Y-114704000D02*
X134810000Y-94264000D01*
X133160000Y-94264000D02*
G75*
G02*
X131160000Y-94264000I-1000000J0D01*
G01*
%TO.C,C3*%
X139400000Y-95824000D02*
X139400000Y-100364000D01*
X139415000Y-95824000D02*
X139400000Y-95824000D01*
X139415000Y-100364000D02*
X139400000Y-100364000D01*
X141540000Y-95824000D02*
X141525000Y-95824000D01*
X141540000Y-95824000D02*
X141540000Y-100364000D01*
X141540000Y-100364000D02*
X141525000Y-100364000D01*
D14*
%TO.C,J1*%
X110211600Y-54125000D02*
X110211600Y-127023000D01*
X110211600Y-127023000D02*
X119939800Y-127023000D01*
X119939800Y-54125000D02*
X110211600Y-54125000D01*
X119939800Y-127023000D02*
X119939800Y-54125000D01*
D13*
%TO.C,C2*%
X139080000Y-62824000D02*
X139080000Y-67364000D01*
X139095000Y-62824000D02*
X139080000Y-62824000D01*
X139095000Y-67364000D02*
X139080000Y-67364000D01*
X141220000Y-62824000D02*
X141205000Y-62824000D01*
X141220000Y-62824000D02*
X141220000Y-67364000D01*
X141220000Y-67364000D02*
X141205000Y-67364000D01*
%TO.C,R1*%
X139730000Y-107644000D02*
X139730000Y-111484000D01*
X139730000Y-111484000D02*
X141570000Y-111484000D01*
X140650000Y-106694000D02*
X140650000Y-107644000D01*
X140650000Y-112434000D02*
X140650000Y-111484000D01*
X141570000Y-107644000D02*
X139730000Y-107644000D01*
X141570000Y-111484000D02*
X141570000Y-107644000D01*
%TO.C,A1*%
X144640000Y-73874000D02*
X144640000Y-76544000D01*
X144640000Y-79084000D02*
X144640000Y-117314000D01*
X144640000Y-117314000D02*
X149720000Y-117314000D01*
X147310000Y-76544000D02*
X144640000Y-76544000D01*
X147310000Y-79084000D02*
X144640000Y-79084000D01*
X147310000Y-79084000D02*
X147310000Y-76544000D01*
X147310000Y-79084000D02*
X147310000Y-114644000D01*
X147310000Y-114644000D02*
X144640000Y-114644000D01*
X149720000Y-109434000D02*
X157600000Y-109434000D01*
X149720000Y-119854000D02*
X149720000Y-109434000D01*
X157600000Y-109434000D02*
X157600000Y-119854000D01*
X157600000Y-119854000D02*
X149720000Y-119854000D01*
X160010000Y-76544000D02*
X160010000Y-114644000D01*
X160010000Y-76544000D02*
X162680000Y-76544000D01*
X160010000Y-114644000D02*
X162680000Y-114644000D01*
X162680000Y-73874000D02*
X144640000Y-73874000D01*
X162680000Y-117314000D02*
X157600000Y-117314000D01*
X162680000Y-117314000D02*
X162680000Y-73874000D01*
%TO.C,U2*%
X129310000Y-61244000D02*
X129310000Y-81684000D01*
X129310000Y-81684000D02*
X134610000Y-81684000D01*
X130960000Y-61244000D02*
X129310000Y-61244000D01*
X134610000Y-61244000D02*
X132960000Y-61244000D01*
X134610000Y-81684000D02*
X134610000Y-61244000D01*
X132960000Y-61244000D02*
G75*
G02*
X130960000Y-61244000I-1000000J0D01*
G01*
%TO.C,C1*%
X155475225Y-65119000D02*
X155975225Y-65119000D01*
X155725225Y-64869000D02*
X155725225Y-65369000D01*
X158280000Y-64014000D02*
X158280000Y-65554000D01*
X158280000Y-67634000D02*
X158280000Y-69174000D01*
X158320000Y-64014000D02*
X158320000Y-65554000D01*
X158320000Y-67634000D02*
X158320000Y-69174000D01*
X158360000Y-64015000D02*
X158360000Y-65554000D01*
X158360000Y-67634000D02*
X158360000Y-69173000D01*
X158400000Y-64016000D02*
X158400000Y-65554000D01*
X158400000Y-67634000D02*
X158400000Y-69172000D01*
X158440000Y-64018000D02*
X158440000Y-65554000D01*
X158440000Y-67634000D02*
X158440000Y-69170000D01*
X158480000Y-64021000D02*
X158480000Y-65554000D01*
X158480000Y-67634000D02*
X158480000Y-69167000D01*
X158520000Y-64025000D02*
X158520000Y-65554000D01*
X158520000Y-67634000D02*
X158520000Y-69163000D01*
X158560000Y-64029000D02*
X158560000Y-65554000D01*
X158560000Y-67634000D02*
X158560000Y-69159000D01*
X158600000Y-64033000D02*
X158600000Y-65554000D01*
X158600000Y-67634000D02*
X158600000Y-69155000D01*
X158640000Y-64038000D02*
X158640000Y-65554000D01*
X158640000Y-67634000D02*
X158640000Y-69150000D01*
X158680000Y-64044000D02*
X158680000Y-65554000D01*
X158680000Y-67634000D02*
X158680000Y-69144000D01*
X158720000Y-64051000D02*
X158720000Y-65554000D01*
X158720000Y-67634000D02*
X158720000Y-69137000D01*
X158760000Y-64058000D02*
X158760000Y-65554000D01*
X158760000Y-67634000D02*
X158760000Y-69130000D01*
X158800000Y-64066000D02*
X158800000Y-65554000D01*
X158800000Y-67634000D02*
X158800000Y-69122000D01*
X158840000Y-64074000D02*
X158840000Y-65554000D01*
X158840000Y-67634000D02*
X158840000Y-69114000D01*
X158880000Y-64083000D02*
X158880000Y-65554000D01*
X158880000Y-67634000D02*
X158880000Y-69105000D01*
X158920000Y-64093000D02*
X158920000Y-65554000D01*
X158920000Y-67634000D02*
X158920000Y-69095000D01*
X158960000Y-64103000D02*
X158960000Y-65554000D01*
X158960000Y-67634000D02*
X158960000Y-69085000D01*
X159001000Y-64114000D02*
X159001000Y-65554000D01*
X159001000Y-67634000D02*
X159001000Y-69074000D01*
X159041000Y-64126000D02*
X159041000Y-65554000D01*
X159041000Y-67634000D02*
X159041000Y-69062000D01*
X159081000Y-64139000D02*
X159081000Y-65554000D01*
X159081000Y-67634000D02*
X159081000Y-69049000D01*
X159121000Y-64152000D02*
X159121000Y-65554000D01*
X159121000Y-67634000D02*
X159121000Y-69036000D01*
X159161000Y-64166000D02*
X159161000Y-65554000D01*
X159161000Y-67634000D02*
X159161000Y-69022000D01*
X159201000Y-64180000D02*
X159201000Y-65554000D01*
X159201000Y-67634000D02*
X159201000Y-69008000D01*
X159241000Y-64196000D02*
X159241000Y-65554000D01*
X159241000Y-67634000D02*
X159241000Y-68992000D01*
X159281000Y-64212000D02*
X159281000Y-65554000D01*
X159281000Y-67634000D02*
X159281000Y-68976000D01*
X159321000Y-64229000D02*
X159321000Y-65554000D01*
X159321000Y-67634000D02*
X159321000Y-68959000D01*
X159361000Y-64246000D02*
X159361000Y-65554000D01*
X159361000Y-67634000D02*
X159361000Y-68942000D01*
X159401000Y-64265000D02*
X159401000Y-65554000D01*
X159401000Y-67634000D02*
X159401000Y-68923000D01*
X159441000Y-64284000D02*
X159441000Y-65554000D01*
X159441000Y-67634000D02*
X159441000Y-68904000D01*
X159481000Y-64304000D02*
X159481000Y-65554000D01*
X159481000Y-67634000D02*
X159481000Y-68884000D01*
X159521000Y-64326000D02*
X159521000Y-65554000D01*
X159521000Y-67634000D02*
X159521000Y-68862000D01*
X159561000Y-64347000D02*
X159561000Y-65554000D01*
X159561000Y-67634000D02*
X159561000Y-68841000D01*
X159601000Y-64370000D02*
X159601000Y-65554000D01*
X159601000Y-67634000D02*
X159601000Y-68818000D01*
X159641000Y-64394000D02*
X159641000Y-65554000D01*
X159641000Y-67634000D02*
X159641000Y-68794000D01*
X159681000Y-64419000D02*
X159681000Y-65554000D01*
X159681000Y-67634000D02*
X159681000Y-68769000D01*
X159721000Y-64445000D02*
X159721000Y-65554000D01*
X159721000Y-67634000D02*
X159721000Y-68743000D01*
X159761000Y-64472000D02*
X159761000Y-65554000D01*
X159761000Y-67634000D02*
X159761000Y-68716000D01*
X159801000Y-64499000D02*
X159801000Y-65554000D01*
X159801000Y-67634000D02*
X159801000Y-68689000D01*
X159841000Y-64529000D02*
X159841000Y-65554000D01*
X159841000Y-67634000D02*
X159841000Y-68659000D01*
X159881000Y-64559000D02*
X159881000Y-65554000D01*
X159881000Y-67634000D02*
X159881000Y-68629000D01*
X159921000Y-64590000D02*
X159921000Y-65554000D01*
X159921000Y-67634000D02*
X159921000Y-68598000D01*
X159961000Y-64623000D02*
X159961000Y-65554000D01*
X159961000Y-67634000D02*
X159961000Y-68565000D01*
X160001000Y-64657000D02*
X160001000Y-65554000D01*
X160001000Y-67634000D02*
X160001000Y-68531000D01*
X160041000Y-64693000D02*
X160041000Y-65554000D01*
X160041000Y-67634000D02*
X160041000Y-68495000D01*
X160081000Y-64730000D02*
X160081000Y-65554000D01*
X160081000Y-67634000D02*
X160081000Y-68458000D01*
X160121000Y-64768000D02*
X160121000Y-65554000D01*
X160121000Y-67634000D02*
X160121000Y-68420000D01*
X160161000Y-64809000D02*
X160161000Y-65554000D01*
X160161000Y-67634000D02*
X160161000Y-68379000D01*
X160201000Y-64851000D02*
X160201000Y-65554000D01*
X160201000Y-67634000D02*
X160201000Y-68337000D01*
X160241000Y-64895000D02*
X160241000Y-65554000D01*
X160241000Y-67634000D02*
X160241000Y-68293000D01*
X160281000Y-64941000D02*
X160281000Y-65554000D01*
X160281000Y-67634000D02*
X160281000Y-68247000D01*
X160321000Y-64989000D02*
X160321000Y-68199000D01*
X160361000Y-65040000D02*
X160361000Y-68148000D01*
X160401000Y-65094000D02*
X160401000Y-68094000D01*
X160441000Y-65151000D02*
X160441000Y-68037000D01*
X160481000Y-65211000D02*
X160481000Y-67977000D01*
X160521000Y-65275000D02*
X160521000Y-67913000D01*
X160561000Y-65343000D02*
X160561000Y-67845000D01*
X160601000Y-65416000D02*
X160601000Y-67772000D01*
X160641000Y-65496000D02*
X160641000Y-67692000D01*
X160681000Y-65583000D02*
X160681000Y-67605000D01*
X160721000Y-65679000D02*
X160721000Y-67509000D01*
X160761000Y-65789000D02*
X160761000Y-67399000D01*
X160801000Y-65917000D02*
X160801000Y-67271000D01*
X160841000Y-66076000D02*
X160841000Y-67112000D01*
X160881000Y-66310000D02*
X160881000Y-66878000D01*
X160900000Y-66594000D02*
G75*
G02*
X155660000Y-66594000I-2620000J0D01*
G01*
X155660000Y-66594000D02*
G75*
G02*
X160900000Y-66594000I2620000J0D01*
G01*
%TD*%
M02*
