%TF.GenerationSoftware,KiCad,Pcbnew,8.0.9-8.0.9-0~ubuntu22.04.1*%
%TF.CreationDate,2025-10-20T20:54:41-07:00*%
%TF.ProjectId,Arduino_SMS_Cart_Programmer,41726475-696e-46f5-9f53-4d535f436172,rev?*%
%TF.SameCoordinates,Original*%
%TF.FileFunction,Copper,L1,Top*%
%TF.FilePolarity,Positive*%
%FSLAX46Y46*%
G04 Gerber Fmt 4.6, Leading zero omitted, Abs format (unit mm)*
G04 Created by KiCad (PCBNEW 8.0.9-8.0.9-0~ubuntu22.04.1) date 2025-10-20 20:54:41*
%MOMM*%
%LPD*%
G01*
G04 APERTURE LIST*
%TA.AperFunction,ComponentPad*%
%ADD10R,1.600000X1.600000*%
%TD*%
%TA.AperFunction,ComponentPad*%
%ADD11O,1.600000X1.600000*%
%TD*%
%TA.AperFunction,ComponentPad*%
%ADD12C,1.600000*%
%TD*%
%TA.AperFunction,ComponentPad*%
%ADD13C,1.600200*%
%TD*%
%TA.AperFunction,ComponentPad*%
%ADD14C,1.400000*%
%TD*%
%TA.AperFunction,ComponentPad*%
%ADD15O,1.400000X1.400000*%
%TD*%
%TA.AperFunction,ViaPad*%
%ADD16C,0.600000*%
%TD*%
%TA.AperFunction,Conductor*%
%ADD17C,0.200000*%
%TD*%
G04 APERTURE END LIST*
D10*
%TO.P,U1,1,QB*%
%TO.N,A1*%
X134700000Y-103500000D03*
D11*
%TO.P,U1,2,QC*%
%TO.N,A2*%
X134700000Y-106040000D03*
%TO.P,U1,3,QD*%
%TO.N,A3*%
X134700000Y-108580000D03*
%TO.P,U1,4,QE*%
%TO.N,A4*%
X134700000Y-111120000D03*
%TO.P,U1,5,QF*%
%TO.N,A5*%
X134700000Y-113660000D03*
%TO.P,U1,6,QG*%
%TO.N,A6*%
X134700000Y-116200000D03*
%TO.P,U1,7,QH*%
%TO.N,A7*%
X134700000Y-118740000D03*
%TO.P,U1,8,GND*%
%TO.N,GND*%
X134700000Y-121280000D03*
%TO.P,U1,9,QH'*%
%TO.N,Net-(U1-QH')*%
X142320000Y-121280000D03*
%TO.P,U1,10,~{SRCLR}*%
%TO.N,VCC*%
X142320000Y-118740000D03*
%TO.P,U1,11,SRCLK*%
%TO.N,SCK*%
X142320000Y-116200000D03*
%TO.P,U1,12,RCLK*%
%TO.N,RCLK*%
X142320000Y-113660000D03*
%TO.P,U1,13,~{OE}*%
%TO.N,GND*%
X142320000Y-111120000D03*
%TO.P,U1,14,SER*%
%TO.N,MOSI*%
X142320000Y-108580000D03*
%TO.P,U1,15,QA*%
%TO.N,A0*%
X142320000Y-106040000D03*
%TO.P,U1,16,VCC*%
%TO.N,VCC*%
X142320000Y-103500000D03*
%TD*%
D12*
%TO.P,C3,1*%
%TO.N,VCC*%
X146820000Y-103500000D03*
%TO.P,C3,2*%
%TO.N,GND*%
X146820000Y-108500000D03*
%TD*%
D13*
%TO.P,J1,1,Pin_1*%
%TO.N,VCC*%
X119000000Y-68000000D03*
%TO.P,J1,2,Pin_2*%
%TO.N,{slash}WR*%
X123851400Y-68000000D03*
%TO.P,J1,3,Pin_3*%
%TO.N,unconnected-(J1-Pin_3-Pad3)*%
X119000000Y-70540000D03*
%TO.P,J1,4,Pin_4*%
%TO.N,{slash}RD*%
X123851400Y-70540000D03*
%TO.P,J1,5,Pin_5*%
%TO.N,unconnected-(J1-Pin_5-Pad5)*%
X119000000Y-73080000D03*
%TO.P,J1,6,Pin_6*%
%TO.N,A14*%
X123851400Y-73080000D03*
%TO.P,J1,7,Pin_7*%
%TO.N,A13*%
X119000000Y-75620000D03*
%TO.P,J1,8,Pin_8*%
%TO.N,A8*%
X123851400Y-75620000D03*
%TO.P,J1,9,Pin_9*%
%TO.N,A9*%
X119000000Y-78160000D03*
%TO.P,J1,10,Pin_10*%
%TO.N,A11*%
X123851400Y-78160000D03*
%TO.P,J1,11,Pin_11*%
%TO.N,unconnected-(J1-Pin_11-Pad11)*%
X119000000Y-80700000D03*
%TO.P,J1,12,Pin_12*%
%TO.N,A10*%
X123851400Y-80700000D03*
%TO.P,J1,13,Pin_13*%
%TO.N,{slash}CE*%
X119000000Y-83240000D03*
%TO.P,J1,14,Pin_14*%
%TO.N,D7*%
X123851400Y-83240000D03*
%TO.P,J1,15,Pin_15*%
%TO.N,D6*%
X119000000Y-85780000D03*
%TO.P,J1,16,Pin_16*%
%TO.N,D5*%
X123851400Y-85780000D03*
%TO.P,J1,17,Pin_17*%
%TO.N,D4*%
X119000000Y-88320000D03*
%TO.P,J1,18,Pin_18*%
%TO.N,D3*%
X123851400Y-88320000D03*
%TO.P,J1,19,Pin_19*%
%TO.N,GND*%
X119000000Y-90860000D03*
%TO.P,J1,20,Pin_20*%
X123851400Y-90860000D03*
%TO.P,J1,21,Pin_21*%
X119000000Y-93400000D03*
%TO.P,J1,22,Pin_22*%
%TO.N,D2*%
X123851400Y-93400000D03*
%TO.P,J1,23,Pin_23*%
%TO.N,D1*%
X119000000Y-95940000D03*
%TO.P,J1,24,Pin_24*%
%TO.N,D0*%
X123851400Y-95940000D03*
%TO.P,J1,25,Pin_25*%
%TO.N,A0*%
X119000000Y-98480000D03*
%TO.P,J1,26,Pin_26*%
%TO.N,A1*%
X123851400Y-98480000D03*
%TO.P,J1,27,Pin_27*%
%TO.N,A2*%
X119000000Y-101020000D03*
%TO.P,J1,28,Pin_28*%
%TO.N,A3*%
X123851400Y-101020000D03*
%TO.P,J1,29,Pin_29*%
%TO.N,A4*%
X119000000Y-103560000D03*
%TO.P,J1,30,Pin_30*%
%TO.N,A5*%
X123851400Y-103560000D03*
%TO.P,J1,31,Pin_31*%
%TO.N,A6*%
X119000000Y-106100000D03*
%TO.P,J1,32,Pin_32*%
%TO.N,A7*%
X123851400Y-106100000D03*
%TO.P,J1,33,Pin_33*%
%TO.N,A12*%
X119000000Y-108640000D03*
%TO.P,J1,34,Pin_34*%
%TO.N,unconnected-(J1-Pin_34-Pad34)*%
X123851400Y-108640000D03*
%TO.P,J1,35,Pin_35*%
%TO.N,VCC*%
X119000000Y-111180000D03*
%TO.P,J1,36,Pin_36*%
%TO.N,A15*%
X123851400Y-111180000D03*
%TO.P,J1,37,Pin_37*%
%TO.N,unconnected-(J1-Pin_37-Pad37)*%
X119000000Y-113720000D03*
%TO.P,J1,38,Pin_38*%
%TO.N,unconnected-(J1-Pin_38-Pad38)*%
X123851400Y-113720000D03*
%TO.P,J1,39,Pin_39*%
%TO.N,unconnected-(J1-Pin_39-Pad39)*%
X119000000Y-116260000D03*
%TO.P,J1,40,Pin_40*%
%TO.N,unconnected-(J1-Pin_40-Pad40)*%
X123851400Y-116260000D03*
%TO.P,J1,41,Pin_41*%
%TO.N,unconnected-(J1-Pin_41-Pad41)*%
X119000000Y-118800000D03*
%TO.P,J1,42,Pin_42*%
%TO.N,unconnected-(J1-Pin_42-Pad42)*%
X123851400Y-118800000D03*
%TO.P,J1,43,Pin_43*%
%TO.N,unconnected-(J1-Pin_43-Pad43)*%
X119000000Y-121340000D03*
%TO.P,J1,44,Pin_44*%
%TO.N,unconnected-(J1-Pin_44-Pad44)*%
X123851400Y-121340000D03*
%TO.P,J1,45,Pin_45*%
%TO.N,unconnected-(J1-Pin_45-Pad45)*%
X119000000Y-123880000D03*
%TO.P,J1,46,Pin_46*%
%TO.N,unconnected-(J1-Pin_46-Pad46)*%
X123851400Y-123880000D03*
%TO.P,J1,47,Pin_47*%
%TO.N,unconnected-(J1-Pin_47-Pad47)*%
X119000000Y-126420000D03*
%TO.P,J1,48,Pin_48*%
%TO.N,unconnected-(J1-Pin_48-Pad48)*%
X123851400Y-126420000D03*
%TO.P,J1,49,Pin_49*%
%TO.N,unconnected-(J1-Pin_49-Pad49)*%
X119000000Y-128960000D03*
%TO.P,J1,50,Pin_50*%
%TO.N,unconnected-(J1-Pin_50-Pad50)*%
X123851400Y-128960000D03*
%TD*%
D12*
%TO.P,C2,1*%
%TO.N,VCC*%
X146500000Y-70500000D03*
%TO.P,C2,2*%
%TO.N,GND*%
X146500000Y-75500000D03*
%TD*%
D14*
%TO.P,R1,1*%
%TO.N,RCLK*%
X147000000Y-121280000D03*
D15*
%TO.P,R1,2*%
%TO.N,GND*%
X147000000Y-113660000D03*
%TD*%
D10*
%TO.P,A1,1,D1/TX*%
%TO.N,unconnected-(A1-D1{slash}TX-Pad1)*%
X152390000Y-85720000D03*
D11*
%TO.P,A1,2,D0/RX*%
%TO.N,unconnected-(A1-D0{slash}RX-Pad2)*%
X152390000Y-88260000D03*
%TO.P,A1,3,~{RESET}*%
%TO.N,unconnected-(A1-~{RESET}-Pad3)*%
X152390000Y-90800000D03*
%TO.P,A1,4,GND*%
%TO.N,unconnected-(A1-GND-Pad4)*%
X152390000Y-93340000D03*
%TO.P,A1,5,D2*%
%TO.N,D2*%
X152390000Y-95880000D03*
%TO.P,A1,6,D3*%
%TO.N,D3*%
X152390000Y-98420000D03*
%TO.P,A1,7,D4*%
%TO.N,D4*%
X152390000Y-100960000D03*
%TO.P,A1,8,D5*%
%TO.N,D5*%
X152390000Y-103500000D03*
%TO.P,A1,9,D6*%
%TO.N,D6*%
X152390000Y-106040000D03*
%TO.P,A1,10,D7*%
%TO.N,D7*%
X152390000Y-108580000D03*
%TO.P,A1,11,D8*%
%TO.N,D0*%
X152390000Y-111120000D03*
%TO.P,A1,12,D9*%
%TO.N,D1*%
X152390000Y-113660000D03*
%TO.P,A1,13,D10*%
%TO.N,unconnected-(A1-D10-Pad13)*%
X152390000Y-116200000D03*
%TO.P,A1,14,D11*%
%TO.N,MOSI*%
X152390000Y-118740000D03*
%TO.P,A1,15,D12*%
%TO.N,unconnected-(A1-D12-Pad15)*%
X152390000Y-121280000D03*
%TO.P,A1,16,D13*%
%TO.N,SCK*%
X167630000Y-121280000D03*
%TO.P,A1,17,3V3*%
%TO.N,unconnected-(A1-3V3-Pad17)*%
X167630000Y-118740000D03*
%TO.P,A1,18,AREF*%
%TO.N,unconnected-(A1-AREF-Pad18)*%
X167630000Y-116200000D03*
%TO.P,A1,19,A0*%
%TO.N,RCLK*%
X167630000Y-113660000D03*
%TO.P,A1,20,A1*%
%TO.N,{slash}CE*%
X167630000Y-111120000D03*
%TO.P,A1,21,A2*%
%TO.N,{slash}RD*%
X167630000Y-108580000D03*
%TO.P,A1,22,A3*%
%TO.N,{slash}WR*%
X167630000Y-106040000D03*
%TO.P,A1,23,A4*%
%TO.N,unconnected-(A1-A4-Pad23)*%
X167630000Y-103500000D03*
%TO.P,A1,24,A5*%
%TO.N,unconnected-(A1-A5-Pad24)*%
X167630000Y-100960000D03*
%TO.P,A1,25,A6*%
%TO.N,unconnected-(A1-A6-Pad25)*%
X167630000Y-98420000D03*
%TO.P,A1,26,A7*%
%TO.N,unconnected-(A1-A7-Pad26)*%
X167630000Y-95880000D03*
%TO.P,A1,27,+5V*%
%TO.N,VCC*%
X167630000Y-93340000D03*
%TO.P,A1,28,~{RESET}*%
%TO.N,unconnected-(A1-~{RESET}-Pad28)*%
X167630000Y-90800000D03*
%TO.P,A1,29,GND*%
%TO.N,GND*%
X167630000Y-88260000D03*
%TO.P,A1,30,VIN*%
%TO.N,unconnected-(A1-VIN-Pad30)*%
X167630000Y-85720000D03*
%TD*%
D10*
%TO.P,U2,1,QB*%
%TO.N,A9*%
X134500000Y-70480000D03*
D11*
%TO.P,U2,2,QC*%
%TO.N,A10*%
X134500000Y-73020000D03*
%TO.P,U2,3,QD*%
%TO.N,A11*%
X134500000Y-75560000D03*
%TO.P,U2,4,QE*%
%TO.N,A12*%
X134500000Y-78100000D03*
%TO.P,U2,5,QF*%
%TO.N,A13*%
X134500000Y-80640000D03*
%TO.P,U2,6,QG*%
%TO.N,A14*%
X134500000Y-83180000D03*
%TO.P,U2,7,QH*%
%TO.N,A15*%
X134500000Y-85720000D03*
%TO.P,U2,8,GND*%
%TO.N,GND*%
X134500000Y-88260000D03*
%TO.P,U2,9,QH'*%
%TO.N,unconnected-(U2-QH'-Pad9)*%
X142120000Y-88260000D03*
%TO.P,U2,10,~{SRCLR}*%
%TO.N,VCC*%
X142120000Y-85720000D03*
%TO.P,U2,11,SRCLK*%
%TO.N,SCK*%
X142120000Y-83180000D03*
%TO.P,U2,12,RCLK*%
%TO.N,RCLK*%
X142120000Y-80640000D03*
%TO.P,U2,13,~{OE}*%
%TO.N,GND*%
X142120000Y-78100000D03*
%TO.P,U2,14,SER*%
%TO.N,Net-(U1-QH')*%
X142120000Y-75560000D03*
%TO.P,U2,15,QA*%
%TO.N,A8*%
X142120000Y-73020000D03*
%TO.P,U2,16,VCC*%
%TO.N,VCC*%
X142120000Y-70480000D03*
%TD*%
D10*
%TO.P,C1,1*%
%TO.N,VCC*%
X163630000Y-74500000D03*
D12*
%TO.P,C1,2*%
%TO.N,GND*%
X165630000Y-74500000D03*
%TD*%
D16*
%TO.N,RCLK*%
X147031300Y-115237500D03*
X144478000Y-79865000D03*
%TO.N,{slash}WR*%
X165673900Y-68065700D03*
%TO.N,A0*%
X124826300Y-99368700D03*
%TO.N,D7*%
X149921800Y-88565000D03*
%TO.N,A14*%
X133324300Y-73810800D03*
%TO.N,{slash}CE*%
X170165500Y-88565000D03*
%TO.N,{slash}RD*%
X161014600Y-74313100D03*
%TO.N,A9*%
X130486000Y-73616700D03*
%TO.N,D6*%
X149072300Y-91374200D03*
%TD*%
D17*
%TO.N,SCK*%
X141891700Y-84281700D02*
X142120000Y-84281700D01*
X142120000Y-83180000D02*
X142120000Y-84281700D01*
X141014300Y-113930300D02*
X141014300Y-85159100D01*
X142182300Y-115098300D02*
X141014300Y-113930300D01*
X142320000Y-116200000D02*
X142320000Y-115098300D01*
X141014300Y-85159100D02*
X141891700Y-84281700D01*
X142320000Y-115098300D02*
X142182300Y-115098300D01*
%TO.N,RCLK*%
X147031300Y-115237500D02*
X144478000Y-112684200D01*
X147031300Y-115237500D02*
X147000000Y-115268800D01*
X144478000Y-112684200D02*
X144478000Y-79865000D01*
X147000000Y-115268800D02*
X147000000Y-121280000D01*
%TO.N,VCC*%
X143445100Y-116650900D02*
X143445100Y-103523400D01*
X142120000Y-86821700D02*
X143269900Y-86821700D01*
X142348300Y-71581700D02*
X142120000Y-71581700D01*
X167492300Y-92238300D02*
X163630000Y-88376000D01*
X142320000Y-102398300D02*
X143269900Y-101448400D01*
X167630000Y-93340000D02*
X167630000Y-92238300D01*
X142120000Y-70480000D02*
X142120000Y-71581700D01*
X167630000Y-92238300D02*
X167492300Y-92238300D01*
X143269900Y-86821700D02*
X143269900Y-72503300D01*
X143269900Y-72503300D02*
X142348300Y-71581700D01*
X143269900Y-101448400D02*
X143269900Y-86821700D01*
X142120000Y-85720000D02*
X142120000Y-86821700D01*
X142320000Y-117638300D02*
X142457700Y-117638300D01*
X142320000Y-118740000D02*
X142320000Y-117638300D01*
X142320000Y-103500000D02*
X142320000Y-102398300D01*
X143445100Y-103523400D02*
X142320000Y-102398300D01*
X163630000Y-88376000D02*
X163630000Y-74500000D01*
X142457700Y-117638300D02*
X143445100Y-116650900D01*
%TO.N,{slash}WR*%
X168740900Y-71132700D02*
X168740900Y-101413100D01*
X165673900Y-68065700D02*
X168740900Y-71132700D01*
X167755700Y-102398300D02*
X167173600Y-102398300D01*
X167459800Y-104768100D02*
X167630000Y-104938300D01*
X167630000Y-106040000D02*
X167630000Y-104938300D01*
X166528300Y-103956400D02*
X167339900Y-104768000D01*
X166528300Y-103043600D02*
X166528300Y-103956400D01*
X167339900Y-104768000D02*
X167459800Y-104768000D01*
X167459800Y-104768000D02*
X167459800Y-104768100D01*
X167173600Y-102398300D02*
X166528300Y-103043600D01*
X168740900Y-101413100D02*
X167755700Y-102398300D01*
%TO.N,A15*%
X134500000Y-86821700D02*
X134362200Y-86821700D01*
X134362200Y-86821700D02*
X133398300Y-87785600D01*
X134500000Y-85720000D02*
X134500000Y-86821700D01*
X133398300Y-101633100D02*
X123851400Y-111180000D01*
X133398300Y-87785600D02*
X133398300Y-101633100D01*
%TO.N,A10*%
X131933600Y-73020000D02*
X134500000Y-73020000D01*
X124253600Y-80700000D02*
X131933600Y-73020000D01*
%TO.N,A0*%
X120101800Y-99581800D02*
X124613200Y-99581800D01*
X119000000Y-98480000D02*
X120101800Y-99581800D01*
X124613200Y-99581800D02*
X124826300Y-99368700D01*
%TO.N,D7*%
X148377200Y-103603200D02*
X148377200Y-90109600D01*
X152252300Y-107478300D02*
X148377200Y-103603200D01*
X152390000Y-108580000D02*
X152390000Y-107478300D01*
X152390000Y-107478300D02*
X152252300Y-107478300D01*
X148377200Y-90109600D02*
X149921800Y-88565000D01*
%TO.N,A12*%
X121591600Y-104195000D02*
X123496600Y-102290000D01*
X123496600Y-102290000D02*
X124224100Y-102290000D01*
X121591600Y-106048400D02*
X121591600Y-104195000D01*
X132235600Y-94278500D02*
X132235600Y-81237800D01*
X134271700Y-79201700D02*
X134500000Y-79201700D01*
X132235600Y-81237800D02*
X134271700Y-79201700D01*
X134500000Y-78100000D02*
X134500000Y-79201700D01*
X119000000Y-108640000D02*
X121591600Y-106048400D01*
X124224100Y-102290000D02*
X132235600Y-94278500D01*
%TO.N,A14*%
X134117000Y-76754500D02*
X133324300Y-75961800D01*
X135634300Y-77655100D02*
X134733700Y-76754500D01*
X134500000Y-83180000D02*
X134500000Y-82078300D01*
X134637700Y-82078300D02*
X135634300Y-81081700D01*
X134500000Y-82078300D02*
X134637700Y-82078300D01*
X135634300Y-81081700D02*
X135634300Y-77655100D01*
X133324300Y-75961800D02*
X133324300Y-73810800D01*
X134733700Y-76754500D02*
X134117000Y-76754500D01*
%TO.N,{slash}CE*%
X167858300Y-110018300D02*
X167630000Y-110018300D01*
X170165500Y-107711100D02*
X167858300Y-110018300D01*
X170165500Y-88565000D02*
X170165500Y-107711100D01*
X167630000Y-111120000D02*
X167630000Y-110018300D01*
%TO.N,{slash}RD*%
X161014600Y-101091200D02*
X167401700Y-107478300D01*
X167630000Y-108580000D02*
X167630000Y-107478300D01*
X161014600Y-74313100D02*
X161014600Y-101091200D01*
X167401700Y-107478300D02*
X167630000Y-107478300D01*
%TO.N,A9*%
X133398300Y-70704400D02*
X130486000Y-73616700D01*
X134500000Y-70480000D02*
X133398300Y-70480000D01*
X133398300Y-70480000D02*
X133398300Y-70704400D01*
%TO.N,D6*%
X152252300Y-104938300D02*
X149072300Y-101758300D01*
X152390000Y-104938300D02*
X152252300Y-104938300D01*
X152390000Y-106040000D02*
X152390000Y-104938300D01*
X149072300Y-101758300D02*
X149072300Y-91374200D01*
%TO.N,Net-(U1-QH')*%
X141982300Y-76661700D02*
X140583800Y-78060200D01*
X140583800Y-78060200D02*
X140583800Y-118670400D01*
X142091700Y-120178300D02*
X142320000Y-120178300D01*
X140583800Y-118670400D02*
X142091700Y-120178300D01*
X142320000Y-121280000D02*
X142320000Y-120178300D01*
X142120000Y-76661700D02*
X141982300Y-76661700D01*
X142120000Y-75560000D02*
X142120000Y-76661700D01*
%TD*%
%TA.AperFunction,Conductor*%
%TO.N,GND*%
G36*
X132468459Y-73640185D02*
G01*
X132514214Y-73692989D01*
X132524640Y-73758382D01*
X132518735Y-73810794D01*
X132518735Y-73810803D01*
X132538930Y-73990049D01*
X132538931Y-73990054D01*
X132598511Y-74160323D01*
X132657620Y-74254394D01*
X132680611Y-74290984D01*
X132694485Y-74313063D01*
X132696745Y-74315897D01*
X132697634Y-74318075D01*
X132698189Y-74318958D01*
X132698034Y-74319055D01*
X132723155Y-74380583D01*
X132723800Y-74393212D01*
X132723800Y-75875130D01*
X132723799Y-75875148D01*
X132723799Y-76040854D01*
X132723798Y-76040854D01*
X132764723Y-76193586D01*
X132765493Y-76194918D01*
X132765513Y-76194953D01*
X132843777Y-76330512D01*
X132843781Y-76330517D01*
X132962649Y-76449385D01*
X132962655Y-76449390D01*
X133549358Y-77036093D01*
X133582843Y-77097416D01*
X133577859Y-77167108D01*
X133549358Y-77211455D01*
X133499954Y-77260858D01*
X133369432Y-77447265D01*
X133369431Y-77447267D01*
X133273261Y-77653502D01*
X133273258Y-77653511D01*
X133214366Y-77873302D01*
X133214364Y-77873313D01*
X133194532Y-78099998D01*
X133194532Y-78100001D01*
X133214364Y-78326686D01*
X133214366Y-78326697D01*
X133273258Y-78546488D01*
X133273261Y-78546497D01*
X133369431Y-78752732D01*
X133369432Y-78752734D01*
X133499954Y-78939141D01*
X133504807Y-78943994D01*
X133538292Y-79005317D01*
X133533308Y-79075009D01*
X133504807Y-79119356D01*
X131866886Y-80757278D01*
X131755081Y-80869082D01*
X131755077Y-80869087D01*
X131735693Y-80902664D01*
X131735692Y-80902666D01*
X131676023Y-81006015D01*
X131635099Y-81158743D01*
X131635099Y-81158745D01*
X131635099Y-81326846D01*
X131635100Y-81326859D01*
X131635100Y-93978402D01*
X131615415Y-94045441D01*
X131598781Y-94066083D01*
X125663231Y-100001632D01*
X125601908Y-100035117D01*
X125532216Y-100030133D01*
X125476283Y-99988261D01*
X125451866Y-99922797D01*
X125466718Y-99854524D01*
X125470545Y-99847997D01*
X125552089Y-99718222D01*
X125611668Y-99547955D01*
X125611669Y-99547949D01*
X125631865Y-99368703D01*
X125631865Y-99368696D01*
X125611669Y-99189450D01*
X125611668Y-99189445D01*
X125552088Y-99019176D01*
X125505468Y-98944981D01*
X125456116Y-98866438D01*
X125328562Y-98738884D01*
X125328560Y-98738882D01*
X125208599Y-98663505D01*
X125162309Y-98611171D01*
X125151044Y-98547703D01*
X125156968Y-98479999D01*
X125137133Y-98253294D01*
X125137133Y-98253290D01*
X125078233Y-98033469D01*
X124982055Y-97827216D01*
X124940078Y-97767267D01*
X124851526Y-97640801D01*
X124851521Y-97640795D01*
X124690604Y-97479878D01*
X124690598Y-97479873D01*
X124504185Y-97349345D01*
X124504183Y-97349344D01*
X124446362Y-97322382D01*
X124393923Y-97276210D01*
X124374771Y-97209016D01*
X124394987Y-97142135D01*
X124446362Y-97097618D01*
X124504184Y-97070655D01*
X124690603Y-96940123D01*
X124851523Y-96779203D01*
X124982055Y-96592784D01*
X125078233Y-96386531D01*
X125137133Y-96166710D01*
X125156968Y-95940000D01*
X125137133Y-95713290D01*
X125078233Y-95493469D01*
X124982055Y-95287216D01*
X124940078Y-95227267D01*
X124851526Y-95100801D01*
X124851521Y-95100795D01*
X124690604Y-94939878D01*
X124690598Y-94939873D01*
X124504185Y-94809345D01*
X124504183Y-94809344D01*
X124446362Y-94782382D01*
X124393923Y-94736210D01*
X124374771Y-94669016D01*
X124394987Y-94602135D01*
X124446362Y-94557618D01*
X124446958Y-94557340D01*
X124504184Y-94530655D01*
X124690603Y-94400123D01*
X124851523Y-94239203D01*
X124982055Y-94052784D01*
X125078233Y-93846531D01*
X125137133Y-93626710D01*
X125156968Y-93400000D01*
X125137133Y-93173290D01*
X125078233Y-92953469D01*
X124982055Y-92747216D01*
X124940078Y-92687267D01*
X124851526Y-92560801D01*
X124851521Y-92560795D01*
X124690604Y-92399878D01*
X124690598Y-92399873D01*
X124504186Y-92269346D01*
X124445769Y-92242105D01*
X124393330Y-92195932D01*
X124374179Y-92128738D01*
X124394396Y-92061857D01*
X124445772Y-92017340D01*
X124503931Y-91990220D01*
X124576944Y-91939096D01*
X124018450Y-91380603D01*
X124062187Y-91368884D01*
X124186713Y-91296989D01*
X124288389Y-91195313D01*
X124360284Y-91070787D01*
X124372003Y-91027051D01*
X124930496Y-91585544D01*
X124981621Y-91512530D01*
X125077759Y-91306360D01*
X125077763Y-91306351D01*
X125136637Y-91086627D01*
X125136639Y-91086617D01*
X125156466Y-90860000D01*
X125156466Y-90859999D01*
X125136639Y-90633382D01*
X125136637Y-90633372D01*
X125077763Y-90413648D01*
X125077759Y-90413639D01*
X124981620Y-90207468D01*
X124981619Y-90207466D01*
X124930496Y-90134455D01*
X124930496Y-90134454D01*
X124372002Y-90692948D01*
X124360284Y-90649213D01*
X124288389Y-90524687D01*
X124186713Y-90423011D01*
X124062187Y-90351116D01*
X124018449Y-90339396D01*
X124576944Y-89780902D01*
X124576943Y-89780901D01*
X124503936Y-89729782D01*
X124445769Y-89702658D01*
X124393330Y-89656486D01*
X124374178Y-89589292D01*
X124394394Y-89522411D01*
X124445767Y-89477895D01*
X124504184Y-89450655D01*
X124690603Y-89320123D01*
X124851523Y-89159203D01*
X124982055Y-88972784D01*
X125078233Y-88766531D01*
X125137133Y-88546710D01*
X125156968Y-88320000D01*
X125137133Y-88093290D01*
X125078233Y-87873469D01*
X124982055Y-87667216D01*
X124940253Y-87607517D01*
X124851526Y-87480801D01*
X124851521Y-87480795D01*
X124690604Y-87319878D01*
X124690598Y-87319873D01*
X124504185Y-87189345D01*
X124504183Y-87189344D01*
X124446362Y-87162382D01*
X124393923Y-87116210D01*
X124374771Y-87049016D01*
X124394987Y-86982135D01*
X124446362Y-86937618D01*
X124504184Y-86910655D01*
X124690603Y-86780123D01*
X124851523Y-86619203D01*
X124982055Y-86432784D01*
X125078233Y-86226531D01*
X125137133Y-86006710D01*
X125156968Y-85780000D01*
X125137133Y-85553290D01*
X125078233Y-85333469D01*
X124982055Y-85127216D01*
X124940078Y-85067267D01*
X124851526Y-84940801D01*
X124851521Y-84940795D01*
X124690604Y-84779878D01*
X124690598Y-84779873D01*
X124504185Y-84649345D01*
X124504183Y-84649344D01*
X124446362Y-84622382D01*
X124393923Y-84576210D01*
X124374771Y-84509016D01*
X124394987Y-84442135D01*
X124446362Y-84397618D01*
X124504184Y-84370655D01*
X124690603Y-84240123D01*
X124851523Y-84079203D01*
X124982055Y-83892784D01*
X125078233Y-83686531D01*
X125137133Y-83466710D01*
X125156968Y-83240000D01*
X125137133Y-83013290D01*
X125078233Y-82793469D01*
X124982055Y-82587216D01*
X124940078Y-82527267D01*
X124851526Y-82400801D01*
X124851521Y-82400795D01*
X124690604Y-82239878D01*
X124690598Y-82239873D01*
X124504185Y-82109345D01*
X124504183Y-82109344D01*
X124446362Y-82082382D01*
X124393923Y-82036210D01*
X124374771Y-81969016D01*
X124394987Y-81902135D01*
X124446362Y-81857618D01*
X124470170Y-81846516D01*
X124504184Y-81830655D01*
X124690603Y-81700123D01*
X124851523Y-81539203D01*
X124982055Y-81352784D01*
X125078233Y-81146531D01*
X125137133Y-80926710D01*
X125156968Y-80700000D01*
X125156968Y-80699999D01*
X125156968Y-80697228D01*
X125157313Y-80696051D01*
X125157440Y-80694606D01*
X125157730Y-80694631D01*
X125176653Y-80630189D01*
X125193287Y-80609547D01*
X132146016Y-73656819D01*
X132207339Y-73623334D01*
X132233697Y-73620500D01*
X132401420Y-73620500D01*
X132468459Y-73640185D01*
G37*
%TD.AperFunction*%
%TA.AperFunction,Conductor*%
G36*
X170892539Y-61785185D02*
G01*
X170938294Y-61837989D01*
X170949500Y-61889500D01*
X170949500Y-87917560D01*
X170929815Y-87984599D01*
X170877011Y-88030354D01*
X170807853Y-88040298D01*
X170744297Y-88011273D01*
X170737819Y-88005241D01*
X170667762Y-87935184D01*
X170515023Y-87839211D01*
X170344754Y-87779631D01*
X170344749Y-87779630D01*
X170165504Y-87759435D01*
X170165496Y-87759435D01*
X169986250Y-87779630D01*
X169986245Y-87779631D01*
X169815976Y-87839211D01*
X169663237Y-87935184D01*
X169553081Y-88045341D01*
X169491758Y-88078826D01*
X169422066Y-88073842D01*
X169366133Y-88031970D01*
X169341716Y-87966506D01*
X169341400Y-87957660D01*
X169341400Y-71221759D01*
X169341401Y-71221746D01*
X169341401Y-71053645D01*
X169341401Y-71053643D01*
X169300477Y-70900915D01*
X169300475Y-70900912D01*
X169300475Y-70900910D01*
X169300474Y-70900909D01*
X169268358Y-70845283D01*
X169268356Y-70845281D01*
X169221421Y-70763986D01*
X169221420Y-70763984D01*
X169109616Y-70652180D01*
X169109615Y-70652179D01*
X169105285Y-70647849D01*
X169105274Y-70647839D01*
X166504600Y-68047165D01*
X166471115Y-67985842D01*
X166469063Y-67973386D01*
X166459268Y-67886445D01*
X166399689Y-67716178D01*
X166303716Y-67563438D01*
X166176162Y-67435884D01*
X166023423Y-67339911D01*
X165853154Y-67280331D01*
X165853149Y-67280330D01*
X165673904Y-67260135D01*
X165673896Y-67260135D01*
X165494650Y-67280330D01*
X165494645Y-67280331D01*
X165324376Y-67339911D01*
X165171637Y-67435884D01*
X165044084Y-67563437D01*
X164948111Y-67716176D01*
X164888531Y-67886445D01*
X164888530Y-67886450D01*
X164868335Y-68065696D01*
X164868335Y-68065703D01*
X164888530Y-68244949D01*
X164888531Y-68244954D01*
X164948111Y-68415223D01*
X164967784Y-68446532D01*
X165044084Y-68567962D01*
X165171638Y-68695516D01*
X165324378Y-68791489D01*
X165494645Y-68851068D01*
X165581569Y-68860861D01*
X165645980Y-68887926D01*
X165655365Y-68896400D01*
X168104081Y-71345116D01*
X168137566Y-71406439D01*
X168140400Y-71432797D01*
X168140400Y-84348783D01*
X168120715Y-84415822D01*
X168067911Y-84461577D01*
X167998753Y-84471521D01*
X167984308Y-84468558D01*
X167856700Y-84434367D01*
X167856697Y-84434366D01*
X167856692Y-84434365D01*
X167856689Y-84434364D01*
X167856686Y-84434364D01*
X167630002Y-84414532D01*
X167629998Y-84414532D01*
X167403313Y-84434364D01*
X167403302Y-84434366D01*
X167183511Y-84493258D01*
X167183502Y-84493261D01*
X166977267Y-84589431D01*
X166977265Y-84589432D01*
X166790858Y-84719954D01*
X166629954Y-84880858D01*
X166499432Y-85067265D01*
X166499431Y-85067267D01*
X166403261Y-85273502D01*
X166403258Y-85273511D01*
X166344366Y-85493302D01*
X166344364Y-85493313D01*
X166324532Y-85719998D01*
X166324532Y-85720001D01*
X166344364Y-85946686D01*
X166344366Y-85946697D01*
X166403258Y-86166488D01*
X166403261Y-86166497D01*
X166499431Y-86372732D01*
X166499432Y-86372734D01*
X166629954Y-86559141D01*
X166790858Y-86720045D01*
X166790861Y-86720047D01*
X166977266Y-86850568D01*
X167035865Y-86877893D01*
X167088305Y-86924065D01*
X167107457Y-86991258D01*
X167087242Y-87058139D01*
X167035867Y-87102657D01*
X166977515Y-87129867D01*
X166791179Y-87260342D01*
X166630342Y-87421179D01*
X166499865Y-87607517D01*
X166403734Y-87813673D01*
X166403730Y-87813682D01*
X166351127Y-88009999D01*
X166351128Y-88010000D01*
X167196988Y-88010000D01*
X167164075Y-88067007D01*
X167130000Y-88194174D01*
X167130000Y-88325826D01*
X167164075Y-88452993D01*
X167196988Y-88510000D01*
X166351128Y-88510000D01*
X166403730Y-88706317D01*
X166403734Y-88706326D01*
X166499865Y-88912482D01*
X166630342Y-89098820D01*
X166791179Y-89259657D01*
X166977518Y-89390134D01*
X166977520Y-89390135D01*
X167035865Y-89417342D01*
X167088305Y-89463514D01*
X167107457Y-89530707D01*
X167087242Y-89597589D01*
X167035867Y-89642105D01*
X166977268Y-89669431D01*
X166977264Y-89669433D01*
X166790858Y-89799954D01*
X166629954Y-89960858D01*
X166499432Y-90147264D01*
X166499429Y-90147269D01*
X166495107Y-90156539D01*
X166448933Y-90208976D01*
X166381739Y-90228126D01*
X166314858Y-90207908D01*
X166295046Y-90191811D01*
X164266819Y-88163584D01*
X164233334Y-88102261D01*
X164230500Y-88075903D01*
X164230500Y-75924499D01*
X164250185Y-75857460D01*
X164302989Y-75811705D01*
X164354500Y-75800499D01*
X164477871Y-75800499D01*
X164477872Y-75800499D01*
X164537483Y-75794091D01*
X164672331Y-75743796D01*
X164787546Y-75657546D01*
X164794350Y-75648455D01*
X164850280Y-75606584D01*
X164919971Y-75601597D01*
X164964740Y-75621188D01*
X164977512Y-75630130D01*
X164977518Y-75630134D01*
X165183673Y-75726265D01*
X165183682Y-75726269D01*
X165403389Y-75785139D01*
X165403400Y-75785141D01*
X165629998Y-75804966D01*
X165630002Y-75804966D01*
X165856599Y-75785141D01*
X165856610Y-75785139D01*
X166076317Y-75726269D01*
X166076331Y-75726264D01*
X166282478Y-75630136D01*
X166355471Y-75579024D01*
X165676447Y-74900000D01*
X165682661Y-74900000D01*
X165784394Y-74872741D01*
X165875606Y-74820080D01*
X165950080Y-74745606D01*
X166002741Y-74654394D01*
X166030000Y-74552661D01*
X166030000Y-74546447D01*
X166709024Y-75225471D01*
X166760136Y-75152478D01*
X166856264Y-74946331D01*
X166856269Y-74946317D01*
X166915139Y-74726610D01*
X166915141Y-74726599D01*
X166934966Y-74500002D01*
X166934966Y-74499997D01*
X166915141Y-74273400D01*
X166915139Y-74273389D01*
X166856269Y-74053682D01*
X166856264Y-74053668D01*
X166760136Y-73847521D01*
X166760132Y-73847513D01*
X166709025Y-73774526D01*
X166030000Y-74453551D01*
X166030000Y-74447339D01*
X166002741Y-74345606D01*
X165950080Y-74254394D01*
X165875606Y-74179920D01*
X165784394Y-74127259D01*
X165682661Y-74100000D01*
X165676446Y-74100000D01*
X166355472Y-73420974D01*
X166282478Y-73369863D01*
X166076331Y-73273735D01*
X166076317Y-73273730D01*
X165856610Y-73214860D01*
X165856599Y-73214858D01*
X165630002Y-73195034D01*
X165629998Y-73195034D01*
X165403400Y-73214858D01*
X165403389Y-73214860D01*
X165183682Y-73273730D01*
X165183673Y-73273734D01*
X164977512Y-73369868D01*
X164977507Y-73369871D01*
X164964736Y-73378813D01*
X164898529Y-73401138D01*
X164830763Y-73384124D01*
X164794352Y-73351546D01*
X164787546Y-73342454D01*
X164787544Y-73342453D01*
X164787544Y-73342452D01*
X164672335Y-73256206D01*
X164672328Y-73256202D01*
X164537482Y-73205908D01*
X164537483Y-73205908D01*
X164477883Y-73199501D01*
X164477881Y-73199500D01*
X164477873Y-73199500D01*
X164477864Y-73199500D01*
X162782129Y-73199500D01*
X162782123Y-73199501D01*
X162722516Y-73205908D01*
X162587671Y-73256202D01*
X162587664Y-73256206D01*
X162472455Y-73342452D01*
X162472452Y-73342455D01*
X162386206Y-73457664D01*
X162386202Y-73457671D01*
X162335908Y-73592517D01*
X162329501Y-73652116D01*
X162329500Y-73652135D01*
X162329500Y-75347870D01*
X162329501Y-75347876D01*
X162335908Y-75407483D01*
X162386202Y-75542328D01*
X162386206Y-75542335D01*
X162472452Y-75657544D01*
X162472455Y-75657547D01*
X162587664Y-75743793D01*
X162587671Y-75743797D01*
X162632618Y-75760561D01*
X162722517Y-75794091D01*
X162782127Y-75800500D01*
X162905500Y-75800499D01*
X162972539Y-75820183D01*
X163018294Y-75872987D01*
X163029500Y-75924499D01*
X163029500Y-88289330D01*
X163029499Y-88289348D01*
X163029499Y-88455054D01*
X163029498Y-88455054D01*
X163070423Y-88607785D01*
X163099358Y-88657900D01*
X163099359Y-88657904D01*
X163099360Y-88657904D01*
X163149210Y-88744249D01*
X163149479Y-88744714D01*
X163149481Y-88744717D01*
X163268349Y-88863585D01*
X163268355Y-88863590D01*
X166680107Y-92275342D01*
X166713592Y-92336665D01*
X166708608Y-92406357D01*
X166680109Y-92450703D01*
X166629952Y-92500861D01*
X166499432Y-92687265D01*
X166499431Y-92687267D01*
X166403261Y-92893502D01*
X166403258Y-92893511D01*
X166344366Y-93113302D01*
X166344364Y-93113313D01*
X166324532Y-93339998D01*
X166324532Y-93340001D01*
X166344364Y-93566686D01*
X166344366Y-93566697D01*
X166403258Y-93786488D01*
X166403261Y-93786497D01*
X166499431Y-93992732D01*
X166499432Y-93992734D01*
X166629954Y-94179141D01*
X166790858Y-94340045D01*
X166790861Y-94340047D01*
X166977266Y-94470568D01*
X167035275Y-94497618D01*
X167087714Y-94543791D01*
X167106866Y-94610984D01*
X167086650Y-94677865D01*
X167035275Y-94722382D01*
X166977267Y-94749431D01*
X166977265Y-94749432D01*
X166790858Y-94879954D01*
X166629954Y-95040858D01*
X166499432Y-95227265D01*
X166499431Y-95227267D01*
X166403261Y-95433502D01*
X166403258Y-95433511D01*
X166344366Y-95653302D01*
X166344364Y-95653313D01*
X166324532Y-95879998D01*
X166324532Y-95880001D01*
X166344364Y-96106686D01*
X166344366Y-96106697D01*
X166403258Y-96326488D01*
X166403261Y-96326497D01*
X166499431Y-96532732D01*
X166499432Y-96532734D01*
X166629954Y-96719141D01*
X166790858Y-96880045D01*
X166790861Y-96880047D01*
X166977266Y-97010568D01*
X167035275Y-97037618D01*
X167087714Y-97083791D01*
X167106866Y-97150984D01*
X167086650Y-97217865D01*
X167035275Y-97262382D01*
X166977267Y-97289431D01*
X166977265Y-97289432D01*
X166790858Y-97419954D01*
X166629954Y-97580858D01*
X166499432Y-97767265D01*
X166499431Y-97767267D01*
X166403261Y-97973502D01*
X166403258Y-97973511D01*
X166344366Y-98193302D01*
X166344364Y-98193313D01*
X166324532Y-98419998D01*
X166324532Y-98420001D01*
X166344364Y-98646686D01*
X166344366Y-98646697D01*
X166403258Y-98866488D01*
X166403261Y-98866497D01*
X166499431Y-99072732D01*
X166499432Y-99072734D01*
X166629954Y-99259141D01*
X166790858Y-99420045D01*
X166790861Y-99420047D01*
X166977266Y-99550568D01*
X167035275Y-99577618D01*
X167087714Y-99623791D01*
X167106866Y-99690984D01*
X167086650Y-99757865D01*
X167035275Y-99802382D01*
X166977267Y-99829431D01*
X166977265Y-99829432D01*
X166790858Y-99959954D01*
X166629954Y-100120858D01*
X166499432Y-100307265D01*
X166499431Y-100307267D01*
X166403261Y-100513502D01*
X166403258Y-100513511D01*
X166344366Y-100733302D01*
X166344364Y-100733313D01*
X166324532Y-100959998D01*
X166324532Y-100960001D01*
X166344364Y-101186686D01*
X166344366Y-101186697D01*
X166403258Y-101406488D01*
X166403261Y-101406497D01*
X166499431Y-101612732D01*
X166499432Y-101612734D01*
X166629954Y-101799141D01*
X166689057Y-101858244D01*
X166722542Y-101919567D01*
X166717558Y-101989259D01*
X166689057Y-102033606D01*
X166159586Y-102563078D01*
X166047781Y-102674882D01*
X166047779Y-102674884D01*
X166037428Y-102692814D01*
X166020081Y-102722861D01*
X165968723Y-102811815D01*
X165927799Y-102964543D01*
X165927799Y-102964545D01*
X165927799Y-103132646D01*
X165927800Y-103132659D01*
X165927800Y-103869730D01*
X165927799Y-103869748D01*
X165927799Y-104035454D01*
X165927798Y-104035454D01*
X165949366Y-104115945D01*
X165968723Y-104188185D01*
X165991231Y-104227169D01*
X166018303Y-104274060D01*
X166047779Y-104325115D01*
X166166649Y-104443985D01*
X166166655Y-104443990D01*
X166689057Y-104966392D01*
X166722542Y-105027715D01*
X166717558Y-105097407D01*
X166689059Y-105141753D01*
X166629952Y-105200861D01*
X166499433Y-105387264D01*
X166466297Y-105458324D01*
X166420124Y-105510763D01*
X166352930Y-105529914D01*
X166286049Y-105509698D01*
X166266234Y-105493599D01*
X161651419Y-100878784D01*
X161617934Y-100817461D01*
X161615100Y-100791103D01*
X161615100Y-74895512D01*
X161634785Y-74828473D01*
X161642155Y-74818197D01*
X161644410Y-74815367D01*
X161644416Y-74815362D01*
X161740389Y-74662622D01*
X161799968Y-74492355D01*
X161800307Y-74489345D01*
X161820165Y-74313103D01*
X161820165Y-74313096D01*
X161799969Y-74133850D01*
X161799968Y-74133845D01*
X161760148Y-74020047D01*
X161740389Y-73963578D01*
X161644416Y-73810838D01*
X161516862Y-73683284D01*
X161500069Y-73672732D01*
X161364123Y-73587311D01*
X161193854Y-73527731D01*
X161193849Y-73527730D01*
X161014604Y-73507535D01*
X161014596Y-73507535D01*
X160835350Y-73527730D01*
X160835345Y-73527731D01*
X160665076Y-73587311D01*
X160512337Y-73683284D01*
X160384784Y-73810837D01*
X160288811Y-73963576D01*
X160229231Y-74133845D01*
X160229230Y-74133850D01*
X160209035Y-74313096D01*
X160209035Y-74313103D01*
X160229230Y-74492349D01*
X160229231Y-74492354D01*
X160288811Y-74662623D01*
X160384785Y-74815363D01*
X160387045Y-74818197D01*
X160387934Y-74820375D01*
X160388489Y-74821258D01*
X160388334Y-74821355D01*
X160413455Y-74882883D01*
X160414100Y-74895512D01*
X160414100Y-101004530D01*
X160414099Y-101004548D01*
X160414099Y-101170254D01*
X160414098Y-101170254D01*
X160455024Y-101322989D01*
X160455025Y-101322990D01*
X160460806Y-101333002D01*
X160481788Y-101369343D01*
X160503234Y-101406488D01*
X160534079Y-101459914D01*
X160534081Y-101459917D01*
X160652949Y-101578785D01*
X160652955Y-101578790D01*
X166634807Y-107560642D01*
X166668292Y-107621965D01*
X166663308Y-107691657D01*
X166634817Y-107735994D01*
X166629956Y-107740855D01*
X166499432Y-107927265D01*
X166499431Y-107927267D01*
X166403261Y-108133502D01*
X166403258Y-108133511D01*
X166344366Y-108353302D01*
X166344364Y-108353313D01*
X166324532Y-108579998D01*
X166324532Y-108580001D01*
X166344364Y-108806686D01*
X166344366Y-108806697D01*
X166403258Y-109026488D01*
X166403261Y-109026497D01*
X166499431Y-109232732D01*
X166499432Y-109232734D01*
X166629954Y-109419141D01*
X166790858Y-109580045D01*
X166790861Y-109580047D01*
X166977266Y-109710568D01*
X166983861Y-109713643D01*
X167036302Y-109759811D01*
X167055458Y-109827004D01*
X167051237Y-109858117D01*
X167043909Y-109885468D01*
X167036444Y-109913328D01*
X167000078Y-109972988D01*
X166978679Y-109988615D01*
X166977271Y-109989427D01*
X166790858Y-110119954D01*
X166629954Y-110280858D01*
X166499432Y-110467265D01*
X166499431Y-110467267D01*
X166403261Y-110673502D01*
X166403258Y-110673511D01*
X166344366Y-110893302D01*
X166344364Y-110893313D01*
X166324532Y-111119998D01*
X166324532Y-111120001D01*
X166344364Y-111346686D01*
X166344366Y-111346697D01*
X166403258Y-111566488D01*
X166403261Y-111566497D01*
X166499431Y-111772732D01*
X166499432Y-111772734D01*
X166629954Y-111959141D01*
X166790858Y-112120045D01*
X166790861Y-112120047D01*
X166977266Y-112250568D01*
X167035275Y-112277618D01*
X167087714Y-112323791D01*
X167106866Y-112390984D01*
X167086650Y-112457865D01*
X167035275Y-112502382D01*
X166977267Y-112529431D01*
X166977265Y-112529432D01*
X166790858Y-112659954D01*
X166629954Y-112820858D01*
X166499432Y-113007265D01*
X166499431Y-113007267D01*
X166403261Y-113213502D01*
X166403258Y-113213511D01*
X166344366Y-113433302D01*
X166344364Y-113433313D01*
X166324532Y-113659998D01*
X166324532Y-113660000D01*
X166344364Y-113886686D01*
X166344366Y-113886697D01*
X166403258Y-114106488D01*
X166403261Y-114106497D01*
X166499431Y-114312732D01*
X166499432Y-114312734D01*
X166629954Y-114499141D01*
X166790858Y-114660045D01*
X166790861Y-114660047D01*
X166977266Y-114790568D01*
X167035275Y-114817618D01*
X167087714Y-114863791D01*
X167106866Y-114930984D01*
X167086650Y-114997865D01*
X167035275Y-115042382D01*
X166977267Y-115069431D01*
X166977265Y-115069432D01*
X166790858Y-115199954D01*
X166629954Y-115360858D01*
X166499432Y-115547265D01*
X166499431Y-115547267D01*
X166403261Y-115753502D01*
X166403258Y-115753511D01*
X166344366Y-115973302D01*
X166344364Y-115973313D01*
X166324532Y-116199998D01*
X166324532Y-116200001D01*
X166344364Y-116426686D01*
X166344366Y-116426697D01*
X166403258Y-116646488D01*
X166403261Y-116646497D01*
X166499431Y-116852732D01*
X166499432Y-116852734D01*
X166629954Y-117039141D01*
X166790858Y-117200045D01*
X166790861Y-117200047D01*
X166977266Y-117330568D01*
X167035275Y-117357618D01*
X167087714Y-117403791D01*
X167106866Y-117470984D01*
X167086650Y-117537865D01*
X167035275Y-117582382D01*
X166977267Y-117609431D01*
X166977265Y-117609432D01*
X166790858Y-117739954D01*
X166629954Y-117900858D01*
X166499432Y-118087265D01*
X166499431Y-118087267D01*
X166403261Y-118293502D01*
X166403258Y-118293511D01*
X166344366Y-118513302D01*
X166344364Y-118513313D01*
X166324532Y-118739998D01*
X166324532Y-118740001D01*
X166344364Y-118966686D01*
X166344366Y-118966697D01*
X166403258Y-119186488D01*
X166403261Y-119186497D01*
X166499431Y-119392732D01*
X166499432Y-119392734D01*
X166629954Y-119579141D01*
X166790858Y-119740045D01*
X166790861Y-119740047D01*
X166977266Y-119870568D01*
X167019811Y-119890407D01*
X167035275Y-119897618D01*
X167087714Y-119943791D01*
X167106866Y-120010984D01*
X167086650Y-120077865D01*
X167035275Y-120122382D01*
X166977267Y-120149431D01*
X166977265Y-120149432D01*
X166790858Y-120279954D01*
X166629954Y-120440858D01*
X166499432Y-120627265D01*
X166499431Y-120627267D01*
X166403261Y-120833502D01*
X166403258Y-120833511D01*
X166344366Y-121053302D01*
X166344364Y-121053313D01*
X166324532Y-121279998D01*
X166324532Y-121280001D01*
X166344364Y-121506686D01*
X166344366Y-121506697D01*
X166403258Y-121726488D01*
X166403261Y-121726497D01*
X166499431Y-121932732D01*
X166499432Y-121932734D01*
X166629954Y-122119141D01*
X166790858Y-122280045D01*
X166790861Y-122280047D01*
X166977266Y-122410568D01*
X167183504Y-122506739D01*
X167403308Y-122565635D01*
X167565230Y-122579801D01*
X167629998Y-122585468D01*
X167630000Y-122585468D01*
X167630002Y-122585468D01*
X167686673Y-122580509D01*
X167856692Y-122565635D01*
X168076496Y-122506739D01*
X168282734Y-122410568D01*
X168469139Y-122280047D01*
X168630047Y-122119139D01*
X168760568Y-121932734D01*
X168856739Y-121726496D01*
X168915635Y-121506692D01*
X168935468Y-121280000D01*
X168915635Y-121053308D01*
X168856739Y-120833504D01*
X168760568Y-120627266D01*
X168630047Y-120440861D01*
X168630045Y-120440858D01*
X168469141Y-120279954D01*
X168282734Y-120149432D01*
X168282728Y-120149429D01*
X168224725Y-120122382D01*
X168172285Y-120076210D01*
X168153133Y-120009017D01*
X168173348Y-119942135D01*
X168224725Y-119897618D01*
X168240189Y-119890407D01*
X168282734Y-119870568D01*
X168469139Y-119740047D01*
X168630047Y-119579139D01*
X168760568Y-119392734D01*
X168856739Y-119186496D01*
X168915635Y-118966692D01*
X168935468Y-118740000D01*
X168915635Y-118513308D01*
X168856739Y-118293504D01*
X168760568Y-118087266D01*
X168630047Y-117900861D01*
X168630045Y-117900858D01*
X168469141Y-117739954D01*
X168282734Y-117609432D01*
X168282728Y-117609429D01*
X168224725Y-117582382D01*
X168172285Y-117536210D01*
X168153133Y-117469017D01*
X168173348Y-117402135D01*
X168224725Y-117357618D01*
X168282734Y-117330568D01*
X168469139Y-117200047D01*
X168630047Y-117039139D01*
X168760568Y-116852734D01*
X168856739Y-116646496D01*
X168915635Y-116426692D01*
X168935468Y-116200000D01*
X168915635Y-115973308D01*
X168856739Y-115753504D01*
X168760568Y-115547266D01*
X168630047Y-115360861D01*
X168630045Y-115360858D01*
X168469141Y-115199954D01*
X168282734Y-115069432D01*
X168282728Y-115069429D01*
X168224725Y-115042382D01*
X168172285Y-114996210D01*
X168153133Y-114929017D01*
X168173348Y-114862135D01*
X168224725Y-114817618D01*
X168282734Y-114790568D01*
X168469139Y-114660047D01*
X168630047Y-114499139D01*
X168760568Y-114312734D01*
X168856739Y-114106496D01*
X168915635Y-113886692D01*
X168935468Y-113660000D01*
X168915635Y-113433308D01*
X168856739Y-113213504D01*
X168760568Y-113007266D01*
X168630047Y-112820861D01*
X168630045Y-112820858D01*
X168469141Y-112659954D01*
X168282734Y-112529432D01*
X168282728Y-112529429D01*
X168224725Y-112502382D01*
X168172285Y-112456210D01*
X168153133Y-112389017D01*
X168173348Y-112322135D01*
X168224725Y-112277618D01*
X168282734Y-112250568D01*
X168469139Y-112120047D01*
X168630047Y-111959139D01*
X168760568Y-111772734D01*
X168856739Y-111566496D01*
X168915635Y-111346692D01*
X168935468Y-111120000D01*
X168915635Y-110893308D01*
X168856739Y-110673504D01*
X168760568Y-110467266D01*
X168630047Y-110280861D01*
X168630045Y-110280858D01*
X168625191Y-110276004D01*
X168591706Y-110214681D01*
X168596690Y-110144989D01*
X168625189Y-110100645D01*
X170646020Y-108079816D01*
X170718113Y-107954945D01*
X170768679Y-107906731D01*
X170837286Y-107893507D01*
X170902151Y-107919475D01*
X170942680Y-107976389D01*
X170949500Y-108016946D01*
X170949500Y-135540500D01*
X170929815Y-135607539D01*
X170877011Y-135653294D01*
X170825500Y-135664500D01*
X111674500Y-135664500D01*
X111607461Y-135644815D01*
X111561706Y-135592011D01*
X111550500Y-135540500D01*
X111550500Y-67999999D01*
X117694432Y-67999999D01*
X117694432Y-68000000D01*
X117714266Y-68226705D01*
X117714268Y-68226715D01*
X117773164Y-68446523D01*
X117773166Y-68446527D01*
X117773167Y-68446531D01*
X117821256Y-68549657D01*
X117869344Y-68652783D01*
X117869345Y-68652785D01*
X117999873Y-68839198D01*
X117999878Y-68839204D01*
X118160795Y-69000121D01*
X118160801Y-69000126D01*
X118347214Y-69130654D01*
X118347216Y-69130655D01*
X118405037Y-69157618D01*
X118457476Y-69203791D01*
X118476628Y-69270984D01*
X118456412Y-69337866D01*
X118405037Y-69382382D01*
X118347216Y-69409344D01*
X118347214Y-69409345D01*
X118160801Y-69539873D01*
X118160795Y-69539878D01*
X117999878Y-69700795D01*
X117999873Y-69700801D01*
X117869345Y-69887214D01*
X117869344Y-69887216D01*
X117773168Y-70093467D01*
X117773164Y-70093476D01*
X117714268Y-70313284D01*
X117714266Y-70313294D01*
X117694432Y-70539999D01*
X117694432Y-70540000D01*
X117714266Y-70766705D01*
X117714268Y-70766715D01*
X117773164Y-70986523D01*
X117773166Y-70986527D01*
X117773167Y-70986531D01*
X117804462Y-71053643D01*
X117869344Y-71192783D01*
X117869345Y-71192785D01*
X117999873Y-71379198D01*
X117999878Y-71379204D01*
X118160795Y-71540121D01*
X118160801Y-71540126D01*
X118347214Y-71670654D01*
X118347216Y-71670655D01*
X118405037Y-71697618D01*
X118457476Y-71743791D01*
X118476628Y-71810984D01*
X118456412Y-71877866D01*
X118405037Y-71922382D01*
X118347216Y-71949344D01*
X118347214Y-71949345D01*
X118160801Y-72079873D01*
X118160795Y-72079878D01*
X117999878Y-72240795D01*
X117999873Y-72240801D01*
X117869345Y-72427214D01*
X117869344Y-72427216D01*
X117773168Y-72633467D01*
X117773164Y-72633476D01*
X117714268Y-72853284D01*
X117714266Y-72853294D01*
X117694432Y-73079999D01*
X117694432Y-73080000D01*
X117714266Y-73306705D01*
X117714268Y-73306715D01*
X117773164Y-73526523D01*
X117773166Y-73526527D01*
X117773167Y-73526531D01*
X117803937Y-73592517D01*
X117869344Y-73732783D01*
X117869345Y-73732785D01*
X117999873Y-73919198D01*
X117999878Y-73919204D01*
X118160795Y-74080121D01*
X118160801Y-74080126D01*
X118347214Y-74210654D01*
X118347216Y-74210655D01*
X118405037Y-74237618D01*
X118457476Y-74283791D01*
X118476628Y-74350984D01*
X118456412Y-74417866D01*
X118405037Y-74462382D01*
X118347216Y-74489344D01*
X118347214Y-74489345D01*
X118160801Y-74619873D01*
X118160795Y-74619878D01*
X117999878Y-74780795D01*
X117999873Y-74780801D01*
X117869345Y-74967214D01*
X117869344Y-74967216D01*
X117773168Y-75173467D01*
X117773164Y-75173476D01*
X117714268Y-75393284D01*
X117714266Y-75393294D01*
X117694432Y-75619999D01*
X117694432Y-75620000D01*
X117714266Y-75846705D01*
X117714268Y-75846715D01*
X117773164Y-76066523D01*
X117773166Y-76066527D01*
X117773167Y-76066531D01*
X117813245Y-76152478D01*
X117869344Y-76272783D01*
X117869345Y-76272785D01*
X117999873Y-76459198D01*
X117999878Y-76459204D01*
X118160795Y-76620121D01*
X118160801Y-76620126D01*
X118347214Y-76750654D01*
X118347216Y-76750655D01*
X118405037Y-76777618D01*
X118457476Y-76823791D01*
X118476628Y-76890984D01*
X118456412Y-76957866D01*
X118405037Y-77002382D01*
X118347216Y-77029344D01*
X118347214Y-77029345D01*
X118160801Y-77159873D01*
X118160795Y-77159878D01*
X117999878Y-77320795D01*
X117999873Y-77320801D01*
X117869345Y-77507214D01*
X117869344Y-77507216D01*
X117773168Y-77713467D01*
X117773164Y-77713476D01*
X117714268Y-77933284D01*
X117714266Y-77933294D01*
X117694432Y-78159999D01*
X117694432Y-78160000D01*
X117714266Y-78386705D01*
X117714268Y-78386715D01*
X117773164Y-78606523D01*
X117773166Y-78606527D01*
X117773167Y-78606531D01*
X117821256Y-78709657D01*
X117869344Y-78812783D01*
X117869345Y-78812785D01*
X117999873Y-78999198D01*
X117999878Y-78999204D01*
X118160795Y-79160121D01*
X118160801Y-79160126D01*
X118347214Y-79290654D01*
X118347216Y-79290655D01*
X118405037Y-79317618D01*
X118457476Y-79363791D01*
X118476628Y-79430984D01*
X118456412Y-79497866D01*
X118405037Y-79542382D01*
X118347216Y-79569344D01*
X118347214Y-79569345D01*
X118160801Y-79699873D01*
X118160795Y-79699878D01*
X117999878Y-79860795D01*
X117999873Y-79860801D01*
X117869345Y-80047214D01*
X117869344Y-80047216D01*
X117773168Y-80253467D01*
X117773164Y-80253476D01*
X117714268Y-80473284D01*
X117714266Y-80473294D01*
X117694432Y-80699999D01*
X117694432Y-80700000D01*
X117714266Y-80926705D01*
X117714268Y-80926715D01*
X117773164Y-81146523D01*
X117773166Y-81146527D01*
X117773167Y-81146531D01*
X117808208Y-81221676D01*
X117869344Y-81352783D01*
X117869345Y-81352785D01*
X117999873Y-81539198D01*
X117999878Y-81539204D01*
X118160795Y-81700121D01*
X118160801Y-81700126D01*
X118347214Y-81830654D01*
X118347216Y-81830655D01*
X118405037Y-81857618D01*
X118457476Y-81903791D01*
X118476628Y-81970984D01*
X118456412Y-82037866D01*
X118405037Y-82082382D01*
X118347216Y-82109344D01*
X118347214Y-82109345D01*
X118160801Y-82239873D01*
X118160795Y-82239878D01*
X117999878Y-82400795D01*
X117999873Y-82400801D01*
X117869345Y-82587214D01*
X117869344Y-82587216D01*
X117773168Y-82793467D01*
X117773164Y-82793476D01*
X117714268Y-83013284D01*
X117714266Y-83013294D01*
X117694432Y-83239999D01*
X117694432Y-83240000D01*
X117714266Y-83466705D01*
X117714268Y-83466715D01*
X117773164Y-83686523D01*
X117773166Y-83686527D01*
X117773167Y-83686531D01*
X117821256Y-83789657D01*
X117869344Y-83892783D01*
X117869345Y-83892785D01*
X117999873Y-84079198D01*
X117999878Y-84079204D01*
X118160795Y-84240121D01*
X118160801Y-84240126D01*
X118347214Y-84370654D01*
X118347216Y-84370655D01*
X118405037Y-84397618D01*
X118457476Y-84443791D01*
X118476628Y-84510984D01*
X118456412Y-84577866D01*
X118405037Y-84622382D01*
X118347216Y-84649344D01*
X118347214Y-84649345D01*
X118160801Y-84779873D01*
X118160795Y-84779878D01*
X117999878Y-84940795D01*
X117999873Y-84940801D01*
X117869345Y-85127214D01*
X117869344Y-85127216D01*
X117773168Y-85333467D01*
X117773164Y-85333476D01*
X117714268Y-85553284D01*
X117714266Y-85553294D01*
X117694432Y-85779999D01*
X117694432Y-85780000D01*
X117714266Y-86006705D01*
X117714268Y-86006715D01*
X117773164Y-86226523D01*
X117773166Y-86226527D01*
X117773167Y-86226531D01*
X117821256Y-86329657D01*
X117869344Y-86432783D01*
X117869345Y-86432785D01*
X117999873Y-86619198D01*
X117999878Y-86619204D01*
X118160795Y-86780121D01*
X118160801Y-86780126D01*
X118347214Y-86910654D01*
X118347216Y-86910655D01*
X118405037Y-86937618D01*
X118457476Y-86983791D01*
X118476628Y-87050984D01*
X118456412Y-87117866D01*
X118405037Y-87162382D01*
X118347216Y-87189344D01*
X118347214Y-87189345D01*
X118160801Y-87319873D01*
X118160795Y-87319878D01*
X117999878Y-87480795D01*
X117999873Y-87480801D01*
X117869345Y-87667214D01*
X117869344Y-87667216D01*
X117773168Y-87873467D01*
X117773164Y-87873476D01*
X117714268Y-88093284D01*
X117714266Y-88093294D01*
X117694432Y-88319999D01*
X117694432Y-88320000D01*
X117714266Y-88546705D01*
X117714268Y-88546715D01*
X117773164Y-88766523D01*
X117773166Y-88766527D01*
X117773167Y-88766531D01*
X117815130Y-88856520D01*
X117869344Y-88972783D01*
X117869345Y-88972785D01*
X117999873Y-89159198D01*
X117999878Y-89159204D01*
X118160795Y-89320121D01*
X118160801Y-89320126D01*
X118347214Y-89450654D01*
X118347216Y-89450655D01*
X118405630Y-89477894D01*
X118458069Y-89524066D01*
X118477221Y-89591260D01*
X118457005Y-89658141D01*
X118405630Y-89702658D01*
X118347464Y-89729781D01*
X118274454Y-89780901D01*
X118832950Y-90339396D01*
X118789213Y-90351116D01*
X118664687Y-90423011D01*
X118563011Y-90524687D01*
X118491116Y-90649213D01*
X118479396Y-90692949D01*
X117920901Y-90134454D01*
X117869781Y-90207464D01*
X117773640Y-90413639D01*
X117773636Y-90413648D01*
X117714762Y-90633372D01*
X117714760Y-90633382D01*
X117694934Y-90859999D01*
X117694934Y-90860000D01*
X117714760Y-91086617D01*
X117714762Y-91086627D01*
X117773636Y-91306351D01*
X117773640Y-91306360D01*
X117869782Y-91512536D01*
X117920901Y-91585543D01*
X117920902Y-91585544D01*
X118479396Y-91027050D01*
X118491116Y-91070787D01*
X118563011Y-91195313D01*
X118664687Y-91296989D01*
X118789213Y-91368884D01*
X118832949Y-91380603D01*
X118274454Y-91939096D01*
X118347466Y-91990219D01*
X118347468Y-91990220D01*
X118406222Y-92017618D01*
X118458661Y-92063791D01*
X118477813Y-92130984D01*
X118457597Y-92197865D01*
X118406222Y-92242382D01*
X118347464Y-92269781D01*
X118274454Y-92320901D01*
X118832950Y-92879396D01*
X118789213Y-92891116D01*
X118664687Y-92963011D01*
X118563011Y-93064687D01*
X118491116Y-93189213D01*
X118479396Y-93232949D01*
X117920901Y-92674454D01*
X117869781Y-92747464D01*
X117773640Y-92953639D01*
X117773636Y-92953648D01*
X117714762Y-93173372D01*
X117714760Y-93173382D01*
X117694934Y-93399999D01*
X117694934Y-93400000D01*
X117714760Y-93626617D01*
X117714762Y-93626627D01*
X117773636Y-93846351D01*
X117773640Y-93846360D01*
X117869782Y-94052536D01*
X117920901Y-94125543D01*
X117920902Y-94125544D01*
X118479396Y-93567050D01*
X118491116Y-93610787D01*
X118563011Y-93735313D01*
X118664687Y-93836989D01*
X118789213Y-93908884D01*
X118832949Y-93920603D01*
X118274454Y-94479096D01*
X118347464Y-94530218D01*
X118405629Y-94557340D01*
X118458069Y-94603512D01*
X118477221Y-94670706D01*
X118457006Y-94737587D01*
X118405631Y-94782105D01*
X118347213Y-94809346D01*
X118160801Y-94939873D01*
X118160795Y-94939878D01*
X117999878Y-95100795D01*
X117999873Y-95100801D01*
X117869345Y-95287214D01*
X117869344Y-95287216D01*
X117773168Y-95493467D01*
X117773164Y-95493476D01*
X117714268Y-95713284D01*
X117714266Y-95713294D01*
X117694432Y-95939999D01*
X117694432Y-95940000D01*
X117714266Y-96166705D01*
X117714268Y-96166715D01*
X117773164Y-96386523D01*
X117773166Y-96386527D01*
X117773167Y-96386531D01*
X117821256Y-96489657D01*
X117869344Y-96592783D01*
X117869345Y-96592785D01*
X117999873Y-96779198D01*
X117999878Y-96779204D01*
X118160795Y-96940121D01*
X118160801Y-96940126D01*
X118347214Y-97070654D01*
X118347216Y-97070655D01*
X118405037Y-97097618D01*
X118457476Y-97143791D01*
X118476628Y-97210984D01*
X118456412Y-97277866D01*
X118405037Y-97322382D01*
X118347216Y-97349344D01*
X118347214Y-97349345D01*
X118160801Y-97479873D01*
X118160795Y-97479878D01*
X117999878Y-97640795D01*
X117999873Y-97640801D01*
X117869345Y-97827214D01*
X117869344Y-97827216D01*
X117773168Y-98033467D01*
X117773164Y-98033476D01*
X117714268Y-98253284D01*
X117714266Y-98253294D01*
X117694432Y-98479999D01*
X117694432Y-98480000D01*
X117714266Y-98706705D01*
X117714268Y-98706715D01*
X117773164Y-98926523D01*
X117773166Y-98926527D01*
X117773167Y-98926531D01*
X117816368Y-99019176D01*
X117869344Y-99132783D01*
X117869345Y-99132785D01*
X117999873Y-99319198D01*
X117999878Y-99319204D01*
X118160795Y-99480121D01*
X118160801Y-99480126D01*
X118347214Y-99610654D01*
X118347216Y-99610655D01*
X118405037Y-99637618D01*
X118457476Y-99683791D01*
X118476628Y-99750984D01*
X118456412Y-99817866D01*
X118405037Y-99862382D01*
X118347216Y-99889344D01*
X118347214Y-99889345D01*
X118160801Y-100019873D01*
X118160795Y-100019878D01*
X117999878Y-100180795D01*
X117999873Y-100180801D01*
X117869345Y-100367214D01*
X117869344Y-100367216D01*
X117773168Y-100573467D01*
X117773164Y-100573476D01*
X117714268Y-100793284D01*
X117714266Y-100793294D01*
X117694432Y-101019999D01*
X117694432Y-101020000D01*
X117714266Y-101246705D01*
X117714268Y-101246715D01*
X117773164Y-101466523D01*
X117773166Y-101466527D01*
X117773167Y-101466531D01*
X117810170Y-101545884D01*
X117869344Y-101672783D01*
X117869345Y-101672785D01*
X117999873Y-101859198D01*
X117999878Y-101859204D01*
X118160795Y-102020121D01*
X118160801Y-102020126D01*
X118347214Y-102150654D01*
X118347216Y-102150655D01*
X118405037Y-102177618D01*
X118457476Y-102223791D01*
X118476628Y-102290984D01*
X118456412Y-102357866D01*
X118405037Y-102402382D01*
X118347216Y-102429344D01*
X118347214Y-102429345D01*
X118160801Y-102559873D01*
X118160795Y-102559878D01*
X117999878Y-102720795D01*
X117999873Y-102720801D01*
X117869345Y-102907214D01*
X117869344Y-102907216D01*
X117773168Y-103113467D01*
X117773164Y-103113476D01*
X117714268Y-103333284D01*
X117714266Y-103333294D01*
X117694432Y-103559999D01*
X117694432Y-103560000D01*
X117714266Y-103786705D01*
X117714268Y-103786715D01*
X117773164Y-104006523D01*
X117773166Y-104006527D01*
X117773167Y-104006531D01*
X117786654Y-104035454D01*
X117869344Y-104212783D01*
X117869345Y-104212785D01*
X117999873Y-104399198D01*
X117999878Y-104399204D01*
X118160795Y-104560121D01*
X118160801Y-104560126D01*
X118347214Y-104690654D01*
X118347216Y-104690655D01*
X118405037Y-104717618D01*
X118457476Y-104763791D01*
X118476628Y-104830984D01*
X118456412Y-104897866D01*
X118405037Y-104942382D01*
X118347216Y-104969344D01*
X118347214Y-104969345D01*
X118160801Y-105099873D01*
X118160795Y-105099878D01*
X117999878Y-105260795D01*
X117999873Y-105260801D01*
X117869345Y-105447214D01*
X117869344Y-105447216D01*
X117773168Y-105653467D01*
X117773164Y-105653476D01*
X117714268Y-105873284D01*
X117714266Y-105873294D01*
X117694432Y-106099999D01*
X117694432Y-106100000D01*
X117714266Y-106326705D01*
X117714268Y-106326715D01*
X117773164Y-106546523D01*
X117773166Y-106546527D01*
X117773167Y-106546531D01*
X117788371Y-106579136D01*
X117869344Y-106752783D01*
X117869345Y-106752785D01*
X117999873Y-106939198D01*
X117999878Y-106939204D01*
X118160795Y-107100121D01*
X118160801Y-107100126D01*
X118347214Y-107230654D01*
X118347216Y-107230655D01*
X118405037Y-107257618D01*
X118457476Y-107303791D01*
X118476628Y-107370984D01*
X118456412Y-107437866D01*
X118405037Y-107482382D01*
X118347216Y-107509344D01*
X118347214Y-107509345D01*
X118160801Y-107639873D01*
X118160795Y-107639878D01*
X117999878Y-107800795D01*
X117999873Y-107800801D01*
X117869345Y-107987214D01*
X117869344Y-107987216D01*
X117773168Y-108193467D01*
X117773164Y-108193476D01*
X117714268Y-108413284D01*
X117714266Y-108413294D01*
X117694432Y-108639999D01*
X117694432Y-108640000D01*
X117714266Y-108866705D01*
X117714268Y-108866715D01*
X117773164Y-109086523D01*
X117773166Y-109086527D01*
X117773167Y-109086531D01*
X117788371Y-109119136D01*
X117869344Y-109292783D01*
X117869345Y-109292785D01*
X117999873Y-109479198D01*
X117999878Y-109479204D01*
X118160795Y-109640121D01*
X118160801Y-109640126D01*
X118347214Y-109770654D01*
X118347216Y-109770655D01*
X118405037Y-109797618D01*
X118457476Y-109843791D01*
X118476628Y-109910984D01*
X118456412Y-109977866D01*
X118405037Y-110022382D01*
X118347216Y-110049344D01*
X118347214Y-110049345D01*
X118160801Y-110179873D01*
X118160795Y-110179878D01*
X117999878Y-110340795D01*
X117999873Y-110340801D01*
X117869345Y-110527214D01*
X117869344Y-110527216D01*
X117773168Y-110733467D01*
X117773164Y-110733476D01*
X117714268Y-110953284D01*
X117714266Y-110953294D01*
X117694432Y-111179999D01*
X117694432Y-111180000D01*
X117714266Y-111406705D01*
X117714268Y-111406715D01*
X117773164Y-111626523D01*
X117773166Y-111626527D01*
X117773167Y-111626531D01*
X117821256Y-111729657D01*
X117869344Y-111832783D01*
X117869345Y-111832785D01*
X117999873Y-112019198D01*
X117999878Y-112019204D01*
X118160795Y-112180121D01*
X118160801Y-112180126D01*
X118347214Y-112310654D01*
X118347216Y-112310655D01*
X118405037Y-112337618D01*
X118457476Y-112383791D01*
X118476628Y-112450984D01*
X118456412Y-112517866D01*
X118405037Y-112562382D01*
X118347216Y-112589344D01*
X118347214Y-112589345D01*
X118160801Y-112719873D01*
X118160795Y-112719878D01*
X117999878Y-112880795D01*
X117999873Y-112880801D01*
X117869345Y-113067214D01*
X117869344Y-113067216D01*
X117773168Y-113273467D01*
X117773164Y-113273476D01*
X117714268Y-113493284D01*
X117714266Y-113493294D01*
X117694432Y-113719999D01*
X117694432Y-113720000D01*
X117714266Y-113946705D01*
X117714268Y-113946715D01*
X117773164Y-114166523D01*
X117773166Y-114166527D01*
X117773167Y-114166531D01*
X117821256Y-114269657D01*
X117869344Y-114372783D01*
X117869345Y-114372785D01*
X117999873Y-114559198D01*
X117999878Y-114559204D01*
X118160795Y-114720121D01*
X118160801Y-114720126D01*
X118347214Y-114850654D01*
X118347216Y-114850655D01*
X118405037Y-114877618D01*
X118457476Y-114923791D01*
X118476628Y-114990984D01*
X118456412Y-115057866D01*
X118405037Y-115102382D01*
X118347216Y-115129344D01*
X118347214Y-115129345D01*
X118160801Y-115259873D01*
X118160795Y-115259878D01*
X117999878Y-115420795D01*
X117999873Y-115420801D01*
X117869345Y-115607214D01*
X117869344Y-115607216D01*
X117773168Y-115813467D01*
X117773164Y-115813476D01*
X117714268Y-116033284D01*
X117714266Y-116033294D01*
X117694432Y-116259999D01*
X117694432Y-116260000D01*
X117714266Y-116486705D01*
X117714268Y-116486715D01*
X117773164Y-116706523D01*
X117773166Y-116706527D01*
X117773167Y-116706531D01*
X117784091Y-116729957D01*
X117869344Y-116912783D01*
X117869345Y-116912785D01*
X117999873Y-117099198D01*
X117999878Y-117099204D01*
X118160795Y-117260121D01*
X118160801Y-117260126D01*
X118347214Y-117390654D01*
X118347216Y-117390655D01*
X118405037Y-117417618D01*
X118457476Y-117463791D01*
X118476628Y-117530984D01*
X118456412Y-117597866D01*
X118405037Y-117642382D01*
X118347216Y-117669344D01*
X118347214Y-117669345D01*
X118160801Y-117799873D01*
X118160795Y-117799878D01*
X117999878Y-117960795D01*
X117999873Y-117960801D01*
X117869345Y-118147214D01*
X117869344Y-118147216D01*
X117773168Y-118353467D01*
X117773164Y-118353476D01*
X117714268Y-118573284D01*
X117714266Y-118573294D01*
X117694432Y-118799999D01*
X117694432Y-118800000D01*
X117714266Y-119026705D01*
X117714268Y-119026715D01*
X117773164Y-119246523D01*
X117773166Y-119246527D01*
X117773167Y-119246531D01*
X117821256Y-119349657D01*
X117869344Y-119452783D01*
X117869345Y-119452785D01*
X117999873Y-119639198D01*
X117999878Y-119639204D01*
X118160795Y-119800121D01*
X118160801Y-119800126D01*
X118347214Y-119930654D01*
X118347216Y-119930655D01*
X118405037Y-119957618D01*
X118457476Y-120003791D01*
X118476628Y-120070984D01*
X118456412Y-120137866D01*
X118405037Y-120182382D01*
X118347216Y-120209344D01*
X118347214Y-120209345D01*
X118160801Y-120339873D01*
X118160795Y-120339878D01*
X117999878Y-120500795D01*
X117999873Y-120500801D01*
X117869345Y-120687214D01*
X117869344Y-120687216D01*
X117773168Y-120893467D01*
X117773164Y-120893476D01*
X117714268Y-121113284D01*
X117714266Y-121113294D01*
X117694432Y-121339999D01*
X117694432Y-121340000D01*
X117714266Y-121566705D01*
X117714268Y-121566715D01*
X117773164Y-121786523D01*
X117773166Y-121786527D01*
X117773167Y-121786531D01*
X117821256Y-121889657D01*
X117869344Y-121992783D01*
X117869345Y-121992785D01*
X117999873Y-122179198D01*
X117999878Y-122179204D01*
X118160795Y-122340121D01*
X118160801Y-122340126D01*
X118347214Y-122470654D01*
X118347216Y-122470655D01*
X118405037Y-122497618D01*
X118457476Y-122543791D01*
X118476628Y-122610984D01*
X118456412Y-122677866D01*
X118405037Y-122722382D01*
X118347216Y-122749344D01*
X118347214Y-122749345D01*
X118160801Y-122879873D01*
X118160795Y-122879878D01*
X117999878Y-123040795D01*
X117999873Y-123040801D01*
X117869345Y-123227214D01*
X117869344Y-123227216D01*
X117773168Y-123433467D01*
X117773164Y-123433476D01*
X117714268Y-123653284D01*
X117714266Y-123653294D01*
X117694432Y-123879999D01*
X117694432Y-123880000D01*
X117714266Y-124106705D01*
X117714268Y-124106715D01*
X117773164Y-124326523D01*
X117773166Y-124326527D01*
X117773167Y-124326531D01*
X117821256Y-124429657D01*
X117869344Y-124532783D01*
X117869345Y-124532785D01*
X117999873Y-124719198D01*
X117999878Y-124719204D01*
X118160795Y-124880121D01*
X118160801Y-124880126D01*
X118347214Y-125010654D01*
X118347216Y-125010655D01*
X118405037Y-125037618D01*
X118457476Y-125083791D01*
X118476628Y-125150984D01*
X118456412Y-125217866D01*
X118405037Y-125262382D01*
X118347216Y-125289344D01*
X118347214Y-125289345D01*
X118160801Y-125419873D01*
X118160795Y-125419878D01*
X117999878Y-125580795D01*
X117999873Y-125580801D01*
X117869345Y-125767214D01*
X117869344Y-125767216D01*
X117773168Y-125973467D01*
X117773164Y-125973476D01*
X117714268Y-126193284D01*
X117714266Y-126193294D01*
X117694432Y-126419999D01*
X117694432Y-126420000D01*
X117714266Y-126646705D01*
X117714268Y-126646715D01*
X117773164Y-126866523D01*
X117773166Y-126866527D01*
X117773167Y-126866531D01*
X117821256Y-126969657D01*
X117869344Y-127072783D01*
X117869345Y-127072785D01*
X117999873Y-127259198D01*
X117999878Y-127259204D01*
X118160795Y-127420121D01*
X118160801Y-127420126D01*
X118347214Y-127550654D01*
X118347216Y-127550655D01*
X118405037Y-127577618D01*
X118457476Y-127623791D01*
X118476628Y-127690984D01*
X118456412Y-127757866D01*
X118405037Y-127802382D01*
X118347216Y-127829344D01*
X118347214Y-127829345D01*
X118160801Y-127959873D01*
X118160795Y-127959878D01*
X117999878Y-128120795D01*
X117999873Y-128120801D01*
X117869345Y-128307214D01*
X117869344Y-128307216D01*
X117773168Y-128513467D01*
X117773164Y-128513476D01*
X117714268Y-128733284D01*
X117714266Y-128733294D01*
X117694432Y-128959999D01*
X117694432Y-128960000D01*
X117714266Y-129186705D01*
X117714268Y-129186715D01*
X117773164Y-129406523D01*
X117773166Y-129406527D01*
X117773167Y-129406531D01*
X117821256Y-129509657D01*
X117869344Y-129612783D01*
X117869345Y-129612785D01*
X117999873Y-129799198D01*
X117999878Y-129799204D01*
X118160795Y-129960121D01*
X118160801Y-129960126D01*
X118347214Y-130090654D01*
X118347216Y-130090655D01*
X118553469Y-130186833D01*
X118773290Y-130245733D01*
X118954658Y-130261601D01*
X118999999Y-130265568D01*
X119000000Y-130265568D01*
X119000001Y-130265568D01*
X119037785Y-130262262D01*
X119226710Y-130245733D01*
X119446531Y-130186833D01*
X119652784Y-130090655D01*
X119839203Y-129960123D01*
X120000123Y-129799203D01*
X120130655Y-129612784D01*
X120226833Y-129406531D01*
X120285733Y-129186710D01*
X120305568Y-128960000D01*
X120285733Y-128733290D01*
X120226833Y-128513469D01*
X120130655Y-128307216D01*
X120000123Y-128120797D01*
X119839203Y-127959877D01*
X119839201Y-127959876D01*
X119839198Y-127959873D01*
X119652785Y-127829345D01*
X119652783Y-127829344D01*
X119594962Y-127802382D01*
X119542523Y-127756210D01*
X119523371Y-127689016D01*
X119543587Y-127622135D01*
X119594962Y-127577618D01*
X119652784Y-127550655D01*
X119839203Y-127420123D01*
X120000123Y-127259203D01*
X120130655Y-127072784D01*
X120226833Y-126866531D01*
X120285733Y-126646710D01*
X120305568Y-126420000D01*
X120285733Y-126193290D01*
X120226833Y-125973469D01*
X120130655Y-125767216D01*
X120000123Y-125580797D01*
X119839203Y-125419877D01*
X119839201Y-125419876D01*
X119839198Y-125419873D01*
X119652785Y-125289345D01*
X119652783Y-125289344D01*
X119594962Y-125262382D01*
X119542523Y-125216210D01*
X119523371Y-125149016D01*
X119543587Y-125082135D01*
X119594962Y-125037618D01*
X119652784Y-125010655D01*
X119839203Y-124880123D01*
X120000123Y-124719203D01*
X120130655Y-124532784D01*
X120226833Y-124326531D01*
X120285733Y-124106710D01*
X120305568Y-123880000D01*
X120285733Y-123653290D01*
X120226833Y-123433469D01*
X120130655Y-123227216D01*
X120000123Y-123040797D01*
X119839203Y-122879877D01*
X119839201Y-122879876D01*
X119839198Y-122879873D01*
X119652785Y-122749345D01*
X119652783Y-122749344D01*
X119594962Y-122722382D01*
X119542523Y-122676210D01*
X119523371Y-122609016D01*
X119543587Y-122542135D01*
X119594962Y-122497618D01*
X119631671Y-122480500D01*
X119652784Y-122470655D01*
X119839203Y-122340123D01*
X120000123Y-122179203D01*
X120130655Y-121992784D01*
X120226833Y-121786531D01*
X120285733Y-121566710D01*
X120305568Y-121340000D01*
X120285733Y-121113290D01*
X120226833Y-120893469D01*
X120130655Y-120687216D01*
X120101316Y-120645316D01*
X120000126Y-120500801D01*
X120000121Y-120500795D01*
X119839204Y-120339878D01*
X119839198Y-120339873D01*
X119652785Y-120209345D01*
X119652783Y-120209344D01*
X119594962Y-120182382D01*
X119542523Y-120136210D01*
X119523371Y-120069016D01*
X119543587Y-120002135D01*
X119594962Y-119957618D01*
X119624026Y-119944065D01*
X119652784Y-119930655D01*
X119839203Y-119800123D01*
X120000123Y-119639203D01*
X120130655Y-119452784D01*
X120226833Y-119246531D01*
X120285733Y-119026710D01*
X120305568Y-118800000D01*
X120285733Y-118573290D01*
X120226833Y-118353469D01*
X120130655Y-118147216D01*
X120096383Y-118098271D01*
X120000126Y-117960801D01*
X120000121Y-117960795D01*
X119839204Y-117799878D01*
X119839198Y-117799873D01*
X119652785Y-117669345D01*
X119652783Y-117669344D01*
X119594962Y-117642382D01*
X119542523Y-117596210D01*
X119523371Y-117529016D01*
X119543587Y-117462135D01*
X119594962Y-117417618D01*
X119618770Y-117406516D01*
X119652784Y-117390655D01*
X119839203Y-117260123D01*
X120000123Y-117099203D01*
X120130655Y-116912784D01*
X120226833Y-116706531D01*
X120285733Y-116486710D01*
X120305568Y-116260000D01*
X120285733Y-116033290D01*
X120226833Y-115813469D01*
X120130655Y-115607216D01*
X120116514Y-115587021D01*
X120000126Y-115420801D01*
X120000121Y-115420795D01*
X119839204Y-115259878D01*
X119839198Y-115259873D01*
X119652785Y-115129345D01*
X119652783Y-115129344D01*
X119594962Y-115102382D01*
X119542523Y-115056210D01*
X119523371Y-114989016D01*
X119543587Y-114922135D01*
X119594962Y-114877618D01*
X119652784Y-114850655D01*
X119839203Y-114720123D01*
X120000123Y-114559203D01*
X120130655Y-114372784D01*
X120226833Y-114166531D01*
X120285733Y-113946710D01*
X120305568Y-113720000D01*
X120285733Y-113493290D01*
X120226833Y-113273469D01*
X120130655Y-113067216D01*
X120101498Y-113025576D01*
X120000126Y-112880801D01*
X120000121Y-112880795D01*
X119839204Y-112719878D01*
X119839198Y-112719873D01*
X119652785Y-112589345D01*
X119652783Y-112589344D01*
X119594962Y-112562382D01*
X119542523Y-112516210D01*
X119523371Y-112449016D01*
X119543587Y-112382135D01*
X119594962Y-112337618D01*
X119652784Y-112310655D01*
X119839203Y-112180123D01*
X120000123Y-112019203D01*
X120130655Y-111832784D01*
X120226833Y-111626531D01*
X120285733Y-111406710D01*
X120305568Y-111180000D01*
X120285733Y-110953290D01*
X120226833Y-110733469D01*
X120130655Y-110527216D01*
X120088678Y-110467267D01*
X120000126Y-110340801D01*
X120000121Y-110340795D01*
X119839204Y-110179878D01*
X119839198Y-110179873D01*
X119652785Y-110049345D01*
X119652783Y-110049344D01*
X119594962Y-110022382D01*
X119542523Y-109976210D01*
X119523371Y-109909016D01*
X119543587Y-109842135D01*
X119594962Y-109797618D01*
X119618770Y-109786516D01*
X119652784Y-109770655D01*
X119839203Y-109640123D01*
X120000123Y-109479203D01*
X120130655Y-109292784D01*
X120226833Y-109086531D01*
X120285733Y-108866710D01*
X120305568Y-108640000D01*
X120285733Y-108413290D01*
X120259928Y-108316982D01*
X120261591Y-108247136D01*
X120292020Y-108197213D01*
X121950106Y-106539128D01*
X121950111Y-106539124D01*
X121960314Y-106528920D01*
X121960316Y-106528920D01*
X122072120Y-106417116D01*
X122138197Y-106302666D01*
X122151177Y-106280185D01*
X122192101Y-106127457D01*
X122192101Y-105969343D01*
X122192101Y-105961748D01*
X122192100Y-105961730D01*
X122192100Y-104495096D01*
X122211785Y-104428057D01*
X122228415Y-104407419D01*
X122500853Y-104134980D01*
X122562174Y-104101497D01*
X122631865Y-104106481D01*
X122687799Y-104148352D01*
X122700914Y-104170257D01*
X122720746Y-104212786D01*
X122851273Y-104399198D01*
X122851278Y-104399204D01*
X123012195Y-104560121D01*
X123012201Y-104560126D01*
X123198614Y-104690654D01*
X123198616Y-104690655D01*
X123256437Y-104717618D01*
X123308876Y-104763791D01*
X123328028Y-104830984D01*
X123307812Y-104897866D01*
X123256437Y-104942382D01*
X123198616Y-104969344D01*
X123198614Y-104969345D01*
X123012201Y-105099873D01*
X123012195Y-105099878D01*
X122851278Y-105260795D01*
X122851273Y-105260801D01*
X122720745Y-105447214D01*
X122720744Y-105447216D01*
X122624568Y-105653467D01*
X122624564Y-105653476D01*
X122565668Y-105873284D01*
X122565666Y-105873294D01*
X122545832Y-106099999D01*
X122545832Y-106100000D01*
X122565666Y-106326705D01*
X122565668Y-106326715D01*
X122624564Y-106546523D01*
X122624566Y-106546527D01*
X122624567Y-106546531D01*
X122639771Y-106579136D01*
X122720744Y-106752783D01*
X122720745Y-106752785D01*
X122851273Y-106939198D01*
X122851278Y-106939204D01*
X123012195Y-107100121D01*
X123012201Y-107100126D01*
X123198614Y-107230654D01*
X123198616Y-107230655D01*
X123256437Y-107257618D01*
X123308876Y-107303791D01*
X123328028Y-107370984D01*
X123307812Y-107437866D01*
X123256437Y-107482382D01*
X123198616Y-107509344D01*
X123198614Y-107509345D01*
X123012201Y-107639873D01*
X123012195Y-107639878D01*
X122851278Y-107800795D01*
X122851273Y-107800801D01*
X122720745Y-107987214D01*
X122720744Y-107987216D01*
X122624568Y-108193467D01*
X122624564Y-108193476D01*
X122565668Y-108413284D01*
X122565666Y-108413294D01*
X122545832Y-108639999D01*
X122545832Y-108640000D01*
X122565666Y-108866705D01*
X122565668Y-108866715D01*
X122624564Y-109086523D01*
X122624566Y-109086527D01*
X122624567Y-109086531D01*
X122639771Y-109119136D01*
X122720744Y-109292783D01*
X122720745Y-109292785D01*
X122851273Y-109479198D01*
X122851278Y-109479204D01*
X123012195Y-109640121D01*
X123012201Y-109640126D01*
X123198614Y-109770654D01*
X123198616Y-109770655D01*
X123256437Y-109797618D01*
X123308876Y-109843791D01*
X123328028Y-109910984D01*
X123307812Y-109977866D01*
X123256437Y-110022382D01*
X123198616Y-110049344D01*
X123198614Y-110049345D01*
X123012201Y-110179873D01*
X123012195Y-110179878D01*
X122851278Y-110340795D01*
X122851273Y-110340801D01*
X122720745Y-110527214D01*
X122720744Y-110527216D01*
X122624568Y-110733467D01*
X122624564Y-110733476D01*
X122565668Y-110953284D01*
X122565666Y-110953294D01*
X122545832Y-111179999D01*
X122545832Y-111180000D01*
X122565666Y-111406705D01*
X122565668Y-111406715D01*
X122624564Y-111626523D01*
X122624566Y-111626527D01*
X122624567Y-111626531D01*
X122672656Y-111729657D01*
X122720744Y-111832783D01*
X122720745Y-111832785D01*
X122851273Y-112019198D01*
X122851278Y-112019204D01*
X123012195Y-112180121D01*
X123012201Y-112180126D01*
X123198614Y-112310654D01*
X123198616Y-112310655D01*
X123256437Y-112337618D01*
X123308876Y-112383791D01*
X123328028Y-112450984D01*
X123307812Y-112517866D01*
X123256437Y-112562382D01*
X123198616Y-112589344D01*
X123198614Y-112589345D01*
X123012201Y-112719873D01*
X123012195Y-112719878D01*
X122851278Y-112880795D01*
X122851273Y-112880801D01*
X122720745Y-113067214D01*
X122720744Y-113067216D01*
X122624568Y-113273467D01*
X122624564Y-113273476D01*
X122565668Y-113493284D01*
X122565666Y-113493294D01*
X122545832Y-113719999D01*
X122545832Y-113720000D01*
X122565666Y-113946705D01*
X122565668Y-113946715D01*
X122624564Y-114166523D01*
X122624566Y-114166527D01*
X122624567Y-114166531D01*
X122672656Y-114269657D01*
X122720744Y-114372783D01*
X122720745Y-114372785D01*
X122851273Y-114559198D01*
X122851278Y-114559204D01*
X123012195Y-114720121D01*
X123012201Y-114720126D01*
X123198614Y-114850654D01*
X123198616Y-114850655D01*
X123256437Y-114877618D01*
X123308876Y-114923791D01*
X123328028Y-114990984D01*
X123307812Y-115057866D01*
X123256437Y-115102382D01*
X123198616Y-115129344D01*
X123198614Y-115129345D01*
X123012201Y-115259873D01*
X123012195Y-115259878D01*
X122851278Y-115420795D01*
X122851273Y-115420801D01*
X122720745Y-115607214D01*
X122720744Y-115607216D01*
X122624568Y-115813467D01*
X122624564Y-115813476D01*
X122565668Y-116033284D01*
X122565666Y-116033294D01*
X122545832Y-116259999D01*
X122545832Y-116260000D01*
X122565666Y-116486705D01*
X122565668Y-116486715D01*
X122624564Y-116706523D01*
X122624566Y-116706527D01*
X122624567Y-116706531D01*
X122635491Y-116729957D01*
X122720744Y-116912783D01*
X122720745Y-116912785D01*
X122851273Y-117099198D01*
X122851278Y-117099204D01*
X123012195Y-117260121D01*
X123012201Y-117260126D01*
X123198614Y-117390654D01*
X123198616Y-117390655D01*
X123256437Y-117417618D01*
X123308876Y-117463791D01*
X123328028Y-117530984D01*
X123307812Y-117597866D01*
X123256437Y-117642382D01*
X123198616Y-117669344D01*
X123198614Y-117669345D01*
X123012201Y-117799873D01*
X123012195Y-117799878D01*
X122851278Y-117960795D01*
X122851273Y-117960801D01*
X122720745Y-118147214D01*
X122720744Y-118147216D01*
X122624568Y-118353467D01*
X122624564Y-118353476D01*
X122565668Y-118573284D01*
X122565666Y-118573294D01*
X122545832Y-118799999D01*
X122545832Y-118800000D01*
X122565666Y-119026705D01*
X122565668Y-119026715D01*
X122624564Y-119246523D01*
X122624566Y-119246527D01*
X122624567Y-119246531D01*
X122672656Y-119349657D01*
X122720744Y-119452783D01*
X122720745Y-119452785D01*
X122851273Y-119639198D01*
X122851278Y-119639204D01*
X123012195Y-119800121D01*
X123012201Y-119800126D01*
X123198614Y-119930654D01*
X123198616Y-119930655D01*
X123256437Y-119957618D01*
X123308876Y-120003791D01*
X123328028Y-120070984D01*
X123307812Y-120137866D01*
X123256437Y-120182382D01*
X123198616Y-120209344D01*
X123198614Y-120209345D01*
X123012201Y-120339873D01*
X123012195Y-120339878D01*
X122851278Y-120500795D01*
X122851273Y-120500801D01*
X122720745Y-120687214D01*
X122720744Y-120687216D01*
X122624568Y-120893467D01*
X122624564Y-120893476D01*
X122565668Y-121113284D01*
X122565666Y-121113294D01*
X122545832Y-121339999D01*
X122545832Y-121340000D01*
X122565666Y-121566705D01*
X122565668Y-121566715D01*
X122624564Y-121786523D01*
X122624566Y-121786527D01*
X122624567Y-121786531D01*
X122672656Y-121889657D01*
X122720744Y-121992783D01*
X122720745Y-121992785D01*
X122851273Y-122179198D01*
X122851278Y-122179204D01*
X123012195Y-122340121D01*
X123012201Y-122340126D01*
X123198614Y-122470654D01*
X123198616Y-122470655D01*
X123256437Y-122497618D01*
X123308876Y-122543791D01*
X123328028Y-122610984D01*
X123307812Y-122677866D01*
X123256437Y-122722382D01*
X123198616Y-122749344D01*
X123198614Y-122749345D01*
X123012201Y-122879873D01*
X123012195Y-122879878D01*
X122851278Y-123040795D01*
X122851273Y-123040801D01*
X122720745Y-123227214D01*
X122720744Y-123227216D01*
X122624568Y-123433467D01*
X122624564Y-123433476D01*
X122565668Y-123653284D01*
X122565666Y-123653294D01*
X122545832Y-123879999D01*
X122545832Y-123880000D01*
X122565666Y-124106705D01*
X122565668Y-124106715D01*
X122624564Y-124326523D01*
X122624566Y-124326527D01*
X122624567Y-124326531D01*
X122672656Y-124429657D01*
X122720744Y-124532783D01*
X122720745Y-124532785D01*
X122851273Y-124719198D01*
X122851278Y-124719204D01*
X123012195Y-124880121D01*
X123012201Y-124880126D01*
X123198614Y-125010654D01*
X123198616Y-125010655D01*
X123256437Y-125037618D01*
X123308876Y-125083791D01*
X123328028Y-125150984D01*
X123307812Y-125217866D01*
X123256437Y-125262382D01*
X123198616Y-125289344D01*
X123198614Y-125289345D01*
X123012201Y-125419873D01*
X123012195Y-125419878D01*
X122851278Y-125580795D01*
X122851273Y-125580801D01*
X122720745Y-125767214D01*
X122720744Y-125767216D01*
X122624568Y-125973467D01*
X122624564Y-125973476D01*
X122565668Y-126193284D01*
X122565666Y-126193294D01*
X122545832Y-126419999D01*
X122545832Y-126420000D01*
X122565666Y-126646705D01*
X122565668Y-126646715D01*
X122624564Y-126866523D01*
X122624566Y-126866527D01*
X122624567Y-126866531D01*
X122672656Y-126969657D01*
X122720744Y-127072783D01*
X122720745Y-127072785D01*
X122851273Y-127259198D01*
X122851278Y-127259204D01*
X123012195Y-127420121D01*
X123012201Y-127420126D01*
X123198614Y-127550654D01*
X123198616Y-127550655D01*
X123256437Y-127577618D01*
X123308876Y-127623791D01*
X123328028Y-127690984D01*
X123307812Y-127757866D01*
X123256437Y-127802382D01*
X123198616Y-127829344D01*
X123198614Y-127829345D01*
X123012201Y-127959873D01*
X123012195Y-127959878D01*
X122851278Y-128120795D01*
X122851273Y-128120801D01*
X122720745Y-128307214D01*
X122720744Y-128307216D01*
X122624568Y-128513467D01*
X122624564Y-128513476D01*
X122565668Y-128733284D01*
X122565666Y-128733294D01*
X122545832Y-128959999D01*
X122545832Y-128960000D01*
X122565666Y-129186705D01*
X122565668Y-129186715D01*
X122624564Y-129406523D01*
X122624566Y-129406527D01*
X122624567Y-129406531D01*
X122672656Y-129509657D01*
X122720744Y-129612783D01*
X122720745Y-129612785D01*
X122851273Y-129799198D01*
X122851278Y-129799204D01*
X123012195Y-129960121D01*
X123012201Y-129960126D01*
X123198614Y-130090654D01*
X123198616Y-130090655D01*
X123404869Y-130186833D01*
X123624690Y-130245733D01*
X123806058Y-130261601D01*
X123851399Y-130265568D01*
X123851400Y-130265568D01*
X123851401Y-130265568D01*
X123889185Y-130262262D01*
X124078110Y-130245733D01*
X124297931Y-130186833D01*
X124504184Y-130090655D01*
X124690603Y-129960123D01*
X124851523Y-129799203D01*
X124982055Y-129612784D01*
X125078233Y-129406531D01*
X125137133Y-129186710D01*
X125156968Y-128960000D01*
X125137133Y-128733290D01*
X125078233Y-128513469D01*
X124982055Y-128307216D01*
X124851523Y-128120797D01*
X124690603Y-127959877D01*
X124690601Y-127959876D01*
X124690598Y-127959873D01*
X124504185Y-127829345D01*
X124504183Y-127829344D01*
X124446362Y-127802382D01*
X124393923Y-127756210D01*
X124374771Y-127689016D01*
X124394987Y-127622135D01*
X124446362Y-127577618D01*
X124504184Y-127550655D01*
X124690603Y-127420123D01*
X124851523Y-127259203D01*
X124982055Y-127072784D01*
X125078233Y-126866531D01*
X125137133Y-126646710D01*
X125156968Y-126420000D01*
X125137133Y-126193290D01*
X125078233Y-125973469D01*
X124982055Y-125767216D01*
X124851523Y-125580797D01*
X124690603Y-125419877D01*
X124690601Y-125419876D01*
X124690598Y-125419873D01*
X124504185Y-125289345D01*
X124504183Y-125289344D01*
X124446362Y-125262382D01*
X124393923Y-125216210D01*
X124374771Y-125149016D01*
X124394987Y-125082135D01*
X124446362Y-125037618D01*
X124504184Y-125010655D01*
X124690603Y-124880123D01*
X124851523Y-124719203D01*
X124982055Y-124532784D01*
X125078233Y-124326531D01*
X125137133Y-124106710D01*
X125156968Y-123880000D01*
X125137133Y-123653290D01*
X125078233Y-123433469D01*
X124982055Y-123227216D01*
X124851523Y-123040797D01*
X124690603Y-122879877D01*
X124690601Y-122879876D01*
X124690598Y-122879873D01*
X124504185Y-122749345D01*
X124504183Y-122749344D01*
X124446362Y-122722382D01*
X124393923Y-122676210D01*
X124374771Y-122609016D01*
X124394987Y-122542135D01*
X124446362Y-122497618D01*
X124483071Y-122480500D01*
X124504184Y-122470655D01*
X124690603Y-122340123D01*
X124851523Y-122179203D01*
X124982055Y-121992784D01*
X125078233Y-121786531D01*
X125137133Y-121566710D01*
X125156968Y-121340000D01*
X125137133Y-121113290D01*
X125078233Y-120893469D01*
X124982055Y-120687216D01*
X124952716Y-120645316D01*
X124851526Y-120500801D01*
X124851521Y-120500795D01*
X124690604Y-120339878D01*
X124690598Y-120339873D01*
X124504185Y-120209345D01*
X124504183Y-120209344D01*
X124446362Y-120182382D01*
X124393923Y-120136210D01*
X124374771Y-120069016D01*
X124394987Y-120002135D01*
X124446362Y-119957618D01*
X124475426Y-119944065D01*
X124504184Y-119930655D01*
X124690603Y-119800123D01*
X124851523Y-119639203D01*
X124982055Y-119452784D01*
X125078233Y-119246531D01*
X125137133Y-119026710D01*
X125156968Y-118800000D01*
X125137133Y-118573290D01*
X125078233Y-118353469D01*
X124982055Y-118147216D01*
X124947783Y-118098271D01*
X124851526Y-117960801D01*
X124851521Y-117960795D01*
X124690604Y-117799878D01*
X124690598Y-117799873D01*
X124504185Y-117669345D01*
X124504183Y-117669344D01*
X124446362Y-117642382D01*
X124393923Y-117596210D01*
X124374771Y-117529016D01*
X124394987Y-117462135D01*
X124446362Y-117417618D01*
X124470170Y-117406516D01*
X124504184Y-117390655D01*
X124690603Y-117260123D01*
X124851523Y-117099203D01*
X124982055Y-116912784D01*
X125078233Y-116706531D01*
X125137133Y-116486710D01*
X125156968Y-116260000D01*
X125137133Y-116033290D01*
X125078233Y-115813469D01*
X124982055Y-115607216D01*
X124967914Y-115587021D01*
X124851526Y-115420801D01*
X124851521Y-115420795D01*
X124690604Y-115259878D01*
X124690598Y-115259873D01*
X124504185Y-115129345D01*
X124504183Y-115129344D01*
X124446362Y-115102382D01*
X124393923Y-115056210D01*
X124374771Y-114989016D01*
X124394987Y-114922135D01*
X124446362Y-114877618D01*
X124504184Y-114850655D01*
X124690603Y-114720123D01*
X124851523Y-114559203D01*
X124982055Y-114372784D01*
X125078233Y-114166531D01*
X125137133Y-113946710D01*
X125156968Y-113720000D01*
X125137133Y-113493290D01*
X125078233Y-113273469D01*
X124982055Y-113067216D01*
X124952898Y-113025576D01*
X124851526Y-112880801D01*
X124851521Y-112880795D01*
X124690604Y-112719878D01*
X124690598Y-112719873D01*
X124504185Y-112589345D01*
X124504183Y-112589344D01*
X124446362Y-112562382D01*
X124393923Y-112516210D01*
X124374771Y-112449016D01*
X124394987Y-112382135D01*
X124446362Y-112337618D01*
X124504184Y-112310655D01*
X124690603Y-112180123D01*
X124851523Y-112019203D01*
X124982055Y-111832784D01*
X125078233Y-111626531D01*
X125137133Y-111406710D01*
X125156968Y-111180000D01*
X125137133Y-110953290D01*
X125111328Y-110856982D01*
X125112991Y-110787136D01*
X125143420Y-110737213D01*
X133187821Y-102692812D01*
X133249142Y-102659329D01*
X133318834Y-102664313D01*
X133374767Y-102706185D01*
X133399184Y-102771649D01*
X133399500Y-102780495D01*
X133399500Y-104347870D01*
X133399501Y-104347876D01*
X133405908Y-104407483D01*
X133456202Y-104542328D01*
X133456206Y-104542335D01*
X133542452Y-104657544D01*
X133542455Y-104657547D01*
X133657664Y-104743793D01*
X133657671Y-104743797D01*
X133702618Y-104760561D01*
X133792517Y-104794091D01*
X133827596Y-104797862D01*
X133892144Y-104824599D01*
X133931993Y-104881991D01*
X133934488Y-104951816D01*
X133898836Y-105011905D01*
X133885464Y-105022725D01*
X133860858Y-105039954D01*
X133699954Y-105200858D01*
X133569432Y-105387265D01*
X133569431Y-105387267D01*
X133473261Y-105593502D01*
X133473258Y-105593511D01*
X133414366Y-105813302D01*
X133414364Y-105813313D01*
X133394532Y-106039998D01*
X133394532Y-106040001D01*
X133414364Y-106266686D01*
X133414366Y-106266697D01*
X133473258Y-106486488D01*
X133473261Y-106486497D01*
X133569431Y-106692732D01*
X133569432Y-106692734D01*
X133699954Y-106879141D01*
X133860858Y-107040045D01*
X133860861Y-107040047D01*
X134047266Y-107170568D01*
X134105275Y-107197618D01*
X134157714Y-107243791D01*
X134176866Y-107310984D01*
X134156650Y-107377865D01*
X134105275Y-107422382D01*
X134047267Y-107449431D01*
X134047265Y-107449432D01*
X133860858Y-107579954D01*
X133699954Y-107740858D01*
X133569432Y-107927265D01*
X133569431Y-107927267D01*
X133473261Y-108133502D01*
X133473258Y-108133511D01*
X133414366Y-108353302D01*
X133414364Y-108353313D01*
X133394532Y-108579998D01*
X133394532Y-108580001D01*
X133414364Y-108806686D01*
X133414366Y-108806697D01*
X133473258Y-109026488D01*
X133473261Y-109026497D01*
X133569431Y-109232732D01*
X133569432Y-109232734D01*
X133699954Y-109419141D01*
X133860858Y-109580045D01*
X133860861Y-109580047D01*
X134047266Y-109710568D01*
X134080937Y-109726269D01*
X134105275Y-109737618D01*
X134157714Y-109783791D01*
X134176866Y-109850984D01*
X134156650Y-109917865D01*
X134105275Y-109962382D01*
X134047267Y-109989431D01*
X134047265Y-109989432D01*
X133860858Y-110119954D01*
X133699954Y-110280858D01*
X133569432Y-110467265D01*
X133569431Y-110467267D01*
X133473261Y-110673502D01*
X133473258Y-110673511D01*
X133414366Y-110893302D01*
X133414364Y-110893313D01*
X133394532Y-111119998D01*
X133394532Y-111120001D01*
X133414364Y-111346686D01*
X133414366Y-111346697D01*
X133473258Y-111566488D01*
X133473261Y-111566497D01*
X133569431Y-111772732D01*
X133569432Y-111772734D01*
X133699954Y-111959141D01*
X133860858Y-112120045D01*
X133860861Y-112120047D01*
X134047266Y-112250568D01*
X134105275Y-112277618D01*
X134157714Y-112323791D01*
X134176866Y-112390984D01*
X134156650Y-112457865D01*
X134105275Y-112502382D01*
X134047267Y-112529431D01*
X134047265Y-112529432D01*
X133860858Y-112659954D01*
X133699954Y-112820858D01*
X133569432Y-113007265D01*
X133569431Y-113007267D01*
X133473261Y-113213502D01*
X133473258Y-113213511D01*
X133414366Y-113433302D01*
X133414364Y-113433313D01*
X133394532Y-113659998D01*
X133394532Y-113660000D01*
X133414364Y-113886686D01*
X133414366Y-113886697D01*
X133473258Y-114106488D01*
X133473261Y-114106497D01*
X133569431Y-114312732D01*
X133569432Y-114312734D01*
X133699954Y-114499141D01*
X133860858Y-114660045D01*
X133860861Y-114660047D01*
X134047266Y-114790568D01*
X134105275Y-114817618D01*
X134157714Y-114863791D01*
X134176866Y-114930984D01*
X134156650Y-114997865D01*
X134105275Y-115042382D01*
X134047267Y-115069431D01*
X134047265Y-115069432D01*
X133860858Y-115199954D01*
X133699954Y-115360858D01*
X133569432Y-115547265D01*
X133569431Y-115547267D01*
X133473261Y-115753502D01*
X133473258Y-115753511D01*
X133414366Y-115973302D01*
X133414364Y-115973313D01*
X133394532Y-116199998D01*
X133394532Y-116200001D01*
X133414364Y-116426686D01*
X133414366Y-116426697D01*
X133473258Y-116646488D01*
X133473261Y-116646497D01*
X133569431Y-116852732D01*
X133569432Y-116852734D01*
X133699954Y-117039141D01*
X133860858Y-117200045D01*
X133860861Y-117200047D01*
X134047266Y-117330568D01*
X134105275Y-117357618D01*
X134157714Y-117403791D01*
X134176866Y-117470984D01*
X134156650Y-117537865D01*
X134105275Y-117582382D01*
X134047267Y-117609431D01*
X134047265Y-117609432D01*
X133860858Y-117739954D01*
X133699954Y-117900858D01*
X133569432Y-118087265D01*
X133569431Y-118087267D01*
X133473261Y-118293502D01*
X133473258Y-118293511D01*
X133414366Y-118513302D01*
X133414364Y-118513313D01*
X133394532Y-118739998D01*
X133394532Y-118740001D01*
X133414364Y-118966686D01*
X133414366Y-118966697D01*
X133473258Y-119186488D01*
X133473261Y-119186497D01*
X133569431Y-119392732D01*
X133569432Y-119392734D01*
X133699954Y-119579141D01*
X133860858Y-119740045D01*
X133860861Y-119740047D01*
X134047266Y-119870568D01*
X134105865Y-119897893D01*
X134158305Y-119944065D01*
X134177457Y-120011258D01*
X134157242Y-120078139D01*
X134105867Y-120122657D01*
X134047515Y-120149867D01*
X133861179Y-120280342D01*
X133700342Y-120441179D01*
X133569865Y-120627517D01*
X133473734Y-120833673D01*
X133473730Y-120833682D01*
X133421127Y-121029999D01*
X133421128Y-121030000D01*
X134384314Y-121030000D01*
X134379920Y-121034394D01*
X134327259Y-121125606D01*
X134300000Y-121227339D01*
X134300000Y-121332661D01*
X134327259Y-121434394D01*
X134379920Y-121525606D01*
X134384314Y-121530000D01*
X133421128Y-121530000D01*
X133473730Y-121726317D01*
X133473734Y-121726326D01*
X133569865Y-121932482D01*
X133700342Y-122118820D01*
X133861179Y-122279657D01*
X134047517Y-122410134D01*
X134253673Y-122506265D01*
X134253682Y-122506269D01*
X134449999Y-122558872D01*
X134450000Y-122558871D01*
X134450000Y-121595686D01*
X134454394Y-121600080D01*
X134545606Y-121652741D01*
X134647339Y-121680000D01*
X134752661Y-121680000D01*
X134854394Y-121652741D01*
X134945606Y-121600080D01*
X134950000Y-121595686D01*
X134950000Y-122558872D01*
X135146317Y-122506269D01*
X135146326Y-122506265D01*
X135352482Y-122410134D01*
X135538820Y-122279657D01*
X135699657Y-122118820D01*
X135830134Y-121932482D01*
X135926265Y-121726326D01*
X135926269Y-121726317D01*
X135978872Y-121530000D01*
X135015686Y-121530000D01*
X135020080Y-121525606D01*
X135072741Y-121434394D01*
X135100000Y-121332661D01*
X135100000Y-121227339D01*
X135072741Y-121125606D01*
X135020080Y-121034394D01*
X135015686Y-121030000D01*
X135978872Y-121030000D01*
X135978872Y-121029999D01*
X135926269Y-120833682D01*
X135926265Y-120833673D01*
X135830134Y-120627517D01*
X135699657Y-120441179D01*
X135538820Y-120280342D01*
X135352482Y-120149865D01*
X135294133Y-120122657D01*
X135241694Y-120076484D01*
X135222542Y-120009291D01*
X135242758Y-119942410D01*
X135294129Y-119897895D01*
X135352734Y-119870568D01*
X135539139Y-119740047D01*
X135700047Y-119579139D01*
X135830568Y-119392734D01*
X135926739Y-119186496D01*
X135985635Y-118966692D01*
X136004641Y-118749454D01*
X139983298Y-118749454D01*
X140024223Y-118902185D01*
X140053158Y-118952300D01*
X140053159Y-118952304D01*
X140053160Y-118952304D01*
X140096120Y-119026715D01*
X140103279Y-119039114D01*
X140103281Y-119039117D01*
X140222149Y-119157985D01*
X140222155Y-119157990D01*
X141324807Y-120260642D01*
X141358292Y-120321965D01*
X141353308Y-120391657D01*
X141324817Y-120435994D01*
X141319956Y-120440855D01*
X141189432Y-120627265D01*
X141189431Y-120627267D01*
X141093261Y-120833502D01*
X141093258Y-120833511D01*
X141034366Y-121053302D01*
X141034364Y-121053313D01*
X141014532Y-121279998D01*
X141014532Y-121280001D01*
X141034364Y-121506686D01*
X141034366Y-121506697D01*
X141093258Y-121726488D01*
X141093261Y-121726497D01*
X141189431Y-121932732D01*
X141189432Y-121932734D01*
X141319954Y-122119141D01*
X141480858Y-122280045D01*
X141480861Y-122280047D01*
X141667266Y-122410568D01*
X141873504Y-122506739D01*
X142093308Y-122565635D01*
X142255230Y-122579801D01*
X142319998Y-122585468D01*
X142320000Y-122585468D01*
X142320002Y-122585468D01*
X142376673Y-122580509D01*
X142546692Y-122565635D01*
X142766496Y-122506739D01*
X142972734Y-122410568D01*
X143159139Y-122280047D01*
X143320047Y-122119139D01*
X143450568Y-121932734D01*
X143546739Y-121726496D01*
X143605635Y-121506692D01*
X143625468Y-121280000D01*
X143605635Y-121053308D01*
X143546739Y-120833504D01*
X143450568Y-120627266D01*
X143320047Y-120440861D01*
X143320045Y-120440858D01*
X143159141Y-120279954D01*
X142972739Y-120149435D01*
X142971327Y-120148620D01*
X142970829Y-120148098D01*
X142968300Y-120146327D01*
X142968656Y-120145818D01*
X142923113Y-120098051D01*
X142913556Y-120073330D01*
X142898763Y-120018119D01*
X142900426Y-119948269D01*
X142939590Y-119890407D01*
X142966135Y-119873645D01*
X142972734Y-119870568D01*
X143159139Y-119740047D01*
X143320047Y-119579139D01*
X143450568Y-119392734D01*
X143546739Y-119186496D01*
X143605635Y-118966692D01*
X143625468Y-118740000D01*
X143605635Y-118513308D01*
X143546739Y-118293504D01*
X143450568Y-118087266D01*
X143320047Y-117900861D01*
X143320045Y-117900858D01*
X143269891Y-117850704D01*
X143236406Y-117789381D01*
X143241390Y-117719689D01*
X143269889Y-117675344D01*
X143803606Y-117141628D01*
X143803611Y-117141624D01*
X143813814Y-117131420D01*
X143813816Y-117131420D01*
X143925620Y-117019616D01*
X144004677Y-116882684D01*
X144045600Y-116729957D01*
X144045600Y-113400397D01*
X144065285Y-113333358D01*
X144118089Y-113287603D01*
X144187247Y-113277659D01*
X144250803Y-113306684D01*
X144257281Y-113312716D01*
X146200598Y-115256033D01*
X146234083Y-115317356D01*
X146236137Y-115329830D01*
X146245930Y-115416749D01*
X146305510Y-115587021D01*
X146380494Y-115706356D01*
X146399500Y-115772328D01*
X146399500Y-120170754D01*
X146379815Y-120237793D01*
X146340778Y-120276181D01*
X146273436Y-120317877D01*
X146109020Y-120467761D01*
X145974943Y-120645308D01*
X145974938Y-120645316D01*
X145875775Y-120844461D01*
X145875769Y-120844476D01*
X145814885Y-121058462D01*
X145814884Y-121058464D01*
X145794357Y-121279999D01*
X145794357Y-121280000D01*
X145814884Y-121501535D01*
X145814885Y-121501537D01*
X145875769Y-121715523D01*
X145875775Y-121715538D01*
X145974938Y-121914683D01*
X145974943Y-121914691D01*
X146109020Y-122092238D01*
X146273437Y-122242123D01*
X146273439Y-122242125D01*
X146462595Y-122359245D01*
X146462596Y-122359245D01*
X146462599Y-122359247D01*
X146670060Y-122439618D01*
X146888757Y-122480500D01*
X146888759Y-122480500D01*
X147111241Y-122480500D01*
X147111243Y-122480500D01*
X147329940Y-122439618D01*
X147537401Y-122359247D01*
X147726562Y-122242124D01*
X147890981Y-122092236D01*
X148025058Y-121914689D01*
X148124229Y-121715528D01*
X148185115Y-121501536D01*
X148205643Y-121280000D01*
X148185115Y-121058464D01*
X148124229Y-120844472D01*
X148124224Y-120844461D01*
X148025061Y-120645316D01*
X148025056Y-120645308D01*
X147890979Y-120467761D01*
X147726563Y-120317877D01*
X147726562Y-120317876D01*
X147659221Y-120276180D01*
X147612587Y-120224153D01*
X147600500Y-120170754D01*
X147600500Y-115851740D01*
X147620185Y-115784701D01*
X147636819Y-115764059D01*
X147647376Y-115753502D01*
X147661116Y-115739762D01*
X147757089Y-115587022D01*
X147816668Y-115416755D01*
X147826462Y-115329830D01*
X147836865Y-115237503D01*
X147836865Y-115237496D01*
X147816669Y-115058250D01*
X147816668Y-115058245D01*
X147792788Y-114990000D01*
X147757089Y-114887978D01*
X147694246Y-114787965D01*
X147675247Y-114720730D01*
X147695615Y-114653894D01*
X147722078Y-114625644D01*
X147722024Y-114625585D01*
X147722774Y-114624900D01*
X147724528Y-114623029D01*
X147726272Y-114621712D01*
X147890608Y-114471900D01*
X148024631Y-114294425D01*
X148123760Y-114095349D01*
X148176495Y-113910000D01*
X147244975Y-113910000D01*
X147280070Y-113874905D01*
X147326148Y-113795095D01*
X147350000Y-113706078D01*
X147350000Y-113613922D01*
X147326148Y-113524905D01*
X147280070Y-113445095D01*
X147244975Y-113410000D01*
X147250000Y-113410000D01*
X148176495Y-113410000D01*
X148123760Y-113224650D01*
X148024631Y-113025574D01*
X147890608Y-112848099D01*
X147726261Y-112698278D01*
X147537179Y-112581202D01*
X147537177Y-112581201D01*
X147329799Y-112500864D01*
X147250000Y-112485946D01*
X147250000Y-113410000D01*
X147244975Y-113410000D01*
X147214905Y-113379930D01*
X147135095Y-113333852D01*
X147046078Y-113310000D01*
X146953922Y-113310000D01*
X146864905Y-113333852D01*
X146785095Y-113379930D01*
X146750000Y-113415025D01*
X146750000Y-112485946D01*
X146670200Y-112500864D01*
X146462822Y-112581201D01*
X146462820Y-112581202D01*
X146273738Y-112698278D01*
X146109391Y-112848099D01*
X145975366Y-113025576D01*
X145950213Y-113076090D01*
X145902710Y-113127327D01*
X145835046Y-113144747D01*
X145768706Y-113122820D01*
X145751533Y-113108498D01*
X145114819Y-112471784D01*
X145081334Y-112410461D01*
X145078500Y-112384103D01*
X145078500Y-108499997D01*
X145515034Y-108499997D01*
X145515034Y-108500002D01*
X145534858Y-108726599D01*
X145534860Y-108726610D01*
X145593730Y-108946317D01*
X145593735Y-108946331D01*
X145689863Y-109152478D01*
X145740974Y-109225472D01*
X146420000Y-108546446D01*
X146420000Y-108552661D01*
X146447259Y-108654394D01*
X146499920Y-108745606D01*
X146574394Y-108820080D01*
X146665606Y-108872741D01*
X146767339Y-108900000D01*
X146773553Y-108900000D01*
X146094526Y-109579025D01*
X146167513Y-109630132D01*
X146167521Y-109630136D01*
X146373668Y-109726264D01*
X146373682Y-109726269D01*
X146593389Y-109785139D01*
X146593400Y-109785141D01*
X146819998Y-109804966D01*
X146820002Y-109804966D01*
X147046599Y-109785141D01*
X147046610Y-109785139D01*
X147266317Y-109726269D01*
X147266331Y-109726264D01*
X147472478Y-109630136D01*
X147545471Y-109579024D01*
X146866447Y-108900000D01*
X146872661Y-108900000D01*
X146974394Y-108872741D01*
X147065606Y-108820080D01*
X147140080Y-108745606D01*
X147192741Y-108654394D01*
X147220000Y-108552661D01*
X147220000Y-108546447D01*
X147899024Y-109225471D01*
X147950136Y-109152478D01*
X148046264Y-108946331D01*
X148046269Y-108946317D01*
X148105139Y-108726610D01*
X148105141Y-108726599D01*
X148124966Y-108500002D01*
X148124966Y-108499997D01*
X148105141Y-108273400D01*
X148105139Y-108273389D01*
X148046269Y-108053682D01*
X148046264Y-108053668D01*
X147950136Y-107847521D01*
X147950132Y-107847513D01*
X147899025Y-107774526D01*
X147220000Y-108453551D01*
X147220000Y-108447339D01*
X147192741Y-108345606D01*
X147140080Y-108254394D01*
X147065606Y-108179920D01*
X146974394Y-108127259D01*
X146872661Y-108100000D01*
X146866445Y-108100000D01*
X147545472Y-107420974D01*
X147472478Y-107369863D01*
X147266331Y-107273735D01*
X147266317Y-107273730D01*
X147046610Y-107214860D01*
X147046599Y-107214858D01*
X146820002Y-107195034D01*
X146819998Y-107195034D01*
X146593400Y-107214858D01*
X146593389Y-107214860D01*
X146373682Y-107273730D01*
X146373673Y-107273734D01*
X146167516Y-107369866D01*
X146167512Y-107369868D01*
X146094526Y-107420973D01*
X146094526Y-107420974D01*
X146773553Y-108100000D01*
X146767339Y-108100000D01*
X146665606Y-108127259D01*
X146574394Y-108179920D01*
X146499920Y-108254394D01*
X146447259Y-108345606D01*
X146420000Y-108447339D01*
X146420000Y-108453552D01*
X145740974Y-107774526D01*
X145740973Y-107774526D01*
X145689868Y-107847512D01*
X145689866Y-107847516D01*
X145593734Y-108053673D01*
X145593730Y-108053682D01*
X145534860Y-108273389D01*
X145534858Y-108273400D01*
X145515034Y-108499997D01*
X145078500Y-108499997D01*
X145078500Y-103499998D01*
X145514532Y-103499998D01*
X145514532Y-103500001D01*
X145534364Y-103726686D01*
X145534366Y-103726697D01*
X145593258Y-103946488D01*
X145593261Y-103946497D01*
X145689431Y-104152732D01*
X145689432Y-104152734D01*
X145819954Y-104339141D01*
X145980858Y-104500045D01*
X145980861Y-104500047D01*
X146167266Y-104630568D01*
X146373504Y-104726739D01*
X146593308Y-104785635D01*
X146733052Y-104797861D01*
X146819998Y-104805468D01*
X146820000Y-104805468D01*
X146820002Y-104805468D01*
X146876807Y-104800498D01*
X147046692Y-104785635D01*
X147266496Y-104726739D01*
X147472734Y-104630568D01*
X147659139Y-104500047D01*
X147820047Y-104339139D01*
X147918082Y-104199129D01*
X147972657Y-104155505D01*
X148042155Y-104148311D01*
X148104510Y-104179833D01*
X148107337Y-104182572D01*
X151440107Y-107515342D01*
X151473592Y-107576665D01*
X151468608Y-107646357D01*
X151440109Y-107690703D01*
X151389952Y-107740861D01*
X151259432Y-107927265D01*
X151259431Y-107927267D01*
X151163261Y-108133502D01*
X151163258Y-108133511D01*
X151104366Y-108353302D01*
X151104364Y-108353313D01*
X151084532Y-108579998D01*
X151084532Y-108580001D01*
X151104364Y-108806686D01*
X151104366Y-108806697D01*
X151163258Y-109026488D01*
X151163261Y-109026497D01*
X151259431Y-109232732D01*
X151259432Y-109232734D01*
X151389954Y-109419141D01*
X151550858Y-109580045D01*
X151550861Y-109580047D01*
X151737266Y-109710568D01*
X151770937Y-109726269D01*
X151795275Y-109737618D01*
X151847714Y-109783791D01*
X151866866Y-109850984D01*
X151846650Y-109917865D01*
X151795275Y-109962382D01*
X151737267Y-109989431D01*
X151737265Y-109989432D01*
X151550858Y-110119954D01*
X151389954Y-110280858D01*
X151259432Y-110467265D01*
X151259431Y-110467267D01*
X151163261Y-110673502D01*
X151163258Y-110673511D01*
X151104366Y-110893302D01*
X151104364Y-110893313D01*
X151084532Y-111119998D01*
X151084532Y-111120001D01*
X151104364Y-111346686D01*
X151104366Y-111346697D01*
X151163258Y-111566488D01*
X151163261Y-111566497D01*
X151259431Y-111772732D01*
X151259432Y-111772734D01*
X151389954Y-111959141D01*
X151550858Y-112120045D01*
X151550861Y-112120047D01*
X151737266Y-112250568D01*
X151795275Y-112277618D01*
X151847714Y-112323791D01*
X151866866Y-112390984D01*
X151846650Y-112457865D01*
X151795275Y-112502382D01*
X151737267Y-112529431D01*
X151737265Y-112529432D01*
X151550858Y-112659954D01*
X151389954Y-112820858D01*
X151259432Y-113007265D01*
X151259431Y-113007267D01*
X151163261Y-113213502D01*
X151163258Y-113213511D01*
X151104366Y-113433302D01*
X151104364Y-113433313D01*
X151084532Y-113659998D01*
X151084532Y-113660000D01*
X151104364Y-113886686D01*
X151104366Y-113886697D01*
X151163258Y-114106488D01*
X151163261Y-114106497D01*
X151259431Y-114312732D01*
X151259432Y-114312734D01*
X151389954Y-114499141D01*
X151550858Y-114660045D01*
X151550861Y-114660047D01*
X151737266Y-114790568D01*
X151795275Y-114817618D01*
X151847714Y-114863791D01*
X151866866Y-114930984D01*
X151846650Y-114997865D01*
X151795275Y-115042382D01*
X151737267Y-115069431D01*
X151737265Y-115069432D01*
X151550858Y-115199954D01*
X151389954Y-115360858D01*
X151259432Y-115547265D01*
X151259431Y-115547267D01*
X151163261Y-115753502D01*
X151163258Y-115753511D01*
X151104366Y-115973302D01*
X151104364Y-115973313D01*
X151084532Y-116199998D01*
X151084532Y-116200001D01*
X151104364Y-116426686D01*
X151104366Y-116426697D01*
X151163258Y-116646488D01*
X151163261Y-116646497D01*
X151259431Y-116852732D01*
X151259432Y-116852734D01*
X151389954Y-117039141D01*
X151550858Y-117200045D01*
X151550861Y-117200047D01*
X151737266Y-117330568D01*
X151795275Y-117357618D01*
X151847714Y-117403791D01*
X151866866Y-117470984D01*
X151846650Y-117537865D01*
X151795275Y-117582382D01*
X151737267Y-117609431D01*
X151737265Y-117609432D01*
X151550858Y-117739954D01*
X151389954Y-117900858D01*
X151259432Y-118087265D01*
X151259431Y-118087267D01*
X151163261Y-118293502D01*
X151163258Y-118293511D01*
X151104366Y-118513302D01*
X151104364Y-118513313D01*
X151084532Y-118739998D01*
X151084532Y-118740001D01*
X151104364Y-118966686D01*
X151104366Y-118966697D01*
X151163258Y-119186488D01*
X151163261Y-119186497D01*
X151259431Y-119392732D01*
X151259432Y-119392734D01*
X151389954Y-119579141D01*
X151550858Y-119740045D01*
X151550861Y-119740047D01*
X151737266Y-119870568D01*
X151779811Y-119890407D01*
X151795275Y-119897618D01*
X151847714Y-119943791D01*
X151866866Y-120010984D01*
X151846650Y-120077865D01*
X151795275Y-120122382D01*
X151737267Y-120149431D01*
X151737265Y-120149432D01*
X151550858Y-120279954D01*
X151389954Y-120440858D01*
X151259432Y-120627265D01*
X151259431Y-120627267D01*
X151163261Y-120833502D01*
X151163258Y-120833511D01*
X151104366Y-121053302D01*
X151104364Y-121053313D01*
X151084532Y-121279998D01*
X151084532Y-121280001D01*
X151104364Y-121506686D01*
X151104366Y-121506697D01*
X151163258Y-121726488D01*
X151163261Y-121726497D01*
X151259431Y-121932732D01*
X151259432Y-121932734D01*
X151389954Y-122119141D01*
X151550858Y-122280045D01*
X151550861Y-122280047D01*
X151737266Y-122410568D01*
X151943504Y-122506739D01*
X152163308Y-122565635D01*
X152325230Y-122579801D01*
X152389998Y-122585468D01*
X152390000Y-122585468D01*
X152390002Y-122585468D01*
X152446673Y-122580509D01*
X152616692Y-122565635D01*
X152836496Y-122506739D01*
X153042734Y-122410568D01*
X153229139Y-122280047D01*
X153390047Y-122119139D01*
X153520568Y-121932734D01*
X153616739Y-121726496D01*
X153675635Y-121506692D01*
X153695468Y-121280000D01*
X153675635Y-121053308D01*
X153616739Y-120833504D01*
X153520568Y-120627266D01*
X153390047Y-120440861D01*
X153390045Y-120440858D01*
X153229141Y-120279954D01*
X153042734Y-120149432D01*
X153042728Y-120149429D01*
X152984725Y-120122382D01*
X152932285Y-120076210D01*
X152913133Y-120009017D01*
X152933348Y-119942135D01*
X152984725Y-119897618D01*
X153000189Y-119890407D01*
X153042734Y-119870568D01*
X153229139Y-119740047D01*
X153390047Y-119579139D01*
X153520568Y-119392734D01*
X153616739Y-119186496D01*
X153675635Y-118966692D01*
X153695468Y-118740000D01*
X153675635Y-118513308D01*
X153616739Y-118293504D01*
X153520568Y-118087266D01*
X153390047Y-117900861D01*
X153390045Y-117900858D01*
X153229141Y-117739954D01*
X153042734Y-117609432D01*
X153042728Y-117609429D01*
X152984725Y-117582382D01*
X152932285Y-117536210D01*
X152913133Y-117469017D01*
X152933348Y-117402135D01*
X152984725Y-117357618D01*
X153042734Y-117330568D01*
X153229139Y-117200047D01*
X153390047Y-117039139D01*
X153520568Y-116852734D01*
X153616739Y-116646496D01*
X153675635Y-116426692D01*
X153695468Y-116200000D01*
X153675635Y-115973308D01*
X153616739Y-115753504D01*
X153520568Y-115547266D01*
X153390047Y-115360861D01*
X153390045Y-115360858D01*
X153229141Y-115199954D01*
X153042734Y-115069432D01*
X153042728Y-115069429D01*
X152984725Y-115042382D01*
X152932285Y-114996210D01*
X152913133Y-114929017D01*
X152933348Y-114862135D01*
X152984725Y-114817618D01*
X153042734Y-114790568D01*
X153229139Y-114660047D01*
X153390047Y-114499139D01*
X153520568Y-114312734D01*
X153616739Y-114106496D01*
X153675635Y-113886692D01*
X153695468Y-113660000D01*
X153675635Y-113433308D01*
X153616739Y-113213504D01*
X153520568Y-113007266D01*
X153390047Y-112820861D01*
X153390045Y-112820858D01*
X153229141Y-112659954D01*
X153042734Y-112529432D01*
X153042728Y-112529429D01*
X152984725Y-112502382D01*
X152932285Y-112456210D01*
X152913133Y-112389017D01*
X152933348Y-112322135D01*
X152984725Y-112277618D01*
X153042734Y-112250568D01*
X153229139Y-112120047D01*
X153390047Y-111959139D01*
X153520568Y-111772734D01*
X153616739Y-111566496D01*
X153675635Y-111346692D01*
X153695468Y-111120000D01*
X153675635Y-110893308D01*
X153616739Y-110673504D01*
X153520568Y-110467266D01*
X153390047Y-110280861D01*
X153390045Y-110280858D01*
X153229141Y-110119954D01*
X153042734Y-109989432D01*
X153042728Y-109989429D01*
X152984725Y-109962382D01*
X152932285Y-109916210D01*
X152913133Y-109849017D01*
X152933348Y-109782135D01*
X152984725Y-109737618D01*
X153042734Y-109710568D01*
X153229139Y-109580047D01*
X153390047Y-109419139D01*
X153520568Y-109232734D01*
X153616739Y-109026496D01*
X153675635Y-108806692D01*
X153695468Y-108580000D01*
X153675635Y-108353308D01*
X153616739Y-108133504D01*
X153520568Y-107927266D01*
X153390047Y-107740861D01*
X153390045Y-107740858D01*
X153229141Y-107579954D01*
X153042739Y-107449435D01*
X153041327Y-107448620D01*
X153040829Y-107448098D01*
X153038300Y-107446327D01*
X153038656Y-107445818D01*
X152993113Y-107398051D01*
X152983556Y-107373330D01*
X152968763Y-107318119D01*
X152970426Y-107248269D01*
X153009590Y-107190407D01*
X153036135Y-107173645D01*
X153042734Y-107170568D01*
X153229139Y-107040047D01*
X153390047Y-106879139D01*
X153520568Y-106692734D01*
X153616739Y-106486496D01*
X153675635Y-106266692D01*
X153695468Y-106040000D01*
X153675635Y-105813308D01*
X153616739Y-105593504D01*
X153520568Y-105387266D01*
X153390047Y-105200861D01*
X153390045Y-105200858D01*
X153229141Y-105039954D01*
X153042739Y-104909435D01*
X153041327Y-104908620D01*
X153040829Y-104908098D01*
X153038300Y-104906327D01*
X153038656Y-104905818D01*
X152993113Y-104858051D01*
X152983556Y-104833330D01*
X152968763Y-104778119D01*
X152970426Y-104708269D01*
X153009590Y-104650407D01*
X153036135Y-104633645D01*
X153042734Y-104630568D01*
X153229139Y-104500047D01*
X153390047Y-104339139D01*
X153520568Y-104152734D01*
X153616739Y-103946496D01*
X153675635Y-103726692D01*
X153695468Y-103500000D01*
X153675635Y-103273308D01*
X153616739Y-103053504D01*
X153520568Y-102847266D01*
X153390047Y-102660861D01*
X153390045Y-102660858D01*
X153229141Y-102499954D01*
X153042734Y-102369432D01*
X153042728Y-102369429D01*
X153011710Y-102354965D01*
X152984724Y-102342381D01*
X152932285Y-102296210D01*
X152913133Y-102229017D01*
X152933348Y-102162135D01*
X152984725Y-102117618D01*
X153042734Y-102090568D01*
X153229139Y-101960047D01*
X153390047Y-101799139D01*
X153520568Y-101612734D01*
X153616739Y-101406496D01*
X153675635Y-101186692D01*
X153695468Y-100960000D01*
X153675635Y-100733308D01*
X153616739Y-100513504D01*
X153520568Y-100307266D01*
X153390047Y-100120861D01*
X153390045Y-100120858D01*
X153229141Y-99959954D01*
X153042734Y-99829432D01*
X153042728Y-99829429D01*
X153015038Y-99816517D01*
X152984724Y-99802381D01*
X152932285Y-99756210D01*
X152913133Y-99689017D01*
X152933348Y-99622135D01*
X152984725Y-99577618D01*
X153042734Y-99550568D01*
X153229139Y-99420047D01*
X153390047Y-99259139D01*
X153520568Y-99072734D01*
X153616739Y-98866496D01*
X153675635Y-98646692D01*
X153695468Y-98420000D01*
X153675635Y-98193308D01*
X153616739Y-97973504D01*
X153520568Y-97767266D01*
X153390047Y-97580861D01*
X153390045Y-97580858D01*
X153229141Y-97419954D01*
X153042734Y-97289432D01*
X153042728Y-97289429D01*
X152984725Y-97262382D01*
X152932285Y-97216210D01*
X152913133Y-97149017D01*
X152933348Y-97082135D01*
X152984725Y-97037618D01*
X153042734Y-97010568D01*
X153229139Y-96880047D01*
X153390047Y-96719139D01*
X153520568Y-96532734D01*
X153616739Y-96326496D01*
X153675635Y-96106692D01*
X153695468Y-95880000D01*
X153675635Y-95653308D01*
X153616739Y-95433504D01*
X153520568Y-95227266D01*
X153390047Y-95040861D01*
X153390045Y-95040858D01*
X153229141Y-94879954D01*
X153042734Y-94749432D01*
X153042728Y-94749429D01*
X152984725Y-94722382D01*
X152932285Y-94676210D01*
X152913133Y-94609017D01*
X152933348Y-94542135D01*
X152984725Y-94497618D01*
X153042734Y-94470568D01*
X153229139Y-94340047D01*
X153390047Y-94179139D01*
X153520568Y-93992734D01*
X153616739Y-93786496D01*
X153675635Y-93566692D01*
X153695468Y-93340000D01*
X153675635Y-93113308D01*
X153616739Y-92893504D01*
X153520568Y-92687266D01*
X153390047Y-92500861D01*
X153390045Y-92500858D01*
X153229141Y-92339954D01*
X153042734Y-92209432D01*
X153042728Y-92209429D01*
X152984725Y-92182382D01*
X152932285Y-92136210D01*
X152913133Y-92069017D01*
X152933348Y-92002135D01*
X152984725Y-91957618D01*
X153042734Y-91930568D01*
X153229139Y-91800047D01*
X153390047Y-91639139D01*
X153520568Y-91452734D01*
X153616739Y-91246496D01*
X153675635Y-91026692D01*
X153695468Y-90800000D01*
X153675635Y-90573308D01*
X153630916Y-90406415D01*
X153616741Y-90353511D01*
X153616738Y-90353502D01*
X153548846Y-90207908D01*
X153520568Y-90147266D01*
X153390047Y-89960861D01*
X153390045Y-89960858D01*
X153229141Y-89799954D01*
X153042734Y-89669432D01*
X153042728Y-89669429D01*
X152984725Y-89642382D01*
X152932285Y-89596210D01*
X152913133Y-89529017D01*
X152933348Y-89462135D01*
X152984725Y-89417618D01*
X152985317Y-89417342D01*
X153042734Y-89390568D01*
X153229139Y-89260047D01*
X153390047Y-89099139D01*
X153520568Y-88912734D01*
X153616739Y-88706496D01*
X153675635Y-88486692D01*
X153695468Y-88260000D01*
X153675635Y-88033308D01*
X153616739Y-87813504D01*
X153520568Y-87607266D01*
X153390047Y-87420861D01*
X153390045Y-87420858D01*
X153229143Y-87259956D01*
X153204536Y-87242726D01*
X153160912Y-87188149D01*
X153153719Y-87118650D01*
X153185241Y-87056296D01*
X153245471Y-87020882D01*
X153262404Y-87017861D01*
X153297483Y-87014091D01*
X153432331Y-86963796D01*
X153547546Y-86877546D01*
X153633796Y-86762331D01*
X153684091Y-86627483D01*
X153690500Y-86567873D01*
X153690499Y-84872128D01*
X153684091Y-84812517D01*
X153671917Y-84779878D01*
X153633797Y-84677671D01*
X153633793Y-84677664D01*
X153547547Y-84562455D01*
X153547544Y-84562452D01*
X153432335Y-84476206D01*
X153432328Y-84476202D01*
X153297482Y-84425908D01*
X153297483Y-84425908D01*
X153237883Y-84419501D01*
X153237881Y-84419500D01*
X153237873Y-84419500D01*
X153237864Y-84419500D01*
X151542129Y-84419500D01*
X151542123Y-84419501D01*
X151482516Y-84425908D01*
X151347671Y-84476202D01*
X151347664Y-84476206D01*
X151232455Y-84562452D01*
X151232452Y-84562455D01*
X151146206Y-84677664D01*
X151146202Y-84677671D01*
X151095908Y-84812517D01*
X151089501Y-84872116D01*
X151089501Y-84872123D01*
X151089500Y-84872135D01*
X151089500Y-86567870D01*
X151089501Y-86567876D01*
X151095908Y-86627483D01*
X151146202Y-86762328D01*
X151146206Y-86762335D01*
X151232452Y-86877544D01*
X151232455Y-86877547D01*
X151347664Y-86963793D01*
X151347671Y-86963797D01*
X151392618Y-86980561D01*
X151482517Y-87014091D01*
X151517596Y-87017862D01*
X151582144Y-87044599D01*
X151621993Y-87101991D01*
X151624488Y-87171816D01*
X151588836Y-87231905D01*
X151575464Y-87242725D01*
X151550858Y-87259954D01*
X151389954Y-87420858D01*
X151259432Y-87607265D01*
X151259431Y-87607267D01*
X151163261Y-87813502D01*
X151163258Y-87813511D01*
X151104366Y-88033302D01*
X151104364Y-88033313D01*
X151084532Y-88259998D01*
X151084532Y-88260000D01*
X151104364Y-88486686D01*
X151104366Y-88486697D01*
X151163258Y-88706488D01*
X151163261Y-88706497D01*
X151259431Y-88912732D01*
X151259432Y-88912734D01*
X151389954Y-89099141D01*
X151550858Y-89260045D01*
X151550861Y-89260047D01*
X151737266Y-89390568D01*
X151748272Y-89395700D01*
X151795275Y-89417618D01*
X151847714Y-89463791D01*
X151866866Y-89530984D01*
X151846650Y-89597865D01*
X151795275Y-89642382D01*
X151737267Y-89669431D01*
X151737265Y-89669432D01*
X151550858Y-89799954D01*
X151389954Y-89960858D01*
X151259432Y-90147265D01*
X151259431Y-90147267D01*
X151163261Y-90353502D01*
X151163258Y-90353511D01*
X151104366Y-90573302D01*
X151104364Y-90573313D01*
X151084532Y-90799998D01*
X151084532Y-90800001D01*
X151104364Y-91026686D01*
X151104366Y-91026697D01*
X151163258Y-91246488D01*
X151163261Y-91246497D01*
X151259431Y-91452732D01*
X151259432Y-91452734D01*
X151389954Y-91639141D01*
X151550858Y-91800045D01*
X151550861Y-91800047D01*
X151737266Y-91930568D01*
X151795275Y-91957618D01*
X151847714Y-92003791D01*
X151866866Y-92070984D01*
X151846650Y-92137865D01*
X151795275Y-92182382D01*
X151737267Y-92209431D01*
X151737265Y-92209432D01*
X151550858Y-92339954D01*
X151389954Y-92500858D01*
X151259432Y-92687265D01*
X151259431Y-92687267D01*
X151163261Y-92893502D01*
X151163258Y-92893511D01*
X151104366Y-93113302D01*
X151104364Y-93113313D01*
X151084532Y-93339998D01*
X151084532Y-93340001D01*
X151104364Y-93566686D01*
X151104366Y-93566697D01*
X151163258Y-93786488D01*
X151163261Y-93786497D01*
X151259431Y-93992732D01*
X151259432Y-93992734D01*
X151389954Y-94179141D01*
X151550858Y-94340045D01*
X151550861Y-94340047D01*
X151737266Y-94470568D01*
X151795275Y-94497618D01*
X151847714Y-94543791D01*
X151866866Y-94610984D01*
X151846650Y-94677865D01*
X151795275Y-94722382D01*
X151737267Y-94749431D01*
X151737265Y-94749432D01*
X151550858Y-94879954D01*
X151389954Y-95040858D01*
X151259432Y-95227265D01*
X151259431Y-95227267D01*
X151163261Y-95433502D01*
X151163258Y-95433511D01*
X151104366Y-95653302D01*
X151104364Y-95653313D01*
X151084532Y-95879998D01*
X151084532Y-95880001D01*
X151104364Y-96106686D01*
X151104366Y-96106697D01*
X151163258Y-96326488D01*
X151163261Y-96326497D01*
X151259431Y-96532732D01*
X151259432Y-96532734D01*
X151389954Y-96719141D01*
X151550858Y-96880045D01*
X151550861Y-96880047D01*
X151737266Y-97010568D01*
X151795275Y-97037618D01*
X151847714Y-97083791D01*
X151866866Y-97150984D01*
X151846650Y-97217865D01*
X151795275Y-97262382D01*
X151737267Y-97289431D01*
X151737265Y-97289432D01*
X151550858Y-97419954D01*
X151389954Y-97580858D01*
X151259432Y-97767265D01*
X151259431Y-97767267D01*
X151163261Y-97973502D01*
X151163258Y-97973511D01*
X151104366Y-98193302D01*
X151104364Y-98193313D01*
X151084532Y-98419998D01*
X151084532Y-98420001D01*
X151104364Y-98646686D01*
X151104366Y-98646697D01*
X151163258Y-98866488D01*
X151163261Y-98866497D01*
X151259431Y-99072732D01*
X151259432Y-99072734D01*
X151389954Y-99259141D01*
X151550858Y-99420045D01*
X151550861Y-99420047D01*
X151737266Y-99550568D01*
X151795275Y-99577618D01*
X151847714Y-99623791D01*
X151866866Y-99690984D01*
X151846650Y-99757865D01*
X151795275Y-99802382D01*
X151737267Y-99829431D01*
X151737265Y-99829432D01*
X151550858Y-99959954D01*
X151389954Y-100120858D01*
X151259432Y-100307265D01*
X151259431Y-100307267D01*
X151163261Y-100513502D01*
X151163258Y-100513511D01*
X151104366Y-100733302D01*
X151104364Y-100733313D01*
X151084532Y-100959998D01*
X151084532Y-100960001D01*
X151104364Y-101186686D01*
X151104366Y-101186697D01*
X151163258Y-101406488D01*
X151163261Y-101406497D01*
X151259431Y-101612732D01*
X151259432Y-101612734D01*
X151389954Y-101799141D01*
X151550858Y-101960045D01*
X151550861Y-101960047D01*
X151737266Y-102090568D01*
X151795275Y-102117618D01*
X151847714Y-102163791D01*
X151866866Y-102230984D01*
X151846650Y-102297865D01*
X151795275Y-102342381D01*
X151778272Y-102350310D01*
X151737267Y-102369431D01*
X151737265Y-102369432D01*
X151550858Y-102499954D01*
X151389954Y-102660858D01*
X151259432Y-102847264D01*
X151259429Y-102847269D01*
X151255107Y-102856539D01*
X151208933Y-102908976D01*
X151141739Y-102928126D01*
X151074858Y-102907908D01*
X151055046Y-102891811D01*
X149709119Y-101545884D01*
X149675634Y-101484561D01*
X149672800Y-101458203D01*
X149672800Y-91956612D01*
X149692485Y-91889573D01*
X149699855Y-91879297D01*
X149702110Y-91876467D01*
X149702116Y-91876462D01*
X149798089Y-91723722D01*
X149857668Y-91553455D01*
X149857669Y-91553449D01*
X149877865Y-91374203D01*
X149877865Y-91374196D01*
X149857669Y-91194950D01*
X149857668Y-91194945D01*
X149798795Y-91026697D01*
X149798089Y-91024678D01*
X149702116Y-90871938D01*
X149574562Y-90744384D01*
X149421823Y-90648411D01*
X149251554Y-90588831D01*
X149251550Y-90588830D01*
X149087816Y-90570382D01*
X149023402Y-90543315D01*
X148983847Y-90485720D01*
X148977700Y-90447162D01*
X148977700Y-90409696D01*
X148997385Y-90342657D01*
X149014015Y-90322019D01*
X149940335Y-89395698D01*
X150001656Y-89362215D01*
X150014111Y-89360163D01*
X150101055Y-89350368D01*
X150271322Y-89290789D01*
X150424062Y-89194816D01*
X150551616Y-89067262D01*
X150647589Y-88914522D01*
X150707168Y-88744255D01*
X150707169Y-88744249D01*
X150727365Y-88565003D01*
X150727365Y-88564996D01*
X150707169Y-88385750D01*
X150707168Y-88385745D01*
X150647588Y-88215476D01*
X150576450Y-88102261D01*
X150551616Y-88062738D01*
X150424062Y-87935184D01*
X150347790Y-87887259D01*
X150271323Y-87839211D01*
X150101054Y-87779631D01*
X150101049Y-87779630D01*
X149921804Y-87759435D01*
X149921796Y-87759435D01*
X149742550Y-87779630D01*
X149742545Y-87779631D01*
X149572276Y-87839211D01*
X149419537Y-87935184D01*
X149291984Y-88062737D01*
X149196010Y-88215478D01*
X149136430Y-88385750D01*
X149126637Y-88472668D01*
X149099570Y-88537082D01*
X149091098Y-88546465D01*
X148008486Y-89629078D01*
X147896681Y-89740882D01*
X147896679Y-89740884D01*
X147873576Y-89780902D01*
X147862577Y-89799953D01*
X147817623Y-89877815D01*
X147776699Y-90030543D01*
X147776699Y-90030545D01*
X147776699Y-90198646D01*
X147776700Y-90198659D01*
X147776700Y-102344068D01*
X147757015Y-102411107D01*
X147704211Y-102456862D01*
X147635053Y-102466806D01*
X147581578Y-102445644D01*
X147512457Y-102397246D01*
X147472734Y-102369432D01*
X147414876Y-102342452D01*
X147266497Y-102273261D01*
X147266488Y-102273258D01*
X147046697Y-102214366D01*
X147046693Y-102214365D01*
X147046692Y-102214365D01*
X147046691Y-102214364D01*
X147046686Y-102214364D01*
X146820002Y-102194532D01*
X146819998Y-102194532D01*
X146593313Y-102214364D01*
X146593302Y-102214366D01*
X146373511Y-102273258D01*
X146373502Y-102273261D01*
X146167267Y-102369431D01*
X146167265Y-102369432D01*
X145980858Y-102499954D01*
X145819954Y-102660858D01*
X145689432Y-102847265D01*
X145689431Y-102847267D01*
X145593261Y-103053502D01*
X145593258Y-103053511D01*
X145534366Y-103273302D01*
X145534364Y-103273313D01*
X145514532Y-103499998D01*
X145078500Y-103499998D01*
X145078500Y-80447412D01*
X145098185Y-80380373D01*
X145105555Y-80370097D01*
X145107810Y-80367267D01*
X145107816Y-80367262D01*
X145203789Y-80214522D01*
X145263368Y-80044255D01*
X145283565Y-79865000D01*
X145283091Y-79860797D01*
X145263369Y-79685750D01*
X145263368Y-79685745D01*
X145222638Y-79569345D01*
X145203789Y-79515478D01*
X145107816Y-79362738D01*
X144980262Y-79235184D01*
X144895627Y-79182004D01*
X144827523Y-79139211D01*
X144657254Y-79079631D01*
X144657249Y-79079630D01*
X144478004Y-79059435D01*
X144477996Y-79059435D01*
X144298750Y-79079630D01*
X144298745Y-79079631D01*
X144128474Y-79139212D01*
X144060371Y-79182004D01*
X143993135Y-79201004D01*
X143926299Y-79180636D01*
X143881086Y-79127368D01*
X143870400Y-79077010D01*
X143870400Y-75499997D01*
X145195034Y-75499997D01*
X145195034Y-75500002D01*
X145214858Y-75726599D01*
X145214860Y-75726610D01*
X145273730Y-75946317D01*
X145273735Y-75946331D01*
X145369863Y-76152478D01*
X145420974Y-76225472D01*
X146100000Y-75546446D01*
X146100000Y-75552661D01*
X146127259Y-75654394D01*
X146179920Y-75745606D01*
X146254394Y-75820080D01*
X146345606Y-75872741D01*
X146447339Y-75900000D01*
X146453553Y-75900000D01*
X145774526Y-76579025D01*
X145847513Y-76630132D01*
X145847521Y-76630136D01*
X146053668Y-76726264D01*
X146053682Y-76726269D01*
X146273389Y-76785139D01*
X146273400Y-76785141D01*
X146499998Y-76804966D01*
X146500002Y-76804966D01*
X146726599Y-76785141D01*
X146726610Y-76785139D01*
X146946317Y-76726269D01*
X146946331Y-76726264D01*
X147152478Y-76630136D01*
X147225471Y-76579024D01*
X146546447Y-75900000D01*
X146552661Y-75900000D01*
X146654394Y-75872741D01*
X146745606Y-75820080D01*
X146820080Y-75745606D01*
X146872741Y-75654394D01*
X146900000Y-75552661D01*
X146900000Y-75546447D01*
X147579024Y-76225471D01*
X147630136Y-76152478D01*
X147726264Y-75946331D01*
X147726269Y-75946317D01*
X147785139Y-75726610D01*
X147785141Y-75726599D01*
X147804966Y-75500002D01*
X147804966Y-75499997D01*
X147785141Y-75273400D01*
X147785139Y-75273389D01*
X147726269Y-75053682D01*
X147726264Y-75053668D01*
X147630136Y-74847521D01*
X147630132Y-74847513D01*
X147579025Y-74774526D01*
X146900000Y-75453551D01*
X146900000Y-75447339D01*
X146872741Y-75345606D01*
X146820080Y-75254394D01*
X146745606Y-75179920D01*
X146654394Y-75127259D01*
X146552661Y-75100000D01*
X146546445Y-75100000D01*
X147225472Y-74420974D01*
X147152478Y-74369863D01*
X146946331Y-74273735D01*
X146946317Y-74273730D01*
X146726610Y-74214860D01*
X146726599Y-74214858D01*
X146500002Y-74195034D01*
X146499998Y-74195034D01*
X146273400Y-74214858D01*
X146273389Y-74214860D01*
X146053682Y-74273730D01*
X146053673Y-74273734D01*
X145847516Y-74369866D01*
X145847512Y-74369868D01*
X145774526Y-74420973D01*
X145774526Y-74420974D01*
X146453553Y-75100000D01*
X146447339Y-75100000D01*
X146345606Y-75127259D01*
X146254394Y-75179920D01*
X146179920Y-75254394D01*
X146127259Y-75345606D01*
X146100000Y-75447339D01*
X146100000Y-75453552D01*
X145420974Y-74774526D01*
X145420973Y-74774526D01*
X145369868Y-74847512D01*
X145369866Y-74847516D01*
X145273734Y-75053673D01*
X145273730Y-75053682D01*
X145214860Y-75273389D01*
X145214858Y-75273400D01*
X145195034Y-75499997D01*
X143870400Y-75499997D01*
X143870400Y-72424245D01*
X143870400Y-72424243D01*
X143829477Y-72271516D01*
X143829477Y-72271515D01*
X143829477Y-72271514D01*
X143800539Y-72221395D01*
X143800537Y-72221392D01*
X143777137Y-72180861D01*
X143750420Y-72134584D01*
X143638616Y-72022780D01*
X143638615Y-72022779D01*
X143634285Y-72018449D01*
X143634274Y-72018439D01*
X143115191Y-71499356D01*
X143081706Y-71438033D01*
X143086690Y-71368341D01*
X143115194Y-71323991D01*
X143120047Y-71319139D01*
X143250568Y-71132734D01*
X143346739Y-70926496D01*
X143405635Y-70706692D01*
X143423718Y-70499998D01*
X145194532Y-70499998D01*
X145194532Y-70500001D01*
X145214364Y-70726686D01*
X145214366Y-70726697D01*
X145273258Y-70946488D01*
X145273261Y-70946497D01*
X145369431Y-71152732D01*
X145369432Y-71152734D01*
X145499954Y-71339141D01*
X145660858Y-71500045D01*
X145660861Y-71500047D01*
X145847266Y-71630568D01*
X146053504Y-71726739D01*
X146273308Y-71785635D01*
X146435230Y-71799801D01*
X146499998Y-71805468D01*
X146500000Y-71805468D01*
X146500002Y-71805468D01*
X146556673Y-71800509D01*
X146726692Y-71785635D01*
X146946496Y-71726739D01*
X147152734Y-71630568D01*
X147339139Y-71500047D01*
X147500047Y-71339139D01*
X147630568Y-71152734D01*
X147726739Y-70946496D01*
X147785635Y-70726692D01*
X147805468Y-70500000D01*
X147785635Y-70273308D01*
X147726739Y-70053504D01*
X147630568Y-69847266D01*
X147500047Y-69660861D01*
X147500045Y-69660858D01*
X147339141Y-69499954D01*
X147152734Y-69369432D01*
X147152732Y-69369431D01*
X146946497Y-69273261D01*
X146946488Y-69273258D01*
X146726697Y-69214366D01*
X146726693Y-69214365D01*
X146726692Y-69214365D01*
X146726691Y-69214364D01*
X146726686Y-69214364D01*
X146500002Y-69194532D01*
X146499998Y-69194532D01*
X146273313Y-69214364D01*
X146273302Y-69214366D01*
X146053511Y-69273258D01*
X146053502Y-69273261D01*
X145847267Y-69369431D01*
X145847265Y-69369432D01*
X145660858Y-69499954D01*
X145499954Y-69660858D01*
X145369432Y-69847265D01*
X145369431Y-69847267D01*
X145273261Y-70053502D01*
X145273258Y-70053511D01*
X145214366Y-70273302D01*
X145214364Y-70273313D01*
X145194532Y-70499998D01*
X143423718Y-70499998D01*
X143425468Y-70480000D01*
X143424710Y-70471341D01*
X143410883Y-70313294D01*
X143405635Y-70253308D01*
X143346739Y-70033504D01*
X143250568Y-69827266D01*
X143120047Y-69640861D01*
X143120045Y-69640858D01*
X142959141Y-69479954D01*
X142772734Y-69349432D01*
X142772732Y-69349431D01*
X142566497Y-69253261D01*
X142566488Y-69253258D01*
X142346697Y-69194366D01*
X142346693Y-69194365D01*
X142346692Y-69194365D01*
X142346691Y-69194364D01*
X142346686Y-69194364D01*
X142120002Y-69174532D01*
X142119998Y-69174532D01*
X141893313Y-69194364D01*
X141893302Y-69194366D01*
X141673511Y-69253258D01*
X141673502Y-69253261D01*
X141467267Y-69349431D01*
X141467265Y-69349432D01*
X141280858Y-69479954D01*
X141119954Y-69640858D01*
X140989432Y-69827265D01*
X140989431Y-69827267D01*
X140893261Y-70033502D01*
X140893258Y-70033511D01*
X140834366Y-70253302D01*
X140834364Y-70253313D01*
X140814532Y-70479998D01*
X140814532Y-70480001D01*
X140834364Y-70706686D01*
X140834366Y-70706697D01*
X140893258Y-70926488D01*
X140893261Y-70926497D01*
X140989431Y-71132732D01*
X140989432Y-71132734D01*
X141119954Y-71319141D01*
X141280858Y-71480045D01*
X141280861Y-71480047D01*
X141467266Y-71610568D01*
X141467278Y-71610573D01*
X141468661Y-71611372D01*
X141469155Y-71611890D01*
X141471701Y-71613673D01*
X141471342Y-71614184D01*
X141516880Y-71661935D01*
X141526443Y-71686671D01*
X141528964Y-71696077D01*
X141541236Y-71741879D01*
X141539573Y-71811729D01*
X141500409Y-71869591D01*
X141473875Y-71886349D01*
X141467270Y-71889429D01*
X141467268Y-71889430D01*
X141280858Y-72019954D01*
X141119954Y-72180858D01*
X140989432Y-72367265D01*
X140989431Y-72367267D01*
X140893261Y-72573502D01*
X140893258Y-72573511D01*
X140834366Y-72793302D01*
X140834364Y-72793313D01*
X140814532Y-73019998D01*
X140814532Y-73020001D01*
X140834364Y-73246686D01*
X140834366Y-73246697D01*
X140893258Y-73466488D01*
X140893261Y-73466497D01*
X140989431Y-73672732D01*
X140989432Y-73672734D01*
X141119954Y-73859141D01*
X141280858Y-74020045D01*
X141280861Y-74020047D01*
X141467266Y-74150568D01*
X141488186Y-74160323D01*
X141525275Y-74177618D01*
X141577714Y-74223791D01*
X141596866Y-74290984D01*
X141576650Y-74357865D01*
X141525275Y-74402382D01*
X141467267Y-74429431D01*
X141467265Y-74429432D01*
X141280858Y-74559954D01*
X141119954Y-74720858D01*
X140989432Y-74907265D01*
X140989431Y-74907267D01*
X140893261Y-75113502D01*
X140893258Y-75113511D01*
X140834366Y-75333302D01*
X140834364Y-75333313D01*
X140814532Y-75559998D01*
X140814532Y-75560001D01*
X140834364Y-75786686D01*
X140834366Y-75786697D01*
X140893258Y-76006488D01*
X140893261Y-76006497D01*
X140989431Y-76212732D01*
X140989432Y-76212734D01*
X141119954Y-76399141D01*
X141170107Y-76449294D01*
X141203592Y-76510617D01*
X141198608Y-76580309D01*
X141170107Y-76624656D01*
X140215086Y-77579678D01*
X140103281Y-77691482D01*
X140103279Y-77691485D01*
X140053161Y-77778294D01*
X140053159Y-77778296D01*
X140024225Y-77828409D01*
X140024224Y-77828410D01*
X140024223Y-77828415D01*
X139983299Y-77981143D01*
X139983299Y-77981145D01*
X139983299Y-78149246D01*
X139983300Y-78149259D01*
X139983300Y-118583730D01*
X139983299Y-118583748D01*
X139983299Y-118749454D01*
X139983298Y-118749454D01*
X136004641Y-118749454D01*
X136005468Y-118740000D01*
X135985635Y-118513308D01*
X135926739Y-118293504D01*
X135830568Y-118087266D01*
X135700047Y-117900861D01*
X135700045Y-117900858D01*
X135539141Y-117739954D01*
X135352734Y-117609432D01*
X135352728Y-117609429D01*
X135294725Y-117582382D01*
X135242285Y-117536210D01*
X135223133Y-117469017D01*
X135243348Y-117402135D01*
X135294725Y-117357618D01*
X135352734Y-117330568D01*
X135539139Y-117200047D01*
X135700047Y-117039139D01*
X135830568Y-116852734D01*
X135926739Y-116646496D01*
X135985635Y-116426692D01*
X136005468Y-116200000D01*
X135985635Y-115973308D01*
X135926739Y-115753504D01*
X135830568Y-115547266D01*
X135700047Y-115360861D01*
X135700045Y-115360858D01*
X135539141Y-115199954D01*
X135352734Y-115069432D01*
X135352728Y-115069429D01*
X135294725Y-115042382D01*
X135242285Y-114996210D01*
X135223133Y-114929017D01*
X135243348Y-114862135D01*
X135294725Y-114817618D01*
X135352734Y-114790568D01*
X135539139Y-114660047D01*
X135700047Y-114499139D01*
X135830568Y-114312734D01*
X135926739Y-114106496D01*
X135985635Y-113886692D01*
X136005468Y-113660000D01*
X135985635Y-113433308D01*
X135926739Y-113213504D01*
X135830568Y-113007266D01*
X135700047Y-112820861D01*
X135700045Y-112820858D01*
X135539141Y-112659954D01*
X135352734Y-112529432D01*
X135352728Y-112529429D01*
X135294725Y-112502382D01*
X135242285Y-112456210D01*
X135223133Y-112389017D01*
X135243348Y-112322135D01*
X135294725Y-112277618D01*
X135352734Y-112250568D01*
X135539139Y-112120047D01*
X135700047Y-111959139D01*
X135830568Y-111772734D01*
X135926739Y-111566496D01*
X135985635Y-111346692D01*
X136005468Y-111120000D01*
X135985635Y-110893308D01*
X135926739Y-110673504D01*
X135830568Y-110467266D01*
X135700047Y-110280861D01*
X135700045Y-110280858D01*
X135539141Y-110119954D01*
X135352734Y-109989432D01*
X135352728Y-109989429D01*
X135294725Y-109962382D01*
X135242285Y-109916210D01*
X135223133Y-109849017D01*
X135243348Y-109782135D01*
X135294725Y-109737618D01*
X135352734Y-109710568D01*
X135539139Y-109580047D01*
X135700047Y-109419139D01*
X135830568Y-109232734D01*
X135926739Y-109026496D01*
X135985635Y-108806692D01*
X136005468Y-108580000D01*
X135985635Y-108353308D01*
X135926739Y-108133504D01*
X135830568Y-107927266D01*
X135700047Y-107740861D01*
X135700045Y-107740858D01*
X135539141Y-107579954D01*
X135352734Y-107449432D01*
X135352728Y-107449429D01*
X135294725Y-107422382D01*
X135242285Y-107376210D01*
X135223133Y-107309017D01*
X135243348Y-107242135D01*
X135294725Y-107197618D01*
X135352734Y-107170568D01*
X135539139Y-107040047D01*
X135700047Y-106879139D01*
X135830568Y-106692734D01*
X135926739Y-106486496D01*
X135985635Y-106266692D01*
X136005468Y-106040000D01*
X135985635Y-105813308D01*
X135926739Y-105593504D01*
X135830568Y-105387266D01*
X135700047Y-105200861D01*
X135700045Y-105200858D01*
X135539143Y-105039956D01*
X135514536Y-105022726D01*
X135470912Y-104968149D01*
X135463719Y-104898650D01*
X135495241Y-104836296D01*
X135555471Y-104800882D01*
X135572404Y-104797861D01*
X135607483Y-104794091D01*
X135742331Y-104743796D01*
X135857546Y-104657546D01*
X135943796Y-104542331D01*
X135994091Y-104407483D01*
X136000500Y-104347873D01*
X136000499Y-102652128D01*
X135994091Y-102592517D01*
X135986800Y-102572970D01*
X135943797Y-102457671D01*
X135943793Y-102457664D01*
X135857547Y-102342455D01*
X135857544Y-102342452D01*
X135742335Y-102256206D01*
X135742328Y-102256202D01*
X135607482Y-102205908D01*
X135607483Y-102205908D01*
X135547883Y-102199501D01*
X135547881Y-102199500D01*
X135547873Y-102199500D01*
X135547865Y-102199500D01*
X133978578Y-102199500D01*
X133911539Y-102179815D01*
X133865784Y-102127011D01*
X133855840Y-102057853D01*
X133876144Y-102009655D01*
X133874757Y-102008855D01*
X133928892Y-101915088D01*
X133957877Y-101864884D01*
X133998800Y-101712157D01*
X133998800Y-89633163D01*
X134018485Y-89566124D01*
X134071289Y-89520369D01*
X134140447Y-89510425D01*
X134154894Y-89513388D01*
X134249999Y-89538871D01*
X134250000Y-89538871D01*
X134250000Y-88575686D01*
X134254394Y-88580080D01*
X134345606Y-88632741D01*
X134447339Y-88660000D01*
X134552661Y-88660000D01*
X134654394Y-88632741D01*
X134745606Y-88580080D01*
X134750000Y-88575686D01*
X134750000Y-89538872D01*
X134946317Y-89486269D01*
X134946326Y-89486265D01*
X135152482Y-89390134D01*
X135338820Y-89259657D01*
X135499657Y-89098820D01*
X135630134Y-88912482D01*
X135726265Y-88706326D01*
X135726269Y-88706317D01*
X135778872Y-88510000D01*
X134815686Y-88510000D01*
X134820080Y-88505606D01*
X134872741Y-88414394D01*
X134900000Y-88312661D01*
X134900000Y-88207339D01*
X134872741Y-88105606D01*
X134820080Y-88014394D01*
X134815686Y-88010000D01*
X135778872Y-88010000D01*
X135778872Y-88009999D01*
X135726269Y-87813682D01*
X135726265Y-87813673D01*
X135630134Y-87607517D01*
X135499657Y-87421179D01*
X135338820Y-87260342D01*
X135152480Y-87129864D01*
X135145997Y-87126841D01*
X135093560Y-87080666D01*
X135074411Y-87013471D01*
X135078632Y-86982369D01*
X135078695Y-86982135D01*
X135093556Y-86926668D01*
X135129919Y-86867011D01*
X135151346Y-86851368D01*
X135152715Y-86850576D01*
X135152734Y-86850568D01*
X135339139Y-86720047D01*
X135500047Y-86559139D01*
X135630568Y-86372734D01*
X135726739Y-86166496D01*
X135785635Y-85946692D01*
X135805468Y-85720000D01*
X135785635Y-85493308D01*
X135726739Y-85273504D01*
X135630568Y-85067266D01*
X135500047Y-84880861D01*
X135500045Y-84880858D01*
X135339141Y-84719954D01*
X135152734Y-84589432D01*
X135152728Y-84589429D01*
X135094882Y-84562455D01*
X135094724Y-84562381D01*
X135042285Y-84516210D01*
X135023133Y-84449017D01*
X135043348Y-84382135D01*
X135094725Y-84337618D01*
X135152734Y-84310568D01*
X135339139Y-84180047D01*
X135500047Y-84019139D01*
X135630568Y-83832734D01*
X135726739Y-83626496D01*
X135785635Y-83406692D01*
X135805468Y-83180000D01*
X135785635Y-82953308D01*
X135726739Y-82733504D01*
X135630568Y-82527266D01*
X135500047Y-82340861D01*
X135500045Y-82340858D01*
X135449891Y-82290704D01*
X135416406Y-82229381D01*
X135421390Y-82159689D01*
X135449889Y-82115344D01*
X135992806Y-81572428D01*
X135992811Y-81572424D01*
X136003014Y-81562220D01*
X136003016Y-81562220D01*
X136114820Y-81450416D01*
X136171188Y-81352783D01*
X136191928Y-81316861D01*
X136191929Y-81316859D01*
X136192230Y-81316337D01*
X136193877Y-81313485D01*
X136234800Y-81160758D01*
X136234800Y-81002643D01*
X136234800Y-77744160D01*
X136234801Y-77744147D01*
X136234801Y-77576044D01*
X136216358Y-77507214D01*
X136193877Y-77423316D01*
X136193873Y-77423309D01*
X136114824Y-77286390D01*
X136114818Y-77286382D01*
X135784646Y-76956210D01*
X135451490Y-76623055D01*
X135418006Y-76561733D01*
X135422990Y-76492042D01*
X135451490Y-76447694D01*
X135500047Y-76399139D01*
X135630568Y-76212734D01*
X135726739Y-76006496D01*
X135785635Y-75786692D01*
X135805468Y-75560000D01*
X135785635Y-75333308D01*
X135726739Y-75113504D01*
X135630568Y-74907266D01*
X135530573Y-74764457D01*
X135500045Y-74720858D01*
X135339141Y-74559954D01*
X135152734Y-74429432D01*
X135152728Y-74429429D01*
X135094725Y-74402382D01*
X135042285Y-74356210D01*
X135023133Y-74289017D01*
X135043348Y-74222135D01*
X135094725Y-74177618D01*
X135152734Y-74150568D01*
X135339139Y-74020047D01*
X135500047Y-73859139D01*
X135630568Y-73672734D01*
X135726739Y-73466496D01*
X135785635Y-73246692D01*
X135805468Y-73020000D01*
X135785635Y-72793308D01*
X135726739Y-72573504D01*
X135630568Y-72367266D01*
X135500047Y-72180861D01*
X135500045Y-72180858D01*
X135339143Y-72019956D01*
X135336976Y-72018439D01*
X135314535Y-72002725D01*
X135270912Y-71948149D01*
X135263719Y-71878650D01*
X135295241Y-71816296D01*
X135355471Y-71780882D01*
X135372404Y-71777861D01*
X135407483Y-71774091D01*
X135542331Y-71723796D01*
X135657546Y-71637546D01*
X135743796Y-71522331D01*
X135794091Y-71387483D01*
X135800500Y-71327873D01*
X135800499Y-69632128D01*
X135794091Y-69572517D01*
X135781917Y-69539878D01*
X135743797Y-69437671D01*
X135743793Y-69437664D01*
X135657547Y-69322455D01*
X135657544Y-69322452D01*
X135542335Y-69236206D01*
X135542328Y-69236202D01*
X135407482Y-69185908D01*
X135407483Y-69185908D01*
X135347883Y-69179501D01*
X135347881Y-69179500D01*
X135347873Y-69179500D01*
X135347864Y-69179500D01*
X133652129Y-69179500D01*
X133652123Y-69179501D01*
X133592516Y-69185908D01*
X133457671Y-69236202D01*
X133457664Y-69236206D01*
X133342455Y-69322452D01*
X133342452Y-69322455D01*
X133256206Y-69437664D01*
X133256202Y-69437671D01*
X133205908Y-69572517D01*
X133199501Y-69632116D01*
X133199501Y-69632123D01*
X133199500Y-69632135D01*
X133199500Y-69829787D01*
X133179815Y-69896826D01*
X133137500Y-69937174D01*
X133029587Y-69999477D01*
X133029582Y-69999481D01*
X132917781Y-70111282D01*
X132917775Y-70111290D01*
X132838726Y-70248209D01*
X132838723Y-70248216D01*
X132797800Y-70400943D01*
X132797800Y-70404302D01*
X132796998Y-70407031D01*
X132796739Y-70409003D01*
X132796431Y-70408962D01*
X132778115Y-70471341D01*
X132761481Y-70491983D01*
X130467465Y-72785998D01*
X130406142Y-72819483D01*
X130393668Y-72821537D01*
X130306750Y-72831330D01*
X130136478Y-72890910D01*
X129983737Y-72986884D01*
X129856184Y-73114437D01*
X129760211Y-73267176D01*
X129700631Y-73437445D01*
X129700630Y-73437450D01*
X129680435Y-73616696D01*
X129680435Y-73616703D01*
X129700630Y-73795949D01*
X129700631Y-73795954D01*
X129760211Y-73966223D01*
X129853435Y-74114588D01*
X129872435Y-74181825D01*
X129852067Y-74248660D01*
X129836122Y-74268241D01*
X125208875Y-78895488D01*
X125147552Y-78928973D01*
X125077860Y-78923989D01*
X125021927Y-78882117D01*
X124997510Y-78816653D01*
X125008811Y-78755405D01*
X125078233Y-78606531D01*
X125137133Y-78386710D01*
X125156968Y-78160000D01*
X125137133Y-77933290D01*
X125078233Y-77713469D01*
X124982055Y-77507216D01*
X124940078Y-77447267D01*
X124851526Y-77320801D01*
X124851521Y-77320795D01*
X124690604Y-77159878D01*
X124690598Y-77159873D01*
X124504185Y-77029345D01*
X124504183Y-77029344D01*
X124446362Y-77002382D01*
X124393923Y-76956210D01*
X124374771Y-76889016D01*
X124394987Y-76822135D01*
X124446362Y-76777618D01*
X124504184Y-76750655D01*
X124690603Y-76620123D01*
X124851523Y-76459203D01*
X124982055Y-76272784D01*
X125078233Y-76066531D01*
X125137133Y-75846710D01*
X125156968Y-75620000D01*
X125137133Y-75393290D01*
X125078233Y-75173469D01*
X124982055Y-74967216D01*
X124967431Y-74946331D01*
X124851526Y-74780801D01*
X124851521Y-74780795D01*
X124690604Y-74619878D01*
X124690598Y-74619873D01*
X124504185Y-74489345D01*
X124504183Y-74489344D01*
X124446362Y-74462382D01*
X124393923Y-74416210D01*
X124374771Y-74349016D01*
X124394987Y-74282135D01*
X124446362Y-74237618D01*
X124450814Y-74235542D01*
X124504184Y-74210655D01*
X124690603Y-74080123D01*
X124851523Y-73919203D01*
X124982055Y-73732784D01*
X125078233Y-73526531D01*
X125137133Y-73306710D01*
X125156968Y-73080000D01*
X125137133Y-72853290D01*
X125078233Y-72633469D01*
X124982055Y-72427216D01*
X124979973Y-72424243D01*
X124851526Y-72240801D01*
X124851521Y-72240795D01*
X124690604Y-72079878D01*
X124690598Y-72079873D01*
X124504185Y-71949345D01*
X124504183Y-71949344D01*
X124446362Y-71922382D01*
X124393923Y-71876210D01*
X124374771Y-71809016D01*
X124394987Y-71742135D01*
X124446362Y-71697618D01*
X124462868Y-71689921D01*
X124504184Y-71670655D01*
X124690603Y-71540123D01*
X124851523Y-71379203D01*
X124982055Y-71192784D01*
X125078233Y-70986531D01*
X125137133Y-70766710D01*
X125156968Y-70540000D01*
X125137133Y-70313290D01*
X125083008Y-70111290D01*
X125078235Y-70093476D01*
X125078234Y-70093475D01*
X125078233Y-70093469D01*
X124982055Y-69887216D01*
X124954082Y-69847267D01*
X124851526Y-69700801D01*
X124851521Y-69700795D01*
X124690604Y-69539878D01*
X124690598Y-69539873D01*
X124504185Y-69409345D01*
X124504183Y-69409344D01*
X124446362Y-69382382D01*
X124393923Y-69336210D01*
X124374771Y-69269016D01*
X124394987Y-69202135D01*
X124446362Y-69157618D01*
X124504184Y-69130655D01*
X124690603Y-69000123D01*
X124851523Y-68839203D01*
X124982055Y-68652784D01*
X125078233Y-68446531D01*
X125137133Y-68226710D01*
X125156968Y-68000000D01*
X125137133Y-67773290D01*
X125078233Y-67553469D01*
X124982055Y-67347216D01*
X124935222Y-67280332D01*
X124851526Y-67160801D01*
X124851521Y-67160795D01*
X124690604Y-66999878D01*
X124690598Y-66999873D01*
X124504185Y-66869345D01*
X124504183Y-66869344D01*
X124401057Y-66821256D01*
X124297931Y-66773167D01*
X124297927Y-66773166D01*
X124297923Y-66773164D01*
X124078115Y-66714268D01*
X124078105Y-66714266D01*
X123851401Y-66694432D01*
X123851399Y-66694432D01*
X123624694Y-66714266D01*
X123624684Y-66714268D01*
X123404876Y-66773164D01*
X123404867Y-66773168D01*
X123198616Y-66869344D01*
X123198614Y-66869345D01*
X123012201Y-66999873D01*
X123012195Y-66999878D01*
X122851278Y-67160795D01*
X122851273Y-67160801D01*
X122720745Y-67347214D01*
X122720744Y-67347216D01*
X122624568Y-67553467D01*
X122624564Y-67553476D01*
X122565668Y-67773284D01*
X122565666Y-67773294D01*
X122545832Y-67999999D01*
X122545832Y-68000000D01*
X122565666Y-68226705D01*
X122565668Y-68226715D01*
X122624564Y-68446523D01*
X122624566Y-68446527D01*
X122624567Y-68446531D01*
X122672656Y-68549657D01*
X122720744Y-68652783D01*
X122720745Y-68652785D01*
X122851273Y-68839198D01*
X122851278Y-68839204D01*
X123012195Y-69000121D01*
X123012201Y-69000126D01*
X123198614Y-69130654D01*
X123198616Y-69130655D01*
X123256437Y-69157618D01*
X123308876Y-69203791D01*
X123328028Y-69270984D01*
X123307812Y-69337866D01*
X123256437Y-69382382D01*
X123198616Y-69409344D01*
X123198614Y-69409345D01*
X123012201Y-69539873D01*
X123012195Y-69539878D01*
X122851278Y-69700795D01*
X122851273Y-69700801D01*
X122720745Y-69887214D01*
X122720744Y-69887216D01*
X122624568Y-70093467D01*
X122624564Y-70093476D01*
X122565668Y-70313284D01*
X122565666Y-70313294D01*
X122545832Y-70539999D01*
X122545832Y-70540000D01*
X122565666Y-70766705D01*
X122565668Y-70766715D01*
X122624564Y-70986523D01*
X122624566Y-70986527D01*
X122624567Y-70986531D01*
X122655862Y-71053643D01*
X122720744Y-71192783D01*
X122720745Y-71192785D01*
X122851273Y-71379198D01*
X122851278Y-71379204D01*
X123012195Y-71540121D01*
X123012201Y-71540126D01*
X123198614Y-71670654D01*
X123198616Y-71670655D01*
X123256437Y-71697618D01*
X123308876Y-71743791D01*
X123328028Y-71810984D01*
X123307812Y-71877866D01*
X123256437Y-71922382D01*
X123198616Y-71949344D01*
X123198614Y-71949345D01*
X123012201Y-72079873D01*
X123012195Y-72079878D01*
X122851278Y-72240795D01*
X122851273Y-72240801D01*
X122720745Y-72427214D01*
X122720744Y-72427216D01*
X122624568Y-72633467D01*
X122624564Y-72633476D01*
X122565668Y-72853284D01*
X122565666Y-72853294D01*
X122545832Y-73079999D01*
X122545832Y-73080000D01*
X122565666Y-73306705D01*
X122565668Y-73306715D01*
X122624564Y-73526523D01*
X122624566Y-73526527D01*
X122624567Y-73526531D01*
X122655337Y-73592517D01*
X122720744Y-73732783D01*
X122720745Y-73732785D01*
X122851273Y-73919198D01*
X122851278Y-73919204D01*
X123012195Y-74080121D01*
X123012201Y-74080126D01*
X123198614Y-74210654D01*
X123198616Y-74210655D01*
X123256437Y-74237618D01*
X123308876Y-74283791D01*
X123328028Y-74350984D01*
X123307812Y-74417866D01*
X123256437Y-74462382D01*
X123198616Y-74489344D01*
X123198614Y-74489345D01*
X123012201Y-74619873D01*
X123012195Y-74619878D01*
X122851278Y-74780795D01*
X122851273Y-74780801D01*
X122720745Y-74967214D01*
X122720744Y-74967216D01*
X122624568Y-75173467D01*
X122624564Y-75173476D01*
X122565668Y-75393284D01*
X122565666Y-75393294D01*
X122545832Y-75619999D01*
X122545832Y-75620000D01*
X122565666Y-75846705D01*
X122565668Y-75846715D01*
X122624564Y-76066523D01*
X122624566Y-76066527D01*
X122624567Y-76066531D01*
X122664645Y-76152478D01*
X122720744Y-76272783D01*
X122720745Y-76272785D01*
X122851273Y-76459198D01*
X122851278Y-76459204D01*
X123012195Y-76620121D01*
X123012201Y-76620126D01*
X123198614Y-76750654D01*
X123198616Y-76750655D01*
X123256437Y-76777618D01*
X123308876Y-76823791D01*
X123328028Y-76890984D01*
X123307812Y-76957866D01*
X123256437Y-77002382D01*
X123198616Y-77029344D01*
X123198614Y-77029345D01*
X123012201Y-77159873D01*
X123012195Y-77159878D01*
X122851278Y-77320795D01*
X122851273Y-77320801D01*
X122720745Y-77507214D01*
X122720744Y-77507216D01*
X122624568Y-77713467D01*
X122624564Y-77713476D01*
X122565668Y-77933284D01*
X122565666Y-77933294D01*
X122545832Y-78159999D01*
X122545832Y-78160000D01*
X122565666Y-78386705D01*
X122565668Y-78386715D01*
X122624564Y-78606523D01*
X122624566Y-78606527D01*
X122624567Y-78606531D01*
X122672656Y-78709657D01*
X122720744Y-78812783D01*
X122720745Y-78812785D01*
X122851273Y-78999198D01*
X122851278Y-78999204D01*
X123012195Y-79160121D01*
X123012201Y-79160126D01*
X123198614Y-79290654D01*
X123198616Y-79290655D01*
X123256437Y-79317618D01*
X123308876Y-79363791D01*
X123328028Y-79430984D01*
X123307812Y-79497866D01*
X123256437Y-79542382D01*
X123198616Y-79569344D01*
X123198614Y-79569345D01*
X123012201Y-79699873D01*
X123012195Y-79699878D01*
X122851278Y-79860795D01*
X122851273Y-79860801D01*
X122720745Y-80047214D01*
X122720744Y-80047216D01*
X122624568Y-80253467D01*
X122624564Y-80253476D01*
X122565668Y-80473284D01*
X122565666Y-80473294D01*
X122545832Y-80699999D01*
X122545832Y-80700000D01*
X122565666Y-80926705D01*
X122565668Y-80926715D01*
X122624564Y-81146523D01*
X122624566Y-81146527D01*
X122624567Y-81146531D01*
X122659608Y-81221676D01*
X122720744Y-81352783D01*
X122720745Y-81352785D01*
X122851273Y-81539198D01*
X122851278Y-81539204D01*
X123012195Y-81700121D01*
X123012201Y-81700126D01*
X123198614Y-81830654D01*
X123198616Y-81830655D01*
X123256437Y-81857618D01*
X123308876Y-81903791D01*
X123328028Y-81970984D01*
X123307812Y-82037866D01*
X123256437Y-82082382D01*
X123198616Y-82109344D01*
X123198614Y-82109345D01*
X123012201Y-82239873D01*
X123012195Y-82239878D01*
X122851278Y-82400795D01*
X122851273Y-82400801D01*
X122720745Y-82587214D01*
X122720744Y-82587216D01*
X122624568Y-82793467D01*
X122624564Y-82793476D01*
X122565668Y-83013284D01*
X122565666Y-83013294D01*
X122545832Y-83239999D01*
X122545832Y-83240000D01*
X122565666Y-83466705D01*
X122565668Y-83466715D01*
X122624564Y-83686523D01*
X122624566Y-83686527D01*
X122624567Y-83686531D01*
X122672656Y-83789657D01*
X122720744Y-83892783D01*
X122720745Y-83892785D01*
X122851273Y-84079198D01*
X122851278Y-84079204D01*
X123012195Y-84240121D01*
X123012201Y-84240126D01*
X123198614Y-84370654D01*
X123198616Y-84370655D01*
X123256437Y-84397618D01*
X123308876Y-84443791D01*
X123328028Y-84510984D01*
X123307812Y-84577866D01*
X123256437Y-84622382D01*
X123198616Y-84649344D01*
X123198614Y-84649345D01*
X123012201Y-84779873D01*
X123012195Y-84779878D01*
X122851278Y-84940795D01*
X122851273Y-84940801D01*
X122720745Y-85127214D01*
X122720744Y-85127216D01*
X122624568Y-85333467D01*
X122624564Y-85333476D01*
X122565668Y-85553284D01*
X122565666Y-85553294D01*
X122545832Y-85779999D01*
X122545832Y-85780000D01*
X122565666Y-86006705D01*
X122565668Y-86006715D01*
X122624564Y-86226523D01*
X122624566Y-86226527D01*
X122624567Y-86226531D01*
X122672656Y-86329657D01*
X122720744Y-86432783D01*
X122720745Y-86432785D01*
X122851273Y-86619198D01*
X122851278Y-86619204D01*
X123012195Y-86780121D01*
X123012201Y-86780126D01*
X123198614Y-86910654D01*
X123198616Y-86910655D01*
X123256437Y-86937618D01*
X123308876Y-86983791D01*
X123328028Y-87050984D01*
X123307812Y-87117866D01*
X123256437Y-87162382D01*
X123198616Y-87189344D01*
X123198614Y-87189345D01*
X123012201Y-87319873D01*
X123012195Y-87319878D01*
X122851278Y-87480795D01*
X122851273Y-87480801D01*
X122720745Y-87667214D01*
X122720744Y-87667216D01*
X122624568Y-87873467D01*
X122624564Y-87873476D01*
X122565668Y-88093284D01*
X122565666Y-88093294D01*
X122545832Y-88319999D01*
X122545832Y-88320000D01*
X122565666Y-88546705D01*
X122565668Y-88546715D01*
X122624564Y-88766523D01*
X122624566Y-88766527D01*
X122624567Y-88766531D01*
X122666530Y-88856520D01*
X122720744Y-88972783D01*
X122720745Y-88972785D01*
X122851273Y-89159198D01*
X122851278Y-89159204D01*
X123012195Y-89320121D01*
X123012201Y-89320126D01*
X123198614Y-89450654D01*
X123198616Y-89450655D01*
X123257030Y-89477894D01*
X123309469Y-89524066D01*
X123328621Y-89591260D01*
X123308405Y-89658141D01*
X123257030Y-89702658D01*
X123198864Y-89729781D01*
X123125854Y-89780901D01*
X123684350Y-90339396D01*
X123640613Y-90351116D01*
X123516087Y-90423011D01*
X123414411Y-90524687D01*
X123342516Y-90649213D01*
X123330796Y-90692949D01*
X122772301Y-90134454D01*
X122721181Y-90207464D01*
X122625040Y-90413639D01*
X122625036Y-90413648D01*
X122566162Y-90633372D01*
X122566160Y-90633382D01*
X122546334Y-90859999D01*
X122546334Y-90860000D01*
X122566160Y-91086617D01*
X122566162Y-91086627D01*
X122625036Y-91306351D01*
X122625040Y-91306360D01*
X122721182Y-91512536D01*
X122772301Y-91585543D01*
X122772302Y-91585544D01*
X123330796Y-91027050D01*
X123342516Y-91070787D01*
X123414411Y-91195313D01*
X123516087Y-91296989D01*
X123640613Y-91368884D01*
X123684349Y-91380603D01*
X123125854Y-91939096D01*
X123198864Y-91990218D01*
X123257029Y-92017340D01*
X123309469Y-92063512D01*
X123328621Y-92130706D01*
X123308406Y-92197587D01*
X123257031Y-92242105D01*
X123198613Y-92269346D01*
X123012201Y-92399873D01*
X123012195Y-92399878D01*
X122851278Y-92560795D01*
X122851273Y-92560801D01*
X122720745Y-92747214D01*
X122720744Y-92747216D01*
X122624568Y-92953467D01*
X122624564Y-92953476D01*
X122565668Y-93173284D01*
X122565666Y-93173294D01*
X122545832Y-93399999D01*
X122545832Y-93400000D01*
X122565666Y-93626705D01*
X122565668Y-93626715D01*
X122624564Y-93846523D01*
X122624566Y-93846527D01*
X122624567Y-93846531D01*
X122653643Y-93908884D01*
X122720744Y-94052783D01*
X122720745Y-94052785D01*
X122851273Y-94239198D01*
X122851278Y-94239204D01*
X123012195Y-94400121D01*
X123012201Y-94400126D01*
X123198614Y-94530654D01*
X123198616Y-94530655D01*
X123256437Y-94557618D01*
X123308876Y-94603791D01*
X123328028Y-94670984D01*
X123307812Y-94737866D01*
X123256437Y-94782382D01*
X123198616Y-94809344D01*
X123198614Y-94809345D01*
X123012201Y-94939873D01*
X123012195Y-94939878D01*
X122851278Y-95100795D01*
X122851273Y-95100801D01*
X122720745Y-95287214D01*
X122720744Y-95287216D01*
X122624568Y-95493467D01*
X122624564Y-95493476D01*
X122565668Y-95713284D01*
X122565666Y-95713294D01*
X122545832Y-95939999D01*
X122545832Y-95940000D01*
X122565666Y-96166705D01*
X122565668Y-96166715D01*
X122624564Y-96386523D01*
X122624566Y-96386527D01*
X122624567Y-96386531D01*
X122672656Y-96489657D01*
X122720744Y-96592783D01*
X122720745Y-96592785D01*
X122851273Y-96779198D01*
X122851278Y-96779204D01*
X123012195Y-96940121D01*
X123012201Y-96940126D01*
X123198614Y-97070654D01*
X123198616Y-97070655D01*
X123256437Y-97097618D01*
X123308876Y-97143791D01*
X123328028Y-97210984D01*
X123307812Y-97277866D01*
X123256437Y-97322382D01*
X123198616Y-97349344D01*
X123198614Y-97349345D01*
X123012201Y-97479873D01*
X123012195Y-97479878D01*
X122851278Y-97640795D01*
X122851273Y-97640801D01*
X122720745Y-97827214D01*
X122720744Y-97827216D01*
X122624568Y-98033467D01*
X122624564Y-98033476D01*
X122565668Y-98253284D01*
X122565666Y-98253294D01*
X122545832Y-98479999D01*
X122545832Y-98480000D01*
X122565666Y-98706705D01*
X122565667Y-98706710D01*
X122591470Y-98803011D01*
X122597418Y-98825207D01*
X122595755Y-98895057D01*
X122556592Y-98952919D01*
X122492364Y-98980423D01*
X122477643Y-98981300D01*
X120401898Y-98981300D01*
X120334859Y-98961615D01*
X120314217Y-98944981D01*
X120292022Y-98922786D01*
X120258537Y-98861463D01*
X120259927Y-98803016D01*
X120285733Y-98706710D01*
X120305568Y-98480000D01*
X120285733Y-98253290D01*
X120226833Y-98033469D01*
X120130655Y-97827216D01*
X120088678Y-97767267D01*
X120000126Y-97640801D01*
X120000121Y-97640795D01*
X119839204Y-97479878D01*
X119839198Y-97479873D01*
X119652785Y-97349345D01*
X119652783Y-97349344D01*
X119594962Y-97322382D01*
X119542523Y-97276210D01*
X119523371Y-97209016D01*
X119543587Y-97142135D01*
X119594962Y-97097618D01*
X119652784Y-97070655D01*
X119839203Y-96940123D01*
X120000123Y-96779203D01*
X120130655Y-96592784D01*
X120226833Y-96386531D01*
X120285733Y-96166710D01*
X120305568Y-95940000D01*
X120285733Y-95713290D01*
X120226833Y-95493469D01*
X120130655Y-95287216D01*
X120088678Y-95227267D01*
X120000126Y-95100801D01*
X120000121Y-95100795D01*
X119839204Y-94939878D01*
X119839198Y-94939873D01*
X119652786Y-94809346D01*
X119594369Y-94782105D01*
X119541930Y-94735932D01*
X119522779Y-94668738D01*
X119542996Y-94601857D01*
X119594372Y-94557340D01*
X119652531Y-94530220D01*
X119725544Y-94479096D01*
X119167050Y-93920603D01*
X119210787Y-93908884D01*
X119335313Y-93836989D01*
X119436989Y-93735313D01*
X119508884Y-93610787D01*
X119520603Y-93567051D01*
X120079096Y-94125544D01*
X120130221Y-94052530D01*
X120226359Y-93846360D01*
X120226363Y-93846351D01*
X120285237Y-93626627D01*
X120285239Y-93626617D01*
X120305066Y-93400000D01*
X120305066Y-93399999D01*
X120285239Y-93173382D01*
X120285237Y-93173372D01*
X120226363Y-92953648D01*
X120226359Y-92953639D01*
X120130220Y-92747468D01*
X120130219Y-92747466D01*
X120079096Y-92674455D01*
X120079096Y-92674454D01*
X119520602Y-93232948D01*
X119508884Y-93189213D01*
X119436989Y-93064687D01*
X119335313Y-92963011D01*
X119210787Y-92891116D01*
X119167049Y-92879396D01*
X119725544Y-92320902D01*
X119725543Y-92320901D01*
X119652536Y-92269782D01*
X119593777Y-92242382D01*
X119541338Y-92196210D01*
X119522186Y-92129016D01*
X119542402Y-92062135D01*
X119593778Y-92017617D01*
X119652532Y-91990219D01*
X119725544Y-91939096D01*
X119167050Y-91380603D01*
X119210787Y-91368884D01*
X119335313Y-91296989D01*
X119436989Y-91195313D01*
X119508884Y-91070787D01*
X119520603Y-91027051D01*
X120079096Y-91585544D01*
X120130221Y-91512530D01*
X120226359Y-91306360D01*
X120226363Y-91306351D01*
X120285237Y-91086627D01*
X120285239Y-91086617D01*
X120305066Y-90860000D01*
X120305066Y-90859999D01*
X120285239Y-90633382D01*
X120285237Y-90633372D01*
X120226363Y-90413648D01*
X120226359Y-90413639D01*
X120130220Y-90207468D01*
X120130219Y-90207466D01*
X120079096Y-90134455D01*
X120079096Y-90134454D01*
X119520602Y-90692948D01*
X119508884Y-90649213D01*
X119436989Y-90524687D01*
X119335313Y-90423011D01*
X119210787Y-90351116D01*
X119167049Y-90339396D01*
X119725544Y-89780902D01*
X119725543Y-89780901D01*
X119652536Y-89729782D01*
X119594369Y-89702658D01*
X119541930Y-89656486D01*
X119522778Y-89589292D01*
X119542994Y-89522411D01*
X119594367Y-89477895D01*
X119652784Y-89450655D01*
X119839203Y-89320123D01*
X120000123Y-89159203D01*
X120130655Y-88972784D01*
X120226833Y-88766531D01*
X120285733Y-88546710D01*
X120305568Y-88320000D01*
X120285733Y-88093290D01*
X120226833Y-87873469D01*
X120130655Y-87667216D01*
X120088853Y-87607517D01*
X120000126Y-87480801D01*
X120000121Y-87480795D01*
X119839204Y-87319878D01*
X119839198Y-87319873D01*
X119652785Y-87189345D01*
X119652783Y-87189344D01*
X119594962Y-87162382D01*
X119542523Y-87116210D01*
X119523371Y-87049016D01*
X119543587Y-86982135D01*
X119594962Y-86937618D01*
X119652784Y-86910655D01*
X119839203Y-86780123D01*
X120000123Y-86619203D01*
X120130655Y-86432784D01*
X120226833Y-86226531D01*
X120285733Y-86006710D01*
X120305568Y-85780000D01*
X120285733Y-85553290D01*
X120226833Y-85333469D01*
X120130655Y-85127216D01*
X120088678Y-85067267D01*
X120000126Y-84940801D01*
X120000121Y-84940795D01*
X119839204Y-84779878D01*
X119839198Y-84779873D01*
X119652785Y-84649345D01*
X119652783Y-84649344D01*
X119594962Y-84622382D01*
X119542523Y-84576210D01*
X119523371Y-84509016D01*
X119543587Y-84442135D01*
X119594962Y-84397618D01*
X119652784Y-84370655D01*
X119839203Y-84240123D01*
X120000123Y-84079203D01*
X120130655Y-83892784D01*
X120226833Y-83686531D01*
X120285733Y-83466710D01*
X120305568Y-83240000D01*
X120285733Y-83013290D01*
X120226833Y-82793469D01*
X120130655Y-82587216D01*
X120088678Y-82527267D01*
X120000126Y-82400801D01*
X120000121Y-82400795D01*
X119839204Y-82239878D01*
X119839198Y-82239873D01*
X119652785Y-82109345D01*
X119652783Y-82109344D01*
X119594962Y-82082382D01*
X119542523Y-82036210D01*
X119523371Y-81969016D01*
X119543587Y-81902135D01*
X119594962Y-81857618D01*
X119618770Y-81846516D01*
X119652784Y-81830655D01*
X119839203Y-81700123D01*
X120000123Y-81539203D01*
X120130655Y-81352784D01*
X120226833Y-81146531D01*
X120285733Y-80926710D01*
X120305568Y-80700000D01*
X120305325Y-80697228D01*
X120285733Y-80473294D01*
X120285733Y-80473290D01*
X120226833Y-80253469D01*
X120130655Y-80047216D01*
X120128577Y-80044249D01*
X120000126Y-79860801D01*
X120000121Y-79860795D01*
X119839204Y-79699878D01*
X119839198Y-79699873D01*
X119652785Y-79569345D01*
X119652783Y-79569344D01*
X119594962Y-79542382D01*
X119542523Y-79496210D01*
X119523371Y-79429016D01*
X119543587Y-79362135D01*
X119594962Y-79317618D01*
X119652784Y-79290655D01*
X119839203Y-79160123D01*
X120000123Y-78999203D01*
X120130655Y-78812784D01*
X120226833Y-78606531D01*
X120285733Y-78386710D01*
X120305568Y-78160000D01*
X120285733Y-77933290D01*
X120226833Y-77713469D01*
X120130655Y-77507216D01*
X120088678Y-77447267D01*
X120000126Y-77320801D01*
X120000121Y-77320795D01*
X119839204Y-77159878D01*
X119839198Y-77159873D01*
X119652785Y-77029345D01*
X119652783Y-77029344D01*
X119594962Y-77002382D01*
X119542523Y-76956210D01*
X119523371Y-76889016D01*
X119543587Y-76822135D01*
X119594962Y-76777618D01*
X119652784Y-76750655D01*
X119839203Y-76620123D01*
X120000123Y-76459203D01*
X120130655Y-76272784D01*
X120226833Y-76066531D01*
X120285733Y-75846710D01*
X120305568Y-75620000D01*
X120285733Y-75393290D01*
X120226833Y-75173469D01*
X120130655Y-74967216D01*
X120116031Y-74946331D01*
X120000126Y-74780801D01*
X120000121Y-74780795D01*
X119839204Y-74619878D01*
X119839198Y-74619873D01*
X119652785Y-74489345D01*
X119652783Y-74489344D01*
X119594962Y-74462382D01*
X119542523Y-74416210D01*
X119523371Y-74349016D01*
X119543587Y-74282135D01*
X119594962Y-74237618D01*
X119599414Y-74235542D01*
X119652784Y-74210655D01*
X119839203Y-74080123D01*
X120000123Y-73919203D01*
X120130655Y-73732784D01*
X120226833Y-73526531D01*
X120285733Y-73306710D01*
X120305568Y-73080000D01*
X120285733Y-72853290D01*
X120226833Y-72633469D01*
X120130655Y-72427216D01*
X120128573Y-72424243D01*
X120000126Y-72240801D01*
X120000121Y-72240795D01*
X119839204Y-72079878D01*
X119839198Y-72079873D01*
X119652785Y-71949345D01*
X119652783Y-71949344D01*
X119594962Y-71922382D01*
X119542523Y-71876210D01*
X119523371Y-71809016D01*
X119543587Y-71742135D01*
X119594962Y-71697618D01*
X119611468Y-71689921D01*
X119652784Y-71670655D01*
X119839203Y-71540123D01*
X120000123Y-71379203D01*
X120130655Y-71192784D01*
X120226833Y-70986531D01*
X120285733Y-70766710D01*
X120305568Y-70540000D01*
X120285733Y-70313290D01*
X120231608Y-70111290D01*
X120226835Y-70093476D01*
X120226834Y-70093475D01*
X120226833Y-70093469D01*
X120130655Y-69887216D01*
X120102682Y-69847267D01*
X120000126Y-69700801D01*
X120000121Y-69700795D01*
X119839204Y-69539878D01*
X119839198Y-69539873D01*
X119652785Y-69409345D01*
X119652783Y-69409344D01*
X119594962Y-69382382D01*
X119542523Y-69336210D01*
X119523371Y-69269016D01*
X119543587Y-69202135D01*
X119594962Y-69157618D01*
X119652784Y-69130655D01*
X119839203Y-69000123D01*
X120000123Y-68839203D01*
X120130655Y-68652784D01*
X120226833Y-68446531D01*
X120285733Y-68226710D01*
X120305568Y-68000000D01*
X120285733Y-67773290D01*
X120226833Y-67553469D01*
X120130655Y-67347216D01*
X120083822Y-67280332D01*
X120000126Y-67160801D01*
X120000121Y-67160795D01*
X119839204Y-66999878D01*
X119839198Y-66999873D01*
X119652785Y-66869345D01*
X119652783Y-66869344D01*
X119549657Y-66821256D01*
X119446531Y-66773167D01*
X119446527Y-66773166D01*
X119446523Y-66773164D01*
X119226715Y-66714268D01*
X119226705Y-66714266D01*
X119000001Y-66694432D01*
X118999999Y-66694432D01*
X118773294Y-66714266D01*
X118773284Y-66714268D01*
X118553476Y-66773164D01*
X118553467Y-66773168D01*
X118347216Y-66869344D01*
X118347214Y-66869345D01*
X118160801Y-66999873D01*
X118160795Y-66999878D01*
X117999878Y-67160795D01*
X117999873Y-67160801D01*
X117869345Y-67347214D01*
X117869344Y-67347216D01*
X117773168Y-67553467D01*
X117773164Y-67553476D01*
X117714268Y-67773284D01*
X117714266Y-67773294D01*
X117694432Y-67999999D01*
X111550500Y-67999999D01*
X111550500Y-61889500D01*
X111570185Y-61822461D01*
X111622989Y-61776706D01*
X111674500Y-61765500D01*
X170825500Y-61765500D01*
X170892539Y-61785185D01*
G37*
%TD.AperFunction*%
%TD*%
M02*
