M48
; DRILL file {KiCad 8.0.9-8.0.9-0~ubuntu22.04.1} date 2026-07-13T13:08:40-0700
; FORMAT={-:-/ absolute / inch / decimal}
; #@! TF.CreationDate,2026-07-13T13:08:40-07:00
; #@! TF.GenerationSoftware,Kicad,Pcbnew,8.0.9-8.0.9-0~ubuntu22.04.1
; #@! TF.FileFunction,Plated,1,2,PTH
FMAT,2
INCH
; #@! TA.AperFunction,Plated,PTH,ViaDrill
T1C0.0118
; #@! TA.AperFunction,Plated,PTH,ComponentDrill
T2C0.0276
; #@! TA.AperFunction,Plated,PTH,ComponentDrill
T3C0.0315
; #@! TA.AperFunction,Plated,PTH,ComponentDrill
T4C0.0394
; #@! TA.AperFunction,Plated,PTH,ComponentDrill
T5C0.0430
%
G90
G05
T1
X4.54Y-3.2
X4.7141Y-2.863
X4.7461Y-3.756
X5.4254Y-2.9663
X5.484Y-4.1817
X5.6324Y-2.9627
X5.6634Y-3.2124
X5.7112Y-3.1205
X6.3296Y-2.3898
X6.4489Y-2.9774
T2
X5.5374Y-4.1635
X5.5374Y-4.4635
T3
X5.0453Y-2.4635
X5.0453Y-2.5635
X5.0453Y-2.6635
X5.0453Y-2.7635
X5.0453Y-2.8635
X5.0453Y-2.9635
X5.0453Y-3.0635
X5.0453Y-3.1635
X5.0531Y-3.7635
X5.0531Y-3.8635
X5.0531Y-3.9635
X5.0531Y-4.0635
X5.0531Y-4.1635
X5.0531Y-4.2635
X5.0531Y-4.3635
X5.0531Y-4.4635
X5.3453Y-2.4635
X5.3453Y-2.5635
X5.3453Y-2.6635
X5.3453Y-2.7635
X5.3453Y-2.8635
X5.3453Y-2.9635
X5.3453Y-3.0635
X5.3453Y-3.1635
X5.3531Y-3.7635
X5.3531Y-3.8635
X5.3531Y-3.9635
X5.3531Y-4.0635
X5.3531Y-4.1635
X5.3531Y-4.2635
X5.3531Y-4.3635
X5.3531Y-4.4635
X5.5177Y-2.4643
X5.5177Y-2.6612
X5.5303Y-3.7635
X5.5303Y-3.9604
X6.1921Y-2.6218
X6.2709Y-2.6218
T4
X5.7496Y-3.0635
X5.7496Y-3.1635
X5.7496Y-3.2635
X5.7496Y-3.3635
X5.7496Y-3.4635
X5.7496Y-3.5635
X5.7496Y-3.6635
X5.7496Y-3.7635
X5.7496Y-3.8635
X5.7496Y-3.9635
X5.7496Y-4.0635
X5.7496Y-4.1635
X5.7496Y-4.2635
X5.7496Y-4.3635
X5.7496Y-4.4635
X6.3496Y-3.0635
X6.3496Y-3.1635
X6.3496Y-3.2635
X6.3496Y-3.3635
X6.3496Y-3.4635
X6.3496Y-3.5635
X6.3496Y-3.6635
X6.3496Y-3.7635
X6.3496Y-3.8635
X6.3496Y-3.9635
X6.3496Y-4.0635
X6.3496Y-4.1635
X6.3496Y-4.2635
X6.3496Y-4.3635
X6.3496Y-4.4635
T5
X4.435Y-2.3659
X4.435Y-2.4659
X4.435Y-2.5659
X4.435Y-2.6659
X4.435Y-2.7659
X4.435Y-2.8659
X4.435Y-2.9659
X4.435Y-3.0659
X4.435Y-3.1659
X4.435Y-3.2659
X4.435Y-3.3659
X4.435Y-3.4659
X4.435Y-3.5659
X4.435Y-3.6659
X4.435Y-3.7659
X4.435Y-3.8659
X4.435Y-3.9659
X4.435Y-4.0659
X4.435Y-4.1659
X4.435Y-4.2659
X4.435Y-4.3659
X4.435Y-4.4659
X4.435Y-4.5659
X4.435Y-4.6659
X4.435Y-4.7659
X4.626Y-2.3659
X4.626Y-2.4659
X4.626Y-2.5659
X4.626Y-2.6659
X4.626Y-2.7659
X4.626Y-2.8659
X4.626Y-2.9659
X4.626Y-3.0659
X4.626Y-3.1659
X4.626Y-3.2659
X4.626Y-3.3659
X4.626Y-3.4659
X4.626Y-3.5659
X4.626Y-3.6659
X4.626Y-3.7659
X4.626Y-3.8659
X4.626Y-3.9659
X4.626Y-4.0659
X4.626Y-4.1659
X4.626Y-4.2659
X4.626Y-4.3659
X4.626Y-4.4659
X4.626Y-4.5659
X4.626Y-4.6659
X4.626Y-4.7659
M30
